<?xml version="1.0" encoding="utf-8"?>
<!-- Generated by IcoMoon.io -->
<svg version="1.1" xmlns="http://www.w3.org/2000/svg" xmlns:xlink="http://www.w3.org/1999/xlink" width="752" height="128" viewBox="0 0 752 128">
<svg id="v-vumc" width="39" height="32" viewBox="0 0 39 32" x="0" y="0">
<path d="M38.060 1.164v2.024l-1.206 0.008c-1.321 0.307-2.249 0.964-2.748 2.002l-10.345 26.397h-8.212l-10.919-27.062c-0.427-0.895-1.093-1.339-1.999-1.326h-1.649v-2.019h16.672v2.070h-2.118c-0.935 0.188-1.132 0.695-0.6 1.515l2.079 1.869c0.716 0.638 1.361 1.359 1.826 2.287 0.204 0.716-0.040 1.066-0.868 0.989-0.485-0.046-0.899-0.23-1.437-0.464-0.546-0.163-1.115-0.245-1.723-0.199-0.398 0.012-0.647 0.178-0.76 0.484-0.155 0.46-0.118 0.883 0.122 1.264 1.027 1.306 2.414 2.079 3.994 2.567 1.034 0.546 1.798 1.29 2.404 2.181l1.117 3.424-1.095-0.341c-0.489-0.145-0.799-0.459-0.941-0.93l-0.581-1.312c-0.051-0.192-0.205-0.279-0.458-0.266-0.288 0.019-0.436 0.185-0.429 0.513-0.029 1.269-0.301 2.406-0.971 3.327-0.108 0.735 0.184 0.88 0.815 0.525l1.479-0.983c0.281-0.031 0.557-0.010 0.834 0.034 0.424 0.066 0.805 0.189 1.218 0.392 0.325 0.216 0.612 0.485 0.866 0.801l1.248 3.537 1.193 0.105-0.518-1.627c-0.47-1.247-0.225-2.273 0.338-3.199l2.771-3.6c0.247-1.049 0.363-1.942-0.554-1.601l-1.438 0.714c-0.486 0.106-0.965 0.201-1.106-0.283-0.036-0.699 0.151-1.311 0.498-1.861l2.906-4.042c0.248-0.502 0.032-0.899-0.334-1.262-0.189-0.268-0.458-0.354-0.842-0.179l-2.623 1.695c-0.366 0.359-0.754 0.387-1.164 0.085-0.54-0.718-0.358-1.405 0.168-2.075l1.82-2.721c0.537-1.068 0.011-1.467-1.143-1.47h-2.228v-1.981h16.642zM16.612 20.018c0.594-1.078 1.047-2.203 0.888-3.534-0.465-0.138-1.007-0.222-1.631-0.249-0.43-0.019-2.297 0.884-1.448 2.682 0.497 0.565 1.216 0.942 2.19 1.101z"></path>
<path d="M38.060 1.164v2.024l-1.206 0.008c-1.321 0.307-2.249 0.964-2.748 2.002l-10.345 26.397h-8.212l-10.919-27.062c-0.427-0.895-1.093-1.339-1.999-1.326h-1.649v-2.019h16.672v2.070h-2.118c-0.935 0.188-1.132 0.695-0.6 1.515l2.079 1.869c0.716 0.638 1.361 1.359 1.826 2.287 0.204 0.716-0.040 1.066-0.868 0.989-0.485-0.046-0.899-0.23-1.437-0.464-0.546-0.163-1.115-0.245-1.723-0.199-0.398 0.012-0.647 0.178-0.76 0.484-0.155 0.46-0.118 0.883 0.122 1.264 1.027 1.306 2.414 2.079 3.994 2.567 1.034 0.546 1.798 1.29 2.404 2.181l1.117 3.424-1.095-0.341c-0.489-0.145-0.799-0.459-0.941-0.93l-0.581-1.312c-0.051-0.192-0.205-0.279-0.458-0.266-0.288 0.019-0.436 0.185-0.429 0.513-0.029 1.269-0.301 2.406-0.971 3.327-0.108 0.735 0.184 0.88 0.815 0.525l1.479-0.983c0.281-0.031 0.557-0.010 0.834 0.034 0.424 0.066 0.805 0.189 1.218 0.392 0.325 0.216 0.612 0.485 0.866 0.801l1.248 3.537 1.193 0.105-0.518-1.627c-0.47-1.247-0.225-2.273 0.338-3.199l2.771-3.6c0.247-1.049 0.363-1.942-0.554-1.601l-1.438 0.714c-0.486 0.106-0.965 0.201-1.106-0.283-0.036-0.699 0.151-1.311 0.498-1.861l2.906-4.042c0.248-0.502 0.032-0.899-0.334-1.262-0.189-0.268-0.458-0.354-0.842-0.179l-2.623 1.695c-0.366 0.359-0.754 0.387-1.164 0.085-0.54-0.718-0.358-1.405 0.168-2.075l1.82-2.721c0.537-1.068 0.011-1.467-1.143-1.47h-2.228v-1.981h16.642zM16.612 20.018c0.594-1.078 1.047-2.203 0.888-3.534-0.465-0.138-1.007-0.222-1.631-0.249-0.43-0.019-2.297 0.884-1.448 2.682 0.497 0.565 1.216 0.942 2.19 1.101z"></path>
<path d="M38.060 1.164v2.024l-1.206 0.008c-1.321 0.307-2.249 0.964-2.748 2.002l-10.345 26.397h-8.212l-10.919-27.062c-0.427-0.895-1.093-1.339-1.999-1.326h-1.649v-2.019h16.672v2.070h-2.118c-0.935 0.188-1.132 0.695-0.6 1.515l2.079 1.869c0.716 0.638 1.361 1.359 1.826 2.287 0.204 0.716-0.040 1.066-0.868 0.989-0.485-0.046-0.899-0.23-1.437-0.464-0.546-0.163-1.115-0.245-1.723-0.199-0.398 0.012-0.647 0.178-0.76 0.484-0.155 0.46-0.118 0.883 0.122 1.264 1.027 1.306 2.414 2.079 3.994 2.567 1.034 0.546 1.798 1.29 2.404 2.181l1.117 3.424-1.095-0.341c-0.489-0.145-0.799-0.459-0.941-0.93l-0.581-1.312c-0.051-0.192-0.205-0.279-0.458-0.266-0.288 0.019-0.436 0.185-0.429 0.513-0.029 1.269-0.301 2.406-0.971 3.327-0.108 0.735 0.184 0.88 0.815 0.525l1.479-0.983c0.281-0.031 0.557-0.010 0.834 0.034 0.424 0.066 0.805 0.189 1.218 0.392 0.325 0.216 0.612 0.485 0.866 0.801l1.248 3.537 1.193 0.105-0.518-1.627c-0.47-1.247-0.225-2.273 0.338-3.199l2.771-3.6c0.247-1.049 0.363-1.942-0.554-1.601l-1.438 0.714c-0.486 0.106-0.965 0.201-1.106-0.283-0.036-0.699 0.151-1.311 0.498-1.861l2.906-4.042c0.248-0.502 0.032-0.899-0.334-1.262-0.189-0.268-0.458-0.354-0.842-0.179l-2.623 1.695c-0.366 0.359-0.754 0.387-1.164 0.085-0.54-0.718-0.358-1.405 0.168-2.075l1.82-2.721c0.537-1.068 0.011-1.467-1.143-1.47h-2.228v-1.981h16.642zM16.612 20.018c0.594-1.078 1.047-2.203 0.888-3.534-0.465-0.138-1.007-0.222-1.631-0.249-0.43-0.019-2.297 0.884-1.448 2.682 0.497 0.565 1.216 0.942 2.19 1.101z"></path>
</svg>
<svg id="v-redcap" width="32" height="32" viewBox="0 0 32 32" x="48" y="0">
<path d="M5.869 18.733l-0.489-4.484c-0.24-1.659-0.099-3.082 0.462-4.247 2.005-3.945 5.007-6.498 9.512-6.951 0.015-0.373 0.302-0.635 0.799-0.811 0.507 0.014 0.806 0.122 0.887 0.327 3.789-0.719 7.108-0.293 9.834 1.584 3.031 3.134 4.47 6.749 4.848 10.685l-3.987 1.318c-1.131 0.392-2.062 1.016-2.746 1.928-1.24 2.831-2.985 5.336-4.963 7.692-1.25 1.744-2.826 2.691-4.703 2.904-1.563 0.348-3.123 0.38-4.68 0.147l-6.284-2.003c-0.452 0.983-0.992 1.914-1.934 2.618-0.651 0.398-1.301 0.467-1.948-0.116-0.367-0.511-0.138-1.043 0.268-1.58l4.42-6.525c0.639-0.668 0.943-1.469 0.704-2.485"></path>
</svg>
<svg id="v-myredcap" width="32" height="32" viewBox="0 0 32 32" x="96" y="0">
<path d="M1.042 21.294v-10.122h1.535v1.42c0.318-0.496 0.74-0.894 1.268-1.196s1.128-0.453 1.801-0.453c0.75 0 1.365 0.156 1.844 0.467s0.818 0.747 1.015 1.306c0.801-1.182 1.843-1.773 3.126-1.773 1.004 0 1.776 0.278 2.316 0.834s0.81 1.412 0.81 2.569v6.948h-1.706v-6.376c0-0.686-0.055-1.18-0.167-1.482s-0.313-0.545-0.605-0.729c-0.292-0.184-0.635-0.276-1.029-0.276-0.712 0-1.303 0.237-1.773 0.71s-0.705 1.231-0.705 2.273v5.881h-1.716v-6.577c0-0.762-0.14-1.334-0.419-1.716s-0.737-0.572-1.373-0.572c-0.483 0-0.929 0.127-1.339 0.381s-0.707 0.626-0.891 1.115c-0.184 0.489-0.277 1.195-0.277 2.116v5.252h-1.716z"></path>
<path d="M17.226 25.192l-0.191-1.611c0.375 0.102 0.702 0.152 0.982 0.152 0.381 0 0.686-0.064 0.915-0.191s0.416-0.305 0.562-0.534c0.108-0.172 0.283-0.597 0.524-1.277 0.032-0.096 0.083-0.235 0.152-0.419l-3.841-10.141h1.849l2.106 5.862c0.273 0.744 0.518 1.525 0.734 2.345 0.197-0.788 0.432-1.557 0.705-2.307l2.163-5.9h1.716l-3.851 10.294c-0.413 1.112-0.734 1.878-0.962 2.297-0.305 0.566-0.654 0.98-1.048 1.244s-0.864 0.396-1.411 0.396c-0.331 0-0.699-0.070-1.106-0.21z"></path>
<path d="M29.399 23.382c-0.036-1.505-0.163-3.007-0.473-4.503 0.86-0.865 1.562-1.845 2.079-2.96 0.391-0.893 0.396-1.892 0.18-2.95-0.392-0.827-0.913-1.576-1.561-2.252 0.109-0.221 0.132-0.46 0.038-0.724-0.16-0.134-0.331-0.157-0.506-0.124-0.745-0.777-1.624-1.369-2.649-1.76-0.971-0.413-2.077-0.499-3.349-0.182-0.745 0.404-1.455 0.868-2.066 1.502-0.327 0.277-0.617 0.508-0.888 0.714 1.141 2.377 2.697 4.473 4.654 6.298-0.178 1.081-0.131 2.096 0.218 3.021 0.378 1.118 0.827 2.2 1.808 3.002 0.267 0.414 0.626 0.702 1.070 0.873 0.48 0.137 0.961 0.155 1.445 0.045"></path>
</svg>
<svg id="v-redcapmobile" width="32" height="32" viewBox="0 0 32 32" x="144" y="0">
<path d="M11.436 9.942h8.421c1.453 0 2.721 0.151 3.806 0.454s1.987 0.727 2.708 1.272 1.263 1.192 1.626 1.94c0.363 0.748 0.545 1.563 0.545 2.443 0 0.639-0.124 1.241-0.372 1.808s-0.594 1.090-1.040 1.569c-0.446 0.479-0.985 0.903-1.618 1.271s-1.329 0.675-2.088 0.916l7.975 10.716h-5.977l-7.513-10.121h-0.974v10.121h-5.498v-22.389zM16.934 20.245h1.189c0.671 0 1.293-0.093 1.866-0.28s1.068-0.454 1.486-0.801c0.418-0.347 0.746-0.773 0.982-1.28s0.355-1.079 0.355-1.717c0-0.594-0.091-1.139-0.272-1.634s-0.432-0.922-0.751-1.28c-0.319-0.358-0.704-0.636-1.156-0.834s-0.941-0.297-1.47-0.297h-2.229v8.123z"></path>
<path d="M5.629 12.261l-0.354-3.243c-0.174-1.2-0.072-2.229 0.334-3.071 1.45-2.853 3.621-4.699 6.879-5.027 0.011-0.27 0.218-0.459 0.578-0.586 0.367 0.010 0.583 0.088 0.642 0.236 2.74-0.52 5.14-0.212 7.112 1.145 2.192 2.267 3.233 4.881 3.506 7.727l-2.884 0.953c-0.818 0.284-1.492 0.735-1.986 1.394-0.897 2.047-2.159 3.859-3.589 5.563-0.904 1.261-2.044 1.946-3.401 2.1-1.13 0.252-2.258 0.275-3.385 0.107l-4.544-1.449c-0.327 0.711-0.718 1.385-1.399 1.893-0.471 0.288-0.941 0.337-1.409-0.084-0.265-0.37-0.1-0.754 0.194-1.143l3.197-4.719c0.462-0.483 0.682-1.062 0.509-1.797z"></path>
</svg>
<svg id="v-pegasus" width="32" height="32" viewBox="0 0 32 32" x="192" y="0">
<path d="M1.372 9.783l4.41-0.54c4.669 0.090 9.332 0.54 13.991 1.381 3.509 0.276 6.745 0.255 9.618-0.168l1.564-0.163-4.257 4.408c-1.58 0.175-4.882-0.198-6.472-0.432-0.419-0.311-8.031-1.505-9.712-0.949 1.771 0.248 3.506 0.651 5.177 1.328 1.381 0.508 2.774 0.855 4.178 1.060l4.536 0.3-5.064 3.375c-0.666 0.308-1.552 0.362-2.609 0.219l-3.505-1.753c-0.965-0.233-2.049-0.258-3.009-0.24 1.329 0.345 5.665 2.28 6.373 3.028-2.178 1.102-4.43 2.076-6.757 2.919-1.168 0.068-2.342-0.024-3.523-0.306-1.415-0.315-2.75-0.906-3.992-1.82l-0.034-4.988 1.404 1.422 0.2 1.873c0.885 0.060 1.633-0.051 1.953-0.702 0.372-0.46 0.576-1.109 0.65-1.906 0.119-1.356 0.139-2.719 0.084-4.089 0.37-0.095 0.64-0.316 0.828-0.642-0.852-0.867-1.934-1.548-3.304-1.996-0.915-0.095-1.826-0.257-2.728-0.618"></path>
<path d="M6.577 23.263c7.517-3.21 7.88-3.887 7.88-3.887 0.784 0.347 1.493 0.762 2.131 1.243-2.134 1.117-4.391 2.090-6.74 2.959-1.211 0.019-2.318-0.070-3.272-0.315"></path>
<path d="M15.416 18.924l4.95-3.166 3.992 0.287-4.941 3.346c-0.946 0.33-1.847 0.38-2.711 0.201l-1.29-0.667"></path>
<path d="M22.228 14.485l4.134-3.731 4.584-0.433-4.217 4.399c-1.511 0.094-3.009-0.016-4.5-0.236"></path>
</svg>
<svg id="v-esmart" width="32" height="32" viewBox="0 0 32 32" x="240" y="0">
<path d="M16.087 0.805c8.279 0 15 6.721 15 15s-6.721 15-15 15c-8.278 0-15-6.721-15-15s6.721-15 15-15zM24.79 16.738c0.012-0.375 0.018-0.656 0.018-0.844 0-3.082-0.791-5.473-2.373-7.172s-3.622-2.549-6.117-2.549c-2.578 0-4.675 0.867-6.293 2.601s-2.425 4.172-2.425 7.313c0 3.035 0.8 5.394 2.399 7.075s3.765 2.523 6.495 2.523c2.168 0 3.949-0.527 5.343-1.582s2.349-2.537 2.866-4.447l-3.27-0.404c-0.48 1.335-1.131 2.308-1.951 2.918s-1.811 0.914-2.971 0.914c-1.559 0-2.86-0.545-3.902-1.635s-1.623-2.66-1.74-4.711h13.921zM11.043 14.136h10.424c-0.14-1.57-0.539-2.748-1.195-3.533-1.008-1.219-2.314-1.829-3.92-1.829-1.453 0-2.675 0.486-3.665 1.459s-1.538 2.274-1.643 3.902z"></path>
</svg>
<svg id="v-researchmatch" width="32" height="32" viewBox="0 0 32 32" x="288" y="0">
<path d="M10.459 9.312h2.102l0.040 5.678-2.188-0.002c-2.098 0.201-3.096 1.249-4.041 3.6v10.095h-5.674l0.016-19.371h5.732l-0.074 3.761c1.092-1.801 2.278-3.607 4.087-3.761v0z"></path>
<path d="M7.035 4.948c0 1.718-1.393 3.111-3.111 3.111s-3.111-1.393-3.111-3.111c0-1.718 1.393-3.111 3.111-3.111s3.111 1.393 3.111 3.111z"></path>
<path d="M31.005 4.948c0 1.718-1.393 3.111-3.111 3.111s-3.111-1.393-3.111-3.111c0-1.718 1.393-3.111 3.111-3.111s3.111 1.393 3.111 3.111z"></path>
<path d="M19.52 4.948c0 1.718-1.393 3.111-3.111 3.111s-3.111-1.393-3.111-3.111c0-1.718 1.393-3.111 3.111-3.111s3.111 1.393 3.111 3.111z"></path>
<path d="M19.296 28.537h-5.607v-16.54l0.018-2.685c2.203 0.090 3.749 0.794 4.364 2.574 0.887-1.772 3.361-3.048 6.269-3.048 3.654 0 6.62 2.014 6.62 4.494 0 0.18 0.019 0.394-0.011 0.569l-0.035 14.628h-5.501v-9.778h0.044v-2.393h-0.003c-0.060-1.818-1.425-3.273-3.097-3.273-1.71 0-3.099 1.523-3.099 3.399 0 0.181 0.013 0.359 0.038 0.532v11.521z"></path>
</svg>
<svg id="v-starbrite" width="32" height="32" viewBox="0 0 32 32" x="336" y="0">
<path d="M16.087 0.805c-8.278 0-15 6.721-15 15s6.721 15 15 15c8.279 0 15-6.721 15-15s-6.721-15-15-15zM16.042 6.446l2.245 6.69h7.265l-5.878 4.135 2.245 6.69-5.878-4.134-5.878 4.134 2.245-6.69-5.878-4.135h7.265l2.245-6.69z"></path>
</svg>
<svg id="v-participants" width="32" height="32" viewBox="0 0 32 32" x="384" y="0">
<path d="M22.655 6.579c0.765 0.195 1.531 0.309 2.28 0.586 3.224 1.156 5.065 3.404 5.455 6.823 0.244 2.15 0.033 4.25-0.977 6.205-1.14 2.231-3.045 3.501-5.407 4.153-1.258 0.336-2.557 0.495-3.86 0.472-1.368 0.016-2.736 0.016-4.104 0-0.358 0-0.489 0.081-0.472 0.456 0.016 2.101 0 4.202 0.016 6.302 0 0.342-0.098 0.423-0.44 0.423-1.889-0.016-3.778-0.016-5.651 0-0.342 0-0.423-0.081-0.423-0.423 0.016-4.202 0.016-8.408 0-12.621 0-0.635 0.081-0.554-0.57-0.554h-0.489c0.033-0.244 0.228-0.179 0.375-0.195 0.537-0.065 0.537-0.049 0.537-0.603 0-1.449-0.016-2.899 0-4.332-0.016-2.101-0.016-4.202 0-6.302 0-0.472 0.13-0.635 0.554-0.635 2.084-0.033 4.185-0.065 6.286-0.016 0.166 0.015 0.316 0.105 0.407 0.244 0.411 0.535 0.65 1.183 0.684 1.857-0.065 0.492-0.065 0.99 0 1.482 0.011 0.527-0.155 1.044-0.472 1.466-0.101 0.11-0.223 0.198-0.358 0.261-0.456 0.065-0.342 0.407-0.342 0.7 0 1.889 0.016 3.778 0 5.667-0.016 0.407 0 0.814-0.016 1.221 0 0.244 0.081 0.391 0.342 0.375 1.645-0.049 3.29 0.114 4.918-0.081 2.019-0.244 3.273-1.677 3.306-3.729 0.016-0.961-0.147-1.857-0.717-2.654-0.192-0.262-0.429-0.489-0.7-0.668-0.158-0.077-0.293-0.195-0.391-0.342-0.033-0.134-0.033-0.273 0-0.407 0.285-1.52 0.334-3.074 0.147-4.609 0-0.179-0.065-0.358 0.081-0.521z"></path>
<path d="M16.776 8.387c-0.13-0.733-0.309-1.433-0.879-1.954-0.159-0.080-0.311-0.173-0.456-0.277-0.814-0.651-1.775-0.879-2.768-0.896-1.335-0.033-2.687-0.016-4.022 0-0.505 0-0.537 0.033-0.537 0.537v6.823c0 0.505 0 0.505 0.521 0.537 0.152-0.005 0.301 0.041 0.423 0.13 0 1.563 0 3.143 0.016 4.706 0 0.261-0.081 0.358-0.342 0.342-0.228 0-0.489-0.098-0.7 0.065 0 2.231-0.016 4.478 0 6.709 0 0.375-0.098 0.472-0.472 0.456-1.889-0.016-3.778-0.016-5.651 0-0.293 0-0.391-0.065-0.391-0.375 0.016-8.251 0.016-16.513 0-24.786 0-0.326 0.098-0.407 0.407-0.407 3.599 0.016 7.182 0 10.781 0.016 2.068 0.016 4.104 0.293 5.977 1.27 2.166 1.124 3.485 2.899 3.99 5.293 0.049 0.717 0.163 1.449 0.163 2.166-0.015 1.131-0.13 2.259-0.342 3.371 0.081 0.228-0.033 0.423-0.098 0.619-0.896 2.443-2.606 4.071-5.032 4.951-0.43 0.162-0.87 0.293-1.319 0.391-0.163 0.033-0.309 0.098-0.472-0.016v-5.863c0.147-0.247 0.328-0.472 0.537-0.668 0.081-0.065 0.13-0.163 0.212-0.244 0.309-0.407 0.391-0.896 0.472-1.384-0.071-0.502-0.076-1.011-0.016-1.514z"></path>
<path d="M16.141 11.562c-0.14 0.265-0.341 0.494-0.586 0.668v-0.163c-0.081-0.391 0.081-0.57 0.489-0.521 0.049-0.033 0.081-0.016 0.098 0.016z"></path>
<path d="M16.776 8.387v1.547c-0.122-0.508-0.122-1.039 0-1.547z"></path>
<path d="M16.304 11.318c-0.018 0.1-0.077 0.189-0.163 0.244z"></path>
</svg>
<svg id="v-airflo" width="32" height="32" viewBox="0 0 32 32" x="432" y="0">
<path d="M0.372 12.807c0.166-1.458 0.982-2.904 2.185-4.371h16.011c0.046-2.336 1.956-4.218 4.303-4.218 2.375 0 4.303 1.928 4.303 4.303s-1.928 4.304-4.303 4.304l-22.499-0.018z"></path>
<path d="M18.696 17.977c2.469 0.016 4.469 2.025 4.469 4.498 0 2.483-2.016 4.498-4.498 4.498-2.406 0-4.373-1.893-4.493-4.269h-11.649c-1.103-1.065-1.879-2.633-2.311-4.727h18.482z"></path>
<path d="M27.383 13.188c2.501 0.016 4.526 2.051 4.526 4.556 0 2.514-2.042 4.556-4.556 4.556s-4.556-2.041-4.556-4.556c0-0.024 0-0.047 0-0.070h-22.576c-0.407-1.585-0.426-3.084 0-4.486h27.161z"></path>
</svg>
<svg id="v-noaac" width="32" height="32" viewBox="0 0 32 32" x="480" y="0">
<path d="M16.003 0.49c-8.457 0-15.324 6.866-15.324 15.324s6.867 15.324 15.324 15.324c8.458 0 15.324-6.866 15.324-15.324s-6.867-15.324-15.324-15.324zM16.054 3.064c7.135 0 12.928 5.793 12.928 12.928s-5.793 12.928-12.928 12.928c-7.135 0-12.928-5.793-12.928-12.928s5.793-12.928 12.928-12.928z"></path>
<path d="M16.011 4.416c-6.326 0-11.463 5.136-11.463 11.463s5.136 11.463 11.463 11.463 11.463-5.136 11.463-11.463c0-6.327-5.136-11.463-11.463-11.463zM14.301 6.018c1.29-0.745 2.415-0.722 3.379 0.050l0.302 0.004c0.261 0.081 0.4 0.234 0.393 0.474l0.017 0.811c0.032 0.25-0.027 0.413-0.205 0.467v12.826l3.020 3.235c0.132 0.464 0.084 0.804-0.104 1.046-0.576 0.742-1.39 0.889-2.216 0.412l-2.726-2.533-2.31 2.29c-0.912 0.771-2.044 0.754-2.783 0.219-0.671-0.486-1.017-1.324-0.496-2.257l3.346-3.431 0.060-11.713c-0.2-0.096-0.317-0.236-0.295-0.448l-0.008-1.032c0.023-0.264 0.29-0.399 0.627-0.42z"></path>
<path d="M17.169 6.029c-0 0.093-0.529 0.166-1.182 0.164s-1.181-0.079-1.181-0.171c0-0.093 0.529-0.166 1.182-0.164s1.181 0.079 1.181 0.171z"></path>
<path d="M12.647 25.225c-0.128 0.197-0.675 0.069-1.222-0.286s-0.888-0.802-0.76-0.999c0.128-0.197 0.675-0.069 1.222 0.286s0.888 0.802 0.76 0.999z"></path>
<path d="M20.907 24.047c0.149 0.197-0.092 0.629-0.537 0.965s-0.926 0.449-1.075 0.253c-0.149-0.197 0.092-0.629 0.537-0.965s0.926-0.449 1.075-0.253z"></path>
</svg>
<svg id="v-rocket" width="32" height="32" viewBox="0 0 32 32" x="528" y="0">
<path d="M15.74 10.676l-2.409-2.106-8.998 0.177 4.115 3.511 0.167 7.493-3.724 3.262 8.995-0.144 1.787-2.032c3.467-0.076 6.877-0.222 9.45-1.415l-0.060-7.444c-1.299-0.644-4.96-1.013-9.323-1.301zM21.836 14.027c0.893 0 1.617 0.724 1.617 1.617s-0.724 1.617-1.617 1.617c-0.892 0-1.617-0.724-1.617-1.617s0.724-1.617 1.617-1.617z"></path>
<path d="M25.596 12.138l0.070 7.060c2.46-0.783 4.25-2.332 5.961-3.809-1.765-1.34-3.582-2.625-6.030-3.251"></path>
<path d="M8.586 19.364l-1.634-0.028-1.065-1.644-0.010-3.372 1.020-1.449h1.575l0.114 6.493"></path>
<path d="M5.598 14.42l-0.003 3.221c-2.452-0.138-4.943 0.079-5.968-1.668 1.48-1.622 3.442-1.584 5.786-1.566"></path>
</svg>
<svg id="v-sphinx" width="32" height="32" viewBox="0 0 32 32" x="576" y="0">
<path d="M8.385 14.64l0.442-1.064-0.079-1.119-0.402-0.672 0.515-0.727 1.047-2.279c0.186-0.218 0.456-0.348 0.791-0.41l1.706-0.026c0.451 0.072 0.722 0.272 0.868 0.56 0.851 1.569 1.708 3.132 2.837 4.439 1.085 1.593 1.62 1.892 2.035 1.907l4.247 0.043 4.125-0.033c1.357 1.491 1.945 3.409 2.623 5.278 0.161 1.013-0.317 1.478-1.295 1.515l-5.439 0.006-1.073-0.5c0.121-0.272 0.392-0.518 0.857-0.732l0.793-0.011c0.364 0.085 0.663 0.181 0.932 0.284 0.322-0.026 0.608-0.038 0.852-0.032l-0.428-0.679-0.6-0.627c-0.603-0.234-1.261-0.306-1.987-0.174l-4.212 1.465c-1.415 0.14-2.854 0.155-4.325-0.011-1.178 0.020-2.233-0.291-3.239-0.731l-1.719 1.6h-7.334l1.178-1.178h4.142c0.669-0.672 1.253-1.405 1.726-2.219 0.213-0.72 0.511-1.369 0.885-1.955l1.469-1.767c0.104-0.326 0.091-0.637-0.039-0.933-0.028-0.144-0.123-0.307-0.264-0.481-0.251-0.138-0.495-0.113-0.733 0.077l-0.9 1.186"></path>
<path d="M16.624 12.93c0.794-1.446 1.911-2.608 3.316-3.517 0.929-0.526 1.914-0.835 2.949-0.949 1.129-0.075 1.907-0.025 2.387 0.132 1.055 0.231 1.807 0.529 2.374 0.866 0.853 0.502 1.463 1.030 1.906 1.576 0.668 0.73 1.161 1.438 1.541 2.131 0.336 0.791 0.535 1.599 0.596 2.424 0.090 0.766 0.113 1.462 0.096 2.117-0.046 0.842-0.264 1.565-0.665 2.161 0.025 0.121-1.159 0.896-1.46 0.536-0.191-0.228-0.289-0.641-0.447-1.075-0.435-1.2-1.020-2.753-2.368-4.506l-8.591-0.016c-0.833-0.384-1.332-1.11-1.635-1.879"></path>
</svg>
<svg id="v-ara4us" width="32" height="32" viewBox="0 0 32 32" x="624" y="0">
<path d="M-0.584 18.692c14.819-5.081 21.363-8.055 21.528-7.777 1.471-0.424 2.928-0.515 4.364-0.155 2.193 1.135 3.77 2.577 4.549 4.416 0.237 0.556 0.199 1.081-0.129 1.574-0.064 0.524-0.335 0.906-0.811 1.144l-4.683 0.13c-0.196-0.335-0.519-0.6-1.019-0.766l-10.257 0.564-13.541 0.869zM18.78 13.35l0.050 1.687 3.487-0.747-1.277-1.126-2.259 0.186zM22.646 11.282c0.772 0.652 1.49 1.32 2.027 2.039l3.581 0.036c-0.912-0.856-1.902-1.613-3.003-2.229l-2.606 0.154z"></path>
<path d="M-0.611 18.88l23.609-1.014c0.281 0.29 0.606 0.483 0.968 0.6l3.721 0.277 3.702 0.414-32-0.277"></path>
</svg>
<svg id="v-right" width="32" height="32" viewBox="0 0 32 32" x="672" y="0">
<path d="M11.087 19.349c1.143 0.018 2.321 0.516 2.907 1.581 0.279 0.507 0.073 1.112-0.141 1.685-0.172 0.481 0.225 1.023 0.308 1.548 0.248 1.583-1.982 2.939-3.906 2.516-2.147-0.472-3.529-3.141-2.53-5.229 0.601-1.257 1.932-2.109 3.363-2.101zM10.999 19.829c-1.495 0.029-2.87 1.209-3.115 2.696-0.262 1.593 0.85 3.307 2.434 3.677 1.044 0.243 2.196-0.082 2.963-0.843 0.369-0.366 0.525-0.919 0.323-1.413-0.11-0.261-0.251-0.511-0.294-0.787-0.083-0.538 0.348-1.045 0.38-1.548 0.032-0.509-0.389-0.902-0.734-1.18-0.546-0.439-1.278-0.605-1.957-0.601z"></path>
<path d="M13.833 24.359c0 0.469-0.146 0.849-0.326 0.849s-0.326-0.38-0.326-0.849c0-0.469 0.146-0.849 0.326-0.849s0.326 0.38 0.326 0.849z"></path>
<path d="M13.827 21.675c0 0.469-0.146 0.849-0.326 0.849s-0.326-0.38-0.326-0.849c0-0.469 0.146-0.849 0.326-0.849s0.326 0.38 0.326 0.849z"></path>
<path d="M15.992 19.349c1.719 0.033 3.301 1.391 3.582 3.098 0.302 1.834-0.983 3.799-2.799 4.222-1.217 0.284-2.561-0.106-3.442-1.002-0.477-0.484-0.696-1.195-0.383-1.937 0.193-0.445 0.298-0.837 0.014-1.439-0.1-0.219-0.177-0.452-0.169-0.692 0.047-1.38 1.73-2.26 3.197-2.25zM15.902 19.829c-0.937 0.015-1.908 0.379-2.446 1.267-0.097 0.16-0.18 0.344-0.183 0.535-0.003 0.252 0.135 0.477 0.24 0.698 0.098 0.211 0.104 0.239 0.133 0.355 0.189 0.749-0.625 1.499-0.285 2.223 0.645 1.373 2.977 1.825 4.432 0.782 1.243-0.891 1.702-2.718 0.998-4.102-0.538-1.058-1.681-1.764-2.89-1.758z"></path>
<path d="M2.183 15.763v-7.69h1.173v1.166c0.3-0.546 0.576-0.905 0.829-1.079s0.532-0.261 0.836-0.261c0.439 0 0.886 0.14 1.34 0.42l-0.449 1.209c-0.318-0.188-0.637-0.283-0.956-0.283-0.285 0-0.54 0.086-0.767 0.257s-0.389 0.409-0.485 0.713c-0.145 0.464-0.217 0.971-0.217 1.521v4.026h-1.303z"></path>
<path d="M7.143 6.647v-1.499h1.303v1.499h-1.303zM7.143 15.763v-7.69h1.303v7.69h-1.303z"></path>
<path d="M10.192 16.4l1.267 0.188c0.053 0.391 0.2 0.676 0.442 0.855 0.324 0.241 0.765 0.362 1.325 0.362 0.604 0 1.069-0.121 1.397-0.362s0.55-0.58 0.666-1.014c0.068-0.266 0.099-0.823 0.094-1.673-0.57 0.671-1.279 1.007-2.129 1.007-1.057 0-1.875-0.381-2.455-1.144s-0.869-1.678-0.869-2.745c0-0.734 0.133-1.411 0.398-2.031s0.65-1.1 1.155-1.437c0.504-0.338 1.097-0.507 1.778-0.507 0.908 0 1.656 0.367 2.245 1.101v-0.927h1.202v6.647c0 1.197-0.122 2.046-0.366 2.545s-0.63 0.894-1.158 1.184-1.179 0.435-1.951 0.435c-0.917 0-1.658-0.206-2.223-0.619s-0.838-1.034-0.818-1.865zM11.271 11.78c0 1.009 0.2 1.745 0.601 2.209s0.903 0.695 1.506 0.695c0.599 0 1.101-0.23 1.506-0.692s0.608-1.184 0.608-2.169c0-0.941-0.209-1.651-0.627-2.129s-0.921-0.717-1.51-0.717c-0.579 0-1.072 0.235-1.477 0.706s-0.608 1.17-0.608 2.096z"></path>
<path d="M18.678 15.763v-10.615h1.303v3.809c0.608-0.705 1.376-1.057 2.303-1.057 0.57 0 1.064 0.112 1.484 0.337s0.72 0.534 0.901 0.93 0.272 0.971 0.272 1.724v4.873h-1.303v-4.873c0-0.652-0.141-1.126-0.424-1.423s-0.682-0.445-1.198-0.445c-0.386 0-0.749 0.1-1.090 0.3s-0.583 0.472-0.728 0.815c-0.145 0.343-0.217 0.816-0.217 1.419v4.207h-1.303z"></path>
<path d="M29.772 14.597l0.188 1.151c-0.367 0.077-0.695 0.116-0.985 0.116-0.473 0-0.84-0.075-1.101-0.225s-0.444-0.346-0.55-0.59-0.159-0.757-0.159-1.539v-4.424h-0.956v-1.014h0.956v-1.904l1.296-0.782v2.686h1.311v1.014h-1.311v4.497c0 0.372 0.023 0.611 0.069 0.717s0.121 0.191 0.224 0.253c0.104 0.063 0.252 0.094 0.445 0.094 0.145 0 0.336-0.017 0.572-0.051z"></path>
</svg>
<svg id="v-trialstoday" width="32" height="32" viewBox="0 0 32 32" x="720" y="0">
<path d="M16.17 1.706c0.146 0.024 0.183 0.036 0.315 0.104l10.685 6.222c0.686 0.436 1.215 1.155 1.237 1.981v11.375c-0.029 0.825-0.386 1.617-0.999 2.164 0 0 0.006 0.010-0.145 0.109l-10.825 6.419c-0.38 0.199-0.448 0.189-0.811 0.003-3.612-2.104-7.248-4.17-10.837-6.313-0.726-0.445-1.237-1.202-1.342-2.048l-0.009-0.126v-11.249c0.053-0.998 0.702-1.907 1.539-2.435l10.708-6.105c0 0 0.042-0.125 0.484-0.1zM5.84 9.26c-0.376 0.272-0.734 0.647-0.8 1.125-0.45 3.694-0.001 7.443-0.001 11.165 0.046 0.366 0.292 0.683 0.621 0.875l10.366 6.038 10.354-6.14c0.264-0.241 0.409-0.591 0.425-0.954 0.134-3.78 0.318-7.579-0.001-11.348-0.030-0.293-0.496-0.639-0.496-0.639-2.887-1.999-7.13-4.485-8.847-5.488-1.914-1.118-0.873-1.101-2.801-0.006-1.789 1.016-5.276 3.054-8.822 5.372z"></path>
<path d="M19.855 16.226c0.551 0.053 0.54 0.204 0.657 0.431 0.158 0.306 0.228 0.429-0.172 0.992-0.246 0.341-0.507 0.672-0.79 0.982-1.177 1.289-3.018 2.256-4.822 1.554-1.293-0.504-2.403-1.525-3.049-2.685-0.369-0.662 0.711-1.679 1.346-0.86 0.297 0.408 0.358 0.477 0.544 0.692 0.103 0.119 0.209 0.235 0.318 0.348 0.093 0.095 0.188 0.187 0.286 0.276 0.075 0.068 0.151 0.133 0.229 0.196 0.753 0.605 1.856 0.893 2.77 0.39 0.812-0.447 1.432-1.199 1.974-1.974 0 0 0.325-0.354 0.709-0.34z"></path>
<path d="M15.845 19.284c1.861 0.033 3.376 1.728 4.174 3.289 0.173 0.339 0.328 0.687 0.467 1.041 0.185 0.47 0.141 1.066-0.353 1.268-1.062 0.434-1.481-1.714-2.229-2.687-0.082-0.106-0.167-0.21-0.257-0.309-0.067-0.074-0.135-0.146-0.207-0.215-0.76-0.739-2.092-1.027-3.023-0.161-0.801 0.745-1.263 1.816-1.597 2.884 0 0-0.175 0.424-0.541 0.53-0.6 0.174-1.188-0.391-0.919-1.218 0.174-0.526 0.379-1.041 0.631-1.533 0.076-0.15 0.157-0.298 0.243-0.443 0.731-1.239 1.884-2.376 3.465-2.443 0.048-0.001 0.097-0.002 0.145-0.002z"></path>
<path d="M17.354 16.176c0 0.625-0.576 1.132-1.288 1.132s-1.288-0.507-1.288-1.132c0-0.625 0.576-1.132 1.288-1.132s1.288 0.507 1.288 1.132z"></path>
<path d="M16.113 14.485c1.22 0.041 2.37 1.427 1.491 2.631-0.884 1.212-3.49 0.836-3.382-1.030 0.052-0.907 0.876-1.612 1.891-1.6zM16.046 15.604c-0.364 0.012-0.766 0.269-0.7 0.647 0.142 0.818 2.097 0.389 1.296-0.423-0.153-0.155-0.331-0.227-0.596-0.224z"></path>
<path d="M12.087 7.265c1.318 0.088 0.996 2.957 2.98 3.896 1.097 0.519 2.378-0.483 2.966-1.308 0.447-0.628 0.78-1.33 1.050-2.055 0 0 0.577-0.783 1.183-0.393 1.055 0.68-0.398 2.721-1.157 3.678-0.999 1.26-2.669 2.225-4.314 1.687-1.764-0.577-2.867-2.465-3.478-4.399-0.162-0.513 0.106-1.073 0.721-1.108 0.016 0 0.033 0 0.049 0z"></path>
<path d="M16.111 11.774c1.851 0.027 3.365 1.56 4.346 2.963 0 0 0.208 0.369 0.11 0.692-0.17 0.557-1.022 0.76-1.421 0.225-0.053-0.076-0.053-0.075-0.106-0.15-0.795-1.1-1.82-2.265-3.171-2.117-1.271 0.139-2.154 1.247-2.844 2.195 0 0-0.441 0.444-0.904 0.287-0.477-0.162-0.717-0.749-0.39-1.228 0.316-0.434 0.374-0.498 0.563-0.721 0.124-0.146 0.252-0.289 0.384-0.427 0.905-0.947 2.026-1.721 3.433-1.716z"></path>
</svg>
<svg id="v-rd" width="32" height="32" viewBox="0 0 32 32" x="0" y="48">
<path d="M30.428 2.86c0.395 0.086 0.453 0.177 0.48 0.554v24.708c-0.031 0.435-0.15 0.531-0.56 0.56h-28.732c-0.435-0.031-0.531-0.15-0.56-0.56v-24.708c0.031-0.435 0.15-0.531 0.56-0.56h28.732c0.027 0.002 0.053 0.004 0.080 0.006zM2.176 27.562h27.612v-23.588h-27.612c0 7.863 0 15.725 0 23.588z"></path>
<path d="M29.826 3.935v23.764h-27.694v-23.764h27.694zM22.156 22.003c0.732 0 1.379-0.068 1.943-0.206s1.045-0.34 1.444-0.606c0.399-0.267 0.766-0.632 1.101-1.097s0.611-1.052 0.825-1.761 0.322-1.523 0.322-2.442c0-1.078-0.158-2.036-0.474-2.875s-0.793-1.527-1.431-2.066c-0.49-0.418-1.081-0.707-1.774-0.866-0.495-0.116-1.212-0.173-2.153-0.173h-4.165v12.093h4.364zM16.274 22.003l-2.103-3.291c-0.418-0.644-0.86-1.18-1.328-1.609-0.22-0.198-0.542-0.399-0.965-0.602 1.16-0.16 2.018-0.533 2.573-1.122s0.833-1.312 0.833-2.17c0-0.665-0.168-1.273-0.503-1.823s-0.784-0.933-1.345-1.151-1.38-0.326-2.458-0.326h-5.362v12.093h1.6v-5.37h1.856c0.412 0 0.709 0.019 0.891 0.058 0.248 0.060 0.491 0.168 0.73 0.322s0.51 0.423 0.812 0.808 0.687 0.94 1.155 1.666l1.6 2.516h2.012zM21.933 11.338c0.951 0 1.642 0.082 2.070 0.247 0.594 0.231 1.099 0.686 1.514 1.365s0.623 1.651 0.623 2.916c0 0.913-0.106 1.69-0.318 2.33s-0.507 1.151-0.887 1.53c-0.269 0.269-0.631 0.478-1.085 0.627s-1.079 0.223-1.876 0.223h-2.582v-9.239h2.541zM11.044 11.247c0.897 0 1.552 0.184 1.967 0.553s0.623 0.839 0.623 1.411c0 0.39-0.107 0.752-0.322 1.085s-0.528 0.575-0.94 0.726c-0.412 0.151-0.984 0.227-1.716 0.227h-3.44v-4.001h3.828z"></path>
</svg>
<svg id="v-sd" width="32" height="32" viewBox="0 0 32 32" x="48" y="48">
<path d="M30.428 2.86c0.395 0.086 0.453 0.177 0.48 0.554v24.708c-0.031 0.435-0.15 0.531-0.56 0.56h-28.732c-0.435-0.031-0.531-0.15-0.56-0.56v-24.708c0.031-0.435 0.15-0.531 0.56-0.56h28.732c0.027 0.002 0.053 0.004 0.080 0.006zM2.176 27.562h27.612v-23.588h-27.612c0 7.863 0 15.725 0 23.588z"></path>
<path d="M29.826 3.935v23.764h-27.694v-23.764h27.694zM5.047 18.118c0.022 0.808 0.243 1.533 0.664 2.174s1.001 1.12 1.74 1.439c0.74 0.319 1.657 0.478 2.751 0.478 0.863 0 1.64-0.158 2.33-0.474s1.22-0.759 1.588-1.328c0.369-0.569 0.553-1.175 0.553-1.819 0-0.649-0.168-1.222-0.503-1.72s-0.855-0.909-1.559-1.233c-0.484-0.22-1.376-0.477-2.677-0.771s-2.105-0.582-2.413-0.862c-0.314-0.281-0.47-0.638-0.47-1.072 0-0.5 0.221-0.928 0.664-1.283s1.148-0.532 2.116-0.532c0.929 0 1.632 0.195 2.108 0.586s0.755 0.968 0.837 1.732l1.534-0.116c-0.028-0.709-0.225-1.345-0.594-1.905s-0.895-0.986-1.58-1.275c-0.685-0.289-1.475-0.433-2.372-0.433-0.814 0-1.554 0.137-2.219 0.412s-1.171 0.678-1.518 1.209c-0.346 0.531-0.52 1.101-0.52 1.712 0 0.556 0.142 1.057 0.425 1.505s0.714 0.824 1.291 1.126c0.445 0.236 1.224 0.488 2.334 0.755s1.828 0.463 2.153 0.59c0.506 0.192 0.869 0.43 1.089 0.714s0.33 0.614 0.33 0.994c0 0.374-0.114 0.719-0.342 1.035s-0.576 0.565-1.044 0.747c-0.467 0.181-1.006 0.272-1.617 0.272-0.687 0-1.306-0.12-1.856-0.359s-0.956-0.553-1.217-0.94c-0.261-0.388-0.428-0.884-0.499-1.489l-1.509 0.132zM21.223 22.003c0.732 0 1.379-0.068 1.943-0.206s1.045-0.34 1.444-0.606c0.399-0.267 0.766-0.632 1.101-1.097s0.611-1.052 0.825-1.761 0.322-1.523 0.322-2.442c0-1.078-0.158-2.036-0.474-2.875s-0.793-1.527-1.431-2.066c-0.49-0.418-1.081-0.707-1.773-0.866-0.495-0.116-1.213-0.173-2.153-0.173h-4.165v12.093h4.364zM21.001 11.338c0.951 0 1.642 0.082 2.070 0.247 0.594 0.231 1.099 0.686 1.514 1.365s0.623 1.651 0.623 2.916c0 0.913-0.106 1.69-0.318 2.33s-0.507 1.151-0.887 1.53c-0.269 0.269-0.631 0.478-1.084 0.627s-1.079 0.223-1.877 0.223h-2.582v-9.239h2.54z"></path>
</svg>
<svg id="v-studies" width="32" height="32" viewBox="0 0 32 32" x="96" y="48">
<path d="M0.549 11.295h31.081v9.479h-31.081v-9.479zM27.73 18.913c0.592 0 1.068-0.147 1.427-0.442s0.539-0.685 0.539-1.172c0-0.343-0.096-0.636-0.287-0.881s-0.529-0.504-1.013-0.779l-0.401-0.227c-0.348-0.199-0.587-0.37-0.718-0.514s-0.196-0.309-0.196-0.495c0-0.222 0.090-0.406 0.268-0.552s0.406-0.219 0.68-0.219c0.29 0 0.73 0.116 1.32 0.348v-0.726c-0.479-0.144-0.934-0.216-1.365-0.216-0.484 0-0.882 0.139-1.195 0.418s-0.469 0.633-0.469 1.064c0 0.32 0.098 0.601 0.293 0.841s0.531 0.497 1.007 0.769l0.386 0.223c0.335 0.189 0.565 0.36 0.69 0.514s0.187 0.34 0.187 0.559c0 0.267-0.095 0.483-0.285 0.647s-0.442 0.245-0.754 0.245c-0.406 0-0.924-0.146-1.554-0.438v0.786c0.585 0.164 1.065 0.246 1.44 0.246zM3.861 18.913c0.592 0 1.068-0.147 1.427-0.442s0.539-0.685 0.539-1.172c0-0.343-0.096-0.636-0.287-0.881s-0.529-0.504-1.013-0.779l-0.401-0.227c-0.348-0.199-0.587-0.37-0.718-0.514s-0.197-0.309-0.197-0.495c0-0.222 0.090-0.406 0.268-0.552s0.406-0.219 0.681-0.219c0.29 0 0.73 0.116 1.319 0.348v-0.726c-0.479-0.144-0.934-0.216-1.365-0.216-0.484 0-0.882 0.139-1.195 0.418s-0.469 0.633-0.469 1.064c0 0.32 0.098 0.601 0.293 0.841s0.531 0.497 1.008 0.769l0.386 0.223c0.335 0.189 0.565 0.36 0.69 0.514s0.187 0.34 0.187 0.559c0 0.267-0.095 0.483-0.285 0.647s-0.442 0.245-0.754 0.245c-0.406 0-0.924-0.146-1.554-0.438v0.786c0.585 0.164 1.065 0.246 1.44 0.246zM11.65 13.178h-0.794v3.524c0 0.754 0.166 1.311 0.499 1.671s0.848 0.54 1.546 0.54c0.685 0 1.185-0.174 1.499-0.522s0.471-0.904 0.471-1.667v-3.546h-0.696v3.557c0 0.575-0.092 0.982-0.278 1.223s-0.5 0.361-0.943 0.361c-0.454 0-0.784-0.128-0.992-0.384s-0.312-0.665-0.312-1.227v-3.531zM21.926 18.773v-5.595h-0.794v5.595h0.794zM26.191 18.773v-0.594h-2.495v-2.026h1.955v-0.586h-1.955v-1.796h2.332v-0.594h-3.126v5.595h3.289zM17.661 13.178h-1.86v5.595h1.871c0.892 0 1.584-0.256 2.076-0.767s0.737-1.232 0.737-2.163c0-0.766-0.198-1.384-0.594-1.852-0.249-0.295-0.545-0.504-0.886-0.628s-0.789-0.185-1.344-0.185zM10.579 13.772v-0.594h-4.763v0.594h1.985v5.002h0.794v-5.002h1.985zM17.249 13.772c0.542 0 0.948 0.042 1.217 0.127s0.502 0.241 0.696 0.471c0.32 0.375 0.48 0.892 0.48 1.55 0 0.7-0.163 1.259-0.488 1.675-0.303 0.391-0.817 0.586-1.543 0.586h-1.017v-4.408h0.654z"></path>
</svg>
<svg id="v-tin" width="32" height="32" viewBox="0 0 32 32" x="144" y="48">
<path d="M23.206 8.761c0 0 1.044 0.245 1.803 0.529 2.648 0.991 5.794 2.972 4.307 5.753-0.251 0.469-0.786 1.045-0.786 1.045-0.031 0.046-0.063 0.092-0.095 0.137-2.692 3.747-7.557 5.477-11.982 6.99-2.182 0.746-4.39 1.414-6.595 2.088 0 0-0.235 0.038-0.352-0.11-0.132-0.166-0.050-0.434 0.161-0.516 5.639-1.723 11.65-3.228 16.020-6.595 0.882-0.679 1.69-1.467 2.32-2.387 0 0 1.153-1.135 0.991-2.261-0.103-0.72-0.584-1.325-1.086-1.815 0 0-1.223-0.894-2.455-1.44-0.755-0.335-1.543-0.589-2.348-0.773 0 0-0.581-0.645 0.097-0.645z"></path>
<path d="M20.753 6.273c0 0 0.563 0.187 0.954 0.32 2.090 0.719 4.186 1.5 6.045 2.696 0 0 1.195 0.969 0.43 2.039 0 0-1.449 0.612-2.804 0.963-5.298 1.37-10.836 1.58-16.225 1.421 0 0-0.235-0.040-0.298-0.217-0.222-0.619 1.383-0.399 2.734-0.396 5.436 0.013 10.962-0.348 16.056-2.194 0 0 0.171-0.167 0.181-0.377 0.018-0.354-0.442-0.697-0.442-0.697-2.075-1.335-4.453-2.132-6.794-2.925 0 0-0.513-0.701 0.162-0.632z"></path>
<path d="M18.058 5.172c3.127 0.737 6.188 1.771 9.063 3.214 0 0 1.473 1.003 1.291 2.249-0.072 0.493-0.363 0.942-0.71 1.315 0 0-0.69 0.449-1.259 0.769-4.943 2.78-10.591 4.107-16.257 4.55 0 0-0.144-0.005-0.213-0.095-0.107-0.139-0.015-0.364 0.175-0.394 5.982-0.468 11.972-1.954 17.105-5.108 0 0 0.783-0.666 0.675-1.441-0.082-0.593-0.559-1.040-1.004-1.383 0 0-0.836-0.428-1.499-0.725-2.404-1.074-4.92-1.871-7.48-2.474 0 0-0.113-0.039-0.157-0.118-0.091-0.161 0.039-0.394 0.27-0.359z"></path>
<path d="M23.979 21.986c0.181 0.014 0.208 0.074 0.251 0.133 0.107 0.145 0.067 0.364-0.090 0.471l-4.668 2.928c-0.297 0.171-0.724-0.298-0.348-0.554l4.668-2.928c0.054-0.031 0.067-0.050 0.187-0.050z"></path>
<path d="M23.854 5.381c0.254 0.036 0.259 0.073 0.362 0.111 1.391 0.527 2.721 1.273 3.71 2.388 0.254 0.264 0.284 0.306 0.405 0.457 0.762 0.949 1.16 2.287 0.513 3.476-0.854 1.57-2.849 2.808-4.583 3.898-6.269 3.942-13.861 4.998-21.112 5.446 0 0-0.206-0.003-0.337-0.097-0.343-0.246-0.2-0.886 0.272-0.948 8.79-0.544 17.993-1.991 24.18-8.090 0.261-0.257 0.62-0.639 0.62-0.639 0.535-0.899-0.033-2.071-0.728-2.793-0.288-0.325-0.388-0.412-0.602-0.595-0.848-0.728-1.872-1.224-2.916-1.6 0 0-0.82-1.019 0.215-1.014z"></path>
<path d="M22.518 10.435c0.198 0.036 0.198 0.036 0.395 0.067 1.775 0.271 3.6 0.241 5.251 1.037 1.082 0.522 1.522 2.7 0.458 4.053-3.865 4.913-11.4 6.23-18.041 8.25-2.168 0.662-4.326 1.36-6.455 2.146 0 0-0.232 0.058-0.39-0.022-0.334-0.167-0.341-0.723 0.050-0.899 5.939-2.193 12.318-3.49 18.018-5.926 2.317-0.99 4.597-2.217 6.126-4.259 0.515-0.71 0.598-1.926-0.026-2.375 0 0-2.565-0.743-4.353-0.932-0.832-0.092-2.121-0.365-1.464-1.008 0.095-0.094 0.158-0.163 0.431-0.132z"></path>
<path d="M23.49 8.265c2.184 0.305 4.254 1.493 5.56 3.253 1.028 1.386 0.806 2.774 0.509 3.994-0.082 0.338-0.292 0.739-0.292 0.739-3.803 5.111-10.529 7.235-16.678 9.578 0 0-0.846-0.326-0.233-0.611 0.325-0.124 0.65-0.248 0.976-0.372 5.64-2.166 11.663-4 15.345-8.896 0 0 0.983-2.576-0.217-4.127-1.213-1.569-3.086-2.634-5.060-2.91 0 0-0.584-0.693 0.090-0.648z"></path>
<path d="M24.259 11.497c2.283 0.026 5.509 0.745 4.596 2.726-0.125 0.272-0.404 0.602-0.404 0.602-0.143 0.149-0.204 0.163-0.307 0.24-5.605 4.136-12.544 6.203-19.482 7.518 0 0-0.253 0.092-0.415-0.020-0.213-0.146-0.146-0.518 0.124-0.592 6.463-1.212 12.88-3.009 18.354-6.703 0.131-0.089 0.261-0.178 0.39-0.269s0.258-0.182 0.386-0.274c0.475-0.344 0.437-0.213 0.698-0.66 0.698-1.195-2.658-2.103-5.376-1.846 0 0-1.442-0.665 1.112-0.721 0.108-0.002 0.216-0.002 0.323-0.002z"></path>
<path d="M29.304 16.953c1.082 0.098-0.776 2.899-2.778 4.129 0 0-0.234 0.094-0.38-0.027-0.361-0.299 0.484-0.778 1.033-1.244 0.821-0.697 1.456-1.608 1.795-2.634 0 0 0.081-0.23 0.329-0.224z"></path>
<path d="M19.453 23.712c0.574 0.099 0.291 0.527 0.091 0.625l-9.188 3.945c-0.33 0.122-0.671-0.398-0.258-0.601l9.188-3.945c0.066-0.025 0.086-0.029 0.167-0.024z"></path>
<path d="M19.103 10.698c0.399 0.003 0.796 0.036 1.189 0.1 0 0 0.251 0.064 0.252 0.249 0.001 0.308-0.534 0.186-1.026 0.155-0.756-0.048-1.514 0.034-2.256 0.193 0 0-0.436-0.107-0.255-0.377 0.072-0.108 0.22-0.118 0.351-0.144 0.574-0.112 1.156-0.176 1.744-0.176z"></path>
</svg>
<svg id="v-mid-south" width="32" height="32" viewBox="0 0 32 32" x="192" y="48">
<path d="M16.038 0.514c8.555 0 15.5 6.945 15.5 15.5s-6.945 15.5-15.5 15.5c-8.554 0-15.5-6.946-15.5-15.5s6.945-15.5 15.5-15.5zM24.659 17.843v-3.638h-0.617v1.949c0 0.31-0.034 0.548-0.101 0.711s-0.182 0.292-0.344 0.387c-0.162 0.095-0.336 0.142-0.521 0.142s-0.34-0.046-0.466-0.139c-0.126-0.092-0.208-0.22-0.247-0.382-0.025-0.112-0.038-0.329-0.038-0.651v-2.018h-0.617v2.254c0 0.263 0.013 0.454 0.038 0.576 0.036 0.18 0.1 0.333 0.19 0.457s0.228 0.228 0.414 0.31c0.186 0.082 0.387 0.123 0.601 0.123 0.487 0 0.871-0.206 1.154-0.617v0.534h0.551zM14.796 16.757c0.068 0.386 0.227 0.677 0.475 0.873s0.608 0.295 1.081 0.295c0.285 0 0.541-0.050 0.767-0.149s0.399-0.24 0.519-0.421c0.12-0.182 0.18-0.375 0.18-0.581 0-0.21-0.049-0.386-0.147-0.528s-0.233-0.249-0.406-0.323c-0.172-0.074-0.477-0.17-0.913-0.286-0.302-0.082-0.483-0.135-0.545-0.158-0.107-0.044-0.186-0.098-0.236-0.165-0.050-0.064-0.075-0.136-0.075-0.216 0-0.126 0.061-0.235 0.182-0.329s0.323-0.14 0.606-0.14c0.24 0 0.425 0.053 0.557 0.158s0.211 0.251 0.238 0.439l0.603-0.082c-0.039-0.235-0.11-0.423-0.213-0.564s-0.262-0.252-0.478-0.334c-0.216-0.082-0.467-0.123-0.752-0.123-0.189 0-0.367 0.025-0.533 0.074s-0.296 0.109-0.392 0.18c-0.128 0.092-0.229 0.206-0.303 0.345s-0.111 0.288-0.111 0.45c0 0.178 0.045 0.341 0.135 0.488s0.222 0.262 0.397 0.346c0.175 0.084 0.488 0.182 0.94 0.296 0.336 0.085 0.546 0.154 0.63 0.209 0.121 0.080 0.182 0.19 0.182 0.329 0 0.155-0.069 0.29-0.206 0.406s-0.347 0.173-0.63 0.173c-0.281 0-0.5-0.065-0.656-0.195s-0.252-0.317-0.286-0.562l-0.61 0.096zM17.956 16.024c0 0.614 0.157 1.085 0.471 1.411s0.725 0.49 1.235 0.49c0.317 0 0.61-0.074 0.879-0.223s0.473-0.357 0.613-0.625c0.14-0.268 0.211-0.637 0.211-1.105 0-0.578-0.159-1.031-0.476-1.358s-0.726-0.491-1.226-0.491c-0.45 0-0.831 0.135-1.144 0.404-0.374 0.325-0.562 0.823-0.562 1.497zM12.466 17.843v-5.022h-0.613v1.802c-0.107-0.149-0.247-0.269-0.418-0.362s-0.367-0.139-0.586-0.139c-0.299 0-0.57 0.079-0.812 0.236s-0.423 0.384-0.544 0.68-0.182 0.625-0.182 0.988c0 0.373 0.067 0.702 0.2 0.989s0.322 0.51 0.566 0.67c0.243 0.16 0.51 0.24 0.8 0.24 0.448 0 0.787-0.181 1.017-0.541v0.459h0.572zM25.986 14.205v-1.271l-0.614 0.37v0.901h-0.452v0.48h0.452v2.093c0 0.37 0.025 0.613 0.075 0.728s0.137 0.208 0.261 0.279c0.123 0.071 0.297 0.106 0.521 0.106 0.137 0 0.292-0.018 0.466-0.055l-0.089-0.545c-0.112 0.016-0.202 0.024-0.27 0.024-0.092 0-0.162-0.015-0.211-0.045s-0.085-0.069-0.106-0.12c-0.022-0.051-0.032-0.163-0.032-0.339v-2.128h0.62v-0.48h-0.62zM8.96 17.843v-3.638h-0.617v3.638h0.617zM29.808 17.843v-2.305c0-0.356-0.043-0.628-0.128-0.815s-0.228-0.334-0.427-0.44c-0.199-0.106-0.433-0.159-0.702-0.159-0.439 0-0.802 0.167-1.089 0.5v-1.802h-0.617v5.022h0.617v-1.991c0-0.285 0.034-0.509 0.103-0.671s0.183-0.29 0.344-0.385 0.333-0.142 0.516-0.142c0.244 0 0.433 0.071 0.567 0.211s0.2 0.365 0.2 0.673v2.305h0.617zM7.79 17.843v-2.497c0-0.416-0.097-0.723-0.291-0.923s-0.472-0.3-0.832-0.3c-0.461 0-0.836 0.212-1.124 0.637-0.071-0.201-0.193-0.357-0.365-0.469s-0.394-0.168-0.663-0.168c-0.242 0-0.458 0.054-0.648 0.163s-0.341 0.252-0.455 0.43v-0.51h-0.552v3.638h0.617v-1.888c0-0.331 0.033-0.584 0.099-0.761s0.173-0.309 0.32-0.401c0.147-0.092 0.308-0.137 0.482-0.137 0.228 0 0.393 0.069 0.493 0.206s0.151 0.343 0.151 0.617v2.364h0.616v-2.114c0-0.375 0.085-0.647 0.254-0.817s0.381-0.255 0.637-0.255c0.142 0 0.265 0.033 0.37 0.099s0.177 0.154 0.218 0.262c0.040 0.109 0.060 0.286 0.060 0.533v2.292h0.613zM18.59 16.024c0 0.466 0.102 0.815 0.305 1.046s0.459 0.348 0.767 0.348c0.306 0 0.561-0.116 0.764-0.349s0.305-0.588 0.305-1.065c0-0.45-0.102-0.791-0.307-1.023s-0.459-0.348-0.762-0.348c-0.308 0-0.564 0.115-0.767 0.346s-0.305 0.579-0.305 1.045zM9.945 16.027c0 0.466 0.098 0.814 0.295 1.045s0.428 0.346 0.695 0.346c0.269 0 0.498-0.11 0.687-0.33s0.283-0.557 0.283-1.009c0-0.498-0.096-0.863-0.288-1.096s-0.428-0.349-0.709-0.349c-0.274 0-0.503 0.112-0.687 0.336s-0.276 0.577-0.276 1.058zM14.726 16.335v-0.62h-1.895v0.62h1.895zM8.96 13.53v-0.709h-0.617v0.709h0.617z"></path>
</svg>
<svg id="v-stride" width="32" height="32" viewBox="0 0 32 32" x="240" y="48">
<path d="M26.87 19.36h4.107v1.076h-4.107v-1.076zM30.844 12.063h-2.813v2.973h2.627v1h-2.627v2.326h-1.16v-7.366h3.973v1.067z"></path>
<path d="M24.711 19.36c-0.614 0.717-1.45 1.076-2.507 1.076h-2.16v-1.076h1.187v0.023h0.973c0.105 0 0.207-0.008 0.308-0.023h2.199zM20.044 18.362v-7.366h2.173c1.12 0 1.989 0.404 2.607 1.213s0.927 1.982 0.927 3.52c0 1.048-0.146 1.925-0.438 2.633h-1.361c0.174-0.282 0.313-0.624 0.419-1.026 0.12-0.458 0.18-0.993 0.18-1.607 0-0.622-0.060-1.164-0.18-1.627s-0.284-0.844-0.493-1.147c-0.209-0.302-0.458-0.529-0.747-0.68s-0.598-0.227-0.927-0.227h-0.973v6.313h-1.187z"></path>
<path d="M17.31 19.36h1.2v1.076h-1.2v-1.076zM18.51 18.362h-1.2v-7.366h1.2v7.366z"></path>
<path d="M11.297 19.36h1.173v1.076h-1.173v-1.076zM14.755 19.36h1.262l0.427 1.076h-1.28l-0.409-1.076zM11.297 18.362v-7.366h2.44c0.347 0 0.674 0.046 0.98 0.14s0.576 0.242 0.807 0.447c0.231 0.204 0.413 0.471 0.547 0.8s0.2 0.724 0.2 1.187c0 0.382-0.049 0.716-0.147 1s-0.225 0.527-0.38 0.727-0.327 0.358-0.513 0.473c-0.187 0.116-0.369 0.191-0.547 0.227l0.938 2.366h-1.245l-0.812-2.139h-1.093v2.139h-1.173zM13.55 12.010h-1.080v3.28h1.107c0.453 0 0.818-0.144 1.093-0.433s0.413-0.7 0.413-1.233c0-0.32-0.044-0.582-0.133-0.787s-0.204-0.369-0.347-0.493c-0.142-0.124-0.307-0.211-0.493-0.26s-0.373-0.073-0.56-0.073z"></path>
<path d="M7.817 19.36h1.187v1.076h-1.187v-1.076zM10.804 12.023h-1.8v6.339h-1.187v-6.339h-1.8v-1.027h4.787v1.027z"></path>
<path d="M5.759 19.36c-0.115 0.223-0.253 0.417-0.416 0.583-0.227 0.231-0.495 0.409-0.807 0.533s-0.644 0.187-1 0.187c-0.48 0-0.935-0.1-1.366-0.3s-0.776-0.464-1.034-0.793c-0.073-0.142-0.018-0.213 0.171-0.21h1.366c0.286 0.131 0.573 0.196 0.863 0.196 0.28 0 0.526-0.066 0.736-0.196h1.486zM4.885 18.362c0.017-0.114 0.025-0.236 0.025-0.366 0-0.24-0.040-0.451-0.12-0.634s-0.191-0.347-0.333-0.493c-0.142-0.147-0.304-0.28-0.486-0.4s-0.38-0.233-0.594-0.34c-0.258-0.124-0.5-0.264-0.726-0.42s-0.429-0.336-0.607-0.54c-0.178-0.204-0.318-0.447-0.42-0.727s-0.153-0.611-0.153-0.993c0-0.453 0.071-0.849 0.213-1.187s0.331-0.618 0.567-0.84c0.236-0.222 0.504-0.387 0.806-0.493s0.609-0.16 0.92-0.16c0.453 0 0.86 0.076 1.22 0.227s0.66 0.378 0.9 0.68l-0.72 0.853c-0.338-0.444-0.791-0.667-1.36-0.667-0.169 0-0.335 0.029-0.5 0.087s-0.313 0.151-0.447 0.28c-0.133 0.129-0.24 0.291-0.32 0.487s-0.12 0.431-0.12 0.707c0 0.24 0.038 0.447 0.113 0.62s0.178 0.329 0.307 0.467c0.129 0.138 0.278 0.262 0.446 0.373s0.351 0.216 0.547 0.314c0.249 0.124 0.493 0.264 0.733 0.42s0.458 0.34 0.653 0.553c0.196 0.213 0.353 0.465 0.473 0.753s0.18 0.625 0.18 1.007c0 0.149-0.008 0.293-0.025 0.433h-1.174z"></path>
<path d="M1.044 17.892h1.545v0.706h-1.545v-0.706z"></path>
</svg>
<svg id="v-vcc" width="32" height="32" viewBox="0 0 32 32" x="288" y="48">
<path d="M16.347 6.436c2.99 0.028 5.773 1.517 7.85 3.863 0.745 0.842-0.291 1.598-1.010 0.79-2.447-2.72-6.245-4.229-9.978-2.724-2.973 1.199-4.835 4.312-5.323 7.622 0 0 0.481 3.627 2.13 5.553 1.519 1.774 3.965 2.537 6.364 2.58 0 0 0.573-0.027 1.045-0.085 2.72-0.337 5.438-1.733 6.566-4.656 0 0 0.374-0.541 0.828-0.366 0.887 0.343-0.028 2.044-1.022 3.241-2.2 2.646-6.283 3.468-9.328 2.99-2.488-0.39-4.824-1.705-6.21-3.947-0.956-1.547-1.432-3.35-1.652-5.132 0 0 0.205-1.93 0.83-3.505 1.356-3.419 4.622-5.868 8.453-6.216 0.152-0.005 0.304-0.008 0.457-0.007z"></path>
<path d="M16.323 4.080c1.525 0.010 3.042 0.277 4.508 0.72 0.724 0.219 0.694 1.543-0.492 1.189-4.473-1.301-9.324-0.209-12.702 3.385 0 0-0.401 0.3-0.739 0.141-0.361-0.17-0.471-0.694-0.194-1.017 0.089-0.095 0.089-0.095 0.179-0.189 2.43-2.511 5.675-4.188 9.259-4.229 0.060-0 0.12-0 0.18-0z"></path>
<path d="M4.961 15.324c0.314 0.036 0.564 0.292 0.592 0.609 0.005 0.109 0.005 0.109 0.011 0.218 0.259 4.235 3.012 7.932 7.101 9.774 0 0 0.398 0.259 0.376 0.622-0.029 0.476-0.495 0.732-1.134 0.439-3.307-1.543-6.106-4.226-7.125-7.77-0.291-1.012-0.449-2.055-0.502-3.109-0.007-0.135 0.109-0.803 0.682-0.783z"></path>
<path d="M27.305 18.993c0.274 0.019 0.29 0.073 0.371 0.137 0.517 0.408-0.027 1.408-0.472 2.268-1.215 2.344-3.268 4.207-5.69 5.302 0 0-0.452 0.126-0.709-0.124-0.356-0.345-0.197-0.861 0.443-1.164 2.496-1.197 4.449-3.333 5.432-6.001 0 0 0.21-0.398 0.585-0.419 0.013 0 0.027 0 0.040 0z"></path>
<path d="M19.62 1.949c0.193 0.023 0.202 0.040 0.286 0.060 4.075 1.016 7.439 3.918 9.62 7.676 0.321 0.553-0.047 1.411-0.713 1.097-0.221-0.104-0.335-0.353-0.449-0.549-1.992-3.373-5.063-6.111-8.94-7.023 0 0-0.868-0.617-0.26-1.117 0.118-0.097 0.197-0.154 0.456-0.144z"></path>
<path d="M12.986 1.905c0.675 0.052 0.973 1.005-0.23 1.363-2.189 0.659-4.22 1.821-5.817 3.474 0 0-0.288 0.244-0.589 0.182-0.445-0.092-0.7-0.665-0.332-1.072 0.079-0.082 0.079-0.082 0.159-0.163 1.794-1.797 4.087-3.056 6.545-3.744 0 0 0.045-0.044 0.265-0.040z"></path>
<path d="M4.343 8.266c0.317 0.032 0.338 0.107 0.424 0.197 0.488 0.512-0.359 1.529-0.759 2.547-0.882 2.25-1.106 4.733-0.752 7.148 0 0-0.045 0.617-0.493 0.717-0.699 0.156-0.867-1.038-0.925-1.97-0.177-2.851 0.458-5.707 1.869-8.243 0.131-0.236 0.347-0.403 0.637-0.396z"></path>
<path d="M3.996 21.458c0.411 0.071 0.353 0.099 0.602 0.52 1.499 2.484 3.729 4.517 6.365 5.704 5.030 2.264 11.623 1.64 15.35-3.057 0 0 0.44-0.363 0.806-0.165 0.886 0.48-0.732 2.218-2.302 3.324-0.34 0.239-0.691 0.461-1.052 0.665-5.487 3.098-12.973 1.928-17.595-2.466-1.069-1.017-1.991-2.193-2.735-3.458-0.139-0.236-0.147-1.105 0.561-1.067z"></path>
</svg>
<svg id="v-emerge" width="32" height="32" viewBox="0 0 32 32" x="336" y="48">
<path d="M2.256 13.809c0.486-0.041 0.832-0.141 1.037-0.3s0.307-0.358 0.307-0.599c0-0.143-0.035-0.252-0.104-0.326s-0.163-0.111-0.28-0.111c-0.123 0-0.237 0.037-0.342 0.111s-0.2 0.173-0.284 0.296c-0.084 0.123-0.155 0.265-0.211 0.426s-0.097 0.329-0.123 0.503zM2.233 14.040c-0.005 0.051-0.009 0.102-0.012 0.154s-0.004 0.105-0.004 0.161c0 0.118 0.010 0.233 0.031 0.346s0.056 0.212 0.108 0.3c0.051 0.087 0.122 0.157 0.211 0.211s0.204 0.081 0.342 0.081c0.133 0 0.271-0.024 0.415-0.073s0.289-0.124 0.438-0.227c0.051-0.036 0.087-0.054 0.108-0.054 0.041 0 0.068 0.020 0.081 0.061s0.019 0.072 0.019 0.092c-0.077 0.072-0.164 0.143-0.261 0.215s-0.202 0.136-0.315 0.192c-0.113 0.056-0.233 0.102-0.361 0.138s-0.261 0.054-0.399 0.054c-0.215 0-0.39-0.040-0.526-0.119s-0.243-0.182-0.323-0.307c-0.079-0.125-0.133-0.262-0.161-0.411s-0.042-0.292-0.042-0.43c0-0.271 0.042-0.54 0.127-0.806s0.204-0.504 0.357-0.714c0.154-0.21 0.34-0.379 0.561-0.507s0.466-0.192 0.737-0.192c0.108 0 0.212 0.014 0.315 0.042s0.193 0.070 0.273 0.127c0.079 0.056 0.143 0.131 0.192 0.223s0.073 0.202 0.073 0.33c0 0.189-0.050 0.352-0.15 0.488s-0.238 0.248-0.415 0.338c-0.177 0.090-0.385 0.157-0.626 0.204s-0.504 0.074-0.791 0.084z"></path>
<path d="M5.423 15.599v-4.978h0.755v0.698c0.156-0.244 0.364-0.44 0.623-0.588s0.555-0.223 0.886-0.223c0.369 0 0.671 0.076 0.907 0.23s0.403 0.367 0.499 0.642c0.394-0.581 0.906-0.872 1.538-0.872 0.494 0 0.874 0.137 1.139 0.41s0.398 0.694 0.398 1.263v3.417h-0.839v-3.136c0-0.338-0.028-0.58-0.082-0.729s-0.154-0.268-0.298-0.359-0.312-0.136-0.506-0.136c-0.35 0-0.641 0.116-0.872 0.349s-0.347 0.605-0.347 1.118v2.892h-0.844v-3.234c0-0.375-0.069-0.656-0.206-0.844s-0.362-0.281-0.675-0.281c-0.237 0-0.457 0.063-0.659 0.188s-0.348 0.308-0.438 0.548-0.136 0.588-0.136 1.041v2.583h-0.844z"></path>
<path d="M16.203 13.996l0.872 0.108c-0.138 0.509-0.392 0.905-0.764 1.186s-0.847 0.422-1.425 0.422c-0.728 0-1.305-0.224-1.732-0.673s-0.64-1.077-0.64-1.887c0-0.837 0.216-1.488 0.647-1.95s0.99-0.694 1.678-0.694c0.666 0 1.209 0.227 1.631 0.68s0.633 1.091 0.633 1.913c0 0.050-0.002 0.125-0.005 0.225h-3.712c0.031 0.547 0.186 0.965 0.464 1.256s0.625 0.436 1.041 0.436c0.309 0 0.573-0.081 0.792-0.244s0.392-0.422 0.52-0.778zM13.433 12.632h2.78c-0.038-0.419-0.144-0.733-0.319-0.942-0.269-0.325-0.617-0.488-1.045-0.488-0.388 0-0.713 0.13-0.977 0.389s-0.41 0.606-0.438 1.041z"></path>
<path d="M17.501 15.599v-4.978h0.759v0.755c0.194-0.353 0.373-0.586 0.537-0.699s0.344-0.169 0.541-0.169c0.284 0 0.573 0.091 0.867 0.272l-0.291 0.783c-0.206-0.122-0.412-0.183-0.619-0.183-0.185 0-0.35 0.055-0.497 0.166s-0.252 0.265-0.314 0.462c-0.094 0.3-0.14 0.628-0.14 0.984v2.606h-0.844z"></path>
<path d="M19.928 16.011l0.82 0.122c0.034 0.253 0.13 0.437 0.286 0.553 0.21 0.156 0.495 0.234 0.858 0.234 0.391 0 0.692-0.078 0.905-0.234s0.356-0.375 0.431-0.656c0.044-0.172 0.064-0.533 0.061-1.083-0.369 0.435-0.828 0.652-1.378 0.652-0.684 0-1.214-0.247-1.589-0.74s-0.563-1.086-0.563-1.777c0-0.475 0.086-0.913 0.258-1.315s0.421-0.712 0.748-0.93c0.327-0.219 0.71-0.328 1.151-0.328 0.588 0 1.072 0.237 1.453 0.713v-0.6h0.778v4.303c0 0.775-0.079 1.324-0.237 1.648s-0.408 0.579-0.75 0.766c-0.342 0.188-0.763 0.281-1.263 0.281-0.594 0-1.074-0.134-1.439-0.401s-0.542-0.669-0.53-1.207zM20.627 13.021c0 0.653 0.13 1.13 0.389 1.429s0.584 0.45 0.975 0.45c0.388 0 0.712-0.149 0.975-0.448s0.394-0.766 0.394-1.404c0-0.61-0.135-1.069-0.405-1.378s-0.596-0.464-0.977-0.464c-0.375 0-0.694 0.152-0.956 0.457s-0.394 0.757-0.394 1.357z"></path>
<path d="M28.206 13.996l0.872 0.108c-0.137 0.509-0.392 0.905-0.764 1.186s-0.847 0.422-1.425 0.422c-0.728 0-1.306-0.224-1.732-0.673s-0.64-1.077-0.64-1.887c0-0.837 0.216-1.488 0.647-1.95s0.991-0.694 1.678-0.694c0.666 0 1.209 0.227 1.631 0.68s0.633 1.091 0.633 1.913c0 0.050-0.002 0.125-0.004 0.225h-3.713c0.031 0.547 0.186 0.965 0.464 1.256s0.625 0.436 1.041 0.436c0.309 0 0.573-0.081 0.792-0.244s0.392-0.422 0.52-0.778zM25.436 12.632h2.78c-0.037-0.419-0.144-0.733-0.319-0.942-0.269-0.325-0.617-0.488-1.045-0.488-0.388 0-0.713 0.13-0.977 0.389s-0.41 0.606-0.438 1.041z"></path>
<path d="M1.83 22.505v-4.978h0.623v0.708c0.15-0.275 0.334-0.481 0.551-0.617s0.466-0.204 0.748-0.204c0.219 0 0.421 0.043 0.607 0.129s0.336 0.198 0.45 0.338c0.114 0.139 0.199 0.319 0.256 0.541s0.084 0.562 0.084 1.022v3.061h-0.694v-3.028c0-0.365-0.031-0.633-0.094-0.801s-0.16-0.3-0.293-0.392-0.287-0.138-0.462-0.138c-0.331 0-0.595 0.124-0.792 0.371s-0.295 0.67-0.295 1.27v2.719h-0.689z"></path>
<path d="M9.251 20.902l0.713 0.108c-0.119 0.532-0.334 0.932-0.644 1.203s-0.696 0.405-1.156 0.405c-0.578 0-1.046-0.22-1.404-0.659s-0.537-1.073-0.537-1.901c0-0.86 0.18-1.515 0.541-1.966s0.818-0.677 1.371-0.677c0.528 0 0.969 0.222 1.322 0.666s0.53 1.086 0.53 1.927l-0.005 0.225h-3.047c0.028 0.559 0.158 0.981 0.389 1.266s0.512 0.427 0.844 0.427c0.519 0 0.88-0.341 1.083-1.022zM6.978 19.537h2.278c-0.031-0.431-0.124-0.753-0.276-0.966-0.222-0.309-0.505-0.464-0.849-0.464-0.309 0-0.573 0.129-0.792 0.387s-0.339 0.605-0.361 1.043z"></path>
<path d="M12.627 21.75l0.094 0.745c-0.191 0.050-0.363 0.075-0.516 0.075-0.24 0-0.434-0.048-0.581-0.143s-0.248-0.226-0.302-0.392c-0.055-0.165-0.082-0.495-0.082-0.989v-2.864h-0.506v-0.656h0.506v-1.233l0.689-0.506v1.739h0.699v0.656h-0.699v2.911c0 0.269 0.020 0.442 0.061 0.52 0.059 0.113 0.17 0.169 0.333 0.169 0.078 0 0.18-0.011 0.305-0.033z"></path>
<path d="M14.274 22.505l-1.247-4.978h0.717l0.647 2.873 0.239 1.069 0.216-1.027 0.647-2.916h0.712l0.61 2.887 0.206 0.952 0.234-0.961 0.699-2.878h0.675l-1.28 4.978h-0.717l-0.652-2.981-0.155-0.848-0.825 3.829h-0.727z"></path>
<path d="M19.197 20.016c0-0.86 0.18-1.508 0.541-1.945s0.818-0.656 1.371-0.656c0.544 0 0.998 0.219 1.364 0.656s0.548 1.069 0.548 1.894c0 0.894-0.18 1.559-0.539 1.997s-0.817 0.656-1.373 0.656c-0.547 0-1.002-0.22-1.366-0.659s-0.546-1.087-0.546-1.943zM19.905 20.016c0 0.644 0.117 1.123 0.352 1.437s0.525 0.471 0.872 0.471c0.325 0 0.604-0.159 0.836-0.476s0.349-0.795 0.349-1.432c0-0.641-0.117-1.118-0.352-1.432s-0.525-0.471-0.872-0.471c-0.328 0-0.608 0.158-0.839 0.473s-0.347 0.792-0.347 1.43z"></path>
<path d="M24.082 22.505v-4.978h0.623v0.755c0.159-0.35 0.306-0.582 0.438-0.696s0.282-0.171 0.448-0.171c0.231 0 0.467 0.091 0.708 0.272l-0.235 0.783c-0.172-0.122-0.339-0.183-0.501-0.183-0.147 0-0.281 0.052-0.403 0.155s-0.208 0.247-0.258 0.431c-0.087 0.322-0.131 0.664-0.131 1.027v2.606h-0.689z"></path>
<path d="M26.971 22.505v-6.872h0.689v3.919l1.641-2.025h0.895l-1.561 1.847 1.716 3.131h-0.848l-1.355-2.545-0.488 0.572v1.973h-0.689z"></path>
</svg>
<svg id="v-cds_kb" width="32" height="32" viewBox="0 0 32 32" x="384" y="48">
<path d="M5.51 16.479l1.111 0.352c-0.17 0.62-0.454 1.080-0.85 1.381s-0.899 0.451-1.508 0.451c-0.754 0-1.374-0.257-1.859-0.773s-0.728-1.219-0.728-2.113c0-0.945 0.244-1.679 0.732-2.202s1.129-0.784 1.925-0.784c0.695 0 1.259 0.205 1.693 0.616 0.258 0.243 0.452 0.591 0.581 1.046l-1.135 0.271c-0.067-0.294-0.207-0.527-0.42-0.697s-0.472-0.256-0.777-0.256c-0.421 0-0.762 0.151-1.024 0.453s-0.393 0.791-0.393 1.468c0 0.717 0.129 1.229 0.387 1.534s0.594 0.457 1.007 0.457c0.305 0 0.567-0.097 0.786-0.29s0.377-0.498 0.473-0.914z"></path>
<path d="M7.348 12.888h2.095c0.473 0 0.833 0.036 1.081 0.109 0.333 0.098 0.618 0.272 0.856 0.523s0.418 0.557 0.542 0.92 0.186 0.81 0.186 1.342c0 0.467-0.058 0.87-0.174 1.208-0.142 0.413-0.345 0.747-0.608 1.003-0.199 0.193-0.467 0.345-0.806 0.453-0.253 0.080-0.591 0.12-1.015 0.12h-2.157v-5.678zM8.494 13.849v3.761h0.856c0.32 0 0.552-0.018 0.693-0.054 0.186-0.047 0.34-0.125 0.463-0.236s0.223-0.294 0.3-0.548c0.077-0.254 0.116-0.601 0.116-1.040s-0.039-0.776-0.116-1.011c-0.078-0.235-0.186-0.418-0.325-0.55s-0.317-0.221-0.531-0.267c-0.16-0.036-0.474-0.054-0.941-0.054h-0.515z"></path>
<path d="M12.536 16.719l1.115-0.109c0.067 0.374 0.203 0.649 0.409 0.825s0.482 0.263 0.831 0.263c0.369 0 0.647-0.078 0.835-0.234s0.281-0.339 0.281-0.548c0-0.134-0.039-0.249-0.118-0.343s-0.216-0.176-0.412-0.246c-0.134-0.047-0.44-0.129-0.918-0.248-0.615-0.152-1.046-0.339-1.294-0.562-0.349-0.312-0.523-0.693-0.523-1.143 0-0.289 0.082-0.56 0.246-0.811s0.4-0.444 0.709-0.575c0.308-0.132 0.681-0.198 1.117-0.198 0.713 0 1.249 0.156 1.609 0.469s0.549 0.729 0.568 1.251l-1.146 0.050c-0.049-0.292-0.154-0.502-0.316-0.63s-0.404-0.191-0.726-0.191c-0.333 0-0.594 0.068-0.782 0.205-0.121 0.088-0.182 0.205-0.182 0.352 0 0.134 0.057 0.249 0.171 0.345 0.144 0.121 0.496 0.248 1.053 0.38s0.97 0.268 1.237 0.409c0.267 0.141 0.476 0.333 0.628 0.577s0.226 0.546 0.226 0.905c0 0.325-0.090 0.63-0.271 0.914s-0.436 0.495-0.767 0.633c-0.331 0.138-0.742 0.208-1.236 0.208-0.718 0-1.269-0.166-1.654-0.498s-0.615-0.815-0.689-1.45z"></path>
<path d="M21.504 18.566v-5.678h0.729v2.816l2.735-2.816h0.988l-2.31 2.301 2.412 3.377h-0.962l-1.961-2.874-0.902 0.906v1.968h-0.729z"></path>
<path d="M26.413 18.566v-5.678h2.066c0.421 0 0.758 0.057 1.013 0.173s0.453 0.292 0.597 0.53c0.144 0.239 0.216 0.489 0.216 0.75 0 0.243-0.064 0.471-0.192 0.685s-0.32 0.387-0.579 0.519c0.333 0.101 0.59 0.273 0.768 0.515s0.269 0.529 0.269 0.86c0 0.266-0.055 0.513-0.163 0.742s-0.244 0.405-0.404 0.528c-0.161 0.124-0.362 0.218-0.603 0.281s-0.538 0.095-0.888 0.095h-2.1zM27.142 15.274h1.191c0.323 0 0.555-0.022 0.695-0.066 0.185-0.057 0.325-0.151 0.419-0.283s0.141-0.297 0.141-0.496c0-0.189-0.044-0.354-0.131-0.498s-0.213-0.241-0.375-0.294c-0.163-0.053-0.442-0.079-0.838-0.079h-1.101v1.716zM27.142 17.896h1.371c0.235 0 0.401-0.009 0.496-0.027 0.168-0.031 0.308-0.083 0.421-0.155s0.205-0.178 0.278-0.315c0.073-0.138 0.109-0.298 0.109-0.478 0-0.212-0.053-0.396-0.158-0.552s-0.251-0.266-0.437-0.329c-0.187-0.064-0.455-0.095-0.806-0.095h-1.273v1.952z"></path>
<path d="M16.601 18.203h4.482v0.503h-4.482v-0.503z"></path>
</svg>
<svg id="v-crc" width="32" height="32" viewBox="0 0 32 32" x="432" y="48">
<path d="M8.745 16.905l2.049 0.65c-0.314 1.142-0.836 1.99-1.567 2.545s-1.657 0.831-2.78 0.831c-1.389 0-2.531-0.475-3.426-1.424s-1.342-2.247-1.342-3.894c0-1.742 0.45-3.094 1.349-4.057s2.082-1.446 3.547-1.446c1.28 0 2.32 0.379 3.119 1.135 0.476 0.447 0.833 1.090 1.071 1.927l-2.091 0.5c-0.124-0.543-0.382-0.971-0.775-1.285s-0.869-0.471-1.431-0.471c-0.775 0-1.405 0.279-1.888 0.835s-0.725 1.458-0.725 2.705c0 1.323 0.238 2.265 0.714 2.827s1.094 0.842 1.856 0.842c0.562 0 1.045-0.178 1.449-0.535s0.695-0.919 0.871-1.684z"></path>
<path d="M12.147 20.752v-10.464h4.447c1.118 0 1.931 0.094 2.437 0.282s0.913 0.522 1.217 1.003c0.305 0.48 0.457 1.030 0.457 1.649 0 0.785-0.231 1.434-0.692 1.945s-1.151 0.834-2.070 0.967c0.457 0.267 0.834 0.559 1.131 0.878s0.698 0.885 1.203 1.699l1.278 2.041h-2.526l-1.528-2.277c-0.542-0.814-0.914-1.326-1.113-1.538s-0.412-0.357-0.635-0.435-0.578-0.118-1.064-0.118h-0.428v4.368h-2.113zM14.259 14.713h1.563c1.013 0 1.646-0.042 1.898-0.128s0.45-0.233 0.593-0.442c0.143-0.21 0.214-0.471 0.214-0.786 0-0.352-0.094-0.636-0.282-0.853s-0.453-0.353-0.796-0.411c-0.171-0.023-0.685-0.036-1.542-0.036h-1.648v2.655z"></path>
<path d="M28.923 16.905l2.049 0.65c-0.314 1.142-0.836 1.99-1.567 2.545s-1.657 0.831-2.78 0.831c-1.389 0-2.531-0.475-3.426-1.424s-1.342-2.247-1.342-3.894c0-1.742 0.45-3.094 1.349-4.057s2.082-1.446 3.547-1.446c1.28 0 2.32 0.379 3.119 1.135 0.476 0.447 0.832 1.090 1.071 1.927l-2.091 0.5c-0.124-0.543-0.382-0.971-0.775-1.285s-0.869-0.471-1.431-0.471c-0.775 0-1.405 0.279-1.888 0.835s-0.725 1.458-0.725 2.705c0 1.323 0.238 2.265 0.714 2.827s1.094 0.842 1.856 0.842c0.561 0 1.044-0.178 1.449-0.535s0.695-0.919 0.871-1.684z"></path>
</svg>
<svg id="v-irb_choice" width="32" height="32" viewBox="0 0 32 32" x="480" y="48">
<path d="M2.777 14.244c0 0.106-0.038 0.198-0.116 0.275s-0.169 0.116-0.275 0.116-0.197-0.039-0.272-0.116c-0.075-0.077-0.113-0.169-0.113-0.275s0.037-0.198 0.113-0.275c0.075-0.077 0.165-0.116 0.272-0.116 0.11 0 0.203 0.038 0.278 0.113s0.112 0.168 0.112 0.278zM3.239 18.060v0.575h-1.659v-0.575h0.512v-2.131h-0.512v-0.578h1.159v2.709h0.5z"></path>
<path d="M4.821 17.316v0.744h0.716v0.575h-2.016v-0.575h0.66v-2.131h-0.66v-0.578h1.172v0.744c0.132-0.294 0.294-0.498 0.489-0.614s0.473-0.173 0.836-0.173h0.147v0.653h-0.14c-0.35 0-0.611 0.046-0.781 0.138s-0.284 0.23-0.339 0.416c-0.055 0.185-0.083 0.453-0.083 0.803z"></path>
<path d="M8.618 15.263c0.302 0 0.575 0.076 0.819 0.229s0.434 0.36 0.57 0.62c0.136 0.26 0.204 0.542 0.204 0.844 0 0.312-0.069 0.601-0.208 0.866s-0.33 0.476-0.573 0.633c-0.244 0.157-0.516 0.236-0.819 0.236-0.239 0-0.467-0.049-0.683-0.147s-0.385-0.232-0.508-0.403v0.494h-1.21v-0.575h0.581v-3.566h-0.581v-0.569h1.21v1.894c0.329-0.371 0.728-0.556 1.197-0.556zM8.483 18.116c0.204 0 0.387-0.055 0.547-0.166s0.284-0.255 0.372-0.434c0.088-0.179 0.131-0.37 0.131-0.572 0-0.2-0.045-0.383-0.134-0.55s-0.213-0.299-0.372-0.397c-0.158-0.098-0.337-0.147-0.537-0.147s-0.379 0.051-0.538 0.153c-0.158 0.102-0.282 0.241-0.372 0.416s-0.134 0.37-0.134 0.584c0 0.204 0.046 0.392 0.138 0.563s0.217 0.305 0.375 0.403c0.158 0.098 0.333 0.147 0.525 0.147z"></path>
<path d="M13.707 15.588v-0.237h0.575v1.244h-0.575c-0.025-0.24-0.121-0.422-0.287-0.548s-0.359-0.189-0.578-0.189c-0.188 0-0.356 0.050-0.505 0.15s-0.264 0.236-0.345 0.406c-0.081 0.171-0.122 0.357-0.122 0.559 0 0.344 0.092 0.625 0.275 0.842s0.425 0.327 0.725 0.327c0.465 0 0.793-0.216 0.984-0.647l0.538 0.256c-0.302 0.654-0.819 0.981-1.55 0.981-0.327 0-0.618-0.077-0.872-0.231s-0.451-0.366-0.589-0.635c-0.139-0.268-0.208-0.566-0.208-0.894 0-0.321 0.070-0.612 0.211-0.875s0.334-0.467 0.58-0.614 0.52-0.22 0.822-0.22c0.358 0 0.666 0.108 0.922 0.325z"></path>
<path d="M16.72 15.263c0.611 0 0.916 0.33 0.916 0.99v1.806h0.556v0.575h-1.203v-2.15c0-0.236-0.034-0.401-0.101-0.497s-0.172-0.144-0.314-0.144c-0.239 0-0.551 0.14-0.934 0.422v1.794h0.569v0.575h-1.803v-0.575h0.588v-3.566h-0.588v-0.569h1.234v1.809c0.388-0.315 0.748-0.472 1.081-0.472z"></path>
<path d="M21.745 16.997c0 0.319-0.076 0.61-0.228 0.875s-0.359 0.474-0.622 0.628-0.553 0.231-0.872 0.231c-0.329 0-0.626-0.077-0.891-0.231s-0.47-0.364-0.617-0.628c-0.147-0.265-0.22-0.556-0.22-0.875 0-0.333 0.073-0.631 0.22-0.894s0.352-0.468 0.614-0.617c0.263-0.149 0.561-0.223 0.894-0.223 0.323 0 0.616 0.078 0.878 0.236s0.469 0.368 0.619 0.633c0.15 0.265 0.225 0.553 0.225 0.866zM20.023 18.104c0.192 0 0.368-0.050 0.528-0.15s0.285-0.235 0.375-0.403 0.134-0.353 0.134-0.553c0-0.196-0.045-0.378-0.134-0.547s-0.215-0.305-0.375-0.408c-0.161-0.103-0.339-0.155-0.534-0.155-0.192 0-0.368 0.051-0.528 0.151s-0.286 0.237-0.378 0.408c-0.092 0.171-0.138 0.354-0.138 0.55s0.046 0.379 0.138 0.55c0.092 0.171 0.219 0.306 0.381 0.406s0.34 0.15 0.531 0.15z"></path>
<path d="M23.089 14.244c0 0.106-0.038 0.198-0.116 0.275s-0.169 0.116-0.275 0.116c-0.106 0-0.197-0.039-0.272-0.116s-0.113-0.169-0.113-0.275 0.037-0.198 0.113-0.275c0.075-0.077 0.165-0.116 0.272-0.116 0.111 0 0.203 0.038 0.278 0.113s0.112 0.168 0.112 0.278zM23.552 18.060v0.575h-1.659v-0.575h0.513v-2.131h-0.513v-0.578h1.159v2.709h0.5z"></path>
<path d="M26.215 15.588v-0.237h0.575v1.244h-0.575c-0.025-0.24-0.121-0.422-0.288-0.548s-0.359-0.189-0.578-0.189c-0.188 0-0.356 0.050-0.505 0.15s-0.264 0.236-0.345 0.406c-0.081 0.171-0.122 0.357-0.122 0.559 0 0.344 0.092 0.625 0.275 0.842s0.425 0.327 0.725 0.327c0.465 0 0.793-0.216 0.985-0.647l0.537 0.256c-0.302 0.654-0.819 0.981-1.55 0.981-0.327 0-0.618-0.077-0.872-0.231s-0.451-0.366-0.589-0.635c-0.139-0.268-0.208-0.566-0.208-0.894 0-0.321 0.070-0.612 0.211-0.875s0.334-0.467 0.58-0.614c0.246-0.147 0.52-0.22 0.822-0.22 0.358 0 0.666 0.108 0.922 0.325z"></path>
<path d="M30.509 17.157h-2.753c0.040 0.315 0.161 0.563 0.365 0.745s0.454 0.273 0.75 0.273c0.217 0 0.418-0.045 0.603-0.134s0.34-0.227 0.466-0.412l0.569 0.256c-0.179 0.279-0.414 0.49-0.705 0.633s-0.607 0.214-0.948 0.214c-0.354 0-0.669-0.074-0.944-0.222s-0.489-0.354-0.642-0.619c-0.153-0.265-0.23-0.563-0.23-0.894 0-0.329 0.076-0.626 0.227-0.891s0.358-0.471 0.62-0.62c0.262-0.149 0.552-0.223 0.869-0.223 0.346 0 0.647 0.076 0.905 0.229s0.46 0.372 0.608 0.656c0.148 0.284 0.228 0.62 0.241 1.008zM28.768 15.8c-0.244 0-0.457 0.082-0.641 0.245s-0.301 0.38-0.353 0.648h2.056c-0.060-0.269-0.188-0.485-0.384-0.648s-0.422-0.245-0.678-0.245z"></path>
</svg>
<svg id="v-irex" width="32" height="32" viewBox="0 0 32 32" x="528" y="48">
<path d="M28.101 24.372c0.274 0.023 0.306 0.097 0.384 0.183 0.202 0.223 0.18 0.598-0.058 0.807l-1.9 1.573c-0.406 0.317-1.151-0.099-0.85-0.697 0 0-2.084-0.269-2.084-0.269-0.424-0.089-0.403-0.235-0.447-0.43-0.068-0.306 0.16-0.632 0.485-0.677l4.408-0.491c0.031-0.001 0.031-0.001 0.062 0z"></path>
<path d="M2.801 9.758c0.694 0.177 0.238 1.256-0.013 2.24-1.062 4.161-0.629 8.783 1.905 12.279 0.855 1.18 1.893 2.221 3.029 3.14 0 0 0.816 0.544 1.408 0.875 2.832 1.583 6.17 2.304 9.362 1.634 2.69-0.565 5.142-2 7.24-3.775 0 0 0.582-0.44 0.918-0.049 0.441 0.514-0.518 1.204-1.34 1.817-3.533 2.632-8.053 4.031-12.377 3.053-2.018-0.456-3.926-1.355-5.646-2.493-0.119-0.079-1.097-0.855-1.84-1.602-4.147-4.168-5.26-10.602-3.307-16.659 0 0 0.146-0.522 0.662-0.46z"></path>
<path d="M16.198 0.969c2.849 0.019 5.644 0.964 8.066 2.422 0.124 0.074 1.189 0.852 2.006 1.612 3.516 3.269 5.315 8.196 4.55 13.087-0.217 1.387-0.597 2.744-1.087 4.064 0 0-0.184 0.513-0.568 0.524-0.443 0.013-0.651-0.452-0.423-1.072 1.333-3.672 1.658-7.815 0.035-11.36-1.072-2.34-2.884-4.291-4.969-5.822-0.087-0.053-0.174-0.106-0.262-0.158-3.017-1.774-6.592-2.633-10.081-1.894-2.623 0.556-5.030 1.889-7.162 3.549 0 0-0.266 0.157-0.485 0.1-0.462-0.12-0.56-0.714 0.076-1.199 2.951-2.235 6.466-3.818 10.155-3.854 0.050 0 0.1-0 0.149 0z"></path>
<path d="M6.098 4.842c0.245 0.022 0.264 0.076 0.336 0.139 0.227 0.201 0.137 0.657 0.137 0.657l2.101 0.108c0.525 0.070 0.746 0.956 0.044 1.107l-4.33 0.807c-1.069 0.169-0.73-0.712-0.49-0.955l1.78-1.708c0.116-0.105 0.193-0.163 0.422-0.155z"></path>
<path d="M3.576 11.35h1.884v9.334h-1.884v-9.334z"></path>
<path d="M6.35 20.684v-9.334h3.967c0.997 0 1.722 0.084 2.174 0.252s0.814 0.466 1.086 0.895c0.271 0.428 0.407 0.919 0.407 1.471 0 0.7-0.206 1.279-0.618 1.735s-1.027 0.744-1.846 0.863c0.407 0.238 0.744 0.499 1.009 0.783s0.623 0.789 1.073 1.515l1.14 1.821h-2.254l-1.362-2.031c-0.484-0.726-0.815-1.183-0.993-1.372s-0.367-0.318-0.567-0.388-0.516-0.105-0.949-0.105h-0.382v3.896h-1.885zM8.235 15.298h1.394c0.904 0 1.468-0.038 1.693-0.115s0.401-0.208 0.529-0.395c0.127-0.187 0.191-0.42 0.191-0.7 0-0.314-0.084-0.568-0.252-0.761s-0.404-0.315-0.71-0.366c-0.153-0.021-0.611-0.032-1.375-0.032h-1.471v2.368z"></path>
<path d="M14.847 20.684v-9.334h6.921v1.579h-5.036v2.069h4.686v1.572h-4.686v2.54h5.214v1.572h-7.099z"></path>
<path d="M21.759 20.684l2.438-3.483-2.337-3.279h2.184l1.197 1.859 1.26-1.859h2.101l-2.292 3.203 2.502 3.559h-2.197l-1.375-2.095-1.388 2.095h-2.095z"></path>
</svg>
<svg id="v-etl_dashboard" width="32" height="32" viewBox="0 0 32 32" x="576" y="48">
<path d="M16.006 8.27c-1.976 0-3.831 0.768-5.222 2.162s-2.162 3.246-2.162 5.222c0 1.976 0.768 3.822 2.162 5.222 1.391 1.391 3.252 2.162 5.222 2.162 1.976 0 3.831-0.768 5.222-2.162s2.162-3.246 2.162-5.222c0-1.976-0.768-3.822-2.162-5.222-1.391-1.391-3.246-2.162-5.222-2.162zM16.006 21.804c-3.406 0-6.153-2.759-6.153-6.153s2.747-6.153 6.153-6.153c3.406 0 6.153 2.762 6.153 6.153s-2.747 6.153-6.153 6.153zM28.901 12.577h-1.168c-0.955 0-1.753-0.801-1.753-1.783 0-0.491 0.208-0.931 0.578-1.262l0.753-0.738c0.747-0.738 0.747-1.936 0-2.683l-1.714-1.699c-0.337-0.337-0.837-0.539-1.346-0.539s-1 0.199-1.346 0.539l-0.723 0.723c-0.346 0.385-0.822 0.593-1.322 0.593-0.985 0-1.822-0.801-1.822-1.747v-1.162c0-1.039-0.807-1.93-1.846-1.93h-2.34c-1.060 0-1.906 0.885-1.906 1.93v1.168c0 0.946-0.816 1.747-1.798 1.747-0.491 0-0.94-0.208-1.277-0.569l-0.747-0.738c-0.337-0.346-0.837-0.539-1.346-0.539s-1 0.199-1.346 0.539l-1.714 1.692c-0.738 0.738-0.738 1.945 0 2.677l0.723 0.723c0.385 0.346 0.599 0.783 0.599 1.283 0 0.985-0.801 1.783-1.753 1.783h-1.168c-1.054-0.009-1.936 0.852-1.936 1.9v2.337c0 1.039 0.885 1.906 1.936 1.906h1.168c0.955 0 1.753 0.801 1.753 1.783 0 0.491-0.214 0.946-0.599 1.292l-0.723 0.708c-0.738 0.738-0.738 1.936 0 2.677l1.714 1.708c0.337 0.346 0.837 0.539 1.346 0.539s1-0.199 1.346-0.539l0.747-0.738c0.322-0.361 0.777-0.569 1.268-0.569 0.985 0 1.798 0.801 1.798 1.747v1.168c0 1.039 0.846 1.93 1.9 1.93h2.337c1.045 0 1.915-0.885 1.915-1.93v-1.168c0-0.946 0.807-1.747 1.792-1.747 0.491 0 0.946 0.214 1.301 0.593l0.723 0.723c0.346 0.337 0.837 0.539 1.346 0.539s1-0.199 1.346-0.539l1.714-1.708c0.738-0.738 0.738-1.945 0-2.683l-0.753-0.738c-0.37-0.331-0.578-0.801-0.578-1.283 0-0.985 0.801-1.816 1.753-1.816h1.168c1.045 0 1.792-0.792 1.792-1.837v-2.352c0-1.051-0.747-1.912-1.792-1.912zM29.48 15.651v1.162c0 0.322-0.178 0.608-0.56 0.608h-1.168c-0.792 0-1.545 0.337-2.114 0.922-0.56 0.578-0.87 1.337-0.87 2.138 0 0.831 0.337 1.599 0.961 2.168l0.732 0.723c0.253 0.262 0.253 0.693 0 0.946l-1.714 1.708c-0.123 0.114-0.301 0.184-0.485 0.184s-0.37-0.069-0.485-0.184l-0.702-0.699c-0.593-0.623-1.37-0.97-2.192-0.97-0.801 0-1.539 0.307-2.114 0.861-0.584 0.569-0.891 1.316-0.891 2.114v1.168c0 0.376-0.331 0.699-0.684 0.699h-2.34c-0.352 0-0.669-0.322-0.669-0.699v-1.168c0-0.792-0.316-1.545-0.9-2.114-0.578-0.554-1.331-0.861-2.123-0.861-0.816 0-1.599 0.346-2.162 0.955l-0.714 0.714c-0.123 0.114-0.301 0.184-0.485 0.184s-0.37-0.060-0.47-0.169l-0.018-0.018-1.714-1.708c-0.253-0.253-0.253-0.678 0-0.94l0.699-0.693c0.629-0.584 0.976-1.361 0.976-2.192 0-0.801-0.307-1.53-0.87-2.108-0.569-0.584-1.322-0.885-2.114-0.885h-1.178c-0.385 0-0.708-0.331-0.708-0.678v-2.346c0-0.346 0.322-0.678 0.708-0.678h1.168c0.792 0 1.545-0.301 2.114-0.885 0.56-0.578 0.87-1.322 0.87-2.114 0-0.831-0.346-1.608-0.976-2.183l-0.708-0.699c-0.169-0.169-0.193-0.361-0.193-0.47 0-0.099 0.024-0.301 0.193-0.47l1.708-1.699c0.123-0.114 0.301-0.184 0.485-0.184s0.37 0.060 0.47 0.169l0.741 0.741c0.569 0.614 1.337 0.955 2.162 0.955 0.801 0 1.545-0.307 2.123-0.861 0.584-0.569 0.906-1.316 0.906-2.114v-1.168c0-0.376 0.307-0.699 0.653-0.699h2.346c0.346 0 0.614 0.322 0.614 0.699v1.168c0 0.792 0.337 1.545 0.922 2.114 0.578 0.554 1.337 0.861 2.138 0.861 0.831 0 1.614-0.346 2.198-0.97l0.699-0.699c0.123-0.114 0.301-0.184 0.485-0.184s0.37 0.069 0.485 0.178l1.714 1.699c0.123 0.123 0.199 0.292 0.199 0.47s-0.069 0.346-0.193 0.47l-0.732 0.723c-0.614 0.569-0.961 1.337-0.961 2.168 0 0.801 0.307 1.53 0.87 2.108 0.569 0.584 1.322 0.885 2.114 0.885h1.168c0.416 0 0.569 0.385 0.578 0.693l0.006 1.153z"></path>
<path d="M16.054 9.916c-3.163 0-5.731 2.568-5.731 5.731s2.568 5.731 5.731 5.731c3.163 0 5.731-2.568 5.731-5.731s-2.568-5.731-5.731-5.731zM16.062 13.052c1.446 0 2.62 1.174 2.62 2.62s-1.174 2.62-2.62 2.62c-1.446 0-2.62-1.174-2.62-2.62s1.174-2.62 2.62-2.62z"></path>
</svg>
<svg id="v-mydruggenome" width="32" height="32" viewBox="0 0 32 32" x="624" y="48">
<path d="M4.579 6.74c-0.278 0.839-0.486 1.71-0.542 2.069-0.063 0.391 0.032 0.612 0.24 0.763 0.050 0.038 0.082 0.019 0.113-0.044 0.454-0.845 1.186-1.81 1.905-2.681-0.41 0.788-0.814 1.671-0.908 2.044-0.107 0.416-0.032 0.605 0.069 0.687 0.051 0.044 0.076 0.044 0.101-0.019 0.315-0.908 0.946-2.183 1.388-3.003 0.17-0.315 0.234-0.662-0.019-0.921-0.076-0.076-0.126-0.069-0.183 0.019-0.694 1.079-1.615 2.019-2.302 3.141 0.24-0.883 0.467-1.621 0.669-2.227 0.164-0.498 0.095-0.719-0.151-0.934-0.082-0.069-0.145-0.044-0.202 0.038-0.681 0.928-1.703 2.612-1.937 3.211-0.145 0.379-0.076 0.593 0.013 0.688 0.044 0.050 0.082 0.050 0.107-0.013 0.372-0.845 1.079-1.974 1.64-2.82z"></path>
<path d="M7.657 8.241c0.776-0.839 1.319-1.319 1.773-1.76 0.372-0.366 0.435-0.643 0.385-0.827-0.019-0.069-0.063-0.088-0.133-0.031-0.498 0.441-1.388 1.312-1.974 1.962 0.025-0.473 0.076-0.883 0.095-1.236 0.025-0.454-0.069-0.637-0.221-0.732-0.057-0.038-0.114-0.032-0.133 0.069-0.12 0.599-0.17 1.565-0.183 2.334-0.177 0.353-0.322 0.687-0.391 0.915-0.094 0.328-0.031 0.549 0.063 0.631 0.051 0.044 0.094 0.044 0.12-0.019 0.132-0.378 0.334-0.832 0.599-1.305z"></path>
<path d="M3.109 11.034h2.544c0.643 0 1.129 0.081 1.456 0.242s0.629 0.434 0.905 0.816c0.276 0.383 0.492 0.88 0.649 1.491s0.236 1.37 0.236 2.278c0 0.818-0.082 1.528-0.247 2.133s-0.373 1.083-0.626 1.436c-0.253 0.353-0.558 0.618-0.916 0.797s-0.819 0.268-1.381 0.268h-2.619v-9.461zM4.499 12.634v6.267h1.045c0.448 0 0.773-0.047 0.974-0.142s0.366-0.238 0.494-0.429 0.234-0.494 0.319-0.907c0.084-0.413 0.126-0.957 0.126-1.633 0-0.701-0.043-1.254-0.129-1.659s-0.22-0.723-0.402-0.955c-0.182-0.232-0.403-0.385-0.663-0.458-0.195-0.056-0.572-0.084-1.131-0.084h-0.632z"></path>
<path d="M10.082 20.494v-9.461h2.935c0.75 0 1.286 0.085 1.608 0.255s0.586 0.465 0.793 0.884 0.31 0.922 0.31 1.507c0 0.74-0.158 1.336-0.474 1.788s-0.765 0.736-1.347 0.852c0.299 0.241 0.546 0.504 0.741 0.79s0.461 0.799 0.798 1.539l0.838 1.846h-1.66l-1.011-2.059c-0.364-0.744-0.611-1.21-0.741-1.397s-0.268-0.316-0.414-0.387c-0.146-0.071-0.379-0.107-0.701-0.107h-0.287v3.949h-1.39zM11.472 15.035h1.034c0.632 0 1.034-0.031 1.206-0.094s0.312-0.188 0.419-0.378c0.107-0.189 0.161-0.441 0.161-0.755 0-0.301-0.054-0.543-0.161-0.726s-0.253-0.309-0.436-0.378c-0.13-0.047-0.508-0.071-1.131-0.071h-1.091v2.401z"></path>
<path d="M17.026 11.034h1.39v5.124c0 0.796 0.017 1.314 0.052 1.555 0.061 0.417 0.208 0.74 0.439 0.968s0.537 0.342 0.916 0.342c0.322 0 0.584-0.081 0.787-0.242s0.342-0.385 0.416-0.671c0.075-0.286 0.112-0.9 0.112-1.842v-5.234h1.396v4.969c0 1.269-0.060 2.187-0.181 2.752s-0.392 1.024-0.816 1.375c-0.423 0.351-0.981 0.526-1.674 0.526-0.72 0-1.282-0.145-1.686-0.436s-0.697-0.699-0.879-1.226c-0.182-0.527-0.273-1.498-0.273-2.914v-5.047z"></path>
<path d="M27.215 17.016v-1.594h3.004v3.769c-0.302 0.4-0.731 0.744-1.286 1.033s-1.112 0.432-1.672 0.432c-0.682 0-1.283-0.188-1.803-0.564s-0.934-0.94-1.238-1.691c-0.304-0.751-0.457-1.634-0.457-2.649 0-1.041 0.154-1.932 0.462-2.672s0.708-1.293 1.2-1.659c0.492-0.366 1.081-0.548 1.766-0.548 0.823 0 1.483 0.236 1.979 0.707s0.815 1.163 0.956 2.075l-1.379 0.355c-0.103-0.486-0.293-0.858-0.568-1.116s-0.605-0.387-0.988-0.387c-0.594 0-1.074 0.259-1.442 0.778s-0.551 1.309-0.551 2.372c0 1.14 0.199 2.007 0.597 2.601 0.341 0.512 0.802 0.768 1.384 0.768 0.272 0 0.554-0.072 0.847-0.216s0.555-0.341 0.784-0.59v-1.2h-1.597z"></path>
<path d="M4.742 24.75v-0.808h1.899v1.91c-0.191 0.203-0.462 0.377-0.813 0.523s-0.703 0.219-1.057 0.219c-0.431 0-0.811-0.095-1.14-0.286s-0.59-0.476-0.782-0.857c-0.193-0.38-0.289-0.828-0.289-1.343 0-0.528 0.097-0.979 0.292-1.354s0.448-0.655 0.759-0.841c0.311-0.185 0.683-0.278 1.116-0.278 0.521 0 0.937 0.119 1.251 0.358s0.515 0.589 0.605 1.052l-0.871 0.18c-0.065-0.246-0.185-0.435-0.359-0.566s-0.383-0.196-0.625-0.196c-0.375 0-0.679 0.131-0.911 0.394s-0.349 0.663-0.349 1.202c0 0.578 0.126 1.017 0.378 1.318 0.215 0.26 0.507 0.389 0.875 0.389 0.172 0 0.35-0.036 0.536-0.11s0.35-0.173 0.495-0.299v-0.608h-1.009z"></path>
<path d="M7.458 26.513v-4.795h3.239v0.811h-2.36v1.063h2.193v0.808h-2.193v1.305h2.44v0.808h-3.319z"></path>
<path d="M11.532 26.513v-4.795h0.857l1.786 3.202v-3.202h0.821v4.795h-0.886l-1.758-3.127v3.127h-0.821z"></path>
<path d="M15.748 24.145c0-0.572 0.094-1.042 0.281-1.412s0.433-0.645 0.735-0.826c0.303-0.181 0.669-0.271 1.1-0.271 0.624 0 1.133 0.215 1.527 0.644s0.59 1.041 0.59 1.835c0 0.803-0.208 1.429-0.624 1.881-0.366 0.399-0.862 0.599-1.489 0.599-0.632 0-1.131-0.197-1.496-0.592-0.416-0.452-0.624-1.071-0.624-1.858zM16.655 24.112c0 0.552 0.116 0.965 0.349 1.241s0.52 0.414 0.864 0.414c0.346 0 0.633-0.137 0.86-0.411s0.341-0.694 0.341-1.261c0-0.556-0.111-0.967-0.332-1.233s-0.512-0.399-0.87-0.399c-0.358 0-0.65 0.134-0.875 0.402s-0.338 0.684-0.338 1.246z"></path>
<path d="M20.656 26.513v-4.795h1.318l0.791 3.271 0.784-3.271h1.322v4.795h-0.817v-3.775l-0.868 3.775h-0.85l-0.861-3.775v3.775h-0.82z"></path>
<path d="M25.75 26.513v-4.795h3.239v0.811h-2.36v1.063h2.193v0.808h-2.193v1.305h2.44v0.808h-3.319z"></path>
</svg>
<svg id="v-peer" width="32" height="32" viewBox="0 0 32 32" x="672" y="48">
<path d="M23.649 21.273l2.428 2.305c0.313 0.316 0.335 0.491 0.020 0.807l-1.010 0.956c-0.313 0.316-0.712 0.436-1.028 0.12l-4.576-4.188h4.167zM4.482 13.135c-0.172-0.608-0.265-1.249-0.265-1.912 0-3.863 3.13-6.993 6.993-6.993s6.993 3.13 6.993 6.993c0 0.663-0.092 1.305-0.264 1.912h-2.872c0.286-0.576 0.446-1.225 0.446-1.912 0-2.38-1.926-4.303-4.303-4.303-2.38 0-4.303 1.926-4.303 4.303 0 0.687 0.161 1.337 0.446 1.912h-2.871z"></path>
<path d="M9.309 15.986l-0.037 0.211c-0.084 0.475-0.233 0.82-0.448 1.038s-0.568 0.384-1.060 0.5c-0.492 0.116-1.118 0.175-1.878 0.175h-0.934l-0.528 2.994h-3.48l0.868-4.918h3.48l-0.114 0.647c0.099 0.003 0.184 0.004 0.255 0.004 0.32 0 0.549-0.044 0.689-0.131 0.135-0.085 0.228-0.258 0.278-0.521h2.91zM1.972 15.075l0.283-1.606h3.505c0.948 0 1.669 0.042 2.165 0.124s0.857 0.202 1.086 0.358c0.229 0.156 0.369 0.345 0.421 0.567 0.032 0.138 0.039 0.324 0.019 0.556h-2.93c-0.017-0.102-0.063-0.175-0.137-0.219-0.13-0.076-0.42-0.115-0.872-0.115l-0.059 0.334h-3.48z"></path>
<path d="M9.7 15.986h3.48l-0.067 0.381h2.174l-0.25 1.414h-2.174l-0.288 1.635h2.555l-0.262 1.488h-6.035l0.867-4.918zM15.684 14.956h-2.323l-0.021 0.118h-3.48l0.283-1.606h5.803l-0.262 1.488z"></path>
<path d="M16.125 15.986h3.48l-0.067 0.381h2.174l-0.249 1.414h-2.174l-0.288 1.635h2.554l-0.262 1.488h-6.035l0.867-4.918zM22.11 14.956h-2.323l-0.021 0.118h-3.48l0.283-1.606h5.803l-0.262 1.488z"></path>
<path d="M30.284 15.986c-0.111 0.316-0.268 0.542-0.47 0.679-0.294 0.199-0.825 0.319-1.593 0.358 0.672 0.095 1.113 0.222 1.322 0.381s0.33 0.306 0.365 0.439c0.034 0.133-0.001 0.5-0.107 1.1l-0.346 1.961h-3.233l0.436-2.471c0.070-0.398 0.057-0.644-0.039-0.74s-0.384-0.142-0.864-0.142l-0.591 3.353h-3.48l0.867-4.918h3.48l-0.072 0.408c0.391 0 0.671-0.030 0.838-0.090 0.116-0.042 0.206-0.148 0.27-0.319h3.216zM22.712 15.075l0.283-1.606h2.463c1.643 0 2.748 0.035 3.317 0.106s1.011 0.251 1.327 0.54c0.24 0.22 0.357 0.54 0.349 0.961h-3.236c-0.018-0.104-0.069-0.179-0.153-0.224-0.139-0.073-0.409-0.11-0.811-0.11l-0.059 0.334h-3.48z"></path>
</svg>
<svg id="v-daybreak" width="32" height="32" viewBox="0 0 32 32" x="720" y="48">
<path d="M25.114 7.856c2.168 2.256 3.501 5.319 3.501 8.692 0 6.925-5.622 12.548-12.548 12.548s-12.548-5.622-12.548-12.548c0-6.925 5.622-12.548 12.548-12.548 2.147 0 4.169 0.54 5.937 1.492l-2.231 11.924c-0.388 1.43-1.219 2.3-2.465 2.645-0.924 0.082-1.873 0-2.862-0.022-1.238-0.028-1.983-1.008-2.326-2.548l-0.086-2.557-3.060-0.809-0.042 4.103c0.252 3.187 2.412 5.029 5.019 5.143 1.52 0.218 2.964 0.211 4.323-0.049 2.517-0.763 4.078-2.301 4.661-4.633l2.179-10.832z"></path>
<path d="M24.796 0.014c1.646 0.031 3.076 1.636 2.841 3.312-0.192 1.369-1.486 2.5-2.878 2.5-1.922 0-3.549-2.296-2.604-4.198 0.474-0.952 1.482-1.594 2.566-1.614 0.038-0 0.037-0 0.075 0zM24.729 0.614c-1.514 0.029-2.753 1.799-2.061 3.28 0.607 1.3 2.57 1.73 3.662 0.714 0.727-0.677 0.94-1.846 0.483-2.738-0.39-0.761-1.22-1.262-2.084-1.257z"></path>
<path d="M25.882 2.915c0 0.618-0.501 1.12-1.12 1.12s-1.12-0.501-1.12-1.12c0-0.618 0.501-1.12 1.12-1.12s1.12 0.501 1.12 1.12z"></path>
</svg>
<svg id="v-recruit" width="32" height="32" viewBox="0 0 32 32" x="0" y="96">
<path d="M14.932 1.658c-1.841 0.163-3.541 0.623-5.141 1.392-1.594 0.774-2.621 1.504-3.923 2.812-1.308 1.302-2.037 2.329-2.812 3.923-2.132 4.422-1.846 9.67 0.764 13.823 0.544 0.864 1.106 1.571 1.88 2.368 1.24 1.268 2.379 2.11 3.906 2.862 4.922 2.447 10.646 1.914 15.080-1.409 0.668-0.499 1.903-1.695 2.452-2.374 1.28-1.577 2.29-3.586 2.778-5.528 0.842-3.356 0.488-6.757-1.033-9.849-0.786-1.594-1.605-2.722-2.901-3.985-2.194-2.138-4.854-3.452-7.964-3.928-0.567-0.084-2.537-0.157-3.087-0.107zM17.008 2.826c2.043 0.101 4.428 0.915 6.257 2.138 3.266 2.177 5.326 5.483 5.842 9.372 0.107 0.808 0.107 2.509-0.006 3.328-0.393 2.946-1.639 5.5-3.721 7.61-2.105 2.133-4.72 3.423-7.728 3.827-0.802 0.107-2.509 0.107-3.311 0-5.864-0.78-10.416-5.18-11.392-11.005-0.196-1.162-0.196-3.042 0-4.215 0.943-5.64 5.292-9.99 10.944-10.938 0.584-0.101 1.835-0.185 2.273-0.157 0.14 0.006 0.516 0.028 0.842 0.039z"></path>
<path d="M15.476 3.623c-0.023 0.023-0.039 0.814-0.039 1.762v1.723l-0.41 0.034c-1.252 0.107-2.806 0.668-3.906 1.403-0.466 0.314-0.471 0.32-0.718 0.258-0.505-0.129-1.027 0.045-1.403 0.477-0.325 0.37-0.432 0.847-0.297 1.319 0.050 0.18 0.034 0.23-0.236 0.645-0.713 1.111-1.336 2.963-1.336 3.973v0.213l-1.751 0.011-1.757 0.017v1.066l1.745 0.017 1.745 0.011 0.034 0.415c0.112 1.336 0.747 2.991 1.594 4.187 0.488 0.685 1.409 1.605 2.093 2.093 1.179 0.836 2.862 1.482 4.164 1.588l0.438 0.039 0.011 1.745 0.017 1.745h1.066l0.017-1.745 0.011-1.745 0.438-0.039c1.15-0.095 2.733-0.651 3.766-1.325l0.359-0.23 0.286 0.129c0.23 0.101 0.387 0.129 0.791 0.129 0.46 0 0.544-0.017 0.881-0.185 0.432-0.213 0.73-0.516 0.937-0.96 0.123-0.269 0.146-0.387 0.146-0.819 0-0.455-0.023-0.539-0.185-0.87l-0.185-0.37 0.247-0.528c0.427-0.909 0.736-2.009 0.803-2.817l0.039-0.438 1.745-0.011 1.745-0.017v-1.066l-1.745-0.017-1.745-0.011-0.039-0.438c-0.067-0.803-0.376-1.903-0.791-2.789l-0.236-0.511 1.426-0.78c0.78-0.426 1.42-0.808 1.42-0.842 0-0.118-0.875-1.403-1.302-1.908-0.825-0.971-1.656-1.706-2.711-2.396-0.595-0.393-1.841-1.055-1.976-1.055-0.023 0-0.32 0.685-0.662 1.515-0.337 0.836-0.617 1.515-0.617 1.515s-0.23-0.079-0.505-0.174c-0.629-0.213-1.364-0.376-1.908-0.426l-0.421-0.034-0.011-1.745-0.017-1.745-0.505-0.017c-0.281-0.006-0.528-0.001-0.551 0.022zM15.437 10.071v2.104l-0.152 0.034c-0.814 0.18-1.392 0.494-1.981 1.089-0.595 0.589-0.909 1.167-1.089 1.976-0.034 0.152-0.050 0.157-0.387 0.157s-0.353-0.011-0.471-0.191c-0.494-0.769-1.701-0.797-2.222-0.050l-0.174 0.241h-0.977l0.028-0.269c0.118-1.162 0.668-2.716 1.263-3.558 0.101-0.146 0.112-0.146 0.297-0.067 0.466 0.191 1.201 0.028 1.555-0.348s0.477-1.004 0.297-1.51c-0.096-0.269-0.096-0.269 0.674-0.696 0.881-0.488 1.903-0.831 2.862-0.954 0.219-0.023 0.41-0.050 0.438-0.056 0.022 0 0.039 0.943 0.039 2.099zM17.513 8.112c0.718 0.129 1.532 0.41 1.498 0.522-0.028 0.101-1.51 3.726-1.538 3.76-0.011 0.017-0.152-0.017-0.314-0.062-0.157-0.050-0.359-0.107-0.443-0.123l-0.157-0.034v-4.209l0.241 0.034c0.129 0.016 0.449 0.067 0.713 0.112zM23.625 13.511c0.163 0.488 0.297 1.134 0.359 1.678l0.028 0.241h-4.198l-0.034-0.157c-0.062-0.286-0.208-0.713-0.309-0.92l-0.107-0.208 0.353-0.196c0.191-0.107 1.016-0.561 1.835-1.010l1.487-0.82 0.208 0.432c0.113 0.241 0.286 0.673 0.376 0.96zM15.437 13.825v0.747l-0.275 0.168c-0.174 0.107-0.331 0.269-0.426 0.432l-0.152 0.258h-1.499l0.084-0.297c0.258-0.876 0.988-1.628 1.874-1.931 0.202-0.067 0.37-0.129 0.382-0.129 0.006 0 0.011 0.337 0.011 0.752zM17.098 13.253c0.017 0.023-0.466 1.223-0.511 1.274-0.017 0.011-0.028-0.309-0.028-0.713v-0.735l0.258 0.079c0.14 0.039 0.269 0.084 0.28 0.096zM18.714 14.835c0.050 0.135 0.118 0.326 0.146 0.421l0.050 0.18-0.769-0.017c-0.971-0.023-0.988-0.067-0.18-0.505 0.325-0.18 0.606-0.325 0.623-0.325 0.023-0 0.079 0.112 0.129 0.246zM9.14 16.8c0.533 0.741 1.723 0.713 2.217-0.056 0.118-0.18 0.135-0.191 0.471-0.191s0.353 0.006 0.387 0.152c0.18 0.814 0.494 1.392 1.089 1.981 0.589 0.595 1.167 0.909 1.981 1.089l0.152 0.034v4.209l-0.123-0.023c-0.073-0.017-0.28-0.045-0.466-0.062-0.185-0.023-0.567-0.101-0.853-0.174-2.542-0.657-4.585-2.498-5.517-4.973-0.208-0.556-0.41-1.403-0.466-1.97l-0.028-0.264h0.982l0.174 0.248zM14.747 16.828c0.107 0.174 0.269 0.331 0.432 0.426l0.258 0.152v1.493l-0.208-0.056c-0.937-0.247-1.79-1.077-2.060-1.998l-0.084-0.292h1.493l0.168 0.275zM18.849 16.761c-0.258 0.96-1.122 1.824-2.076 2.082l-0.213 0.056v-1.487l0.275-0.168c0.174-0.107 0.331-0.269 0.426-0.432l0.152-0.258h1.493l-0.056 0.208zM23.984 16.789c-0.101 0.898-0.353 1.818-0.713 2.598l-0.196 0.421-0.213-0.096c-0.32-0.135-0.976-0.118-1.375 0.034-0.443 0.168-0.842 0.544-1.066 0.999-0.157 0.32-0.18 0.421-0.18 0.825 0 0.353 0.028 0.516 0.123 0.73 0.067 0.152 0.123 0.292 0.123 0.314 0 0.073-0.859 0.555-1.352 0.763-0.735 0.309-1.386 0.477-2.363 0.606l-0.213 0.028v-4.203l0.157-0.034c0.808-0.18 1.386-0.494 1.976-1.089 0.595-0.589 0.909-1.167 1.089-1.981l0.034-0.152h4.198l-0.028 0.236z"></path>
</svg>
<svg id="v-fastertogether" width="32" height="32" viewBox="0 0 32 32" x="48" y="96">
<path d="M30.475 3.314c-1.767 1.479-4.573 2.451-8.191 3.028-3.072 0.452-6.316 0.748-9.627 0.985-2.267 0.213-3.999 1.113-5.062 2.871l-3.263 7.562c0.844-0.824 1.715-1.601 2.7-2.175 1.318-0.742 2.797-1.291 4.463-1.614 3.207-0.446 6.422-0.884 9.344-1.588 2.848-0.543 5.24-1.716 7.105-3.616 1.33-1.807 2.815-3.611 2.53-5.453"></path>
<path d="M20.686 12.722c-1.019 2.020-2.574 3.505-4.432 4.686-1.45 0.857-3.001 1.627-4.684 2.039-2.139 0.677-4.281 1.349-6.234 2.288-1.197 0.866-2.123 1.957-2.244 4.022 0.074 1.199 0.727 2.088 1.743 2.784-1.032 0.001-1.885-0.798-2.643-2.025-0.409-1.219-0.42-2.348-0.014-3.384l2.001-5.126c1.902-1.826 3.4-2.617 4.253-2.968 1.222-0.503 2.795-0.942 4.671-1.164 2.565-0.352 5.11-0.777 7.613-1.346"></path>
<path d="M12.796 19.173c-1.121 1.204-1.898 2.642-2.505 4.197-0.719 2.373-1.349 3.884-1.847 4.113-0.423 0.595-1.011 0.925-1.7 1.094-0.568 0.121-1.153 0.136-1.78-0.101-1.269-0.804-1.81-1.82-1.758-3.008 0.165-1.556 0.91-2.751 2.139-3.646 2.305-1.093 7.426-2.678 7.452-2.649z"></path>
</svg>
<svg id="v-pmforallpeople" width="32" height="32" viewBox="0 0 32 32" x="96" y="96">
<path d="M2.197 12.477l1.12 0.548c0.019 0.421-0.037 0.847 0.020 1.224 0.003 0.467 0.268 0.826 0.754 1.184 0.678 0.249 1.298 0.029 1.889-0.424l1.698-1.255c0.986-0.593 1.969-0.919 2.948-0.814 2.021 0.57 3.827 1.464 5.632 2.44 0.68 0.461 1.456 0.675 2.194 0.766 1.568 0.266 2.895 0.122 4.121-0.192 1.655-0.37 3.067-0.951 4.438-1.568 0.648-0.224 1.324-0.195 2.008-0.096 0.481 0.054 0.932 0.216 1.369 0.425-0.745-0.435-1.558-0.81-2.542-1.034-0.626-0.129-1.262-0.116-1.917 0.117-1.006 0.302-1.895 0.768-3.038 1.163l-1.618 0.48c-1.033 0.255-2.143 0.382-3.384 0.249-0.491-0.023-1.010-0.178-1.515-0.351l-3.673-1.602c-0.856-0.241-1.383-0.285-2.116-0.143-1.155 0.338-2.128 0.974-3.037 1.717-0.646 0.635-1.374 1.077-2.398 0.786-0.401-0.048-0.802-0.237-1.181-0.427-0.496-0.274-0.945-0.615-1.308-1.076-0.377-0.328-0.566-0.807-0.557-1.446l0.091-0.673"></path>
<path d="M1.254 19.419c0.861-1.388 1.725-2.767 2.615-4.060 1.095-0.884 2.244-0.965 3.49-0.231l2.611 2.163c1.113 0.866 2.167 0.978 3.159 0.271 1.096-0.723 2.037-1.526 2.982-2.327 1.43-0.691 2.916-0.71 4.446-0.178l4.507 2.091c1.383 0.532 2.748 0.873 4.046 0.43l1.383-0.514-0.469-1.214-1.29 0.53c-1.233 0.233-2.213 0.209-2.972-0.104-1.845-0.561-3.572-1.503-5.286-2.28-1.521-0.554-3.013-0.689-4.455-0.139-1.127 0.614-2.051 1.407-3.004 2.178-0.925 0.755-1.939 0.93-3.012 0.394-1.041-0.773-2.085-1.653-3.121-2.541-1.343-0.803-2.471-0.615-3.515 0.378-0.933 1.256-1.728 2.67-2.724 4.028l0.611 1.127z"></path>
</svg>
<svg id="v-drugrepurposing" width="32" height="32" viewBox="0 0 32 32" x="144" y="96">
<path d="M11.716 6.774l5.321-2.090z"></path>
<path d="M11.716 6.774c0.356-0.345 0.755-0.643 1.187-0.887 0.414-0.24 0.845-0.448 1.29-0.623s0.903-0.317 1.369-0.423c0.483-0.115 0.98-0.168 1.477-0.157-0.356 0.346-0.755 0.644-1.186 0.888-0.414 0.24-0.846 0.448-1.291 0.622-0.445 0.175-0.903 0.316-1.37 0.421-0.483 0.116-0.979 0.169-1.476 0.159z"></path>
<path d="M10.239 3.977c0.251 0.11 0.479 0.266 0.575 0.513 0.065 0.167 0.061 0.347 0.073 0.516 0.128 1.7 0.581 3.38 1.41 4.877 1.345 2.43 3.555 4.305 5.556 6.163 1.461 1.36 2.928 2.723 4.051 4.424 1.078 1.634 1.688 3.693 1.126 5.569-0.715 2.39-3.202 3.986-5.588 4.502-0.727 0.157-1.47 0.236-2.215 0.249l-0.035 0c-0.23-0.033-0.304-0.016-0.501-0.155-0.485-0.343-0.428-1.278 0.216-1.497 0.165-0.056 0.342-0.045 0.509-0.051 1.608-0.060 3.246-0.485 4.508-1.47 1.007-0.785 1.691-1.979 1.627-3.314-0.083-1.73-1.205-3.224-2.266-4.418-2.768-3.117-6.414-5.509-8.437-9.113-1.004-1.789-1.546-3.821-1.671-5.878 0 0-0.011-0.18 0.024-0.311 0.069-0.261 0.268-0.48 0.513-0.575 0.164-0.064 0.346-0.048 0.524-0.030z"></path>
<path d="M17.616 1.276c0.298 0.212 0.48 0.565 0.65 0.895 0.898 1.746 1.732 3.55 1.864 5.557 0.141 2.156-0.286 4.348-0.63 6.484-0.681 4.191-2.024 8.261-2.994 12.417-0.265 1.135-0.491 2.281-0.63 3.436l-0.073 0.255c-0.129 0.193-0.146 0.267-0.357 0.384-0.38 0.212-0.935 0.066-1.155-0.328-0.144-0.257-0.117-0.399-0.073-0.746 0.685-5.313 2.73-10.287 3.605-15.691 0.432-2.672 1.044-5.404 0.279-7.912-0.383-1.257-1.004-2.429-1.616-3.599l-0.085-0.252c-0.002-0.178-0.002-0.361 0.076-0.519 0.12-0.242 0.359-0.416 0.618-0.46 0.174-0.029 0.349 0.023 0.519 0.076z"></path>
<path d="M17.983 22.476l3.045 0.966z"></path>
<path d="M17.983 22.476c0.282-0.118 0.586-0.176 0.892-0.17 0.271 0.004 0.54 0.047 0.799 0.129s0.503 0.2 0.726 0.352c0.253 0.172 0.468 0.395 0.63 0.654-0.283 0.119-0.588 0.178-0.895 0.171-0.544-0.008-1.073-0.177-1.522-0.484-0.253-0.172-0.468-0.393-0.63-0.652z"></path>
<path d="M12.874 9.283l4.859-1.315z"></path>
<path d="M12.874 9.284c0.326-0.303 0.697-0.554 1.099-0.745 0.379-0.185 0.776-0.334 1.183-0.443 0.407-0.112 0.824-0.185 1.245-0.217 0.445-0.039 0.893-0.009 1.328 0.089-0.326 0.303-0.696 0.555-1.099 0.746-0.38 0.185-0.776 0.333-1.184 0.442-0.408 0.111-0.825 0.182-1.246 0.215-0.444 0.038-0.891 0.009-1.326-0.087z"></path>
<path d="M14.207 11.739l3.818-1.017z"></path>
<path d="M14.207 11.739c0.239-0.272 0.524-0.499 0.844-0.67 0.292-0.16 0.603-0.283 0.925-0.368 0.321-0.087 0.651-0.135 0.984-0.141 0.363-0.011 0.724 0.044 1.066 0.164-0.238 0.273-0.524 0.501-0.844 0.672-0.588 0.316-1.242 0.489-1.909 0.503-0.362 0.012-0.723-0.042-1.066-0.16z"></path>
<path d="M16.938 26.165l2.363 1.571z"></path>
<path d="M16.94 26.165c0.276-0.050 0.559-0.038 0.829 0.035 0.47 0.123 0.886 0.399 1.182 0.784 0.172 0.222 0.292 0.479 0.352 0.753-0.276 0.051-0.56 0.040-0.831-0.033-0.234-0.062-0.455-0.164-0.655-0.3-0.201-0.134-0.379-0.3-0.525-0.491-0.171-0.22-0.291-0.476-0.352-0.748z"></path>
<path d="M17.166 24.394l3.846 1.384z"></path>
<path d="M17.166 24.394c0.363-0.085 0.738-0.105 1.107-0.059 0.685 0.080 1.343 0.316 1.922 0.69 0.315 0.2 0.591 0.455 0.815 0.753-0.363 0.087-0.738 0.107-1.107 0.061-0.685-0.080-1.343-0.318-1.922-0.693-0.314-0.2-0.59-0.455-0.815-0.752z"></path>
</svg>
</svg>
