<!-- Generated by IcoMoon.io -->
<svg version="1.1" xmlns="http://www.w3.org/2000/svg" width="32" height="32" viewBox="0 0 32 32">
<title>abnlmarro</title>
<path d="M26.075 23.167c-0.017 0.104-0.035 0.225-0.052 0.364 0.104 0.069 0.19 0.139 0.26 0.19 0.087-0.035 0.156-0.052 0.242-0.087 0.035-0.052 0.069-0.104 0.104-0.173v-0.19c-0.069-0.069-0.121-0.121-0.19-0.19-0.121 0-0.242 0-0.364 0.087z"></path>
<path d="M23.046 25.019c-0.035 0.069-0.087 0.139-0.121 0.19 0.052 0.121 0.104 0.242 0.26 0.26 0.069-0.052 0.156-0.104 0.225-0.156v-0.156c-0.052-0.052-0.087-0.104-0.121-0.139h-0.242z"></path>
<path d="M22.544 24.69c-0.087-0.017-0.173-0.052-0.26-0.035-0.069 0-0.156 0.052-0.225 0.104-0.087 0.052-0.173 0.104-0.208 0.19-0.104 0.19-0.069 0.467 0.208 0.71 0.121 0.035 0.208 0.052 0.294 0.069 0.571-0.208 0.606-0.692 0.19-1.039z"></path>
<path d="M26.543 22.422c0.035 0.087 0.069 0.19 0.121 0.294 0.035 0.035 0.069 0.087 0.139 0.139s0.156 0.087 0.26 0.139c0.052 0 0.121 0 0.19 0 0.225 0.035 0.398-0.052 0.554-0.225 0.19-0.225 0.26-0.467 0.156-0.727-0.017-0.052-0.035-0.087-0.052-0.156-0.017-0.017-0.017-0.035-0.035-0.052-0.433 0.19-0.883 0.364-1.316 0.537-0.035 0.017-0.035 0.035-0.017 0.052z"></path>
<path d="M19.151 25.712c0.156 0.069 0.312 0.139 0.467 0.139 0.208 0 0.416 0.017 0.606 0 0.173-0.017 0.364-0.035 0.502-0.121 0.242-0.139 0.485-0.277 0.675-0.502 0.294-0.329 0.45-0.71 0.502-1.143-1.143 0.398-2.285 0.762-3.445 1.108 0.242 0.26 0.398 0.398 0.692 0.519z"></path>
<path d="M23.098 23.755c0 0.087-0.017 0.19 0.017 0.26 0.087 0.26 0.208 0.519 0.433 0.71 0.208 0.173 0.433 0.294 0.71 0.277 0.139 0 0.277 0 0.398 0 0.104-0.052 0.173-0.087 0.26-0.121 0.26-0.121 0.416-0.26 0.537-0.485 0.104-0.173 0.121-0.381 0.121-0.589 0-0.277-0.069-0.519-0.225-0.744-0.052-0.052-0.087-0.121-0.139-0.173-0.692 0.26-1.385 0.519-2.077 0.779-0.017 0.035-0.035 0.069-0.035 0.087z"></path>
<path d="M22.526 24.084h0.173c0-0.017-0.017-0.017-0.017-0.035 0.052-0.035 0.104-0.069 0.139-0.087v-0.208c-0.139 0.052-0.277 0.104-0.416 0.156 0.069 0.087 0.104 0.139 0.121 0.173z"></path>
<path d="M26.508 13.732c-0.052-0.398 0.156-0.762 0.329-1.125 0.19-0.19 0.381-0.398 0.623-0.554 0.208-0.139 0.658-0.26 0.9-0.26 0.052 0 0.087 0 0.139 0 0.346-0.035 0.641 0.069 0.935 0.225 0.485 0.277 0.796 0.692 0.969 1.212 0.087 0.242 0.052 0.641 0 0.935-0.069 0.467-0.329 0.831-0.675 1.125-0.225 0.19-0.502 0.312-0.796 0.381-0.26 0.069-0.502 0.052-0.744 0.035-0.26-0.017-0.537-0.139-0.762-0.277-0.329-0.225-0.589-0.519-0.762-0.883-0.104-0.26-0.156-0.433-0.156-0.814z"></path>
<path d="M3.068 16.329c0.156 0.052 0.346 0.035 0.502 0.104 0.173 0.069 0.346 0.139 0.485 0.242 0.138 0.121 0.277 0.242 0.398 0.381 0.104 0.139 0.208 0.277 0.277 0.433s0.138 0.346 0.173 0.519c0.035 0.19 0.052 0.381 0 0.554-0.052 0.156-0.035 0.346-0.138 0.502-0.087 0.121-0.121 0.277-0.208 0.398-0.069 0.121-0.156 0.225-0.26 0.312-0.156 0.121-0.312 0.26-0.502 0.329-0.139 0.052-0.277 0.121-0.415 0.156-0.156 0.035-0.329 0.069-0.485 0.052-0.242-0.017-0.502-0.052-0.727-0.156-0.26-0.121-0.519-0.26-0.692-0.485-0.208-0.26-0.364-0.537-0.433-0.848-0.104-0.433-0.104-0.831 0.069-1.246 0.156-0.398 0.415-0.675 0.762-0.935 0.364-0.242 0.762-0.26 1.194-0.312z"></path>
<path d="M19.324 21.747c0.121 0.035 0 0.139 0.087 0.208 0.052 0 0.139 0.035 0.19-0.035 0.225 0 0.45-0.035 0.658 0 0.173 0.017 0.329 0.087 0.502 0.156 0.104 0.035 0.208 0.104 0.312 0.173 0.26 0.19 0.485 0.416 0.623 0.692 0.087 0.173 0.173 0.364 0.208 0.589 0.017 0.156 0.052 0.329 0.035 0.485-0.035 0.467-0.19 0.866-0.502 1.229-0.19 0.225-0.433 0.364-0.675 0.502-0.139 0.087-0.329 0.104-0.502 0.121-0.208 0.017-0.416 0-0.606 0-0.173 0-0.329-0.069-0.467-0.139-0.312-0.139-0.467-0.277-0.727-0.554-0.173-0.19-0.277-0.398-0.346-0.623-0.035-0.139-0.104-0.294-0.087-0.45 0-0.087-0.017-0.173-0.035-0.277 0.087-0.156 0.069-0.381 0.139-0.589s0.208-0.364 0.277-0.554c0-0.017 0.017-0.035 0.017-0.052 0.017 0 0.035 0.017 0.035 0.017 0 0.017 0 0.052 0.017 0.069 0.052 0 0.121 0.052 0.156-0.052 0.087-0.017 0.173 0.035 0.242-0.052 0.208-0.035 0.312-0.225 0.45-0.346 0.017-0.017 0-0.052 0-0.069 0.017-0.017 0.052-0.035 0.052-0.035 0-0.052-0.017-0.121-0.017-0.173-0.069-0.087-0.052-0.173-0.035-0.242z"></path>
<path d="M12.867 12.901c0.017 0.139-0.052 0.277 0.052 0.398-0.087 0.19-0.035 0.398-0.121 0.589-0.069 0.156-0.139 0.294-0.225 0.433-0.121 0.19-0.277 0.381-0.45 0.502-0.277 0.173-0.554 0.364-0.917 0.364-0.069 0-0.139 0.052-0.225 0.052-0.364 0-0.71-0.069-1.004-0.26-0.329-0.173-0.606-0.415-0.762-0.762-0.069-0.156-0.156-0.312-0.208-0.467-0.017-0.052-0.017-0.104-0.035-0.139-0.017-0.104 0.035-0.225-0.052-0.329v-0.017c0.121-0.173 0.035-0.381 0.087-0.571 0.069-0.19 0.139-0.346 0.242-0.519 0.242-0.398 0.606-0.623 1.021-0.814 0.087-0.035 0.19-0.052 0.294-0.069s0.208 0 0.312 0c0.087 0 0.173-0.017 0.242-0.017 0.312 0.017 0.571 0.156 0.848 0.277 0.104 0.139 0.294 0.156 0.364 0.312-0.087 0.121-0.173 0.225-0.26 0.329-0.017 0.485-0.017 0.485 0.398 0.727 0.121 0 0.242 0.035 0.346-0.052 0.017 0.035 0.035 0.035 0.052 0.035z"></path>
<path d="M17.229 12.624c-0.017-0.156 0.104-0.26 0.173-0.346 0.208-0.242 0.433-0.502 0.744-0.641 0.208-0.104 0.433-0.173 0.675-0.173 0.069 0 0.139 0.017 0.19-0.035 0.017-0.017 0.069-0.017 0.104 0 0.173 0.069 0.381 0.052 0.554 0.121 0.26 0.104 0.467 0.242 0.692 0.415 0.173 0.139 0.26 0.346 0.433 0.485 0.017 0.173 0.139 0.312 0.19 0.485 0.069 0.277 0.069 0.537 0.035 0.796-0.035 0.294-0.139 0.554-0.294 0.796-0.104 0.156-0.225 0.312-0.381 0.415-0.035 0-0.104-0.035-0.104 0.052-0.017 0.017-0.035 0.035-0.052 0.052-0.035 0-0.104-0.035-0.104 0.052-0.017 0.017-0.035 0.035-0.052 0.052-0.035 0-0.104-0.035-0.104 0.052-0.017 0.087-0.087 0.035-0.121 0.052-0.052 0.017-0.087 0.052-0.156 0.087 0.052 0.017 0.087 0.052 0.139 0.069-0.035 0.121-0.052 0.225-0.069 0.329-0.087 0-0.156 0-0.242 0-0.052-0.035-0.087-0.087-0.139-0.139 0.017-0.052 0.035-0.104 0.052-0.173-0.156 0-0.346-0.017-0.519 0s-0.294-0.121-0.485-0.104c0 0.069 0 0.156-0.017 0.225 0 0.017-0.035 0.035-0.052 0.035 0-0.087 0-0.173 0-0.242-0.035-0.017-0.069-0.035-0.121-0.052 0.035-0.017 0.052-0.017 0.069-0.017s0.035 0 0.052 0c0.069 0 0.139 0 0.208-0.017 0-0.017 0-0.017 0-0.035-0.069-0.017-0.139-0.035-0.208-0.069-0.104-0.208-0.26-0.346-0.485-0.433-0.017-0.017-0.035-0.052-0.069-0.052-0.069-0.017-0.139-0.017-0.19-0.035 0 0.052-0.052 0.121 0.052 0.139l0.208 0.208c0.035 0.017 0.069 0.035 0.104 0.052 0.017 0.017 0.035 0.035 0.052 0.052-0.017 0.017-0.017 0.035-0.035 0.069-0.087-0.052-0.173-0.087-0.242-0.156-0.069-0.087-0.225-0.139-0.208-0.277 0-0.052-0.017-0.104-0.052-0.139-0.139-0.121-0.173-0.294-0.26-0.45-0.017-0.035 0-0.069 0-0.104 0.087 0.017 0.156-0.017 0.242 0.052 0.052 0.035 0.156-0.017 0.242-0.052 0.242-0.069 0.45-0.19 0.537-0.467 0.035-0.139 0.035-0.277 0.052-0.398-0.017-0.017-0.052-0.035-0.052-0.069-0.069-0.19-0.173-0.329-0.364-0.415-0.173-0.087-0.346-0.139-0.519-0.035-0.035 0-0.069-0.017-0.104-0.017zM19.064 14.754c0.052-0.069 0.069-0.104 0.087-0.139 0.035-0.035 0.087-0.069 0.104-0.069 0.017-0.294-0.052-0.502-0.277-0.641-0.26-0.035-0.502 0-0.623 0.312 0 0.069 0 0.19 0 0.294 0.19 0.346 0.416 0.364 0.71 0.242z"></path>
<path d="M15.948 24.638c-0.017 0-0.035 0-0.052 0-0.035 0-0.104-0.035-0.104 0.052-0.208 0-0.415 0-0.606 0-0.329 0-0.589-0.156-0.848-0.329-0.104-0.069-0.208-0.156-0.294-0.242s-0.173-0.173-0.225-0.277c-0.087-0.156-0.156-0.312-0.208-0.467-0.087-0.294-0.104-0.571-0.087-0.866 0.017-0.346 0.156-0.641 0.346-0.917 0.208-0.312 0.502-0.485 0.814-0.658 0.173-0.087 0.329-0.156 0.537-0.139 0.069 0 0.139-0.017 0.225-0.035 0.069 0.017 0.139 0.035 0.208 0.035 0.398 0.017 0.727 0.156 1.021 0.416 0.139 0.104 0.242 0.242 0.346 0.364 0.173 0.19 0.26 0.433 0.329 0.692 0.035 0.139 0.087 0.26 0.052 0.398 0 0.017 0 0.035 0 0.052-0.087-0.017-0.173 0.035-0.242-0.052-0.312 0.208-0.346 0.26-0.346 0.658 0.087 0.087 0.156 0.173 0.242 0.242 0.069 0 0.121 0 0.19 0 0 0.017 0 0.035 0 0.052-0.017 0.017-0.035 0.052-0.052 0.069s-0.035 0.035-0.052 0.035h-0.45c-0.346 0.017-0.692 0.398-0.727 0.71 0 0.035-0.017 0.087 0.052 0.087 0 0.087 0.069 0.052 0.104 0.052-0.035 0.104-0.121 0.035-0.173 0.069zM15.481 21.211c-0.017-0.017-0.035-0.052-0.052-0.069-0.173 0.19-0.225 0.346-0.208 0.641 0.017 0.017 0.052 0.052 0.069 0.069 0.052 0.087 0.104 0.156 0.19 0.208 0.104 0.052 0.208 0.035 0.312 0.087 0.087 0.052 0.173-0.069 0.277-0.104 0.121-0.052 0.156-0.173 0.208-0.277 0.017-0.035 0.017-0.087-0.052-0.087 0-0.104 0-0.19 0-0.294-0.087-0.087-0.156-0.156-0.242-0.242-0.104 0-0.225 0-0.346 0-0.052 0.035-0.104 0.052-0.156 0.069zM14.788 23.357c0.017 0.035 0.035 0.069 0.052 0.104 0.242 0.45 0.623 0.554 1.056 0.398 0.121-0.052 0.208-0.156 0.294-0.242 0.242-0.277 0.26-0.762 0-0.969-0.052-0.035-0.069-0.087-0.104-0.139-0.104-0.052-0.208-0.104-0.329-0.173-0.45-0.052-0.796 0.104-0.969 0.589 0 0.121 0 0.277 0 0.433zM14.009 22.18c-0.052 0.052-0.121 0.121-0.173 0.173l-0.017 0.017c0.017 0.208 0.017 0.225 0.19 0.398 0.121 0.017 0.242 0 0.346-0.087 0.017-0.104 0.035-0.208 0.052-0.294-0.069-0.087-0.139-0.139-0.19-0.208-0.069 0-0.139 0-0.208 0z"></path>
<path d="M14.667 16.052c-0.173 0.156-0.346 0.26-0.589 0.277-0.035 0-0.069 0.052-0.087 0.069 0.052 0.121 0.121 0.225 0.139 0.346 0.017 0.069 0.035 0.173-0.035 0.242-0.035 0.035-0.035 0.087 0.035 0.087-0.035 0.035-0.069 0.087-0.104 0.121-0.035-0.035-0.069-0.052-0.104-0.069 0 0.035 0 0.069 0 0.087 0.035 0.017 0.069 0.035 0.104 0.052-0.035 0.052-0.069 0.087-0.104 0.139-0.035 0-0.069 0-0.104 0.017-0.208 0.156-0.433 0.173-0.675 0.087-0.035-0.017-0.069 0-0.104-0.017-0.087-0.035-0.104-0.156-0.225-0.156-0.104-0.225-0.26-0.416-0.156-0.692 0.087-0.242 0.19-0.45 0.502-0.519-0.329-0.242-0.45-0.554-0.519-0.9 0.017-0.017 0.035-0.035 0.052-0.052-0.017-0.017-0.035-0.035-0.052-0.052 0.017-0.069 0.035-0.156 0.052-0.225 0.017-0.208 0.104-0.364 0.26-0.502 0.139-0.139 0.277-0.26 0.45-0.398-0.173-0.121-0.242-0.294-0.26-0.485 0-0.156 0.017-0.329 0.156-0.45 0.052 0.104 0.173 0.069 0.225 0.139 0.26 0.069 0.415-0.052 0.537-0.19 0.035-0.104 0.069-0.156 0.087-0.225 0.035 0.017 0.087 0.017 0.121 0.035 0.052 0.052 0.121 0.104 0.19 0.139 0.052 0.104 0.104 0.225 0.173 0.364 0.052 0.242-0.052 0.485-0.225 0.692 0.104 0.069 0.19 0.104 0.277 0.173 0.208 0.19 0.346 0.415 0.415 0.675 0.052 0.19 0.069 0.398-0.035 0.571-0.104 0.104-0.104 0.225-0.121 0.364-0.104 0.104-0.19 0.173-0.277 0.26zM13.438 15.654c0.242-0.052 0.433-0.087 0.554-0.312 0.017-0.104 0.035-0.242 0.052-0.346-0.104-0.208-0.242-0.346-0.433-0.433-0.052 0-0.121 0-0.19 0-0.069 0.017-0.139 0.035-0.208 0.069-0.087 0.069-0.173 0.156-0.242 0.225 0.035 0.139-0.104 0.26 0 0.415 0.087 0.121 0.139 0.26 0.225 0.329 0.104 0.017 0.173 0.035 0.242 0.052zM13.455 13.992c0.121 0.156 0.277 0.225 0.45 0.173 0.139-0.035 0.312 0 0.415-0.173-0.294-0.104-0.571-0.104-0.866 0zM13.213 16.121c0.19 0.208 0.467 0.19 0.71 0.277-0.087-0.225-0.346-0.329-0.71-0.277z"></path>
<path d="M23.011 12.52c0.173-0.035 0.364 0.017 0.519 0.104 0.225 0.121 0.398 0.294 0.519 0.519 0.104 0.19 0.156 0.415 0.156 0.623-0.017 0.329-0.139 0.641-0.398 0.866s-0.554 0.346-0.9 0.329c-0.208 0-0.381-0.069-0.554-0.156-0.208-0.121-0.364-0.277-0.485-0.467-0.121-0.173-0.104-0.398-0.173-0.589 0.052-0.312 0.121-0.623 0.346-0.866 0.277-0.26 0.589-0.381 0.969-0.364z"></path>
<path d="M25.175 8.245c-0.069 0.121-0.156 0.242-0.225 0.381-0.139 0.294-0.45 0.346-0.71 0.485-0.26-0.017-0.519 0.035-0.762-0.104-0.173-0.087-0.329-0.173-0.45-0.312-0.121-0.156-0.208-0.312-0.26-0.502-0.017-0.104-0.052-0.19-0.052-0.294 0.017-0.485 0.294-0.987 0.866-1.177 0.433-0.138 0.831-0.035 1.194 0.225 0.035 0.104 0.156 0.138 0.19 0.242s0.139 0.156 0.173 0.277c0.035 0.104 0.052 0.225 0.035 0.329-0.017 0.087 0.052 0.138 0.017 0.225-0.017 0.052-0.017 0.139-0.017 0.225z"></path>
<path d="M24.656 25.002c-0.104 0-0.242 0-0.398 0-0.277 0.017-0.502-0.121-0.71-0.277-0.225-0.173-0.329-0.433-0.433-0.71-0.035-0.087-0.017-0.173-0.017-0.26 0.017-0.294 0.104-0.571 0.312-0.796 0.173-0.173 0.381-0.294 0.623-0.364 0.294-0.104 0.571-0.017 0.848 0.069 0.208 0.052 0.329 0.242 0.467 0.398 0.156 0.208 0.225 0.467 0.225 0.744 0 0.208-0.035 0.416-0.121 0.589-0.121 0.225-0.277 0.364-0.537 0.485-0.087 0.035-0.173 0.069-0.26 0.121z"></path>
<path d="M24.95 17.697c-0.087 0-0.208 0-0.346 0-0.433 0.017-0.727-0.208-0.969-0.519-0.208-0.26-0.26-0.589-0.208-0.9 0.069-0.364 0.242-0.675 0.606-0.866 0.242-0.121 0.502-0.208 0.779-0.156 0.225 0.035 0.433 0.104 0.606 0.26 0.121 0.121 0.225 0.26 0.346 0.398 0.069 0.087 0.035 0.225 0.121 0.329 0.017 0.398 0 0.762-0.312 1.073-0.173 0.139-0.346 0.294-0.623 0.381z"></path>
<path d="M22.457 16.9c0.346-0.052 0.623 0.104 0.866 0.294 0.156 0.121 0.242 0.312 0.312 0.502 0.035 0.069 0.052 0.156 0.052 0.242s0.052 0.156 0.035 0.225c-0.017 0.087 0 0.173-0.035 0.26-0.017 0.087-0.069 0.173-0.104 0.242-0.156 0.242-0.346 0.485-0.641 0.571-0.225 0.087-0.467 0.139-0.727 0.052-0.139-0.052-0.277-0.087-0.416-0.156-0.294-0.156-0.433-0.433-0.519-0.744-0.139-0.467 0.069-1.039 0.467-1.298 0.225-0.121 0.45-0.242 0.71-0.19z"></path>
<path d="M27.391 18.32c-0.121-0.017-0.225-0.035-0.277-0.052-0.277-0.104-0.485-0.26-0.658-0.45-0.017-0.035-0.052-0.052-0.069-0.069-0.139-0.277-0.242-0.571-0.173-0.9 0.035-0.173 0.104-0.329 0.19-0.485 0.19-0.294 0.45-0.415 0.779-0.502 0.381-0.087 0.346-0.052 0.796 0.104 0.312 0.121 0.485 0.364 0.589 0.658 0.173 0.502 0.087 0.969-0.294 1.333-0.19 0.19-0.433 0.329-0.727 0.312-0.052 0.017-0.121 0.052-0.156 0.052z"></path>
<path d="M21.349 8.314c0.19 0 0.398-0.017 0.589 0.069 0.329 0.156 0.571 0.415 0.692 0.744 0.19 0.537-0.017 1.091-0.433 1.385-0.277 0.208-0.606 0.294-0.987 0.208-0.416-0.104-0.692-0.329-0.883-0.692-0.087-0.19-0.087-0.19-0.087-0.519 0-0.225 0.052-0.415 0.156-0.606 0.104-0.156 0.173-0.329 0.381-0.381 0.087 0 0.139-0.017 0.156-0.104 0.156 0.017 0.277-0.052 0.433-0.087-0.017 0-0.017-0.017-0.017-0.017z"></path>
<path d="M5.077 10.98c0.017 0.329-0.104 0.606-0.346 0.848-0.242 0.26-0.554 0.381-0.883 0.364-0.658-0.017-1.212-0.554-1.212-1.194 0-0.329 0.104-0.641 0.346-0.9 0.26-0.26 0.571-0.364 0.935-0.364 0.537-0.017 1.246 0.623 1.16 1.246z"></path>
<path d="M7.708 16.744c-0.485 0-0.866-0.208-1.073-0.641-0.225-0.467-0.26-0.796 0.069-1.281 0.138-0.208 0.294-0.346 0.502-0.433 0.19-0.087 0.381-0.139 0.589-0.104 0.156 0.017 0.329 0.052 0.485 0.139 0.173 0.087 0.329 0.225 0.433 0.398 0.19 0.346 0.26 0.623 0.173 1.004-0.052 0.277-0.225 0.45-0.398 0.641-0.139 0.156-0.329 0.19-0.502 0.277-0.087 0.017-0.19 0-0.277 0z"></path>
<path d="M4.28 20.657c0.017-0.069 0.052-0.121 0.052-0.173 0.035-0.433 0.381-0.883 0.796-0.969 0.121-0.035 0.242-0.104 0.364-0.104 0.329-0.017 0.623 0.069 0.848 0.312 0.173 0.173 0.294 0.329 0.364 0.571 0.035 0.121 0 0.26 0.087 0.364-0.069 0.156-0.052 0.346-0.121 0.502-0.069 0.121-0.138 0.242-0.242 0.346-0.225 0.242-0.502 0.346-0.848 0.346-0.329 0.017-0.606-0.121-0.866-0.312-0.173-0.121-0.277-0.312-0.312-0.502-0.035-0.104-0.087-0.208-0.069-0.329 0 0-0.035-0.035-0.052-0.052z"></path>
<path d="M6.41 18.424c0.104-0.121 0.121-0.277 0.208-0.398 0.173-0.26 0.433-0.398 0.71-0.485 0.087-0.017 0.19-0.052 0.277-0.052 0.277 0.035 0.537 0.087 0.762 0.277 0.329 0.277 0.502 0.606 0.485 1.021-0.017 0.294-0.104 0.554-0.329 0.779-0.173 0.173-0.346 0.312-0.571 0.346-0.398 0.087-0.779 0.052-1.108-0.242-0.104-0.087-0.19-0.208-0.277-0.312-0.138-0.173-0.156-0.346-0.173-0.537 0-0.139 0.017-0.277 0.017-0.398z"></path>
<path d="M6.79 9.855c0.485 0.035 0.727 0.069 1.143 0.589 0.035 0.104 0.052 0.173 0.087 0.225 0.139 0.26 0.156 0.519 0.052 0.779-0.121 0.346-0.329 0.623-0.675 0.779-0.19 0.087-0.19 0.087-0.554 0.087-0.19 0-0.364-0.035-0.502-0.121-0.381-0.242-0.675-0.571-0.658-1.073 0-0.364 0.138-0.675 0.398-0.917 0.104-0.087 0.242-0.156 0.364-0.225 0.087-0.052 0.208-0.087 0.346-0.121z"></path>
<path d="M16.121 8.677c0.052 0 0.087 0 0.139 0 0.121-0.294 0.364-0.502 0.623-0.658 0.121-0.087 0.294-0.087 0.45-0.138 0.26 0.104 0.589 0.017 0.796 0.26 0.294 0.121 0.346 0.433 0.519 0.675 0 0.121-0.017 0.26 0 0.381 0.017 0.277-0.087 0.502-0.242 0.692-0.26 0.329-0.606 0.502-1.021 0.485-0.242-0.017-0.485-0.087-0.71-0.26-0.208-0.156-0.329-0.346-0.398-0.571-0.035 0-0.052 0-0.087 0 0.017-0.104 0.139 0 0.156-0.087 0-0.017 0-0.052 0-0.087 0.156-0.104 0.087-0.26 0.104-0.398-0.052-0.069-0.104-0.121-0.156-0.173-0.017-0.017-0.035-0.035-0.069-0.052-0.052-0.017-0.104 0-0.104-0.069z"></path>
<path d="M10.582 25.539c0.035-0.087-0.069-0.121-0.104-0.19s-0.069-0.156-0.052-0.208c0.035-0.087-0.121-0.139-0.035-0.242 0.035-0.035-0.087-0.139 0.035-0.19-0.017-0.087 0.017-0.173 0.052-0.242s0.069-0.156 0.104-0.225c0.035-0.069 0.087-0.139 0.139-0.19 0.052-0.069 0.121-0.121 0.19-0.156s0.087-0.121 0.19-0.121c0.069 0 0.156-0.052 0.225-0.069 0.502-0.173 1.16 0.173 1.402 0.71 0.104 0.225 0.104 0.45 0.069 0.692-0.035 0.225-0.156 0.433-0.312 0.606s-0.364 0.242-0.554 0.346c-0.537 0.069-1.004 0-1.35-0.519z"></path>
<path d="M10.685 17.852c0.19 0.104 0.364 0.173 0.502 0.329 0.208 0.242 0.364 0.485 0.346 0.814 0 0.087 0 0.173 0 0.26 0 0.069-0.035 0.139-0.052 0.225-0.017 0.035-0.017 0.069-0.035 0.087-0.104 0.156-0.208 0.294-0.346 0.416-0.312 0.277-0.762 0.364-1.16 0.19-0.242-0.104-0.433-0.242-0.589-0.433-0.087-0.104-0.121-0.225-0.156-0.364s-0.035-0.294-0.052-0.433c-0.017-0.381 0.19-0.658 0.467-0.866 0.156-0.121 0.329-0.242 0.537-0.225 0.035-0.087 0.069 0.035 0.121 0 0.035-0.017 0.087-0.035 0.121-0.035 0.052 0 0.087 0.035 0.139 0.052 0.035 0 0.104-0.017 0.156-0.017z"></path>
<path d="M8.972 8.4c0.035-0.069 0.069-0.104 0.104-0.156 0.121-0.294 0.346-0.485 0.623-0.623s0.589-0.156 0.883-0.035c0.329 0.121 0.554 0.346 0.71 0.658 0.035 0.087 0.087 0.19 0.104 0.277 0.035 0.398-0.017 0.762-0.329 1.056-0.104 0.104-0.225 0.173-0.346 0.242-0.121 0.087-0.26 0.052-0.381 0.104s-0.242 0-0.364-0.017c-0.398-0.069-0.675-0.312-0.866-0.641-0.069-0.104-0.121-0.242-0.104-0.381-0.035-0.156-0.035-0.329-0.035-0.485z"></path>
<path d="M14.615 9.803c-0.035 0.035-0.069 0.052-0.121 0.087 0.121 0.139 0.173 0.294 0.19 0.467l0.035 0.017c0.017 0.052 0.035 0.104 0.052 0.173-0.087 0.104-0.035 0.242-0.052 0.364-0.035-0.017-0.052-0.035-0.087-0.052-0.035 0.277-0.208 0.45-0.415 0.623 0.087 0.069 0.156 0.139 0.26 0.208-0.017 0.069-0.052 0.121-0.069 0.173-0.017 0-0.052 0-0.087 0-0.017 0.035-0.035 0.069-0.052 0.104-0.069 0-0.121 0-0.19 0 0.017-0.035 0.035-0.052 0.035-0.069-0.017-0.017-0.035-0.035-0.052-0.069-0.017-0.017-0.035-0.052-0.052-0.069 0-0.035 0-0.052 0-0.087-0.121-0.052-0.242 0.035-0.364 0.052-0.173 0.035-0.277 0.035-0.45 0-0.19-0.035-0.364-0.121-0.519-0.225-0.173-0.121-0.381-0.45-0.433-0.658-0.035-0.139-0.052-0.294-0.052-0.433 0-0.087 0.035-0.173 0.069-0.26-0.225-0.242-0.225-0.242-0.225-0.623 0.035-0.035 0.104-0.087 0.156-0.139s0.121-0.087 0.19-0.139c0.19-0.017 0.346 0.017 0.502 0.173 0.26-0.173 0.571-0.104 0.848-0.104 0.104 0 0.173 0.104 0.277 0.104 0 0.087 0.069 0.052 0.104 0.052 0.017 0.017 0.035 0.035 0.052 0.052s0.035 0.035 0.035 0.052c0.017-0.017 0.052-0.035 0.069-0.052 0.052-0.035 0.104-0.069 0.173-0.121 0.052 0.035 0.104 0.052 0.139 0.087 0.035 0.121 0.035 0.208 0.035 0.312zM13.975 10.564c-0.087-0.312-0.346-0.433-0.589-0.485-0.121 0.017-0.225 0.035-0.381 0.052-0.121 0.121-0.26 0.26-0.398 0.398 0 0.208 0 0.364 0 0.537 0.087 0.104 0.173 0.225 0.277 0.329s0.225 0.121 0.381 0.121c0.121 0 0.225 0 0.329-0.052 0.121-0.052 0.225-0.121 0.312-0.225 0.087-0.121 0.069-0.26 0.139-0.346-0.052-0.121-0.052-0.225-0.069-0.329zM12.97 9.508c-0.156-0.069-0.208 0.069-0.312 0.121s-0.156 0.173-0.225 0.277c-0.069 0.087-0.139 0.173-0.087 0.294 0.415 0 0.433 0 0.623-0.294 0-0.156 0-0.277 0-0.398zM14.252 9.785c0.069 0.035 0.139 0.069 0.242 0.121-0.052-0.156-0.139-0.19-0.225-0.312-0.017 0.087-0.017 0.139-0.017 0.19z"></path>
<path d="M21.349 8.314v0.017c-0.139 0.035-0.277 0.104-0.433 0.087 0.017-0.035 0.035-0.052 0.052-0.087-0.017 0-0.052-0.017-0.069-0.017-0.069 0.017-0.139 0.052-0.19 0.052-0.139-0.035-0.294-0.052-0.416-0.139-0.312-0.19-0.537-0.433-0.537-0.831 0-0.121 0-0.242 0-0.346 0.19-0.589 0.606-0.831 1.194-0.762 0.364 0.035 0.675 0.242 0.779 0.606 0.139 0.485 0.156 0.866-0.346 1.264-0.121 0.052-0.173 0.087-0.242 0.104 0 0.017 0 0.035 0.017 0.035 0.052 0.017 0.121 0.017 0.19 0.017z"></path>
<path d="M6.15 9.855c-0.329-0.069-0.571-0.277-0.744-0.554-0.035-0.052-0.052-0.121-0.052-0.156 0-0.225-0.052-0.45 0.035-0.675 0.087-0.208 0.19-0.364 0.381-0.467 0.364-0.225 0.519-0.208 0.952-0.104 0.138 0.035 0.312 0.19 0.398 0.294 0.087 0.121 0.19 0.242 0.225 0.381 0.069 0.277 0.035 0.554-0.104 0.814-0.052 0.087-0.104 0.156-0.173 0.225s-0.156 0.104-0.225 0.156c-0.225 0.052-0.467 0.121-0.692 0.087z"></path>
<path d="M13.819 9.058c-0.069-0.017-0.139-0.017-0.19-0.052-0.208-0.139-0.433-0.433-0.537-0.675-0.035-0.087-0.017-0.173-0.035-0.26 0-0.052 0-0.121-0.017-0.208 0-0.017 0.035-0.087 0.035-0.138 0.017-0.138 0.035-0.26 0.139-0.364 0.052-0.069 0.087-0.138 0.139-0.208 0.052-0.052 0.121-0.087 0.173-0.138 0.277-0.26 0.623-0.294 0.969-0.277 0.156 0.087 0.364 0.087 0.485 0.225 0.156 0.138 0.329 0.26 0.398 0.467 0 0.035 0 0.069 0 0.104-0.104-0.017-0.139 0.087-0.19 0.121-0.035 0.104-0.069 0.19-0.069 0.277s0.035 0.19 0.052 0.294c-0.104-0.069-0.19-0.173-0.242-0.156-0.104 0.017-0.173-0.156-0.26-0.017-0.087-0.104-0.173 0-0.242 0.017-0.139 0.035-0.277 0.121-0.381 0.242-0.139 0.173-0.19 0.45-0.156 0.692 0 0 0.035 0.017 0.052 0.017-0.017 0.052-0.069 0.017-0.121 0.035z"></path>
<path d="M18.302 15.671c0.069 0.104 0.173 0.19 0.225 0.312 0.087 0.156 0.121 0.329 0.139 0.485-0.017 0-0.035 0-0.052 0-0.121-0.017-0.26 0.035-0.312 0.139s-0.156 0.225-0.104 0.381c0.035 0.104 0.087 0.19 0.121 0.294 0.035 0 0.052 0 0.087 0 0.017 0.017 0.035 0.035 0.052 0.052-0.139 0.104-0.294 0.19-0.433 0.294-0.087 0.087-0.19 0.087-0.277 0.121-0.156 0.035-0.312 0.104-0.485 0.069 0-0.017 0-0.035 0-0.052 0.156-0.035 0.069-0.208 0.156-0.26-0.035-0.121-0.104-0.225-0.104-0.329 0-0.121-0.104-0.173-0.139-0.26-0.052-0.087-0.173-0.121-0.26-0.173-0.104-0.035-0.225 0.052-0.312-0.052-0.035 0.017-0.087 0.017-0.121 0.035-0.104 0.052-0.242 0.052-0.242 0.208-0.035 0-0.069 0-0.104 0 0.017-0.052 0.052-0.104 0.052-0.156 0-0.19 0-0.364 0-0.467 0.121-0.415 0.312-0.692 0.641-0.848 0.017 0.052 0.035 0.087 0.052 0.139 0.139 0.433 0.416 0.571 0.762 0.554 0.242-0.017 0.45-0.156 0.571-0.364 0.121-0.017 0.087-0.087 0.087-0.121z"></path>
<path d="M13.282 18.337c0.052-0.017 0.087-0.017 0.139-0.035 0.069 0.035 0.156 0.052 0.225 0.087 0 0.139 0 0.26 0 0.381 0 0.139 0.035 0.242 0.156 0.329 0.017-0.052 0.052-0.104 0.069-0.139 0.017-0.052 0.035-0.087 0.052-0.139-0.104-0.139-0.017-0.364-0.26-0.433 0.087-0.104 0.156-0.26 0.312-0.312 0-0.052 0-0.104 0-0.156 0.035 0.017 0.069 0.035 0.104 0.052 0 0.052 0 0.087 0 0.139 0.104 0.069 0.19 0.121 0.294 0.173 0.173 0 0.329 0 0.502 0l0.017-0.017c-0.017-0.087-0.087-0.139-0.156-0.173-0.121-0.052-0.225-0.139-0.381-0.104-0.017-0.035-0.035-0.052-0.052-0.087 0.242-0.087 0.398 0.104 0.571 0.156 0.035 0.052 0.052 0.104 0.069 0.139 0.017 0.069 0.035 0.139 0.052 0.19 0.139 0.294 0.139 0.312 0 0.641 0.156 0.087 0.364 0.156 0.415 0.364 0 0.087 0 0.173 0 0.312-0.087 0.087-0.208 0.208-0.277 0.294-0.225 0.069-0.346-0.035-0.485-0.087-0.035-0.052-0.087-0.121-0.139-0.19 0-0.069 0-0.156 0-0.26-0.104 0-0.225 0-0.329 0-0.139-0.087-0.277-0.173-0.433-0.294-0.035 0.017-0.104 0.052-0.208 0.104-0.035 0-0.121 0-0.208 0-0.017 0-0.035-0.035-0.035-0.052 0.087-0.121 0.035-0.242 0.052-0.381-0.104 0.069-0.173 0.104-0.242 0.156-0.052-0.017-0.069-0.035-0.087-0.035-0.017-0.035-0.035-0.069-0.052-0.104 0-0.052 0-0.087 0-0.139 0.017-0.19 0.156-0.329 0.312-0.381zM14.407 19.341c0.121 0 0.173 0.017 0.242 0.017 0.087-0.121 0.277-0.121 0.294-0.312-0.069 0.017-0.121 0.035-0.208 0.052-0.069 0.069-0.139 0.19-0.329 0.242z"></path>
<path d="M30.351 17.956c0.017 0.156 0.173 0.329 0.104 0.502-0.052 0.173-0.104 0.346-0.242 0.485-0.139 0.121-0.294 0.173-0.467 0.225-0.069 0-0.156-0.017-0.242-0.035s-0.156-0.035-0.242-0.052c-0.242-0.19-0.416-0.433-0.398-0.779s0.26-0.519 0.519-0.692c0.364-0.052 0.71-0.035 0.969 0.346z"></path>
<path d="M15.948 24.638c0.052-0.017 0.138 0.052 0.156-0.052 0.035 0 0.069 0 0.104-0.017 0.329-0.19 0.675-0.364 0.866-0.727 0.017-0.017 0.035-0.035 0.052-0.052 0.035 0.035 0.052 0.087 0.104 0.104 0.364 0.156 0.502 0.433 0.485 0.814 0 0.069 0 0.121 0 0.173-0.104 0.173-0.156 0.381-0.329 0.502-0.156 0.104-0.329 0.156-0.502 0.173-0.19 0.035-0.381-0.069-0.537-0.173-0.156-0.087-0.26-0.26-0.346-0.485 0-0.069 0.035-0.173-0.052-0.26z"></path>
<path d="M4.038 22.128c0.537-0.035 0.744 0.017 0.969 0.485 0.017 0.104 0.035 0.19 0.035 0.26s-0.017 0.139-0.017 0.208c0 0.052-0.035 0.087-0.052 0.139-0.138 0.26-0.433 0.485-0.744 0.45-0.156-0.017-0.312-0.052-0.433-0.173s-0.26-0.242-0.294-0.433c-0.017-0.087-0.052-0.173-0.017-0.242 0.087-0.277 0.173-0.502 0.519-0.623 0-0.035 0.017-0.052 0.035-0.069z"></path>
<path d="M18.562 22.665c-0.017 0.104-0.087 0.035-0.156 0.052 0-0.017 0-0.052-0.017-0.069 0-0.017-0.017-0.017-0.035-0.017 0 0.017-0.017 0.035-0.017 0.052-0.225 0-0.381-0.139-0.537-0.294-0.069-0.069-0.104-0.173-0.156-0.277 0-0.156 0-0.329 0-0.502 0.104-0.225 0.225-0.433 0.485-0.519 0.052 0 0.104 0 0.156 0 0.121 0.225 0.312 0.312 0.554 0.26 0.052-0.035 0.104-0.052 0.156-0.087-0.035-0.052-0.052-0.087-0.069-0.121 0.035 0 0.069 0 0.087 0 0.052 0.052-0.017 0.156 0.069 0.156 0.035 0.035 0.069 0.069 0.104 0.104 0.052 0.121 0.139 0.225 0.104 0.381-0.017 0.069-0.035 0.139-0.035 0.225 0 0.052 0.017 0.121 0.017 0.173 0 0.017-0.035 0.017-0.052 0.035 0-0.035-0.017-0.069-0.017-0.121-0.156 0.087-0.312 0.139-0.433 0.225-0.121 0.104-0.242 0.225-0.381 0.364 0.121-0.017 0.139-0.017 0.173-0.017z"></path>
<path d="M27.391 8.781c0.467 0.035 0.779 0.312 0.779 0.744-0.017 0.467-0.277 0.692-0.727 0.744-0.173 0.017-0.364-0.069-0.502-0.19-0.156-0.156-0.26-0.364-0.242-0.571 0-0.19 0.104-0.381 0.26-0.519 0.121-0.139 0.294-0.156 0.433-0.208z"></path>
<path d="M25.296 20.224l0.017-0.017c0.069-0.312 0.346-0.381 0.589-0.485 0.121-0.052 0.26 0.017 0.381 0.052 0.294 0.104 0.537 0.571 0.45 0.866-0.035 0.121-0.121 0.242-0.208 0.346-0.104 0.121-0.26 0.19-0.398 0.208-0.26 0.052-0.485-0.017-0.658-0.225-0.104-0.121-0.173-0.242-0.173-0.416 0-0.087 0-0.19 0-0.329z"></path>
<path d="M22.526 10.928c0.052 0 0.156 0 0.242 0 0.26 0 0.398 0.087 0.537 0.294 0.139 0.19 0.173 0.364 0.121 0.606-0.087 0.277-0.277 0.415-0.502 0.519-0.121 0.052-0.26 0.017-0.346 0.017-0.433-0.173-0.623-0.45-0.606-0.814 0.104-0.312 0.26-0.519 0.554-0.623z"></path>
<path d="M21.297 15.585c0 0.069-0.017 0.156 0 0.242 0.035 0.19-0.052 0.364-0.173 0.485-0.087 0.087-0.19 0.173-0.312 0.19-0.104 0.035-0.242 0.156-0.346 0.017-0.294 0-0.45-0.19-0.571-0.433-0.104-0.225-0.069-0.433 0.035-0.641 0.173-0.329 0.519-0.433 0.883-0.312 0.208 0.069 0.329 0.208 0.416 0.398 0.017 0.017 0.035 0.035 0.069 0.052z"></path>
<path d="M27.633 20.259c-0.139-0.104-0.294-0.225-0.45-0.329-0.017-0.208-0.035-0.398-0.052-0.571 0.19-0.329 0.19-0.329 0.502-0.519 0.277-0.017 0.537-0.017 0.744 0.208 0.139 0.156 0.19 0.329 0.208 0.537 0.017 0.139-0.035 0.277-0.121 0.381-0.052 0.087-0.139 0.156-0.208 0.208-0.173 0.087-0.173 0.087-0.623 0.087z"></path>
<path d="M26.941 21.574c0.156-0.017 0.329-0.035 0.45-0.052 0.225 0.087 0.381 0.19 0.485 0.346 0.017 0.069 0.035 0.104 0.052 0.156 0.104 0.277 0.035 0.519-0.156 0.727-0.156 0.173-0.329 0.242-0.554 0.225-0.069 0-0.139 0-0.19 0-0.104-0.052-0.19-0.087-0.26-0.139-0.052-0.035-0.104-0.104-0.139-0.139-0.052-0.104-0.087-0.208-0.121-0.294-0.052-0.346 0.156-0.589 0.433-0.831z"></path>
<path d="M24.586 10.183c0.796 0.381 0.641 1.091 0.035 1.437-0.069 0-0.139-0.017-0.208 0-0.208 0.035-0.381-0.069-0.537-0.173-0.035-0.017-0.052-0.069-0.069-0.104-0.156-0.277-0.156-0.277-0.156-0.589 0.156-0.415 0.45-0.641 0.935-0.571z"></path>
<path d="M24.067 22.422c-0.225-0.069-0.485-0.121-0.606-0.381-0.087-0.173-0.139-0.346-0.087-0.519 0.087-0.312 0.398-0.623 0.917-0.571 0.156 0.087 0.312 0.156 0.416 0.312 0.087 0.139 0.069 0.329 0.156 0.467-0.069 0.173-0.121 0.364-0.277 0.502s-0.329 0.139-0.519 0.19z"></path>
<path d="M20.916 21.211c0.156-0.329 0.364-0.537 0.727-0.519 0.346 0.017 0.589 0.19 0.71 0.537 0 0.225 0.035 0.485-0.19 0.692-0.156 0.156-0.329 0.208-0.537 0.208s-0.381-0.069-0.537-0.208c-0.19-0.19-0.19-0.45-0.173-0.71z"></path>
<path d="M10.080 15.931c0.087-0.208 0.19-0.381 0.364-0.467 0.104-0.052 0.225-0.087 0.346-0.104 0.087 0 0.19 0.035 0.294 0.069 0.173 0.069 0.294 0.19 0.381 0.346s0.104 0.346 0.052 0.519c-0.035 0.104-0.069 0.225-0.156 0.312-0.069 0.087-0.19 0.139-0.294 0.19-0.087 0.035-0.19 0.069-0.26 0.052-0.398-0.087-0.762-0.294-0.727-0.917z"></path>
<path d="M7.76 22.89c0.035-0.242 0.052-0.467 0.26-0.589 0.052-0.035 0.104-0.087 0.173-0.104 0.156-0.052 0.312-0.087 0.485-0.069 0.19 0.104 0.398 0.19 0.467 0.416 0.052 0.121 0.121 0.26 0.087 0.381-0.035 0.173-0.121 0.329-0.225 0.45-0.087 0.087-0.225 0.156-0.381 0.173-0.225 0.035-0.415-0.035-0.589-0.156s-0.242-0.312-0.277-0.502z"></path>
<path d="M1.095 14.546c-0.035-0.139-0.069-0.277-0.104-0.415 0.035-0.104 0.035-0.242 0.104-0.346s0.173-0.19 0.294-0.312c0.173-0.017 0.364-0.035 0.537-0.052 0.208 0.104 0.329 0.225 0.45 0.381 0.069 0.104 0.104 0.242 0.087 0.346 0 0.121-0.017 0.277-0.121 0.398-0.104 0.104-0.19 0.225-0.346 0.26-0.346 0.121-0.623 0.052-0.9-0.26z"></path>
<path d="M9.024 24.881c0 0.052 0 0.139 0 0.242-0.017 0.087-0.035 0.173-0.052 0.277-0.277 0.312-0.415 0.364-0.831 0.346-0.329-0.121-0.485-0.346-0.537-0.641-0.052-0.312 0.138-0.537 0.381-0.727 0.19-0.087 0.416-0.104 0.623-0.017 0.19 0.087 0.346 0.242 0.415 0.519z"></path>
<path d="M4.332 13.975c0.035-0.139-0.017-0.277 0.052-0.433 0.052-0.121 0.087-0.26 0.208-0.329s0.242-0.139 0.381-0.156c0.121-0.017 0.26 0.035 0.398 0.052 0.519 0.415 0.537 0.9 0 1.333-0.138 0.017-0.294 0.052-0.433 0.052-0.121-0.017-0.242-0.087-0.346-0.173-0.121-0.104-0.173-0.225-0.26-0.346z"></path>
<path d="M9.664 21.141c-0.052 0.069-0.104 0.121-0.121 0.19-0.087 0.19-0.26 0.208-0.415 0.277-0.242 0.104-0.415-0.035-0.606-0.121-0.104-0.069-0.208-0.225-0.225-0.346-0.017-0.104-0.052-0.225-0.017-0.346s0.069-0.225 0.156-0.312c0.104-0.139 0.294-0.242 0.45-0.26 0.121 0 0.225 0 0.329 0 0.19 0.121 0.346 0.26 0.45 0.45 0 0.139 0 0.294 0 0.467z"></path>
<path d="M7.518 13.802c-0.069 0.208-0.225 0.294-0.329 0.415-0.104 0.017-0.19 0.052-0.277 0.052-0.087 0.017-0.173 0-0.26 0-0.242-0.069-0.381-0.242-0.502-0.467 0-0.139 0-0.294 0-0.45 0.069-0.225 0.242-0.364 0.45-0.433 0.104-0.035 0.208-0.104 0.346-0.052 0.26 0.087 0.398 0.156 0.467 0.26 0.138 0.208 0.121 0.45 0.104 0.675z"></path>
<path d="M15.377 13.213c0-0.035 0-0.052 0-0.087-0.156-0.087-0.156-0.087-0.312-0.381 0-0.156 0-0.312 0-0.485 0.087-0.121 0.173-0.26 0.242-0.364 0.139-0.035 0.242-0.052 0.329-0.087 0.121-0.069 0.225-0.035 0.329 0.017 0.017 0.104 0.104 0.035 0.156 0.052 0.017 0.104 0.035 0.208 0.069 0.312 0.087 0.052 0.156 0.104 0.242 0.156 0.087-0.087 0.19-0.017 0.294-0.035-0.035 0.121-0.139 0.017-0.208 0.069 0 0.104 0 0.208 0 0.294-0.139 0.294-0.277 0.519-0.589 0.571 0 0.035 0 0.069 0 0.087-0.035-0.017-0.069-0.052-0.104-0.069 0.017-0.035 0.035-0.052 0.052-0.069-0.104-0.017-0.19-0.052-0.294-0.069-0.087 0.017-0.121 0.121-0.208 0.087z"></path>
<path d="M5.717 22.734c0.225-0.346 0.467-0.571 1.039-0.398 0.087 0.087 0.173 0.173 0.26 0.26 0.087 0.156 0.087 0.329 0.087 0.502 0 0.104-0.035 0.19-0.121 0.277-0.087 0.104-0.19 0.19-0.277 0.277-0.087 0.017-0.173 0.069-0.242 0.069-0.364 0-0.589-0.121-0.744-0.502-0.017-0.052-0.017-0.104-0.017-0.156 0.017-0.104 0.017-0.208 0.017-0.329z"></path>
<path d="M10.097 23.288c-0.087-0.242-0.104-0.467 0-0.727 0.19-0.277 0.485-0.381 0.883-0.312 0.225 0.173 0.312 0.156 0.485 0.675-0.069 0.208-0.087 0.433-0.277 0.571-0.104 0-0.139 0.156-0.277 0.121-0.087-0.017-0.173 0.087-0.294 0.035-0.19-0.069-0.364-0.19-0.519-0.364z"></path>
<path d="M17.229 12.624c0.035 0 0.052 0.017 0.087 0 0.19-0.104 0.346-0.035 0.519 0.035 0.173 0.087 0.294 0.225 0.364 0.415 0 0.017 0.035 0.035 0.052 0.069-0.017 0.139 0 0.26-0.052 0.398-0.087 0.277-0.277 0.398-0.537 0.467-0.087 0.017-0.19 0.069-0.242 0.052-0.087-0.052-0.173-0.035-0.242-0.052-0.017-0.035-0.035-0.069-0.052-0.104-0.017-0.069-0.017-0.156-0.035-0.225-0.035-0.173-0.035-0.346 0-0.502 0.017-0.087-0.017-0.19 0.035-0.242 0.069-0.087 0.035-0.173 0.052-0.242 0.017-0.035 0.035-0.052 0.052-0.069z"></path>
<path d="M18.735 18.874c0.017 0.017 0.052 0.035 0.052 0.035 0 0.069 0 0.139 0 0.225 0.156-0.035 0.26 0.052 0.381 0.104 0.017 0.017 0.035 0.035 0.052 0.052 0 0.26 0.035 0.485 0.312 0.589 0 0.017 0 0.035 0 0.052-0.035 0.277-0.173 0.485-0.433 0.589-0.104 0.087-0.208 0.052-0.312 0.052-0.208 0-0.242-0.017-0.381-0.156-0.208-0.104-0.277-0.294-0.26-0.502 0-0.069-0.035-0.121-0.052-0.19 0.017 0 0.035 0 0.052 0 0.087-0.017 0.156-0.035 0.26-0.069 0.069-0.069 0.139-0.139 0.225-0.225s0.121-0.173 0.104-0.294c0-0.087 0-0.173 0-0.26z"></path>
<path d="M14.096 17.956c-0.035-0.017-0.069-0.035-0.104-0.052-0.052-0.069-0.052-0.139-0.052-0.208v-0.312c0.035-0.035 0.069-0.087 0.104-0.139-0.035-0.017-0.069-0.035-0.104-0.052 0-0.017 0-0.052 0-0.087 0.035 0.017 0.052 0.035 0.104 0.069 0.035-0.035 0.069-0.087 0.104-0.121 0.035-0.139 0.173-0.173 0.277-0.19 0.121-0.017 0.242-0.035 0.346 0 0.26 0.069 0.364 0.173 0.537 0.485 0 0.104 0 0.208 0 0.312 0 0.087-0.035 0.173-0.052 0.294-0.052 0.052-0.139 0.139-0.208 0.208-0.017 0.017-0.069 0.017-0.104 0.017-0.017-0.052-0.035-0.087-0.069-0.139-0.173-0.052-0.329-0.242-0.571-0.156 0.017 0.035 0.035 0.052 0.052 0.087-0.035 0-0.069 0-0.104 0-0.052-0.087-0.104-0.087-0.156-0.017zM14.58 17.333c0.052-0.087 0.139-0.052 0.208-0.069 0.087-0.017 0.121-0.104 0.069-0.156-0.069-0.069-0.139-0.139-0.173-0.19-0.069 0.052-0.139 0.121-0.225 0.208 0.035 0.052 0.069 0.121 0.121 0.208z"></path>
<path d="M14.736 10.928c0.017-0.121-0.035-0.26 0.052-0.364-0.017-0.052-0.035-0.104-0.052-0.173 0.052-0.156 0.173-0.242 0.277-0.346 0.017-0.017 0.069-0.017 0.104-0.017 0.104-0.035 0.208-0.069 0.329-0.104 0.19 0.087 0.415 0.121 0.537 0.312 0 0.052 0 0.087 0.017 0.104-0.208 0.104-0.415 0.19-0.641 0.052-0.069-0.069-0.121-0.156-0.19-0.225 0 0-0.017 0-0.035 0 0 0.035 0 0.069 0 0.139 0.017 0.017 0.069 0.052 0.121 0.104 0.104 0.104 0.208 0.19 0.364 0.173s0.294-0.052 0.381-0.225c0 0.017 0.017 0.017 0.035 0.017 0.121 0.069 0.104 0.208 0.104 0.312-0.104 0-0.208 0-0.312 0-0.156 0-0.381 0.19-0.433 0.346-0.035 0.121-0.087 0.225 0 0.346-0.052 0-0.104 0-0.156 0-0.139 0.035-0.225-0.069-0.312-0.156-0.104-0.104-0.139-0.208-0.19-0.294z"></path>
<path d="M14.044 9.162c-0.017-0.017-0.035-0.035-0.052-0.052 0-0.035 0.035-0.104-0.052-0.104 0-0.035 0-0.069 0-0.104 0-0.26 0.087-0.485 0.294-0.641 0.139-0.104 0.294-0.156 0.467-0.156 0.087 0.087 0.19 0.035 0.294 0.069 0.069 0.052 0.139 0.087 0.208 0.139 0.052 0.052 0.087 0.139 0.139 0.208 0 0.173-0.121 0.294-0.242 0.364-0.26 0.173-0.554 0.294-0.866 0.277-0.087 0-0.139 0-0.19 0z"></path>
<path d="M28.066 11.049c0-0.104 0-0.208 0-0.346 0.087-0.104 0.19-0.208 0.277-0.312 0.121-0.017 0.225-0.069 0.329-0.052s0.208 0.069 0.294 0.121c0.052 0.052 0.069 0.156 0.121 0.208 0.104 0.139 0.017 0.294 0.052 0.415-0.19 0.294-0.433 0.415-0.796 0.277-0.087-0.069-0.19-0.19-0.277-0.312z"></path>
<path d="M1.199 16.416c-0.087-0.069-0.173-0.139-0.26-0.208-0.139-0.519-0.052-0.519 0.208-0.796 0.087-0.017 0.173-0.052 0.26-0.052s0.156 0.035 0.26 0.069c0.087 0.087 0.173 0.208 0.26 0.294 0.017 0.225 0.017 0.398-0.139 0.554-0.173 0.173-0.381 0.139-0.589 0.139z"></path>
<path d="M18.147 19.722h-0.26c-0.052 0-0.087-0.017-0.139-0.052-0.225-0.121-0.329-0.294-0.416-0.519-0.069-0.173 0.035-0.294 0.035-0.45h0.017c0.052 0.26 0.26 0.364 0.485 0.433 0.19-0.069 0.398-0.104 0.467-0.346 0.035-0.156-0.035-0.312-0.104-0.45 0.052 0 0.087 0 0.139 0 0.087 0.121 0.26 0.208 0.312 0.364 0.017 0.052 0.017 0.104 0.035 0.173 0 0.087 0 0.173 0 0.26-0.035 0.017-0.052 0.052-0.087 0.052-0.294 0.035-0.416 0.277-0.485 0.537z"></path>
<path d="M22.336 25.694c-0.087-0.017-0.173-0.052-0.294-0.069-0.277-0.225-0.312-0.502-0.208-0.71 0.035-0.069 0.139-0.139 0.208-0.19s0.139-0.087 0.225-0.104c0.087 0 0.173 0.017 0.26 0.035 0.433 0.381 0.398 0.866-0.19 1.039z"></path>
<path d="M14.2 24.517c0.104 0.087 0.208 0.173 0.294 0.26 0.017 0.104 0.035 0.19 0.069 0.294-0.017 0.035-0.035 0.104-0.069 0.19-0.052 0.052-0.139 0.139-0.225 0.208-0.087 0.017-0.19 0.052-0.277 0.052-0.087-0.017-0.173-0.087-0.277-0.139-0.035-0.087-0.087-0.173-0.156-0.294 0.017-0.087 0.035-0.208 0.052-0.329 0.208-0.208 0.26-0.242 0.589-0.242z"></path>
<path d="M25.919 9.595c0.069 0.087 0.156 0.19 0.208 0.277 0.035 0.277 0.017 0.519-0.312 0.641-0.087 0-0.208 0-0.329 0-0.052-0.035-0.104-0.087-0.19-0.139-0.017-0.052-0.069-0.121-0.121-0.225 0-0.173 0.017-0.381 0.19-0.485 0.156-0.087 0.329-0.208 0.519 0 0.017-0.035 0.017-0.052 0.035-0.069z"></path>
<path d="M26.439 18.441c0.346 0.208 0.346 0.208 0.329 0.641-0.104 0.312-0.329 0.346-0.606 0.312-0.173-0.052-0.26-0.208-0.329-0.364-0.017-0.052-0.052-0.139-0.017-0.173 0.069-0.104 0.087-0.242 0.19-0.312 0.139-0.087 0.277-0.121 0.433-0.104z"></path>
<path d="M26.958 11.655c-0.069-0.069-0.139-0.139-0.225-0.225 0-0.121 0-0.26 0-0.381 0.087-0.087 0.156-0.208 0.312-0.277 0.104 0 0.225 0 0.364 0 0.069 0.069 0.156 0.156 0.225 0.225 0.052 0.26 0.052 0.26 0 0.502-0.052 0.052-0.121 0.104-0.19 0.173-0.069 0.017-0.139 0.052-0.225 0.052s-0.173-0.035-0.26-0.069z"></path>
<path d="M28.793 20.951c0.087 0.104 0.156 0.19 0.225 0.277 0.035 0.277 0.017 0.519-0.312 0.641-0.087 0-0.208 0-0.329 0-0.346-0.277-0.364-0.45-0.208-0.71 0.069-0.139 0.19-0.156 0.277-0.225 0.104-0.104 0.208 0.035 0.346 0.017z"></path>
<path d="M18.839 6.998c-0.052 0.069-0.087 0.121-0.139 0.19-0.121 0.069-0.277 0.156-0.467 0.104-0.156-0.052-0.242-0.156-0.294-0.294-0.035-0.138-0.087-0.277-0.017-0.415 0.104-0.087 0.19-0.156 0.277-0.242 0.121 0 0.225 0 0.312 0 0.069 0.052 0.156 0.087 0.208 0.121 0.052 0.052 0.069 0.121 0.121 0.19 0 0.104 0 0.225 0 0.346z"></path>
<path d="M25.192 22.44c-0.139-0.364-0.069-0.606 0.104-0.71 0.104-0.069 0.225-0.087 0.364-0.087 0.087 0 0.156 0.052 0.225 0.104 0.121 0.087 0.156 0.225 0.19 0.346 0.052 0.139-0.087 0.242-0.121 0.381-0.087 0.052-0.173 0.087-0.277 0.139-0.19 0-0.139 0.017-0.485-0.173z"></path>
<path d="M20.986 12.036c-0.087-0.017-0.173-0.035-0.26-0.069-0.208-0.139-0.26-0.346-0.225-0.571 0.087-0.225 0.242-0.312 0.433-0.346 0.069 0.017 0.139 0.035 0.225 0.052 0.069 0.069 0.139 0.156 0.225 0.26 0.035 0.121 0.069 0.26-0.017 0.433s-0.26 0.173-0.381 0.242z"></path>
<path d="M14.355 20.051c0.346 0.121 0.346 0.398 0.329 0.658-0.087 0.087-0.156 0.173-0.242 0.242-0.364 0.069-0.364 0.069-0.554-0.121-0.173-0.156-0.19-0.346-0.087-0.571-0.017 0.017 0.017 0 0.035-0.017 0.069-0.069 0.121-0.121 0.19-0.19 0.104 0 0.225 0 0.329 0z"></path>
<path d="M22.873 23.167c-0.242-0.035-0.433-0.087-0.519-0.364 0-0.087 0-0.208 0-0.329 0.069-0.069 0.156-0.156 0.225-0.225 0.087-0.017 0.156-0.035 0.277-0.052 0.017 0 0.087 0.035 0.139 0.052 0-0.017 0.017-0.017 0.017-0.035 0.069 0.069 0.139 0.139 0.19 0.208s0.104 0.139 0.087 0.225c-0.017 0.104-0.052 0.19-0.104 0.277s-0.139 0.139-0.173 0.19c-0.052 0.035-0.104 0.035-0.139 0.052z"></path>
<path d="M19.41 7.742c0.035 0.156-0.035 0.277-0.104 0.398-0.069 0.156-0.242 0.121-0.346 0.208-0.156-0.052-0.364-0.052-0.467-0.225-0.087-0.138-0.052-0.277-0.052-0.433 0.19-0.329 0.364-0.329 0.675-0.294 0.052 0.052 0.121 0.104 0.173 0.173s0.087 0.121 0.121 0.173z"></path>
<path d="M10.062 23.825c0.156 0.45 0.069 0.537-0.19 0.692-0.242 0.035-0.467 0-0.623-0.242-0.017-0.035-0.035-0.104-0.052-0.19 0.052-0.156 0.052-0.381 0.329-0.467 0.087 0 0.225 0 0.381 0 0.035 0.069 0.104 0.139 0.156 0.208z"></path>
<path d="M12.192 23.617c-0.346-0.19-0.346-0.416-0.225-0.779 0.346-0.173 0.346-0.173 0.623-0.121 0.069 0.087 0.156 0.173 0.225 0.277 0 0.121 0 0.225 0 0.312-0.052 0.069-0.069 0.139-0.121 0.208-0.052 0.052-0.121 0.069-0.19 0.121-0.087-0.017-0.208-0.017-0.312-0.017z"></path>
<path d="M12.642 8.522c-0.017 0.069-0.035 0.139-0.052 0.208-0.052 0.052-0.121 0.121-0.19 0.173 0 0.017 0.017 0.017 0.017 0.035-0.139 0.017-0.26 0.052-0.398 0.069-0.121-0.104-0.225-0.208-0.346-0.312 0.017-0.139 0.035-0.277 0.069-0.433 0.069-0.052 0.156-0.121 0.242-0.173 0.121 0 0.242 0 0.381 0 0.121 0.121 0.242 0.242 0.277 0.433z"></path>
<path d="M6.998 21.436c0.087-0.069 0.173-0.139 0.26-0.208 0.104 0 0.19 0 0.294 0 0.087 0.069 0.19 0.139 0.277 0.208 0.017 0.121 0.069 0.208 0.052 0.312 0 0.087-0.069 0.156-0.121 0.26-0.104 0.052-0.208 0.139-0.329 0.156-0.121-0.052-0.277-0.035-0.364-0.173-0.121-0.277-0.121-0.277-0.069-0.554z"></path>
<path d="M17.818 20.57c0.017 0.035 0.035 0.052 0.052 0.087-0.017 0.069-0.035 0.156-0.069 0.242-0.069 0.069-0.156 0.156-0.26 0.26-0.087 0-0.208 0-0.346 0-0.139-0.052-0.225-0.156-0.277-0.312s0-0.26 0.069-0.381c0.052-0.087 0.139-0.139 0.208-0.208 0.104 0 0.19 0 0.294 0 0.087 0.035 0.173 0.087 0.242 0.156 0.069 0.052-0.017 0.156 0.087 0.156z"></path>
<path d="M8.331 8.851c-0.087 0-0.19 0-0.294 0-0.087-0.052-0.156-0.121-0.225-0.156-0.035-0.104-0.069-0.173-0.069-0.242-0.017-0.069 0-0.139 0-0.208 0.052-0.069 0.087-0.139 0.138-0.19 0.017-0.017 0.017-0.035 0.035-0.035 0.052-0.017 0.104-0.052 0.156-0.052 0.087-0.017 0.173-0.017 0.26-0.017 0.139 0.069 0.26 0.139 0.312 0.294 0.035 0.242 0 0.485-0.312 0.606z"></path>
<path d="M3.345 21.488c-0.294-0.19-0.294-0.208-0.294-0.658 0.069-0.069 0.173-0.173 0.26-0.26 0.139 0 0.242 0 0.346 0 0.208 0.069 0.26 0.242 0.294 0.45 0.035 0.242-0.139 0.346-0.312 0.467-0.087 0-0.19 0-0.294 0z"></path>
<path d="M6.964 25.383c-0.069 0-0.156-0.035-0.208 0.052-0.052-0.087-0.138-0.035-0.225-0.069-0.069-0.087-0.138-0.173-0.208-0.26 0-0.121 0-0.225 0-0.329 0.035-0.052 0.087-0.121 0.138-0.19 0.052-0.017 0.121-0.069 0.242-0.121 0.121-0.035 0.242 0.069 0.398 0.139 0.035 0.052 0.069 0.104 0.121 0.19-0.017 0.346-0.017 0.346-0.26 0.589z"></path>
<path d="M10.651 6.548c0.208-0.208 0.208-0.208 0.519-0.208 0.087 0.052 0.156 0.087 0.242 0.121 0.156 0.364 0.156 0.364-0.052 0.71-0.139 0.017-0.277 0.052-0.415 0.087-0.121-0.087-0.225-0.173-0.294-0.225-0.035-0.121-0.052-0.19-0.069-0.294 0.017-0.035 0.035-0.087 0.069-0.19z"></path>
<path d="M3.415 13.213c0.139-0.017 0.277 0.035 0.398 0.139 0.139 0.139 0.156 0.294 0.139 0.433-0.104 0.312-0.329 0.346-0.606 0.312-0.121-0.052-0.26-0.121-0.277-0.294 0-0.156-0.052-0.312 0.087-0.467 0.069-0.017 0.156-0.052 0.26-0.121z"></path>
<path d="M8.747 12.434v0.381c-0.087 0.069-0.19 0.156-0.277 0.225-0.346 0-0.346 0-0.571-0.242-0.017-0.104-0.052-0.208-0.052-0.294 0.017-0.087 0.069-0.156 0.104-0.225 0.069-0.052 0.121-0.087 0.19-0.139-0.017 0.017-0.017 0 0 0 0.104 0 0.19 0 0.294 0 0.139 0.087 0.277 0.139 0.312 0.294z"></path>
<path d="M13.282 18.337c-0.173 0.052-0.294 0.19-0.312 0.346 0 0.035 0 0.087 0 0.139-0.069 0.017-0.139 0.069-0.19 0.052-0.121-0.035-0.277-0.069-0.346-0.208-0.035-0.052-0.069-0.104-0.104-0.156 0-0.069 0-0.156 0-0.242-0.052-0.087-0.173 0.035-0.208-0.087 0.087 0 0.173 0 0.26 0 0.017-0.069 0.035-0.139 0.069-0.208 0.139 0 0.277-0.069 0.433-0.052 0.225 0.017 0.294 0.069 0.381 0.294 0 0.035 0.035 0.069 0.017 0.121z"></path>
<path d="M16.71 12.313c-0.104 0.017-0.208-0.035-0.294 0.035-0.069-0.052-0.156-0.104-0.242-0.156-0.017-0.104-0.035-0.208-0.069-0.312 0.017-0.017 0.052-0.035 0.052-0.069 0-0.052 0-0.104 0-0.156 0.052-0.069 0.104-0.121 0.173-0.156 0.017-0.017 0.017-0.035 0.035-0.052h0.312c0.156 0.017 0.225 0.139 0.277 0.26 0.139 0.242 0.017 0.537-0.242 0.606z"></path>
<path d="M17.281 17.748c0 0.017 0 0.035 0 0.052 0.017 0.069-0.017 0.121-0.069 0.156-0.087 0.052-0.19 0.104-0.277 0.173-0.121 0.017-0.26-0.035-0.381 0.052 0-0.017 0-0.035 0-0.052 0.017-0.035 0.035-0.069 0.035-0.069 0-0.225-0.156-0.329-0.277-0.45-0.104-0.017-0.19-0.035-0.294-0.052-0.017-0.017-0.017-0.052-0.035-0.069 0.035-0.173 0.035-0.364 0.19-0.519 0.035 0 0.069 0 0.104 0 0.052 0.069 0.104 0.156 0.139 0.225 0.087 0.208 0.277 0.312 0.45 0.45 0.087 0.069 0.19 0.087 0.312 0.087 0.035-0.035 0.069 0 0.104 0.017z"></path>
<path d="M14.667 16.052c0.087-0.069 0.173-0.156 0.26-0.225 0.017-0.121 0.017-0.26 0.121-0.364 0 0.052 0 0.104 0 0.156 0.104 0 0.19 0 0.26 0 0 0.035 0 0.069 0 0.104-0.017 0.208 0.104 0.329 0.26 0.433 0 0.087 0.069 0.052 0.104 0.052 0.035 0.121-0.121 0.139-0.104 0.242-0.156 0.069-0.312 0.173-0.554 0.104-0.052-0.052-0.156-0.121-0.225-0.19-0.035-0.139-0.035-0.242-0.121-0.312z"></path>
<path d="M15.308 15.723c0-0.035 0-0.069 0-0.104 0.052-0.121 0.121-0.225 0.26-0.312 0.069-0.017 0.19-0.052 0.294-0.052 0.087 0.017 0.173 0.087 0.26 0.139 0.156 0.277 0.156 0.277 0.104 0.589-0.069 0.052-0.121 0.121-0.19 0.173-0.104-0.017-0.208 0.104-0.329 0.052-0.035 0-0.104 0.035-0.104-0.052 0.035 0 0.069 0 0.104 0 0.035-0.26-0.156-0.346-0.277-0.467-0.069 0.017-0.087 0.017-0.121 0.035z"></path>
<path d="M19.203 19.289c-0.017-0.017-0.035-0.035-0.052-0.052 0.035 0 0.052 0 0.087 0 0.069-0.121 0.069-0.121 0.312-0.26 0.087 0 0.173 0 0.26 0 0.242 0.069 0.294 0.294 0.364 0.519-0.017 0.017-0.052 0.052-0.052 0.087-0.069 0.277-0.26 0.381-0.537 0.346-0.017 0-0.035 0-0.052 0 0-0.017 0-0.035 0-0.052 0.017 0 0.017 0 0.035 0l0.017-0.017c-0.017-0.035-0.052-0.052-0.035-0.087 0.017-0.208-0.139-0.312-0.225-0.467-0.035 0-0.087 0-0.121-0.017z"></path>
<path d="M18.25 18.337c0.052 0.156 0.139 0.294 0.104 0.45-0.069 0.242-0.277 0.277-0.467 0.346-0.225-0.069-0.433-0.156-0.485-0.433 0-0.017 0-0.035 0-0.052 0.19-0.26 0.398-0.364 0.744-0.381 0.035 0.017 0.104-0.017 0.104 0.069z"></path>
<path d="M16.762 14.165c0.069-0.087 0.104-0.035 0.156 0.035 0.035 0.225-0.017 0.433-0.242 0.589-0.139 0.035-0.294 0.139-0.467 0.017-0.052-0.069-0.121-0.139-0.19-0.208-0.052-0.156-0.104-0.329 0.035-0.502 0.156-0.19 0.346-0.225 0.606-0.19 0.017 0.035 0.017 0.156 0.104 0.26 0.052-0.052-0.035-0.156-0.242-0.208-0.087 0.087-0.19 0.173-0.19 0.26 0.069 0.121 0.104 0.173 0.139 0.225 0.069 0 0.121 0 0.156 0 0.035-0.035 0.087-0.087 0.139-0.277z"></path>
<path d="M16.329 9.37c0 0.035 0 0.052 0 0.087-0.035 0.069-0.156-0.035-0.156 0.087-0.017 0-0.035 0-0.052 0-0.173 0.017-0.329 0-0.485-0.104-0.035-0.035-0.052-0.087-0.104-0.139-0.017-0.052-0.017-0.121-0.035-0.225 0.069-0.087 0.017-0.277 0.208-0.329 0.139-0.035 0.26-0.173 0.415-0.052 0 0.069 0.052 0.035 0.087 0.052 0.017 0 0.052 0.035 0.069 0.052-0.017 0-0.035 0.017-0.035 0.017 0 0.208 0 0.415 0 0.623 0.035-0.035 0.052-0.052 0.087-0.069z"></path>
<path d="M14.044 9.162c0.052 0 0.104 0 0.156 0 0.329 0.017 0.606-0.104 0.866-0.277 0.121-0.087 0.242-0.19 0.242-0.364 0.017 0 0.035 0 0.052 0 0 0.121 0 0.225 0 0.346 0.017 0.312-0.277 0.675-0.692 0.675 0 0.069 0 0.156 0 0.225 0 0.017-0.035 0.035-0.052 0.035 0-0.104 0-0.19 0-0.312-0.052-0.017-0.087-0.052-0.139-0.087-0.069 0.052-0.121 0.087-0.173 0.121 0-0.035 0.035-0.104-0.052-0.104l-0.104-0.104c-0.035-0.052-0.069-0.104-0.104-0.156z"></path>
<path d="M15.377 7.518c0-0.035 0-0.069 0-0.104 0.052 0.017 0.104 0.052 0.156 0.052 0.104 0 0.19 0 0.294 0 0.329 0.19 0.329 0.364 0.277 0.675-0.069 0.069-0.156 0.156-0.225 0.225-0.017 0-0.052-0.017-0.069 0-0.087 0.069-0.173 0.069-0.277 0-0.017-0.017-0.069 0-0.104 0 0-0.017 0-0.035 0-0.052 0.017-0.017 0.052-0.035 0.052-0.035 0-0.225 0-0.45 0-0.658 0-0.017-0.035-0.035-0.052-0.035-0.017-0.035-0.035-0.052-0.052-0.069z"></path>
<path d="M15.377 13.213c0.104 0.035 0.121-0.069 0.19-0.104 0.104 0.017 0.19 0.052 0.294 0.069-0.017 0.017-0.017 0.035-0.052 0.069 0.035 0.017 0.069 0.052 0.104 0.069 0.156 0.104 0.121 0.277 0.104 0.415-0.017 0.156-0.121 0.26-0.346 0.329-0.052 0-0.156 0-0.26 0-0.017 0-0.035-0.035-0.035-0.052 0.052 0 0.087 0 0.139 0-0.017 0-0.035-0.017-0.035-0.017 0.052-0.035 0.121-0.069 0.156-0.087 0-0.087 0-0.139 0-0.19-0.069-0.035-0.139-0.087-0.208-0.121-0.052 0.035-0.104 0.052-0.156 0.087-0.017 0.069-0.035 0.121-0.052 0.19-0.035-0.017-0.069-0.052-0.104-0.069-0.052-0.26 0.035-0.45 0.26-0.589z"></path>
<path d="M16.537 18.129c0 0.017 0 0.035 0 0.052-0.017 0.156-0.121 0.208-0.242 0.26-0.017 0.017-0.035 0.035-0.052 0.052-0.121 0-0.242 0.035-0.346-0.052 0-0.087-0.069-0.052-0.104-0.052-0.035-0.052-0.069-0.104-0.104-0.156 0-0.035 0.035-0.104-0.052-0.104 0-0.104 0-0.19 0-0.294 0.069-0.069 0.139-0.139 0.208-0.19 0.035-0.017 0.069-0.035 0.121-0.035 0.017 0 0.035 0 0.052 0 0.069 0.294 0.208 0.433 0.519 0.519z"></path>
<path d="M17.506 14.719c-0.017 0.156 0.139 0.19 0.208 0.277 0.052 0.069 0.156 0.104 0.242 0.156 0.017-0.017 0.017-0.052 0.035-0.069 0.121 0 0.19 0.104 0.26 0.156-0.017 0-0.035 0.017-0.069 0.017 0.052 0.017 0.087 0.035 0.121 0.052v0.294c-0.017 0-0.035 0-0.052 0 0.017-0.069-0.017-0.121-0.069-0.156-0.104-0.052-0.208-0.104-0.312-0.139-0.173-0.052-0.364-0.104-0.554-0.069-0.069 0.017-0.121 0.035-0.19 0.052s-0.139 0.035-0.208 0.052c-0.035-0.26 0.139-0.415 0.312-0.537 0.087-0.035 0.156-0.139 0.277-0.087z"></path>
<path d="M18.406 20.414c0.121 0.139 0.173 0.156 0.381 0.156 0.104 0 0.225 0.017 0.312-0.052 0.017 0.035 0.017 0.087 0.035 0.121 0.104 0.173 0.104 0.346 0 0.519-0.017 0.035-0.017 0.069-0.035 0.121-0.104-0.017-0.035-0.104-0.069-0.156-0.017 0-0.052 0-0.087 0-0.087-0.087-0.208-0.069-0.294-0.121-0.156-0.087-0.242-0.035-0.346 0.069-0.052 0-0.104 0-0.156 0 0.035-0.017 0.052-0.052 0.104-0.087-0.035-0.173 0.035-0.346 0.156-0.502 0.017-0.017 0-0.052 0-0.069z"></path>
<path d="M16.381 11.464c-0.017 0.017-0.017 0.052-0.035 0.052-0.069 0.035-0.121 0.087-0.173 0.156-0.017-0.017-0.035-0.052-0.035-0.052-0.139 0.087-0.277 0.035-0.415 0.052-0.104-0.087-0.26-0.104-0.242-0.26 0.173-0.069 0.346-0.121 0.467-0.277 0.087-0.104 0.121-0.208 0.173-0.312 0-0.017 0-0.035 0-0.052 0.19 0.087 0.19 0.277 0.26 0.433 0.017 0.035-0.035 0.069-0.035 0.121-0.017 0.035-0.069 0.104 0.035 0.139z"></path>
<path d="M15.636 9.422c0.139 0.104 0.312 0.121 0.485 0.104-0.087 0.052-0.087 0.052-0.208 0.069 0.035 0.069 0.052 0.139 0.104 0.173 0.069 0.069 0.035 0.156 0.052 0.242 0.017 0.069-0.017 0.139-0.052 0.208-0.017 0.035 0 0.069 0 0.104-0.017 0-0.035 0-0.052 0 0-0.035 0-0.069 0-0.121-0.121-0.19-0.346-0.208-0.537-0.312-0.104 0.035-0.225 0.069-0.329 0.104 0.017-0.294 0.156-0.45 0.467-0.537 0.017 0.017 0.052 0 0.069-0.035z"></path>
<path d="M18.614 16.467c0.017 0 0.035 0 0.052 0 0.277 0.017 0.416 0.173 0.433 0.433 0 0.087 0 0.156 0 0.225-0.139 0.173-0.294 0.294-0.537 0.242 0-0.087-0.069-0.052-0.104-0.052-0.017-0.017-0.035-0.035-0.052-0.052 0.139-0.19 0.26-0.398 0.208-0.641 0-0.052 0-0.104 0-0.156z"></path>
<path d="M13.282 13.005c-0.121-0.156-0.121-0.156-0.052-0.519 0.035-0.017 0.069-0.069 0.104-0.087 0.035-0.035 0.087-0.052 0.139-0.069 0.156 0 0.329-0.035 0.467 0.104 0.087 0.087 0.139 0.19 0.139 0.312-0.156-0.035-0.312 0.035-0.467 0.052-0.139 0-0.208 0.139-0.329 0.208z"></path>
<path d="M9.751 7.154c-0.069-0.104-0.104-0.156-0.156-0.225 0.017-0.087 0.052-0.173 0.087-0.26 0.052-0.035 0.104-0.069 0.173-0.104 0.052 0 0.121 0 0.208 0 0.069 0.087 0.156 0.19 0.225 0.26-0.017 0.069-0.035 0.138-0.069 0.208-0.052 0.035-0.104 0.104-0.19 0.173-0.069-0.017-0.173-0.035-0.277-0.052z"></path>
<path d="M26.439 23.080c0.069 0.069 0.121 0.121 0.19 0.19 0 0.069 0 0.139 0 0.19-0.035 0.069-0.069 0.121-0.104 0.173-0.087 0.035-0.156 0.052-0.242 0.087-0.069-0.052-0.173-0.121-0.26-0.19 0.017-0.139 0.035-0.26 0.052-0.364 0.121-0.087 0.242-0.087 0.364-0.087z"></path>
<path d="M12.867 12.901c-0.017 0-0.035 0-0.052 0 0-0.017 0-0.035 0-0.052 0.017-0.139-0.017-0.277-0.104-0.398-0.104-0.139-0.156-0.294-0.225-0.45-0.035 0-0.069 0-0.087 0 0-0.017 0-0.035 0-0.052 0.139 0 0.26 0 0.398 0 0.173 0.156 0.364 0.312 0.277 0.641-0.035 0.052-0.104 0.139-0.173 0.225-0.035 0.017-0.035 0.052-0.035 0.087z"></path>
<path d="M15.429 8.314c0 0.017 0 0.035 0 0.052-0.017 0.052-0.035 0.104-0.052 0.156-0.017 0-0.035 0-0.052 0-0.052-0.069-0.069-0.156-0.139-0.208-0.052-0.052-0.139-0.087-0.208-0.139-0.087-0.035-0.208 0.017-0.294-0.069-0.173 0-0.329 0.052-0.467 0.156-0.19 0.156-0.294 0.381-0.294 0.641 0 0.035 0 0.069 0 0.104-0.017 0-0.035-0.017-0.052-0.017-0.035-0.26 0.017-0.519 0.156-0.692 0.104-0.121 0.225-0.208 0.381-0.242 0.069-0.017 0.156-0.121 0.242-0.017 0.087-0.138 0.156 0.035 0.26 0.017 0.069-0.017 0.156 0.087 0.242 0.156-0.017-0.104-0.052-0.208-0.052-0.294s0.035-0.173 0.069-0.277c0.052-0.035 0.087-0.138 0.19-0.121 0.017 0.017 0.035 0.035 0.052 0.052-0.035 0-0.052 0-0.069 0-0.052 0.069-0.087 0.121-0.139 0.208 0 0.19-0.017 0.415 0.225 0.537z"></path>
<path d="M13.282 13.005c0.121-0.069 0.19-0.19 0.329-0.208 0.156-0.017 0.312-0.087 0.467-0.052 0.017 0.017 0.035 0.035 0.052 0.052-0.017 0.052-0.052 0.121-0.087 0.225-0.121 0.139-0.294 0.26-0.537 0.19-0.052-0.069-0.173-0.052-0.225-0.139 0-0.035 0-0.052 0-0.069z"></path>
<path d="M17.177 12.676c-0.017 0.087 0.017 0.156-0.052 0.242-0.052 0.052-0.017 0.156-0.035 0.242-0.035 0.156-0.035 0.346 0 0.502 0.017 0.069 0.017 0.156 0.035 0.225-0.069-0.069-0.156-0.121-0.225-0.208-0.052-0.069-0.104-0.156-0.087-0.242 0.017-0.19-0.035-0.398 0.104-0.554 0.069-0.087 0.121-0.208 0.26-0.208z"></path>
<path d="M17.402 22.717c0-0.017 0-0.035 0-0.052 0.069 0.069 0.173 0.121 0.225 0.208 0.052 0.069 0.104 0.156 0.087 0.242-0.017 0.069 0 0.139 0 0.19-0.052 0.069-0.087 0.121-0.139 0.19-0.087 0.017-0.19 0.139-0.329 0.121 0-0.017 0-0.035 0-0.052 0.121-0.242 0.139-0.519 0.208-0.762-0.035-0.035-0.035-0.069-0.052-0.087z"></path>
<path d="M22.076 6.946c0.017-0.052 0.035-0.138 0.069-0.242 0.121-0.017 0.225-0.035 0.329-0.052 0.121 0.104 0.156 0.208 0.139 0.364-0.052 0.052-0.121 0.104-0.242 0.19 0 0-0.052 0-0.121 0-0.017-0.069-0.069-0.138-0.173-0.26z"></path>
<path d="M29.399 11.707c-0.017-0.087-0.052-0.173-0.069-0.26 0.052-0.052 0.104-0.104 0.156-0.156 0.087 0.017 0.173 0.035 0.26 0.069 0.035 0.069 0.052 0.139 0.087 0.208-0.087 0.087-0.139 0.156-0.208 0.225-0.069-0.035-0.156-0.069-0.225-0.087z"></path>
<path d="M20.484 18.372c-0.069 0.017-0.121 0.035-0.19 0.052-0.069-0.052-0.139-0.104-0.225-0.156 0-0.069 0-0.121 0-0.19 0.035-0.017 0.087-0.052 0.139-0.087 0-0.017-0.017-0.017-0.017-0.035 0.069 0 0.156 0 0.242 0 0.035 0.069 0.087 0.139 0.121 0.208-0.017 0.087-0.052 0.139-0.069 0.208z"></path>
<path d="M21.886 7.742c0.035-0.035 0.069-0.069 0.121-0.121 0.052 0 0.104 0 0.156 0 0.035 0.035 0.069 0.087 0.121 0.156 0 0.052 0 0.121 0 0.208-0.035 0.017-0.087 0.052-0.139 0.087 0 0.017 0.017 0.017 0.017 0.035-0.052 0-0.104 0-0.19 0-0.017-0.017-0.052-0.069-0.087-0.138-0.017 0-0.017 0.017-0.035 0.017 0.035-0.087 0.035-0.156 0.035-0.242z"></path>
<path d="M20.726 20.449c-0.035 0.104-0.069 0.156-0.104 0.225-0.087 0.017-0.173 0.052-0.26 0.069-0.052-0.052-0.104-0.104-0.156-0.156 0-0.035 0-0.087 0-0.121 0.069-0.069 0.139-0.139 0.225-0.225 0.087 0.069 0.19 0.139 0.294 0.208z"></path>
<path d="M19.151 16.641c0-0.035 0-0.087 0-0.156 0.035-0.035 0.104-0.069 0.19-0.139 0.017 0 0.087 0 0.156 0 0.035 0.035 0.087 0.087 0.139 0.139 0 0.052 0 0.104 0 0.156-0.035 0.035-0.087 0.069-0.156 0.121-0.035 0-0.104 0-0.19 0-0.035-0.017-0.087-0.069-0.139-0.121z"></path>
<path d="M17.645 6.981c0.052 0.052 0.087 0.087 0.121 0.121 0 0.069 0 0.138 0 0.225-0.035 0.035-0.087 0.069-0.139 0.121-0.035 0-0.087 0-0.156 0-0.017-0.035-0.069-0.087-0.121-0.156 0-0.035 0-0.104 0-0.19 0.035-0.035 0.069-0.069 0.121-0.121 0.052 0 0.104 0 0.173 0z"></path>
<path d="M14.044 11.776c0.017 0.017 0.035 0.052 0.052 0.069s0.035 0.035 0.052 0.069c-0.017 0.017-0.017 0.052-0.035 0.069 0.069 0 0.121 0 0.19 0 0.017-0.035 0.035-0.069 0.052-0.104 0.035 0 0.052 0 0.087 0-0.017 0.017-0.017 0.052-0.035 0.069 0.087 0.104 0.035 0.225-0.052 0.346-0.052 0.017-0.121 0.052-0.208 0.069-0.069-0.069-0.139-0.139-0.19-0.208-0.052-0.121 0.121-0.225 0.087-0.381z"></path>
<path d="M29.226 20.293c0.052-0.052 0.104-0.104 0.156-0.156 0.087 0.017 0.173 0.052 0.26 0.069 0.035 0.087 0.052 0.156 0.087 0.225-0.087 0.069-0.156 0.121-0.242 0.19-0.069-0.017-0.121-0.035-0.208-0.069 0-0.069-0.035-0.173-0.052-0.26z"></path>
<path d="M27.633 21.055c-0.069 0-0.121 0-0.19 0-0.035-0.035-0.069-0.087-0.121-0.156 0-0.035 0-0.121 0-0.208 0.087-0.035 0.173-0.087 0.277-0.139 0.069 0.104 0.139 0.173 0.208 0.26-0.069 0.087-0.121 0.156-0.173 0.242z"></path>
<path d="M21.834 15.446c0.087-0.035 0.173-0.087 0.26-0.121 0.052 0.069 0.087 0.121 0.156 0.208 0 0.017 0 0.087 0 0.156-0.035 0.035-0.087 0.087-0.139 0.139-0.052 0-0.104 0-0.156 0-0.035-0.035-0.069-0.087-0.121-0.139 0-0.069 0-0.156 0-0.242z"></path>
<path d="M17.246 11.447c-0.035-0.069-0.069-0.139-0.121-0.208 0.035-0.069 0.087-0.139 0.121-0.208 0.104 0 0.208 0 0.312 0 0.017 0.087 0.052 0.173 0.087 0.294-0.052 0.035-0.121 0.052-0.173 0.087 0.017 0.017 0.017 0.035 0.035 0.052-0.087-0.017-0.173-0.017-0.26-0.017z"></path>
<path d="M22.942 25.21c0.035-0.052 0.069-0.121 0.121-0.19 0.087 0 0.156 0 0.242 0 0.035 0.035 0.069 0.087 0.121 0.139 0 0.035 0 0.087 0 0.156-0.069 0.052-0.156 0.104-0.225 0.156-0.156-0.017-0.208-0.139-0.26-0.26z"></path>
<path d="M25.971 7.985c0.052 0 0.087 0 0.156 0 0.035 0.035 0.069 0.087 0.121 0.156 0 0.035 0 0.104 0 0.208-0.035 0.017-0.104 0.069-0.19 0.121-0.052-0.017-0.139-0.052-0.225-0.104 0-0.087 0-0.173 0-0.26 0.035-0.017 0.069-0.069 0.139-0.121z"></path>
<path d="M26.491 15.723c-0.052-0.052-0.087-0.087-0.139-0.139 0-0.052 0-0.104 0-0.173 0.035-0.035 0.087-0.069 0.139-0.121 0.052 0 0.139 0 0.225 0 0.035 0.087 0.087 0.173 0.139 0.277-0.069 0.052-0.121 0.087-0.208 0.156-0.017 0-0.087 0-0.156 0z"></path>
<path d="M24.759 14.286c0.052-0.069 0.087-0.121 0.139-0.19 0.104 0.052 0.19 0.087 0.277 0.139 0 0.087 0 0.156 0 0.242-0.035 0.017-0.087 0.052-0.156 0.121 0 0-0.052 0-0.139 0-0.017-0.035-0.052-0.087-0.087-0.139-0.017 0-0.017 0.017-0.035 0.017 0-0.069 0-0.139 0-0.19z"></path>
<path d="M22.405 23.738c0.087-0.052 0.139-0.087 0.208-0.121 0.069 0.035 0.139 0.087 0.208 0.121 0 0.087 0 0.156 0 0.242-0.035 0.017-0.087 0.052-0.139 0.087 0 0.017 0.017 0.017 0.017 0.035-0.052 0-0.104 0-0.173 0-0.035-0.035-0.069-0.087-0.121-0.173 0-0.035 0-0.104 0-0.19z"></path>
<path d="M30.715 15.567c0.052 0.087 0.087 0.139 0.121 0.208-0.035 0.069-0.087 0.139-0.121 0.208-0.087 0-0.156 0-0.242 0-0.017-0.035-0.052-0.087-0.121-0.156 0 0 0-0.052 0-0.139 0.035-0.017 0.104-0.052 0.156-0.087-0.017-0.017-0.017-0.017-0.035-0.035 0.087 0 0.156 0 0.242 0z"></path>
<path d="M21.695 19.462c0.035 0.035 0.087 0.087 0.121 0.121 0 0.087 0 0.156 0 0.242-0.069 0.035-0.139 0.069-0.208 0.121-0.069-0.035-0.139-0.087-0.208-0.121 0-0.087 0-0.156 0-0.242 0.035-0.035 0.087-0.087 0.121-0.121 0.052 0 0.121 0 0.173 0z"></path>
<path d="M12.763 19.999c-0.069-0.035-0.139-0.087-0.208-0.121 0-0.087 0-0.156 0-0.242 0.035-0.035 0.069-0.069 0.139-0.121 0.035 0 0.087 0 0.156 0 0.035 0.035 0.069 0.087 0.121 0.156 0 0.035 0 0.121 0 0.208-0.069 0.035-0.139 0.087-0.208 0.121z"></path>
<path d="M20.189 10.46c-0.069 0.052-0.104 0.104-0.139 0.139-0.069 0-0.156 0-0.242 0-0.035-0.069-0.069-0.139-0.121-0.208 0.035-0.069 0.087-0.139 0.121-0.208 0.087 0 0.156 0 0.26 0 0.035 0.087 0.069 0.173 0.121 0.277z"></path>
<path d="M15.688 18.233c0.035 0.052 0.069 0.104 0.104 0.156-0.017 0.017-0.052 0.035-0.052 0.035 0 0.069 0 0.139 0 0.19-0.087 0.139-0.19 0.069-0.294 0.087-0.052-0.052-0.087-0.087-0.139-0.139 0-0.052 0-0.121 0-0.173 0.104-0.069 0.208-0.173 0.364-0.069 0.017-0.017 0.017-0.052 0.017-0.087z"></path>
<path d="M28.706 19.791c0.035-0.035 0.052-0.052 0.069-0.069 0.087 0 0.19 0 0.277 0 0.121 0.069 0.069 0.173 0.087 0.294-0.052 0.035-0.087 0.069-0.19 0.121 0 0-0.052 0-0.121 0-0.035-0.035-0.069-0.069-0.121-0.121 0-0.052 0-0.139 0-0.225z"></path>
<path d="M13.057 25.469c0.052-0.052 0.104-0.104 0.139-0.139 0.087 0 0.156 0 0.242 0 0.035 0.069 0.069 0.139 0.121 0.208-0.035 0.069-0.087 0.139-0.121 0.225-0.104-0.017-0.19-0.035-0.277-0.069-0.035-0.069-0.069-0.139-0.104-0.225z"></path>
<path d="M9.179 6.894c0.052 0.121 0.087 0.208 0.139 0.294-0.069 0.052-0.104 0.104-0.156 0.138-0.069 0-0.139 0-0.208 0-0.017-0.017-0.052-0.052-0.069-0.069 0-0.087 0-0.19 0-0.294 0.069 0 0.173-0.035 0.294-0.069z"></path>
<path d="M5.7 23.617c0.052 0.035 0.104 0.052 0.156 0.069 0.017 0.052 0.052 0.104 0.087 0.173-0.035 0.052-0.052 0.104-0.087 0.173-0.035 0.017-0.087 0.052-0.138 0.069-0.069-0.035-0.138-0.087-0.208-0.121 0-0.087 0-0.156 0-0.242 0.052-0.035 0.121-0.087 0.19-0.121z"></path>
<path d="M2.324 12.538c-0.069-0.035-0.139-0.052-0.225-0.069-0.017-0.069-0.052-0.139-0.087-0.225 0.052-0.035 0.104-0.069 0.208-0.121 0.035 0 0.139-0.052 0.225 0.052 0 0.069 0 0.156 0 0.208-0.035 0.052-0.087 0.104-0.121 0.156z"></path>
<path d="M19.722 18.337c0 0 0.035 0 0.104 0 0.035 0.035 0.069 0.104 0.139 0.19 0 0 0 0.052 0 0.104-0.035 0.035-0.087 0.087-0.139 0.139-0.035 0-0.087 0-0.156 0-0.035-0.035-0.069-0.087-0.121-0.156 0-0.017 0-0.069 0-0.156 0.017-0.017 0.087-0.069 0.173-0.121z"></path>
<path d="M5.423 24.309c0 0 0.035 0 0.104 0 0.035 0.035 0.069 0.104 0.138 0.19 0 0 0 0.052 0 0.104-0.035 0.035-0.087 0.087-0.138 0.139-0.052 0-0.104 0-0.156 0-0.035-0.035-0.069-0.087-0.121-0.156 0-0.017 0-0.069 0-0.156 0.035-0.017 0.087-0.069 0.173-0.121z"></path>
<path d="M12.261 16.364c-0.017 0-0.052 0-0.121 0-0.035-0.052-0.069-0.104-0.139-0.19 0 0.017 0-0.035 0-0.104 0.035-0.035 0.087-0.069 0.156-0.121 0.017 0 0.069 0 0.156 0 0.035 0.035 0.069 0.087 0.121 0.156 0 0.017 0 0.069 0 0.139-0.035 0.017-0.087 0.069-0.173 0.121z"></path>
<path d="M0.922 17.177c-0.069-0.035-0.138-0.052-0.19-0.069-0.017-0.069-0.052-0.139-0.087-0.225 0.069-0.035 0.121-0.069 0.19-0.104s0.173-0.087 0.26 0.035c0 0.069 0 0.139 0 0.225-0.069 0.035-0.104 0.069-0.173 0.139z"></path>
<path d="M8.487 11.291c-0.035-0.087-0.052-0.156-0.087-0.225 0.052-0.069 0.121-0.121 0.208-0.208 0.052 0.017 0.121 0.052 0.19 0.069 0.017 0.052 0.035 0.104 0.052 0.19-0.017 0.035-0.052 0.104-0.087 0.156-0.087 0.017-0.173 0.017-0.277 0.017z"></path>
<path d="M15.204 13.853c0.017-0.069 0.035-0.121 0.052-0.19 0.052-0.035 0.104-0.052 0.156-0.087 0.069 0.035 0.139 0.069 0.208 0.121 0 0.052 0 0.104 0 0.19-0.035 0.017-0.104 0.052-0.156 0.087 0.017 0.017 0.017 0.017 0.035 0.035-0.052 0-0.087 0-0.139 0-0.104 0-0.139-0.035-0.156-0.156z"></path>
<path d="M9.508 16.848c-0.052 0-0.087 0-0.139 0-0.035-0.035-0.087-0.087-0.121-0.139 0-0.035 0-0.087 0-0.156 0.035-0.035 0.087-0.069 0.156-0.121 0.035 0 0.087 0 0.173 0 0.035 0.087 0.087 0.173 0.139 0.277-0.069 0.035-0.139 0.069-0.19 0.104-0.035 0-0.017 0.017-0.017 0.035z"></path>
<path d="M6.531 17.125c-0.069 0.052-0.121 0.087-0.208 0.156-0.052-0.017-0.138-0.035-0.242-0.069 0-0.069 0-0.156 0-0.19 0.052-0.069 0.087-0.121 0.138-0.19 0.069 0.035 0.138 0.052 0.208 0.069 0.035 0.052 0.069 0.121 0.104 0.225z"></path>
<path d="M13.213 19.895c0.087 0 0.156 0 0.225 0 0.017 0.104 0.052 0.19 0.069 0.312-0.104 0.035-0.173 0.069-0.26 0.104-0.052-0.035-0.104-0.069-0.173-0.104 0-0.052 0-0.121 0-0.19 0.035-0.035 0.087-0.087 0.139-0.121z"></path>
<path d="M12.382 11.932c0 0.017 0 0.035 0 0.052-0.052 0.052-0.139 0.087-0.173 0.156-0.052 0.087-0.069 0.173-0.087 0.277-0.017 0.087 0.035 0.156 0.087 0.225s0.139 0.139 0.19 0.208c0.156 0 0.277 0 0.415 0 0 0.017 0 0.035 0 0.052-0.104 0.087-0.225 0.052-0.346 0.052-0.398-0.242-0.398-0.242-0.398-0.727 0.087-0.104 0.173-0.225 0.26-0.329 0.017 0 0.035 0.017 0.052 0.035z"></path>
<path d="M11.049 10.408c0.035-0.035 0.052-0.052 0.069-0.069 0.069 0 0.139 0 0.225 0 0.035 0.035 0.069 0.104 0.121 0.156-0.035 0.104-0.069 0.225-0.26 0.242-0.035-0.017-0.087-0.052-0.156-0.087 0-0.087 0-0.156 0-0.242z"></path>
<path d="M7.396 24.154c-0.035 0-0.069 0-0.104 0-0.035-0.052-0.087-0.087-0.138-0.139 0.017-0.087-0.052-0.208 0.069-0.294 0.069 0 0.138 0 0.225 0 0.017 0.017 0.035 0.035 0.069 0.069 0 0.069 0 0.139 0 0.225-0.035 0.052-0.087 0.087-0.121 0.139z"></path>
<path d="M5.596 10.183c-0.087 0-0.156 0-0.242 0-0.035-0.052-0.069-0.121-0.121-0.19 0.035-0.069 0.069-0.121 0.104-0.19 0.087 0 0.156 0 0.242 0 0.035 0.052 0.069 0.104 0.104 0.173-0.017 0.069-0.052 0.139-0.087 0.208z"></path>
<path d="M12.434 17.956c-0.017 0.069-0.035 0.139-0.069 0.208-0.087 0-0.173 0-0.26 0-0.087-0.052-0.035-0.173-0.139-0.225 0.069-0.052 0.121-0.087 0.19-0.139 0.035 0 0.104 0 0.208 0 0.035 0.052 0.052 0.104 0.069 0.156z"></path>
<path d="M13.213 24.258c-0.087 0-0.156 0-0.208 0-0.017-0.017-0.052-0.052-0.087-0.087 0.017-0.087 0.035-0.173 0.069-0.277 0.087 0 0.156 0 0.242 0 0.035 0.035 0.069 0.087 0.139 0.173 0 0.069-0.104 0.121-0.156 0.19z"></path>
<path d="M17.125 23.773c-0.017 0.017-0.035 0.035-0.052 0.052-0.035 0-0.069 0-0.104 0-0.069-0.017-0.121-0.087-0.208-0.035-0.069 0.035-0.156 0.052-0.225 0.069-0.312 0.104-0.467 0.346-0.519 0.658-0.069 0-0.052-0.052-0.052-0.087 0.035-0.312 0.381-0.675 0.727-0.71h0.45c-0.017 0.017-0.017 0.035-0.017 0.052z"></path>
<path d="M17.818 20.57c-0.104-0.017-0.017-0.104-0.069-0.156-0.069-0.069-0.156-0.121-0.242-0.156 0.017-0.035 0.017-0.087 0.035-0.121 0.052-0.035 0.104-0.069 0.173-0.104 0.069 0.035 0.121 0.069 0.208 0.121 0 0.069 0 0.156 0 0.26-0.035 0.035-0.121 0.069-0.104 0.156z"></path>
<path d="M16.917 15.342c0.069-0.017 0.139-0.035 0.208-0.052s0.121-0.035 0.19-0.052c0.19-0.035 0.364 0 0.554 0.069 0.104 0.035 0.208 0.087 0.312 0.139 0.052 0.035 0.087 0.087 0.069 0.156-0.156-0.104-0.329-0.173-0.537-0.26-0.104 0-0.225 0-0.364 0-0.156-0.017-0.294 0.052-0.433 0.104 0-0.017 0-0.035 0-0.052 0 0 0-0.017 0-0.052z"></path>
<path d="M16.121 10.772c0 0.017 0 0.035 0 0.052-0.121-0.087-0.26-0.035-0.398-0.052-0.017 0.017-0.035 0.052-0.069 0.052-0.173 0.069-0.242 0.208-0.242 0.381 0 0.052 0 0.104 0 0.156-0.017 0-0.035 0-0.052 0-0.087-0.121-0.052-0.225 0-0.346 0.052-0.156 0.277-0.346 0.433-0.346 0.104 0 0.208 0 0.312 0 0.017 0.017 0.017 0.052 0.017 0.104z"></path>
<path d="M18.562 22.665c-0.035 0-0.069 0-0.139 0 0.139-0.139 0.242-0.277 0.381-0.364 0.121-0.087 0.277-0.139 0.433-0.225 0 0.035 0.017 0.069 0.017 0.121 0 0.035 0.017 0.069 0 0.069-0.139 0.139-0.242 0.312-0.45 0.346-0.052 0.087-0.156 0.035-0.242 0.052z"></path>
<path d="M19.064 14.754c-0.294 0.104-0.519 0.104-0.71-0.242 0-0.104 0-0.208 0-0.294 0.121-0.312 0.346-0.346 0.623-0.312 0.225 0.139 0.312 0.346 0.277 0.641-0.017 0.017-0.069 0.035-0.104 0.069-0.017 0.035-0.035 0.087-0.087 0.139z"></path>
<path d="M18.25 15.238c-0.087-0.069-0.139-0.156-0.26-0.156-0.017-0.017-0.035-0.035-0.052-0.052-0.035-0.017-0.069-0.035-0.104-0.052l-0.208-0.208c0.017-0.017 0.035-0.052 0.069-0.052 0.052 0 0.104 0 0.156 0 0.225 0.069 0.381 0.225 0.485 0.433 0 0.035 0 0.069 0 0.104-0.052-0.017-0.069-0.017-0.087-0.017z"></path>
<path d="M15.481 21.211c0.052-0.017 0.104-0.052 0.156-0.052 0.121 0 0.225 0 0.346 0 0.087 0.087 0.173 0.156 0.242 0.242 0 0.104 0 0.19 0 0.294 0 0.156-0.156 0.225-0.242 0.312-0.139 0.121-0.277 0.017-0.433 0-0.069-0.069-0.156-0.156-0.225-0.225 0-0.087 0-0.19 0-0.294 0-0.052 0.035-0.104 0.052-0.173l0.104-0.104z"></path>
<path d="M16.017 24.517c0.052-0.312 0.208-0.537 0.519-0.658 0.069-0.035 0.156-0.035 0.225-0.069 0.087-0.052 0.139 0.017 0.208 0.035 0.035 0.017 0.069 0 0.104 0-0.19 0.364-0.519 0.537-0.866 0.727-0.035 0.017-0.069 0.017-0.104 0.017s-0.087 0.035-0.087-0.052z"></path>
<path d="M17.402 22.717c0.017 0.035 0.035 0.052 0.052 0.087-0.069 0.26-0.087 0.519-0.208 0.762-0.069 0-0.121 0-0.19 0-0.087-0.087-0.156-0.156-0.242-0.242 0-0.398 0.035-0.467 0.346-0.658 0.052 0.087 0.156 0.035 0.242 0.052z"></path>
<path d="M14.788 23.357c0-0.156 0-0.312 0-0.433 0.19-0.485 0.519-0.641 0.969-0.589 0.121 0.069 0.225 0.121 0.329 0.173 0.035 0.052 0.069 0.104 0.104 0.139 0.26 0.19 0.242 0.692 0 0.969-0.087 0.104-0.173 0.208-0.294 0.242-0.433 0.156-0.831 0.052-1.056-0.398-0.017-0.035-0.035-0.052-0.052-0.104zM15.377 22.44c-0.069 0.035-0.087 0.052-0.121 0.052-0.156 0.069-0.277 0.156-0.346 0.329s-0.087 0.364-0.017 0.537c0.121 0.294 0.294 0.502 0.658 0.485 0.104 0 0.19 0 0.277 0 0.346-0.208 0.502-0.485 0.45-0.779-0.017-0.087-0.017-0.173-0.052-0.242s-0.104-0.139-0.173-0.19c-0.069-0.052-0.121-0.121-0.208-0.156-0.069-0.035-0.156-0.035-0.242-0.052-0.069 0.069-0.173 0-0.225 0.017z"></path>
<path d="M15.377 21.332c-0.017 0.052-0.052 0.104-0.052 0.173 0 0.104 0 0.19 0 0.294 0.087 0.087 0.156 0.156 0.225 0.225 0.139 0.035 0.294 0.121 0.433 0 0.104-0.087 0.242-0.156 0.242-0.312 0.069 0 0.069 0.069 0.052 0.087-0.035 0.104-0.087 0.225-0.208 0.277-0.087 0.035-0.19 0.156-0.277 0.104-0.104-0.052-0.208-0.035-0.312-0.087s-0.156-0.121-0.19-0.208c-0.017-0.035-0.052-0.052-0.069-0.069-0.017-0.294 0.035-0.45 0.208-0.641 0.017 0.017 0.035 0.052 0.052 0.069-0.017 0.017-0.035 0.035-0.052 0.052-0.017-0.017-0.035 0.017-0.052 0.035z"></path>
<path d="M14.009 22.18c0.069 0 0.139 0 0.208 0 0.052 0.069 0.121 0.121 0.19 0.208-0.017 0.087-0.035 0.19-0.052 0.294-0.121 0.069-0.225 0.104-0.346 0.087-0.173-0.173-0.173-0.19-0.19-0.398l0.017-0.017c0.052-0.069 0.121-0.121 0.173-0.173zM13.923 22.353c0.017 0.104-0.035 0.225 0.087 0.294 0.069 0 0.156 0 0.225 0 0.052-0.052 0.087-0.104 0.139-0.156-0.069-0.104-0.104-0.242-0.225-0.277-0.087 0.052-0.139 0.087-0.225 0.139z"></path>
<path d="M13.438 15.654c-0.052-0.017-0.121-0.035-0.26-0.069-0.087-0.069-0.139-0.208-0.225-0.329-0.104-0.156 0.035-0.277 0-0.415 0.087-0.069 0.173-0.156 0.242-0.225 0.069-0.017 0.139-0.052 0.208-0.069s0.139 0 0.19 0c0.19 0.087 0.329 0.225 0.433 0.433-0.017 0.104-0.035 0.242-0.052 0.346-0.104 0.242-0.312 0.294-0.537 0.329zM13.611 14.65c-0.069 0-0.19 0-0.26 0-0.277 0.104-0.346 0.312-0.312 0.537 0.052 0.104 0.087 0.173 0.121 0.225 0.173 0.121 0.329 0.173 0.537 0.121 0.069-0.069 0.156-0.156 0.242-0.242 0.017-0.277-0.017-0.519-0.329-0.641z"></path>
<path d="M13.975 10.564c0.017 0.104 0.035 0.19 0.052 0.312-0.069 0.087-0.052 0.225-0.139 0.346s-0.19 0.173-0.312 0.225c-0.104 0.052-0.208 0.052-0.329 0.052-0.139 0-0.277-0.017-0.381-0.121-0.087-0.104-0.173-0.208-0.277-0.329 0-0.156 0-0.329 0-0.537 0.121-0.121 0.277-0.277 0.398-0.398 0.156-0.017 0.26-0.035 0.381-0.052 0.26 0.087 0.519 0.19 0.606 0.502z"></path>
<path d="M16.866 15.463c0.017 0 0.035 0 0.052 0 0.139-0.052 0.277-0.121 0.433-0.104 0.139 0.017 0.26 0 0.364 0 0.208 0.087 0.381 0.173 0.537 0.26 0 0.052 0 0.104 0 0.156-0.121 0.225-0.329 0.346-0.571 0.364-0.346 0.017-0.623-0.121-0.762-0.554-0.017-0.035-0.035-0.087-0.052-0.121z"></path>
<path d="M17.281 17.748c-0.035-0.017-0.069-0.052-0.104-0.052-0.104 0-0.225 0-0.312-0.087-0.173-0.139-0.346-0.242-0.45-0.45-0.035-0.087-0.104-0.156-0.139-0.225-0.017-0.173 0.139-0.156 0.242-0.208 0.035-0.017 0.069-0.035 0.121-0.035 0.087 0.087 0.208 0 0.312 0.052 0.104 0.035 0.225 0.087 0.26 0.173 0.052 0.087 0.139 0.139 0.139 0.26 0 0.104 0.052 0.208 0.104 0.329-0.087 0.035-0.017 0.208-0.173 0.242z"></path>
<path d="M18.614 16.467c0 0.052 0 0.104 0 0.156 0.035 0.26-0.069 0.45-0.208 0.641-0.035 0-0.052 0-0.087 0-0.035-0.104-0.087-0.19-0.121-0.294-0.052-0.139 0.052-0.26 0.104-0.381 0.069-0.087 0.19-0.139 0.312-0.121z"></path>
<path d="M14.252 17.956c0.035 0 0.069 0 0.104 0 0.139-0.035 0.26 0.052 0.381 0.104 0.069 0.035 0.139 0.087 0.156 0.173l-0.017 0.017c-0.173 0-0.329 0-0.502 0-0.087-0.052-0.19-0.121-0.294-0.173 0-0.035 0-0.087 0-0.139 0.069 0.017 0.121 0.017 0.173 0.017z"></path>
<path d="M19.203 19.289c0.035 0 0.087 0 0.104 0.017 0.087 0.139 0.242 0.26 0.225 0.467 0 0.017 0.035 0.052 0.035 0.087l-0.017 0.017c0 0-0.017 0-0.035 0-0.277-0.087-0.312-0.329-0.312-0.589z"></path>
<path d="M14.58 17.333c-0.052-0.087-0.087-0.156-0.121-0.208 0.087-0.069 0.156-0.139 0.225-0.208 0.052 0.052 0.104 0.121 0.173 0.19 0.052 0.052 0.017 0.121-0.069 0.156-0.069 0.017-0.139-0.017-0.208 0.069z"></path>
<path d="M14.252 17.956c-0.052 0-0.104 0-0.156 0 0.052-0.069 0.104-0.069 0.156 0z"></path>
<path d="M15.983 10.305c-0.104 0.19-0.242 0.225-0.398 0.242s-0.26-0.069-0.364-0.173c-0.035-0.052-0.087-0.087-0.121-0.104 0-0.069 0-0.104 0-0.139 0.017 0 0.035 0 0.035 0 0.052 0.087 0.121 0.173 0.19 0.225 0.225 0.156 0.433 0.069 0.658-0.052z"></path>
<path d="M16.017 17.593c0-0.017 0-0.035 0-0.052 0.104 0.017 0.19 0.035 0.294 0.052 0.121 0.121 0.277 0.225 0.277 0.45 0 0-0.017 0.035-0.035 0.069-0.329-0.069-0.467-0.208-0.537-0.519z"></path>
<path d="M15.308 15.723c0.017-0.017 0.052-0.017 0.087-0.035 0.121 0.121 0.329 0.208 0.277 0.467-0.035 0-0.069 0-0.104 0-0.139-0.104-0.26-0.225-0.26-0.433z"></path>
<path d="M16.727 14.338c-0.017 0.017-0.069 0.069-0.104 0.104-0.052 0-0.087 0-0.156 0-0.035-0.052-0.069-0.121-0.139-0.225 0-0.069 0.104-0.173 0.19-0.26 0.208 0.052 0.294 0.156 0.208 0.381z"></path>
<path d="M15.429 8.314c-0.242-0.121-0.225-0.346-0.208-0.537 0.052-0.069 0.087-0.138 0.139-0.208 0.017 0 0.052 0 0.069 0 0.017 0.017 0.052 0.035 0.052 0.035 0 0.225 0 0.45 0 0.658 0 0.017-0.035 0.035-0.052 0.052z"></path>
<path d="M15.481 11.395c-0.017-0.017-0.035-0.035-0.052-0.052 0-0.052 0-0.104 0-0.156 0-0.173 0.069-0.312 0.242-0.381 0.017-0.017 0.035-0.035 0.069-0.052 0.121 0.017 0.277-0.035 0.398 0.052-0.069 0.104-0.104 0.225-0.173 0.312-0.156 0.173-0.329 0.225-0.485 0.277z"></path>
<path d="M12.815 12.849c-0.139 0-0.26 0-0.415 0-0.052-0.069-0.139-0.121-0.19-0.208-0.052-0.069-0.104-0.139-0.087-0.225s0.052-0.19 0.087-0.277c0.035-0.069 0.121-0.104 0.173-0.156 0.035 0 0.052 0 0.087 0 0.069 0.139 0.139 0.312 0.225 0.45 0.104 0.139 0.121 0.26 0.121 0.415z"></path>
<path d="M15.429 21.263c0.017-0.017 0.035-0.035 0.052-0.052-0.017 0.017-0.035 0.035-0.052 0.052z"></path>
<path d="M15.377 21.332c0.017-0.017 0.035-0.035 0.052-0.052-0.017 0-0.035 0.035-0.052 0.052z"></path>
<path d="M15.377 22.44c0.052-0.017 0.156 0.052 0.225-0.035 0.087 0.017 0.173 0.035 0.242 0.052 0.069 0.035 0.139 0.087 0.208 0.156 0.069 0.052 0.139 0.121 0.173 0.19s0.052 0.156 0.052 0.242c0.035 0.294-0.121 0.571-0.45 0.779-0.087 0-0.173 0-0.277 0-0.346 0.017-0.519-0.19-0.658-0.485-0.069-0.173-0.052-0.364 0.017-0.537 0.069-0.156 0.19-0.26 0.346-0.329 0.035 0 0.052 0 0.121-0.035z"></path>
<path d="M13.923 22.353c0.087-0.052 0.139-0.087 0.208-0.121 0.121 0.035 0.156 0.156 0.225 0.277-0.035 0.052-0.087 0.104-0.139 0.156-0.069 0-0.156 0-0.225 0-0.104-0.087-0.052-0.208-0.069-0.312z"></path>
<path d="M13.611 14.65c0.312 0.121 0.346 0.346 0.312 0.658-0.069 0.069-0.173 0.173-0.242 0.242-0.208 0.052-0.381 0-0.537-0.121-0.017-0.052-0.069-0.121-0.121-0.225-0.035-0.242 0.035-0.433 0.312-0.537 0.087-0.017 0.19-0.017 0.277-0.017z"></path>
</svg>
