<!-- Generated by IcoMoon.io -->
<svg version="1.1" xmlns="http://www.w3.org/2000/svg" width="32" height="32" viewBox="0 0 32 32">
<title>airflo</title>
<path d="M0.372 12.807c0.166-1.458 0.982-2.904 2.185-4.371h16.011c0.046-2.336 1.956-4.218 4.303-4.218 2.375 0 4.303 1.928 4.303 4.303s-1.928 4.304-4.303 4.304l-22.499-0.018z"></path>
<path d="M18.696 17.977c2.469 0.016 4.469 2.025 4.469 4.498 0 2.483-2.016 4.498-4.498 4.498-2.406 0-4.373-1.893-4.493-4.269h-11.649c-1.103-1.065-1.879-2.633-2.311-4.727h18.482z"></path>
<path d="M27.383 13.188c2.501 0.016 4.526 2.051 4.526 4.556 0 2.514-2.042 4.556-4.556 4.556s-4.556-2.041-4.556-4.556c0-0.024 0-0.047 0-0.070h-22.576c-0.407-1.585-0.426-3.084 0-4.486h27.161z"></path>
</svg>
