<!-- Generated by IcoMoon.io -->
<svg version="1.1" xmlns="http://www.w3.org/2000/svg" width="32" height="32" viewBox="0 0 32 32">
<title>ara4us</title>
<path d="M-0.584 18.692c14.819-5.081 21.363-8.055 21.528-7.777 1.471-0.424 2.928-0.515 4.364-0.155 2.193 1.135 3.77 2.577 4.549 4.416 0.237 0.556 0.199 1.081-0.129 1.574-0.064 0.524-0.335 0.906-0.811 1.144l-4.683 0.13c-0.196-0.335-0.519-0.6-1.019-0.766l-10.257 0.564-13.541 0.869zM18.78 13.35l0.050 1.687 3.487-0.747-1.277-1.126-2.259 0.186zM22.646 11.282c0.772 0.652 1.49 1.32 2.027 2.039l3.581 0.036c-0.912-0.856-1.902-1.613-3.003-2.229l-2.606 0.154z"></path>
<path d="M-0.611 18.88l23.609-1.014c0.281 0.29 0.606 0.483 0.968 0.6l3.721 0.277 3.702 0.414-32-0.277"></path>
</svg>
