<!-- Generated by IcoMoon.io -->
<svg version="1.1" xmlns="http://www.w3.org/2000/svg" width="32" height="32" viewBox="0 0 32 32">
<title>cds_kb</title>
<path d="M5.51 16.479l1.111 0.352c-0.17 0.62-0.454 1.080-0.85 1.381s-0.899 0.451-1.508 0.451c-0.754 0-1.374-0.257-1.859-0.773s-0.728-1.219-0.728-2.113c0-0.945 0.244-1.679 0.732-2.202s1.129-0.784 1.925-0.784c0.695 0 1.259 0.205 1.693 0.616 0.258 0.243 0.452 0.591 0.581 1.046l-1.135 0.271c-0.067-0.294-0.207-0.527-0.42-0.697s-0.472-0.256-0.777-0.256c-0.421 0-0.762 0.151-1.024 0.453s-0.393 0.791-0.393 1.468c0 0.717 0.129 1.229 0.387 1.534s0.594 0.457 1.007 0.457c0.305 0 0.567-0.097 0.786-0.29s0.377-0.498 0.473-0.914z"></path>
<path d="M7.348 12.888h2.095c0.473 0 0.833 0.036 1.081 0.109 0.333 0.098 0.618 0.272 0.856 0.523s0.418 0.557 0.542 0.92 0.186 0.81 0.186 1.342c0 0.467-0.058 0.87-0.174 1.208-0.142 0.413-0.345 0.747-0.608 1.003-0.199 0.193-0.467 0.345-0.806 0.453-0.253 0.080-0.591 0.12-1.015 0.12h-2.157v-5.678zM8.494 13.849v3.761h0.856c0.32 0 0.552-0.018 0.693-0.054 0.186-0.047 0.34-0.125 0.463-0.236s0.223-0.294 0.3-0.548c0.077-0.254 0.116-0.601 0.116-1.040s-0.039-0.776-0.116-1.011c-0.078-0.235-0.186-0.418-0.325-0.55s-0.317-0.221-0.531-0.267c-0.16-0.036-0.474-0.054-0.941-0.054h-0.515z"></path>
<path d="M12.536 16.719l1.115-0.109c0.067 0.374 0.203 0.649 0.409 0.825s0.482 0.263 0.831 0.263c0.369 0 0.647-0.078 0.835-0.234s0.281-0.339 0.281-0.548c0-0.134-0.039-0.249-0.118-0.343s-0.216-0.176-0.412-0.246c-0.134-0.047-0.44-0.129-0.918-0.248-0.615-0.152-1.046-0.339-1.294-0.562-0.349-0.312-0.523-0.693-0.523-1.143 0-0.289 0.082-0.56 0.246-0.811s0.4-0.444 0.709-0.575c0.308-0.132 0.681-0.198 1.117-0.198 0.713 0 1.249 0.156 1.609 0.469s0.549 0.729 0.568 1.251l-1.146 0.050c-0.049-0.292-0.154-0.502-0.316-0.63s-0.404-0.191-0.726-0.191c-0.333 0-0.594 0.068-0.782 0.205-0.121 0.088-0.182 0.205-0.182 0.352 0 0.134 0.057 0.249 0.171 0.345 0.144 0.121 0.496 0.248 1.053 0.38s0.97 0.268 1.237 0.409c0.267 0.141 0.476 0.333 0.628 0.577s0.226 0.546 0.226 0.905c0 0.325-0.090 0.63-0.271 0.914s-0.436 0.495-0.767 0.633c-0.331 0.138-0.742 0.208-1.236 0.208-0.718 0-1.269-0.166-1.654-0.498s-0.615-0.815-0.689-1.45z"></path>
<path d="M21.504 18.566v-5.678h0.729v2.816l2.735-2.816h0.988l-2.31 2.301 2.412 3.377h-0.962l-1.961-2.874-0.902 0.906v1.968h-0.729z"></path>
<path d="M26.413 18.566v-5.678h2.066c0.421 0 0.758 0.057 1.013 0.173s0.453 0.292 0.597 0.53c0.144 0.239 0.216 0.489 0.216 0.75 0 0.243-0.064 0.471-0.192 0.685s-0.32 0.387-0.579 0.519c0.333 0.101 0.59 0.273 0.768 0.515s0.269 0.529 0.269 0.86c0 0.266-0.055 0.513-0.163 0.742s-0.244 0.405-0.404 0.528c-0.161 0.124-0.362 0.218-0.603 0.281s-0.538 0.095-0.888 0.095h-2.1zM27.142 15.274h1.191c0.323 0 0.555-0.022 0.695-0.066 0.185-0.057 0.325-0.151 0.419-0.283s0.141-0.297 0.141-0.496c0-0.189-0.044-0.354-0.131-0.498s-0.213-0.241-0.375-0.294c-0.163-0.053-0.442-0.079-0.838-0.079h-1.101v1.716zM27.142 17.896h1.371c0.235 0 0.401-0.009 0.496-0.027 0.168-0.031 0.308-0.083 0.421-0.155s0.205-0.178 0.278-0.315c0.073-0.138 0.109-0.298 0.109-0.478 0-0.212-0.053-0.396-0.158-0.552s-0.251-0.266-0.437-0.329c-0.187-0.064-0.455-0.095-0.806-0.095h-1.273v1.952z"></path>
<path d="M16.601 18.203h4.482v0.503h-4.482v-0.503z"></path>
</svg>
