<!-- Generated by IcoMoon.io -->
<svg version="1.1" xmlns="http://www.w3.org/2000/svg" width="32" height="32" viewBox="0 0 32 32">
<title>crc</title>
<path d="M8.745 16.905l2.049 0.65c-0.314 1.142-0.836 1.99-1.567 2.545s-1.657 0.831-2.78 0.831c-1.389 0-2.531-0.475-3.426-1.424s-1.342-2.247-1.342-3.894c0-1.742 0.45-3.094 1.349-4.057s2.082-1.446 3.547-1.446c1.28 0 2.32 0.379 3.119 1.135 0.476 0.447 0.833 1.090 1.071 1.927l-2.091 0.5c-0.124-0.543-0.382-0.971-0.775-1.285s-0.869-0.471-1.431-0.471c-0.775 0-1.405 0.279-1.888 0.835s-0.725 1.458-0.725 2.705c0 1.323 0.238 2.265 0.714 2.827s1.094 0.842 1.856 0.842c0.562 0 1.045-0.178 1.449-0.535s0.695-0.919 0.871-1.684z"></path>
<path d="M12.147 20.752v-10.464h4.447c1.118 0 1.931 0.094 2.437 0.282s0.913 0.522 1.217 1.003c0.305 0.48 0.457 1.030 0.457 1.649 0 0.785-0.231 1.434-0.692 1.945s-1.151 0.834-2.070 0.967c0.457 0.267 0.834 0.559 1.131 0.878s0.698 0.885 1.203 1.699l1.278 2.041h-2.526l-1.528-2.277c-0.542-0.814-0.914-1.326-1.113-1.538s-0.412-0.357-0.635-0.435-0.578-0.118-1.064-0.118h-0.428v4.368h-2.113zM14.259 14.713h1.563c1.013 0 1.646-0.042 1.898-0.128s0.45-0.233 0.593-0.442c0.143-0.21 0.214-0.471 0.214-0.786 0-0.352-0.094-0.636-0.282-0.853s-0.453-0.353-0.796-0.411c-0.171-0.023-0.685-0.036-1.542-0.036h-1.648v2.655z"></path>
<path d="M28.923 16.905l2.049 0.65c-0.314 1.142-0.836 1.99-1.567 2.545s-1.657 0.831-2.78 0.831c-1.389 0-2.531-0.475-3.426-1.424s-1.342-2.247-1.342-3.894c0-1.742 0.45-3.094 1.349-4.057s2.082-1.446 3.547-1.446c1.28 0 2.32 0.379 3.119 1.135 0.476 0.447 0.832 1.090 1.071 1.927l-2.091 0.5c-0.124-0.543-0.382-0.971-0.775-1.285s-0.869-0.471-1.431-0.471c-0.775 0-1.405 0.279-1.888 0.835s-0.725 1.458-0.725 2.705c0 1.323 0.238 2.265 0.714 2.827s1.094 0.842 1.856 0.842c0.561 0 1.044-0.178 1.449-0.535s0.695-0.919 0.871-1.684z"></path>
</svg>
