<!-- Generated by IcoMoon.io -->
<svg version="1.1" xmlns="http://www.w3.org/2000/svg" width="32" height="32" viewBox="0 0 32 32">
<title>dnascan</title>
<path d="M16.229 0.618c6.982 0.067 13.565 5.454 14.857 12.426 0.911 4.915-0.787 10.245-4.397 13.729-4.212 4.064-10.859 5.406-16.391 3.105-4.855-2.020-8.499-6.714-9.229-11.924-0.906-6.464 2.853-13.298 8.805-15.991 1.988-0.899 4.172-1.351 6.356-1.344zM16.039 1.578c-6.51 0.062-12.612 5.044-13.885 11.466-0.917 4.624 0.642 9.675 4.025 12.978 3.932 3.84 10.169 5.115 15.336 3.002 4.562-1.865 8.001-6.244 8.715-11.115 0.883-6.027-2.558-12.419-8.080-14.999-1.904-0.889-3.995-1.338-6.111-1.332z"></path>
<path d="M10.787 6.345c0.158 0.027 0.272 0.153 0.279 0.317v1.937c0.401 1.235 1.637 2.014 2.953 2.321 0 0 1.488 0.616 2.254 1.498 0 0 0.141 1.098-0.573 0.319-0.502-0.538-1.153-0.92-1.836-1.193 0 0-2.616-0.58-3.355-2.599-0.036-0.098-0.078-0.193-0.082-0.296v-1.987c0.008-0.19 0.104-0.339 0.361-0.317z"></path>
<path d="M17.285 6.4c0.239 0.041 0.277 0.099 0.289 0.325l-0.041 1.902c-0.046 0.588-0.262 0.77-0.456 1.035-0.852 1.162-2.33 1.561-3.666 2.35-1.331 1.185-2.881 2.662-2.361 4.7 0.382 1.498 1.685 2.778 3.186 3.415 1.281 0.555 2.485 1.373 3.241 2.53 0.039 0.059 0.074 0.076 0.085 0.224l0.012 1.998c-0.024 0.346-0.605 0.434-0.64 0.004l-0.012-1.904c-0.099-0.149-0.206-0.292-0.32-0.428-0.739-0.884-1.764-1.487-2.827-1.921 0 0-5.36-2.969-2.63-7.105 0.503-0.762 1.177-1.4 1.863-2.011 0 0 1.466-0.712 2.604-1.414 0.576-0.356 1.105-0.863 1.282-1.522 0 0 0.045-1.913 0.045-1.913 0.058-0.23 0.101-0.269 0.346-0.264z"></path>
<path d="M13.655 20.168c0.779 0.070 0.338 0.516-0.116 0.707-0.183 0.078-0.365 0.16-0.544 0.249-0.144 0.071-0.286 0.147-0.425 0.228-0.092 0.053-0.183 0.109-0.272 0.168-0.083 0.055-0.164 0.112-0.243 0.172-0.419 0.32-0.807 0.765-0.835 1.317-0.028 0.777 0.077 1.825-0.172 2.049-0.182 0.164-0.533 0.028-0.533-0.25 0.032-0.887-0.056-1.841 0.215-2.491 0.476-1.143 1.721-1.693 2.789-2.127 0 0 0.024-0.025 0.137-0.023z"></path>
<path d="M17.017 14.334c0.547 0.067 0.768 1.154 0.766 1.859-0.004 1.173-0.857 2.3-1.996 2.992 0 0-1.023-0.101-0.19-0.636 0.627-0.41 1.147-0.971 1.448-1.662 0 0 0.156-0.655 0.046-1.202l-0.403-0.924c-0.068-0.213 0.045-0.441 0.329-0.426z"></path>
<path d="M16.254 7.275c0.284 0.045 0.149 0.311-0.017 0.319h-4.498c-0.282-0.015-0.18-0.311 0-0.32 1.505 0 3.012-0.078 4.515 0.001z"></path>
<path d="M15.929 8.265c0.16 0.024 0.187 0.291 0 0.318-1.31 0.064-2.623 0.001-3.934 0.001-0.277-0.013-0.182-0.294-0.016-0.319 1.315-0.065 2.635-0.065 3.95 0z"></path>
<path d="M14.808 9.264c0.161 0.016 0.195 0.3 0 0.319-0.608 0.020-1.216 0.020-1.824 0-0.164-0.017-0.178-0.301 0-0.319 0.608-0.020 1.216-0.020 1.824 0z"></path>
<path d="M14.35 12.628c0.156 0.011 0.216 0.305 0 0.32-0.369 0.009-0.853 0.064-0.98-0.032-0.103-0.078-0.060-0.271 0.082-0.287 0.299-0.021 0.599-0.008 0.899-0.001z"></path>
<path d="M13.785 13.686c0.161 0.014 0.197 0.303 0 0.32-0.451 0.013-0.902 0.013-1.352 0-0.161-0.014-0.197-0.303 0-0.32 0.451-0.013 0.902-0.013 1.352 0z"></path>
<path d="M13.088 14.622c0.159 0.013 0.194 0.303 0 0.32-0.431 0.012-0.863 0.012-1.294 0-0.159-0.013-0.194-0.303 0-0.32 0.431-0.012 0.863-0.012 1.294 0z"></path>
<path d="M12.529 15.687c0.156 0.011 0.219 0.304 0 0.32-0.384 0.009-0.893 0.051-1.017-0.021-0.116-0.067-0.085-0.287 0.072-0.299 0.315-0.007 0.63-0.007 0.945 0z"></path>
<path d="M12.336 16.746c0.162 0.008 0.19 0.304 0.005 0.32-0.203 0.010-0.452 0.042-0.556-0.025-0.112-0.072-0.072-0.286 0.082-0.294 0.156-0.003 0.313-0.003 0.469 0z"></path>
<path d="M16.175 15.218c0.163 0.013 0.181 0.305 0 0.32-0.371 0.010-0.743 0.010-1.115 0-0.156-0.012-0.211-0.303 0-0.32 0.372-0.010 0.743-0.010 1.115 0z"></path>
<path d="M16.369 16.084c0.161 0.015 0.199 0.3 0 0.319-0.538 0.017-1.077 0.017-1.615 0-0.161-0.015-0.199-0.3 0-0.319 0.538-0.017 1.077-0.017 1.615 0z"></path>
<path d="M16.265 16.769c0.161 0.016 0.197 0.3 0 0.319-0.587 0.019-1.175 0.019-1.762 0-0.161-0.016-0.197-0.3 0-0.319 0.587-0.019 1.175-0.019 1.762 0z"></path>
<path d="M15.747 17.525c0.161 0.014 0.196 0.303 0 0.32-0.43 0.012-0.86 0.012-1.29 0-0.161-0.014-0.196-0.303 0-0.32 0.43-0.012 0.86-0.012 1.29 0z"></path>
<path d="M15.193 18.196c0.156 0.008 0.225 0.308 0 0.32-0.212 0.004-0.474 0.042-0.579-0.024-0.112-0.070-0.079-0.282 0.074-0.295 0.168-0.009 0.337-0.004 0.506-0z"></path>
<path d="M16.709 13.080c2.583 0.049 4.68 3.087 3.469 5.598-1.058 2.193-4.388 2.875-6.213 1.133-2.143-2.044-0.928-6.663 2.644-6.731 0.050-0 0.050-0 0.101 0zM16.619 13.88c-2.050 0.039-3.72 2.457-2.759 4.45 1.102 2.286 5.445 2.153 5.874-0.911 0.246-1.759-1.201-3.551-3.115-3.539z"></path>
<path d="M23.738 22.927l-4.274-4.19-1.129 1.152 4.274 4.19 1.129-1.152z"></path>
<path d="M15.324 22.049c0.162 0.020 0.181 0.297 0 0.319-0.915 0.037-1.832 0.001-2.748 0.001-0.172-0.007-0.19-0.298-0.013-0.32 0.92-0.037 1.841-0.037 2.761 0z"></path>
<path d="M15.936 23.028c0.158 0.023 0.181 0.292 0 0.318-1.326 0.065-2.655 0.001-3.983 0.001-0.103-0.005-0.122-0.047-0.141-0.084-0.050-0.093 0.012-0.218 0.125-0.235 1.331-0.066 2.667-0.066 3.999 0z"></path>
<path d="M16.25 24.102c0.284 0.045 0.149 0.31-0.017 0.319h-4.514c-0.299-0.015-0.182-0.31 0-0.32 1.51 0 3.023-0.078 4.531 0.001z"></path>
</svg>
