<!-- Generated by IcoMoon.io -->
<svg version="1.1" xmlns="http://www.w3.org/2000/svg" width="32" height="32" viewBox="0 0 32 32">
<title>drugrepurposing</title>
<path d="M11.716 6.774l5.321-2.090z"></path>
<path d="M11.716 6.774c0.356-0.345 0.755-0.643 1.187-0.887 0.414-0.24 0.845-0.448 1.29-0.623s0.903-0.317 1.369-0.423c0.483-0.115 0.98-0.168 1.477-0.157-0.356 0.346-0.755 0.644-1.186 0.888-0.414 0.24-0.846 0.448-1.291 0.622-0.445 0.175-0.903 0.316-1.37 0.421-0.483 0.116-0.979 0.169-1.476 0.159z"></path>
<path d="M10.239 3.977c0.251 0.11 0.479 0.266 0.575 0.513 0.065 0.167 0.061 0.347 0.073 0.516 0.128 1.7 0.581 3.38 1.41 4.877 1.345 2.43 3.555 4.305 5.556 6.163 1.461 1.36 2.928 2.723 4.051 4.424 1.078 1.634 1.688 3.693 1.126 5.569-0.715 2.39-3.202 3.986-5.588 4.502-0.727 0.157-1.47 0.236-2.215 0.249l-0.035 0c-0.23-0.033-0.304-0.016-0.501-0.155-0.485-0.343-0.428-1.278 0.216-1.497 0.165-0.056 0.342-0.045 0.509-0.051 1.608-0.060 3.246-0.485 4.508-1.47 1.007-0.785 1.691-1.979 1.627-3.314-0.083-1.73-1.205-3.224-2.266-4.418-2.768-3.117-6.414-5.509-8.437-9.113-1.004-1.789-1.546-3.821-1.671-5.878 0 0-0.011-0.18 0.024-0.311 0.069-0.261 0.268-0.48 0.513-0.575 0.164-0.064 0.346-0.048 0.524-0.030z"></path>
<path d="M17.616 1.276c0.298 0.212 0.48 0.565 0.65 0.895 0.898 1.746 1.732 3.55 1.864 5.557 0.141 2.156-0.286 4.348-0.63 6.484-0.681 4.191-2.024 8.261-2.994 12.417-0.265 1.135-0.491 2.281-0.63 3.436l-0.073 0.255c-0.129 0.193-0.146 0.267-0.357 0.384-0.38 0.212-0.935 0.066-1.155-0.328-0.144-0.257-0.117-0.399-0.073-0.746 0.685-5.313 2.73-10.287 3.605-15.691 0.432-2.672 1.044-5.404 0.279-7.912-0.383-1.257-1.004-2.429-1.616-3.599l-0.085-0.252c-0.002-0.178-0.002-0.361 0.076-0.519 0.12-0.242 0.359-0.416 0.618-0.46 0.174-0.029 0.349 0.023 0.519 0.076z"></path>
<path d="M17.983 22.476l3.045 0.966z"></path>
<path d="M17.983 22.476c0.282-0.118 0.586-0.176 0.892-0.17 0.271 0.004 0.54 0.047 0.799 0.129s0.503 0.2 0.726 0.352c0.253 0.172 0.468 0.395 0.63 0.654-0.283 0.119-0.588 0.178-0.895 0.171-0.544-0.008-1.073-0.177-1.522-0.484-0.253-0.172-0.468-0.393-0.63-0.652z"></path>
<path d="M12.874 9.283l4.859-1.315z"></path>
<path d="M12.874 9.284c0.326-0.303 0.697-0.554 1.099-0.745 0.379-0.185 0.776-0.334 1.183-0.443 0.407-0.112 0.824-0.185 1.245-0.217 0.445-0.039 0.893-0.009 1.328 0.089-0.326 0.303-0.696 0.555-1.099 0.746-0.38 0.185-0.776 0.333-1.184 0.442-0.408 0.111-0.825 0.182-1.246 0.215-0.444 0.038-0.891 0.009-1.326-0.087z"></path>
<path d="M14.207 11.739l3.818-1.017z"></path>
<path d="M14.207 11.739c0.239-0.272 0.524-0.499 0.844-0.67 0.292-0.16 0.603-0.283 0.925-0.368 0.321-0.087 0.651-0.135 0.984-0.141 0.363-0.011 0.724 0.044 1.066 0.164-0.238 0.273-0.524 0.501-0.844 0.672-0.588 0.316-1.242 0.489-1.909 0.503-0.362 0.012-0.723-0.042-1.066-0.16z"></path>
<path d="M16.938 26.165l2.363 1.571z"></path>
<path d="M16.94 26.165c0.276-0.050 0.559-0.038 0.829 0.035 0.47 0.123 0.886 0.399 1.182 0.784 0.172 0.222 0.292 0.479 0.352 0.753-0.276 0.051-0.56 0.040-0.831-0.033-0.234-0.062-0.455-0.164-0.655-0.3-0.201-0.134-0.379-0.3-0.525-0.491-0.171-0.22-0.291-0.476-0.352-0.748z"></path>
<path d="M17.166 24.394l3.846 1.384z"></path>
<path d="M17.166 24.394c0.363-0.085 0.738-0.105 1.107-0.059 0.685 0.080 1.343 0.316 1.922 0.69 0.315 0.2 0.591 0.455 0.815 0.753-0.363 0.087-0.738 0.107-1.107 0.061-0.685-0.080-1.343-0.318-1.922-0.693-0.314-0.2-0.59-0.455-0.815-0.752z"></path>
</svg>
