<!-- Generated by IcoMoon.io -->
<svg version="1.1" xmlns="http://www.w3.org/2000/svg" width="32" height="32" viewBox="0 0 32 32">
<title>emerge</title>
<path d="M2.256 13.809c0.486-0.041 0.832-0.141 1.037-0.3s0.307-0.358 0.307-0.599c0-0.143-0.035-0.252-0.104-0.326s-0.163-0.111-0.28-0.111c-0.123 0-0.237 0.037-0.342 0.111s-0.2 0.173-0.284 0.296c-0.084 0.123-0.155 0.265-0.211 0.426s-0.097 0.329-0.123 0.503zM2.233 14.040c-0.005 0.051-0.009 0.102-0.012 0.154s-0.004 0.105-0.004 0.161c0 0.118 0.010 0.233 0.031 0.346s0.056 0.212 0.108 0.3c0.051 0.087 0.122 0.157 0.211 0.211s0.204 0.081 0.342 0.081c0.133 0 0.271-0.024 0.415-0.073s0.289-0.124 0.438-0.227c0.051-0.036 0.087-0.054 0.108-0.054 0.041 0 0.068 0.020 0.081 0.061s0.019 0.072 0.019 0.092c-0.077 0.072-0.164 0.143-0.261 0.215s-0.202 0.136-0.315 0.192c-0.113 0.056-0.233 0.102-0.361 0.138s-0.261 0.054-0.399 0.054c-0.215 0-0.39-0.040-0.526-0.119s-0.243-0.182-0.323-0.307c-0.079-0.125-0.133-0.262-0.161-0.411s-0.042-0.292-0.042-0.43c0-0.271 0.042-0.54 0.127-0.806s0.204-0.504 0.357-0.714c0.154-0.21 0.34-0.379 0.561-0.507s0.466-0.192 0.737-0.192c0.108 0 0.212 0.014 0.315 0.042s0.193 0.070 0.273 0.127c0.079 0.056 0.143 0.131 0.192 0.223s0.073 0.202 0.073 0.33c0 0.189-0.050 0.352-0.15 0.488s-0.238 0.248-0.415 0.338c-0.177 0.090-0.385 0.157-0.626 0.204s-0.504 0.074-0.791 0.084z"></path>
<path d="M5.423 15.599v-4.978h0.755v0.698c0.156-0.244 0.364-0.44 0.623-0.588s0.555-0.223 0.886-0.223c0.369 0 0.671 0.076 0.907 0.23s0.403 0.367 0.499 0.642c0.394-0.581 0.906-0.872 1.538-0.872 0.494 0 0.874 0.137 1.139 0.41s0.398 0.694 0.398 1.263v3.417h-0.839v-3.136c0-0.338-0.028-0.58-0.082-0.729s-0.154-0.268-0.298-0.359-0.312-0.136-0.506-0.136c-0.35 0-0.641 0.116-0.872 0.349s-0.347 0.605-0.347 1.118v2.892h-0.844v-3.234c0-0.375-0.069-0.656-0.206-0.844s-0.362-0.281-0.675-0.281c-0.237 0-0.457 0.063-0.659 0.188s-0.348 0.308-0.438 0.548-0.136 0.588-0.136 1.041v2.583h-0.844z"></path>
<path d="M16.203 13.996l0.872 0.108c-0.138 0.509-0.392 0.905-0.764 1.186s-0.847 0.422-1.425 0.422c-0.728 0-1.305-0.224-1.732-0.673s-0.64-1.077-0.64-1.887c0-0.837 0.216-1.488 0.647-1.95s0.99-0.694 1.678-0.694c0.666 0 1.209 0.227 1.631 0.68s0.633 1.091 0.633 1.913c0 0.050-0.002 0.125-0.005 0.225h-3.712c0.031 0.547 0.186 0.965 0.464 1.256s0.625 0.436 1.041 0.436c0.309 0 0.573-0.081 0.792-0.244s0.392-0.422 0.52-0.778zM13.433 12.632h2.78c-0.038-0.419-0.144-0.733-0.319-0.942-0.269-0.325-0.617-0.488-1.045-0.488-0.388 0-0.713 0.13-0.977 0.389s-0.41 0.606-0.438 1.041z"></path>
<path d="M17.501 15.599v-4.978h0.759v0.755c0.194-0.353 0.373-0.586 0.537-0.699s0.344-0.169 0.541-0.169c0.284 0 0.573 0.091 0.867 0.272l-0.291 0.783c-0.206-0.122-0.412-0.183-0.619-0.183-0.185 0-0.35 0.055-0.497 0.166s-0.252 0.265-0.314 0.462c-0.094 0.3-0.14 0.628-0.14 0.984v2.606h-0.844z"></path>
<path d="M19.928 16.011l0.82 0.122c0.034 0.253 0.13 0.437 0.286 0.553 0.21 0.156 0.495 0.234 0.858 0.234 0.391 0 0.692-0.078 0.905-0.234s0.356-0.375 0.431-0.656c0.044-0.172 0.064-0.533 0.061-1.083-0.369 0.435-0.828 0.652-1.378 0.652-0.684 0-1.214-0.247-1.589-0.74s-0.563-1.086-0.563-1.777c0-0.475 0.086-0.913 0.258-1.315s0.421-0.712 0.748-0.93c0.327-0.219 0.71-0.328 1.151-0.328 0.588 0 1.072 0.237 1.453 0.713v-0.6h0.778v4.303c0 0.775-0.079 1.324-0.237 1.648s-0.408 0.579-0.75 0.766c-0.342 0.188-0.763 0.281-1.263 0.281-0.594 0-1.074-0.134-1.439-0.401s-0.542-0.669-0.53-1.207zM20.627 13.021c0 0.653 0.13 1.13 0.389 1.429s0.584 0.45 0.975 0.45c0.388 0 0.712-0.149 0.975-0.448s0.394-0.766 0.394-1.404c0-0.61-0.135-1.069-0.405-1.378s-0.596-0.464-0.977-0.464c-0.375 0-0.694 0.152-0.956 0.457s-0.394 0.757-0.394 1.357z"></path>
<path d="M28.206 13.996l0.872 0.108c-0.137 0.509-0.392 0.905-0.764 1.186s-0.847 0.422-1.425 0.422c-0.728 0-1.306-0.224-1.732-0.673s-0.64-1.077-0.64-1.887c0-0.837 0.216-1.488 0.647-1.95s0.991-0.694 1.678-0.694c0.666 0 1.209 0.227 1.631 0.68s0.633 1.091 0.633 1.913c0 0.050-0.002 0.125-0.004 0.225h-3.713c0.031 0.547 0.186 0.965 0.464 1.256s0.625 0.436 1.041 0.436c0.309 0 0.573-0.081 0.792-0.244s0.392-0.422 0.52-0.778zM25.436 12.632h2.78c-0.037-0.419-0.144-0.733-0.319-0.942-0.269-0.325-0.617-0.488-1.045-0.488-0.388 0-0.713 0.13-0.977 0.389s-0.41 0.606-0.438 1.041z"></path>
<path d="M1.83 22.505v-4.978h0.623v0.708c0.15-0.275 0.334-0.481 0.551-0.617s0.466-0.204 0.748-0.204c0.219 0 0.421 0.043 0.607 0.129s0.336 0.198 0.45 0.338c0.114 0.139 0.199 0.319 0.256 0.541s0.084 0.562 0.084 1.022v3.061h-0.694v-3.028c0-0.365-0.031-0.633-0.094-0.801s-0.16-0.3-0.293-0.392-0.287-0.138-0.462-0.138c-0.331 0-0.595 0.124-0.792 0.371s-0.295 0.67-0.295 1.27v2.719h-0.689z"></path>
<path d="M9.251 20.902l0.713 0.108c-0.119 0.532-0.334 0.932-0.644 1.203s-0.696 0.405-1.156 0.405c-0.578 0-1.046-0.22-1.404-0.659s-0.537-1.073-0.537-1.901c0-0.86 0.18-1.515 0.541-1.966s0.818-0.677 1.371-0.677c0.528 0 0.969 0.222 1.322 0.666s0.53 1.086 0.53 1.927l-0.005 0.225h-3.047c0.028 0.559 0.158 0.981 0.389 1.266s0.512 0.427 0.844 0.427c0.519 0 0.88-0.341 1.083-1.022zM6.978 19.537h2.278c-0.031-0.431-0.124-0.753-0.276-0.966-0.222-0.309-0.505-0.464-0.849-0.464-0.309 0-0.573 0.129-0.792 0.387s-0.339 0.605-0.361 1.043z"></path>
<path d="M12.627 21.75l0.094 0.745c-0.191 0.050-0.363 0.075-0.516 0.075-0.24 0-0.434-0.048-0.581-0.143s-0.248-0.226-0.302-0.392c-0.055-0.165-0.082-0.495-0.082-0.989v-2.864h-0.506v-0.656h0.506v-1.233l0.689-0.506v1.739h0.699v0.656h-0.699v2.911c0 0.269 0.020 0.442 0.061 0.52 0.059 0.113 0.17 0.169 0.333 0.169 0.078 0 0.18-0.011 0.305-0.033z"></path>
<path d="M14.274 22.505l-1.247-4.978h0.717l0.647 2.873 0.239 1.069 0.216-1.027 0.647-2.916h0.712l0.61 2.887 0.206 0.952 0.234-0.961 0.699-2.878h0.675l-1.28 4.978h-0.717l-0.652-2.981-0.155-0.848-0.825 3.829h-0.727z"></path>
<path d="M19.197 20.016c0-0.86 0.18-1.508 0.541-1.945s0.818-0.656 1.371-0.656c0.544 0 0.998 0.219 1.364 0.656s0.548 1.069 0.548 1.894c0 0.894-0.18 1.559-0.539 1.997s-0.817 0.656-1.373 0.656c-0.547 0-1.002-0.22-1.366-0.659s-0.546-1.087-0.546-1.943zM19.905 20.016c0 0.644 0.117 1.123 0.352 1.437s0.525 0.471 0.872 0.471c0.325 0 0.604-0.159 0.836-0.476s0.349-0.795 0.349-1.432c0-0.641-0.117-1.118-0.352-1.432s-0.525-0.471-0.872-0.471c-0.328 0-0.608 0.158-0.839 0.473s-0.347 0.792-0.347 1.43z"></path>
<path d="M24.082 22.505v-4.978h0.623v0.755c0.159-0.35 0.306-0.582 0.438-0.696s0.282-0.171 0.448-0.171c0.231 0 0.467 0.091 0.708 0.272l-0.235 0.783c-0.172-0.122-0.339-0.183-0.501-0.183-0.147 0-0.281 0.052-0.403 0.155s-0.208 0.247-0.258 0.431c-0.087 0.322-0.131 0.664-0.131 1.027v2.606h-0.689z"></path>
<path d="M26.971 22.505v-6.872h0.689v3.919l1.641-2.025h0.895l-1.561 1.847 1.716 3.131h-0.848l-1.355-2.545-0.488 0.572v1.973h-0.689z"></path>
</svg>
