<!-- Generated by IcoMoon.io -->
<svg version="1.1" xmlns="http://www.w3.org/2000/svg" width="32" height="32" viewBox="0 0 32 32">
<title>esmart</title>
<path d="M16.087 0.805c8.279 0 15 6.721 15 15s-6.721 15-15 15c-8.278 0-15-6.721-15-15s6.721-15 15-15zM24.79 16.738c0.012-0.375 0.018-0.656 0.018-0.844 0-3.082-0.791-5.473-2.373-7.172s-3.622-2.549-6.117-2.549c-2.578 0-4.675 0.867-6.293 2.601s-2.425 4.172-2.425 7.313c0 3.035 0.8 5.394 2.399 7.075s3.765 2.523 6.495 2.523c2.168 0 3.949-0.527 5.343-1.582s2.349-2.537 2.866-4.447l-3.27-0.404c-0.48 1.335-1.131 2.308-1.951 2.918s-1.811 0.914-2.971 0.914c-1.559 0-2.86-0.545-3.902-1.635s-1.623-2.66-1.74-4.711h13.921zM11.043 14.136h10.424c-0.14-1.57-0.539-2.748-1.195-3.533-1.008-1.219-2.314-1.829-3.92-1.829-1.453 0-2.675 0.486-3.665 1.459s-1.538 2.274-1.643 3.902z"></path>
</svg>
