<!-- Generated by IcoMoon.io -->
<svg version="1.1" xmlns="http://www.w3.org/2000/svg" width="32" height="32" viewBox="0 0 32 32">
<title>etl_dashboard</title>
<path d="M16.006 8.27c-1.976 0-3.831 0.768-5.222 2.162s-2.162 3.246-2.162 5.222c0 1.976 0.768 3.822 2.162 5.222 1.391 1.391 3.252 2.162 5.222 2.162 1.976 0 3.831-0.768 5.222-2.162s2.162-3.246 2.162-5.222c0-1.976-0.768-3.822-2.162-5.222-1.391-1.391-3.246-2.162-5.222-2.162zM16.006 21.804c-3.406 0-6.153-2.759-6.153-6.153s2.747-6.153 6.153-6.153c3.406 0 6.153 2.762 6.153 6.153s-2.747 6.153-6.153 6.153zM28.901 12.577h-1.168c-0.955 0-1.753-0.801-1.753-1.783 0-0.491 0.208-0.931 0.578-1.262l0.753-0.738c0.747-0.738 0.747-1.936 0-2.683l-1.714-1.699c-0.337-0.337-0.837-0.539-1.346-0.539s-1 0.199-1.346 0.539l-0.723 0.723c-0.346 0.385-0.822 0.593-1.322 0.593-0.985 0-1.822-0.801-1.822-1.747v-1.162c0-1.039-0.807-1.93-1.846-1.93h-2.34c-1.060 0-1.906 0.885-1.906 1.93v1.168c0 0.946-0.816 1.747-1.798 1.747-0.491 0-0.94-0.208-1.277-0.569l-0.747-0.738c-0.337-0.346-0.837-0.539-1.346-0.539s-1 0.199-1.346 0.539l-1.714 1.692c-0.738 0.738-0.738 1.945 0 2.677l0.723 0.723c0.385 0.346 0.599 0.783 0.599 1.283 0 0.985-0.801 1.783-1.753 1.783h-1.168c-1.054-0.009-1.936 0.852-1.936 1.9v2.337c0 1.039 0.885 1.906 1.936 1.906h1.168c0.955 0 1.753 0.801 1.753 1.783 0 0.491-0.214 0.946-0.599 1.292l-0.723 0.708c-0.738 0.738-0.738 1.936 0 2.677l1.714 1.708c0.337 0.346 0.837 0.539 1.346 0.539s1-0.199 1.346-0.539l0.747-0.738c0.322-0.361 0.777-0.569 1.268-0.569 0.985 0 1.798 0.801 1.798 1.747v1.168c0 1.039 0.846 1.93 1.9 1.93h2.337c1.045 0 1.915-0.885 1.915-1.93v-1.168c0-0.946 0.807-1.747 1.792-1.747 0.491 0 0.946 0.214 1.301 0.593l0.723 0.723c0.346 0.337 0.837 0.539 1.346 0.539s1-0.199 1.346-0.539l1.714-1.708c0.738-0.738 0.738-1.945 0-2.683l-0.753-0.738c-0.37-0.331-0.578-0.801-0.578-1.283 0-0.985 0.801-1.816 1.753-1.816h1.168c1.045 0 1.792-0.792 1.792-1.837v-2.352c0-1.051-0.747-1.912-1.792-1.912zM29.48 15.651v1.162c0 0.322-0.178 0.608-0.56 0.608h-1.168c-0.792 0-1.545 0.337-2.114 0.922-0.56 0.578-0.87 1.337-0.87 2.138 0 0.831 0.337 1.599 0.961 2.168l0.732 0.723c0.253 0.262 0.253 0.693 0 0.946l-1.714 1.708c-0.123 0.114-0.301 0.184-0.485 0.184s-0.37-0.069-0.485-0.184l-0.702-0.699c-0.593-0.623-1.37-0.97-2.192-0.97-0.801 0-1.539 0.307-2.114 0.861-0.584 0.569-0.891 1.316-0.891 2.114v1.168c0 0.376-0.331 0.699-0.684 0.699h-2.34c-0.352 0-0.669-0.322-0.669-0.699v-1.168c0-0.792-0.316-1.545-0.9-2.114-0.578-0.554-1.331-0.861-2.123-0.861-0.816 0-1.599 0.346-2.162 0.955l-0.714 0.714c-0.123 0.114-0.301 0.184-0.485 0.184s-0.37-0.060-0.47-0.169l-0.018-0.018-1.714-1.708c-0.253-0.253-0.253-0.678 0-0.94l0.699-0.693c0.629-0.584 0.976-1.361 0.976-2.192 0-0.801-0.307-1.53-0.87-2.108-0.569-0.584-1.322-0.885-2.114-0.885h-1.178c-0.385 0-0.708-0.331-0.708-0.678v-2.346c0-0.346 0.322-0.678 0.708-0.678h1.168c0.792 0 1.545-0.301 2.114-0.885 0.56-0.578 0.87-1.322 0.87-2.114 0-0.831-0.346-1.608-0.976-2.183l-0.708-0.699c-0.169-0.169-0.193-0.361-0.193-0.47 0-0.099 0.024-0.301 0.193-0.47l1.708-1.699c0.123-0.114 0.301-0.184 0.485-0.184s0.37 0.060 0.47 0.169l0.741 0.741c0.569 0.614 1.337 0.955 2.162 0.955 0.801 0 1.545-0.307 2.123-0.861 0.584-0.569 0.906-1.316 0.906-2.114v-1.168c0-0.376 0.307-0.699 0.653-0.699h2.346c0.346 0 0.614 0.322 0.614 0.699v1.168c0 0.792 0.337 1.545 0.922 2.114 0.578 0.554 1.337 0.861 2.138 0.861 0.831 0 1.614-0.346 2.198-0.97l0.699-0.699c0.123-0.114 0.301-0.184 0.485-0.184s0.37 0.069 0.485 0.178l1.714 1.699c0.123 0.123 0.199 0.292 0.199 0.47s-0.069 0.346-0.193 0.47l-0.732 0.723c-0.614 0.569-0.961 1.337-0.961 2.168 0 0.801 0.307 1.53 0.87 2.108 0.569 0.584 1.322 0.885 2.114 0.885h1.168c0.416 0 0.569 0.385 0.578 0.693l0.006 1.153z"></path>
<path d="M16.054 9.916c-3.163 0-5.731 2.568-5.731 5.731s2.568 5.731 5.731 5.731c3.163 0 5.731-2.568 5.731-5.731s-2.568-5.731-5.731-5.731zM16.062 13.052c1.446 0 2.62 1.174 2.62 2.62s-1.174 2.62-2.62 2.62c-1.446 0-2.62-1.174-2.62-2.62s1.174-2.62 2.62-2.62z"></path>
</svg>
