<!-- Generated by IcoMoon.io -->
<svg version="1.1" xmlns="http://www.w3.org/2000/svg" width="32" height="32" viewBox="0 0 32 32">
<title>irb_choice</title>
<path d="M2.777 14.244c0 0.106-0.038 0.198-0.116 0.275s-0.169 0.116-0.275 0.116-0.197-0.039-0.272-0.116c-0.075-0.077-0.113-0.169-0.113-0.275s0.037-0.198 0.113-0.275c0.075-0.077 0.165-0.116 0.272-0.116 0.11 0 0.203 0.038 0.278 0.113s0.112 0.168 0.112 0.278zM3.239 18.060v0.575h-1.659v-0.575h0.512v-2.131h-0.512v-0.578h1.159v2.709h0.5z"></path>
<path d="M4.821 17.316v0.744h0.716v0.575h-2.016v-0.575h0.66v-2.131h-0.66v-0.578h1.172v0.744c0.132-0.294 0.294-0.498 0.489-0.614s0.473-0.173 0.836-0.173h0.147v0.653h-0.14c-0.35 0-0.611 0.046-0.781 0.138s-0.284 0.23-0.339 0.416c-0.055 0.185-0.083 0.453-0.083 0.803z"></path>
<path d="M8.618 15.263c0.302 0 0.575 0.076 0.819 0.229s0.434 0.36 0.57 0.62c0.136 0.26 0.204 0.542 0.204 0.844 0 0.312-0.069 0.601-0.208 0.866s-0.33 0.476-0.573 0.633c-0.244 0.157-0.516 0.236-0.819 0.236-0.239 0-0.467-0.049-0.683-0.147s-0.385-0.232-0.508-0.403v0.494h-1.21v-0.575h0.581v-3.566h-0.581v-0.569h1.21v1.894c0.329-0.371 0.728-0.556 1.197-0.556zM8.483 18.116c0.204 0 0.387-0.055 0.547-0.166s0.284-0.255 0.372-0.434c0.088-0.179 0.131-0.37 0.131-0.572 0-0.2-0.045-0.383-0.134-0.55s-0.213-0.299-0.372-0.397c-0.158-0.098-0.337-0.147-0.537-0.147s-0.379 0.051-0.538 0.153c-0.158 0.102-0.282 0.241-0.372 0.416s-0.134 0.37-0.134 0.584c0 0.204 0.046 0.392 0.138 0.563s0.217 0.305 0.375 0.403c0.158 0.098 0.333 0.147 0.525 0.147z"></path>
<path d="M13.707 15.588v-0.237h0.575v1.244h-0.575c-0.025-0.24-0.121-0.422-0.287-0.548s-0.359-0.189-0.578-0.189c-0.188 0-0.356 0.050-0.505 0.15s-0.264 0.236-0.345 0.406c-0.081 0.171-0.122 0.357-0.122 0.559 0 0.344 0.092 0.625 0.275 0.842s0.425 0.327 0.725 0.327c0.465 0 0.793-0.216 0.984-0.647l0.538 0.256c-0.302 0.654-0.819 0.981-1.55 0.981-0.327 0-0.618-0.077-0.872-0.231s-0.451-0.366-0.589-0.635c-0.139-0.268-0.208-0.566-0.208-0.894 0-0.321 0.070-0.612 0.211-0.875s0.334-0.467 0.58-0.614 0.52-0.22 0.822-0.22c0.358 0 0.666 0.108 0.922 0.325z"></path>
<path d="M16.72 15.263c0.611 0 0.916 0.33 0.916 0.99v1.806h0.556v0.575h-1.203v-2.15c0-0.236-0.034-0.401-0.101-0.497s-0.172-0.144-0.314-0.144c-0.239 0-0.551 0.14-0.934 0.422v1.794h0.569v0.575h-1.803v-0.575h0.588v-3.566h-0.588v-0.569h1.234v1.809c0.388-0.315 0.748-0.472 1.081-0.472z"></path>
<path d="M21.745 16.997c0 0.319-0.076 0.61-0.228 0.875s-0.359 0.474-0.622 0.628-0.553 0.231-0.872 0.231c-0.329 0-0.626-0.077-0.891-0.231s-0.47-0.364-0.617-0.628c-0.147-0.265-0.22-0.556-0.22-0.875 0-0.333 0.073-0.631 0.22-0.894s0.352-0.468 0.614-0.617c0.263-0.149 0.561-0.223 0.894-0.223 0.323 0 0.616 0.078 0.878 0.236s0.469 0.368 0.619 0.633c0.15 0.265 0.225 0.553 0.225 0.866zM20.023 18.104c0.192 0 0.368-0.050 0.528-0.15s0.285-0.235 0.375-0.403 0.134-0.353 0.134-0.553c0-0.196-0.045-0.378-0.134-0.547s-0.215-0.305-0.375-0.408c-0.161-0.103-0.339-0.155-0.534-0.155-0.192 0-0.368 0.051-0.528 0.151s-0.286 0.237-0.378 0.408c-0.092 0.171-0.138 0.354-0.138 0.55s0.046 0.379 0.138 0.55c0.092 0.171 0.219 0.306 0.381 0.406s0.34 0.15 0.531 0.15z"></path>
<path d="M23.089 14.244c0 0.106-0.038 0.198-0.116 0.275s-0.169 0.116-0.275 0.116c-0.106 0-0.197-0.039-0.272-0.116s-0.113-0.169-0.113-0.275 0.037-0.198 0.113-0.275c0.075-0.077 0.165-0.116 0.272-0.116 0.111 0 0.203 0.038 0.278 0.113s0.112 0.168 0.112 0.278zM23.552 18.060v0.575h-1.659v-0.575h0.513v-2.131h-0.513v-0.578h1.159v2.709h0.5z"></path>
<path d="M26.215 15.588v-0.237h0.575v1.244h-0.575c-0.025-0.24-0.121-0.422-0.288-0.548s-0.359-0.189-0.578-0.189c-0.188 0-0.356 0.050-0.505 0.15s-0.264 0.236-0.345 0.406c-0.081 0.171-0.122 0.357-0.122 0.559 0 0.344 0.092 0.625 0.275 0.842s0.425 0.327 0.725 0.327c0.465 0 0.793-0.216 0.985-0.647l0.537 0.256c-0.302 0.654-0.819 0.981-1.55 0.981-0.327 0-0.618-0.077-0.872-0.231s-0.451-0.366-0.589-0.635c-0.139-0.268-0.208-0.566-0.208-0.894 0-0.321 0.070-0.612 0.211-0.875s0.334-0.467 0.58-0.614c0.246-0.147 0.52-0.22 0.822-0.22 0.358 0 0.666 0.108 0.922 0.325z"></path>
<path d="M30.509 17.157h-2.753c0.040 0.315 0.161 0.563 0.365 0.745s0.454 0.273 0.75 0.273c0.217 0 0.418-0.045 0.603-0.134s0.34-0.227 0.466-0.412l0.569 0.256c-0.179 0.279-0.414 0.49-0.705 0.633s-0.607 0.214-0.948 0.214c-0.354 0-0.669-0.074-0.944-0.222s-0.489-0.354-0.642-0.619c-0.153-0.265-0.23-0.563-0.23-0.894 0-0.329 0.076-0.626 0.227-0.891s0.358-0.471 0.62-0.62c0.262-0.149 0.552-0.223 0.869-0.223 0.346 0 0.647 0.076 0.905 0.229s0.46 0.372 0.608 0.656c0.148 0.284 0.228 0.62 0.241 1.008zM28.768 15.8c-0.244 0-0.457 0.082-0.641 0.245s-0.301 0.38-0.353 0.648h2.056c-0.060-0.269-0.188-0.485-0.384-0.648s-0.422-0.245-0.678-0.245z"></path>
</svg>
