<!-- Generated by IcoMoon.io -->
<svg version="1.1" xmlns="http://www.w3.org/2000/svg" width="32" height="32" viewBox="0 0 32 32">
<title>irex</title>
<path d="M28.101 24.372c0.274 0.023 0.306 0.097 0.384 0.183 0.202 0.223 0.18 0.598-0.058 0.807l-1.9 1.573c-0.406 0.317-1.151-0.099-0.85-0.697 0 0-2.084-0.269-2.084-0.269-0.424-0.089-0.403-0.235-0.447-0.43-0.068-0.306 0.16-0.632 0.485-0.677l4.408-0.491c0.031-0.001 0.031-0.001 0.062 0z"></path>
<path d="M2.801 9.758c0.694 0.177 0.238 1.256-0.013 2.24-1.062 4.161-0.629 8.783 1.905 12.279 0.855 1.18 1.893 2.221 3.029 3.14 0 0 0.816 0.544 1.408 0.875 2.832 1.583 6.17 2.304 9.362 1.634 2.69-0.565 5.142-2 7.24-3.775 0 0 0.582-0.44 0.918-0.049 0.441 0.514-0.518 1.204-1.34 1.817-3.533 2.632-8.053 4.031-12.377 3.053-2.018-0.456-3.926-1.355-5.646-2.493-0.119-0.079-1.097-0.855-1.84-1.602-4.147-4.168-5.26-10.602-3.307-16.659 0 0 0.146-0.522 0.662-0.46z"></path>
<path d="M16.198 0.969c2.849 0.019 5.644 0.964 8.066 2.422 0.124 0.074 1.189 0.852 2.006 1.612 3.516 3.269 5.315 8.196 4.55 13.087-0.217 1.387-0.597 2.744-1.087 4.064 0 0-0.184 0.513-0.568 0.524-0.443 0.013-0.651-0.452-0.423-1.072 1.333-3.672 1.658-7.815 0.035-11.36-1.072-2.34-2.884-4.291-4.969-5.822-0.087-0.053-0.174-0.106-0.262-0.158-3.017-1.774-6.592-2.633-10.081-1.894-2.623 0.556-5.030 1.889-7.162 3.549 0 0-0.266 0.157-0.485 0.1-0.462-0.12-0.56-0.714 0.076-1.199 2.951-2.235 6.466-3.818 10.155-3.854 0.050 0 0.1-0 0.149 0z"></path>
<path d="M6.098 4.842c0.245 0.022 0.264 0.076 0.336 0.139 0.227 0.201 0.137 0.657 0.137 0.657l2.101 0.108c0.525 0.070 0.746 0.956 0.044 1.107l-4.33 0.807c-1.069 0.169-0.73-0.712-0.49-0.955l1.78-1.708c0.116-0.105 0.193-0.163 0.422-0.155z"></path>
<path d="M3.576 11.35h1.884v9.334h-1.884v-9.334z"></path>
<path d="M6.35 20.684v-9.334h3.967c0.997 0 1.722 0.084 2.174 0.252s0.814 0.466 1.086 0.895c0.271 0.428 0.407 0.919 0.407 1.471 0 0.7-0.206 1.279-0.618 1.735s-1.027 0.744-1.846 0.863c0.407 0.238 0.744 0.499 1.009 0.783s0.623 0.789 1.073 1.515l1.14 1.821h-2.254l-1.362-2.031c-0.484-0.726-0.815-1.183-0.993-1.372s-0.367-0.318-0.567-0.388-0.516-0.105-0.949-0.105h-0.382v3.896h-1.885zM8.235 15.298h1.394c0.904 0 1.468-0.038 1.693-0.115s0.401-0.208 0.529-0.395c0.127-0.187 0.191-0.42 0.191-0.7 0-0.314-0.084-0.568-0.252-0.761s-0.404-0.315-0.71-0.366c-0.153-0.021-0.611-0.032-1.375-0.032h-1.471v2.368z"></path>
<path d="M14.847 20.684v-9.334h6.921v1.579h-5.036v2.069h4.686v1.572h-4.686v2.54h5.214v1.572h-7.099z"></path>
<path d="M21.759 20.684l2.438-3.483-2.337-3.279h2.184l1.197 1.859 1.26-1.859h2.101l-2.292 3.203 2.502 3.559h-2.197l-1.375-2.095-1.388 2.095h-2.095z"></path>
</svg>
