<!-- Generated by IcoMoon.io -->
<svg version="1.1" xmlns="http://www.w3.org/2000/svg" width="32" height="32" viewBox="0 0 32 32">
<title>ld</title>
<path d="M30.935 2.892v25.845h-29.924v-25.845h29.924zM29.82 3.972h-27.634v23.654h27.634v-23.654z"></path>
<path d="M29.82 3.972v23.654h-27.634v-23.654h27.634zM8.927 20.651v-10.731h-1.61v12.167h7.602v-1.436h-5.992zM21.227 22.086c0.736 0 1.388-0.069 1.955-0.208s1.051-0.341 1.452-0.61c0.401-0.268 0.77-0.636 1.108-1.104s0.614-1.058 0.83-1.772c0.216-0.714 0.324-1.532 0.324-2.457 0-1.084-0.159-2.049-0.477-2.892s-0.798-1.537-1.44-2.079c-0.492-0.42-1.087-0.711-1.784-0.872-0.498-0.116-1.22-0.174-2.166-0.174h-4.191v12.167h4.39zM21.003 11.355c0.957 0 1.652 0.083 2.083 0.249 0.597 0.232 1.105 0.69 1.523 1.373s0.627 1.661 0.627 2.934c0 0.919-0.107 1.7-0.32 2.345s-0.51 1.158-0.892 1.54c-0.271 0.271-0.635 0.482-1.091 0.631s-1.086 0.224-1.888 0.224h-2.597v-9.295h2.556z"></path>
</svg>
