<!-- Generated by IcoMoon.io -->
<svg version="1.1" xmlns="http://www.w3.org/2000/svg" width="32" height="32" viewBox="0 0 32 32">
<title>mid-south</title>
<path d="M16.038 0.514c8.555 0 15.5 6.945 15.5 15.5s-6.945 15.5-15.5 15.5c-8.554 0-15.5-6.946-15.5-15.5s6.945-15.5 15.5-15.5zM24.659 17.843v-3.638h-0.617v1.949c0 0.31-0.034 0.548-0.101 0.711s-0.182 0.292-0.344 0.387c-0.162 0.095-0.336 0.142-0.521 0.142s-0.34-0.046-0.466-0.139c-0.126-0.092-0.208-0.22-0.247-0.382-0.025-0.112-0.038-0.329-0.038-0.651v-2.018h-0.617v2.254c0 0.263 0.013 0.454 0.038 0.576 0.036 0.18 0.1 0.333 0.19 0.457s0.228 0.228 0.414 0.31c0.186 0.082 0.387 0.123 0.601 0.123 0.487 0 0.871-0.206 1.154-0.617v0.534h0.551zM14.796 16.757c0.068 0.386 0.227 0.677 0.475 0.873s0.608 0.295 1.081 0.295c0.285 0 0.541-0.050 0.767-0.149s0.399-0.24 0.519-0.421c0.12-0.182 0.18-0.375 0.18-0.581 0-0.21-0.049-0.386-0.147-0.528s-0.233-0.249-0.406-0.323c-0.172-0.074-0.477-0.17-0.913-0.286-0.302-0.082-0.483-0.135-0.545-0.158-0.107-0.044-0.186-0.098-0.236-0.165-0.050-0.064-0.075-0.136-0.075-0.216 0-0.126 0.061-0.235 0.182-0.329s0.323-0.14 0.606-0.14c0.24 0 0.425 0.053 0.557 0.158s0.211 0.251 0.238 0.439l0.603-0.082c-0.039-0.235-0.11-0.423-0.213-0.564s-0.262-0.252-0.478-0.334c-0.216-0.082-0.467-0.123-0.752-0.123-0.189 0-0.367 0.025-0.533 0.074s-0.296 0.109-0.392 0.18c-0.128 0.092-0.229 0.206-0.303 0.345s-0.111 0.288-0.111 0.45c0 0.178 0.045 0.341 0.135 0.488s0.222 0.262 0.397 0.346c0.175 0.084 0.488 0.182 0.94 0.296 0.336 0.085 0.546 0.154 0.63 0.209 0.121 0.080 0.182 0.19 0.182 0.329 0 0.155-0.069 0.29-0.206 0.406s-0.347 0.173-0.63 0.173c-0.281 0-0.5-0.065-0.656-0.195s-0.252-0.317-0.286-0.562l-0.61 0.096zM17.956 16.024c0 0.614 0.157 1.085 0.471 1.411s0.725 0.49 1.235 0.49c0.317 0 0.61-0.074 0.879-0.223s0.473-0.357 0.613-0.625c0.14-0.268 0.211-0.637 0.211-1.105 0-0.578-0.159-1.031-0.476-1.358s-0.726-0.491-1.226-0.491c-0.45 0-0.831 0.135-1.144 0.404-0.374 0.325-0.562 0.823-0.562 1.497zM12.466 17.843v-5.022h-0.613v1.802c-0.107-0.149-0.247-0.269-0.418-0.362s-0.367-0.139-0.586-0.139c-0.299 0-0.57 0.079-0.812 0.236s-0.423 0.384-0.544 0.68-0.182 0.625-0.182 0.988c0 0.373 0.067 0.702 0.2 0.989s0.322 0.51 0.566 0.67c0.243 0.16 0.51 0.24 0.8 0.24 0.448 0 0.787-0.181 1.017-0.541v0.459h0.572zM25.986 14.205v-1.271l-0.614 0.37v0.901h-0.452v0.48h0.452v2.093c0 0.37 0.025 0.613 0.075 0.728s0.137 0.208 0.261 0.279c0.123 0.071 0.297 0.106 0.521 0.106 0.137 0 0.292-0.018 0.466-0.055l-0.089-0.545c-0.112 0.016-0.202 0.024-0.27 0.024-0.092 0-0.162-0.015-0.211-0.045s-0.085-0.069-0.106-0.12c-0.022-0.051-0.032-0.163-0.032-0.339v-2.128h0.62v-0.48h-0.62zM8.96 17.843v-3.638h-0.617v3.638h0.617zM29.808 17.843v-2.305c0-0.356-0.043-0.628-0.128-0.815s-0.228-0.334-0.427-0.44c-0.199-0.106-0.433-0.159-0.702-0.159-0.439 0-0.802 0.167-1.089 0.5v-1.802h-0.617v5.022h0.617v-1.991c0-0.285 0.034-0.509 0.103-0.671s0.183-0.29 0.344-0.385 0.333-0.142 0.516-0.142c0.244 0 0.433 0.071 0.567 0.211s0.2 0.365 0.2 0.673v2.305h0.617zM7.79 17.843v-2.497c0-0.416-0.097-0.723-0.291-0.923s-0.472-0.3-0.832-0.3c-0.461 0-0.836 0.212-1.124 0.637-0.071-0.201-0.193-0.357-0.365-0.469s-0.394-0.168-0.663-0.168c-0.242 0-0.458 0.054-0.648 0.163s-0.341 0.252-0.455 0.43v-0.51h-0.552v3.638h0.617v-1.888c0-0.331 0.033-0.584 0.099-0.761s0.173-0.309 0.32-0.401c0.147-0.092 0.308-0.137 0.482-0.137 0.228 0 0.393 0.069 0.493 0.206s0.151 0.343 0.151 0.617v2.364h0.616v-2.114c0-0.375 0.085-0.647 0.254-0.817s0.381-0.255 0.637-0.255c0.142 0 0.265 0.033 0.37 0.099s0.177 0.154 0.218 0.262c0.040 0.109 0.060 0.286 0.060 0.533v2.292h0.613zM18.59 16.024c0 0.466 0.102 0.815 0.305 1.046s0.459 0.348 0.767 0.348c0.306 0 0.561-0.116 0.764-0.349s0.305-0.588 0.305-1.065c0-0.45-0.102-0.791-0.307-1.023s-0.459-0.348-0.762-0.348c-0.308 0-0.564 0.115-0.767 0.346s-0.305 0.579-0.305 1.045zM9.945 16.027c0 0.466 0.098 0.814 0.295 1.045s0.428 0.346 0.695 0.346c0.269 0 0.498-0.11 0.687-0.33s0.283-0.557 0.283-1.009c0-0.498-0.096-0.863-0.288-1.096s-0.428-0.349-0.709-0.349c-0.274 0-0.503 0.112-0.687 0.336s-0.276 0.577-0.276 1.058zM14.726 16.335v-0.62h-1.895v0.62h1.895zM8.96 13.53v-0.709h-0.617v0.709h0.617z"></path>
</svg>
