<!-- Generated by IcoMoon.io -->
<svg version="1.1" xmlns="http://www.w3.org/2000/svg" width="32" height="32" viewBox="0 0 32 32">
<title>mydruggenome</title>
<path d="M4.579 6.74c-0.278 0.839-0.486 1.71-0.542 2.069-0.063 0.391 0.032 0.612 0.24 0.763 0.050 0.038 0.082 0.019 0.113-0.044 0.454-0.845 1.186-1.81 1.905-2.681-0.41 0.788-0.814 1.671-0.908 2.044-0.107 0.416-0.032 0.605 0.069 0.687 0.051 0.044 0.076 0.044 0.101-0.019 0.315-0.908 0.946-2.183 1.388-3.003 0.17-0.315 0.234-0.662-0.019-0.921-0.076-0.076-0.126-0.069-0.183 0.019-0.694 1.079-1.615 2.019-2.302 3.141 0.24-0.883 0.467-1.621 0.669-2.227 0.164-0.498 0.095-0.719-0.151-0.934-0.082-0.069-0.145-0.044-0.202 0.038-0.681 0.928-1.703 2.612-1.937 3.211-0.145 0.379-0.076 0.593 0.013 0.688 0.044 0.050 0.082 0.050 0.107-0.013 0.372-0.845 1.079-1.974 1.64-2.82z"></path>
<path d="M7.657 8.241c0.776-0.839 1.319-1.319 1.773-1.76 0.372-0.366 0.435-0.643 0.385-0.827-0.019-0.069-0.063-0.088-0.133-0.031-0.498 0.441-1.388 1.312-1.974 1.962 0.025-0.473 0.076-0.883 0.095-1.236 0.025-0.454-0.069-0.637-0.221-0.732-0.057-0.038-0.114-0.032-0.133 0.069-0.12 0.599-0.17 1.565-0.183 2.334-0.177 0.353-0.322 0.687-0.391 0.915-0.094 0.328-0.031 0.549 0.063 0.631 0.051 0.044 0.094 0.044 0.12-0.019 0.132-0.378 0.334-0.832 0.599-1.305z"></path>
<path d="M3.109 11.034h2.544c0.643 0 1.129 0.081 1.456 0.242s0.629 0.434 0.905 0.816c0.276 0.383 0.492 0.88 0.649 1.491s0.236 1.37 0.236 2.278c0 0.818-0.082 1.528-0.247 2.133s-0.373 1.083-0.626 1.436c-0.253 0.353-0.558 0.618-0.916 0.797s-0.819 0.268-1.381 0.268h-2.619v-9.461zM4.499 12.634v6.267h1.045c0.448 0 0.773-0.047 0.974-0.142s0.366-0.238 0.494-0.429 0.234-0.494 0.319-0.907c0.084-0.413 0.126-0.957 0.126-1.633 0-0.701-0.043-1.254-0.129-1.659s-0.22-0.723-0.402-0.955c-0.182-0.232-0.403-0.385-0.663-0.458-0.195-0.056-0.572-0.084-1.131-0.084h-0.632z"></path>
<path d="M10.082 20.494v-9.461h2.935c0.75 0 1.286 0.085 1.608 0.255s0.586 0.465 0.793 0.884 0.31 0.922 0.31 1.507c0 0.74-0.158 1.336-0.474 1.788s-0.765 0.736-1.347 0.852c0.299 0.241 0.546 0.504 0.741 0.79s0.461 0.799 0.798 1.539l0.838 1.846h-1.66l-1.011-2.059c-0.364-0.744-0.611-1.21-0.741-1.397s-0.268-0.316-0.414-0.387c-0.146-0.071-0.379-0.107-0.701-0.107h-0.287v3.949h-1.39zM11.472 15.035h1.034c0.632 0 1.034-0.031 1.206-0.094s0.312-0.188 0.419-0.378c0.107-0.189 0.161-0.441 0.161-0.755 0-0.301-0.054-0.543-0.161-0.726s-0.253-0.309-0.436-0.378c-0.13-0.047-0.508-0.071-1.131-0.071h-1.091v2.401z"></path>
<path d="M17.026 11.034h1.39v5.124c0 0.796 0.017 1.314 0.052 1.555 0.061 0.417 0.208 0.74 0.439 0.968s0.537 0.342 0.916 0.342c0.322 0 0.584-0.081 0.787-0.242s0.342-0.385 0.416-0.671c0.075-0.286 0.112-0.9 0.112-1.842v-5.234h1.396v4.969c0 1.269-0.060 2.187-0.181 2.752s-0.392 1.024-0.816 1.375c-0.423 0.351-0.981 0.526-1.674 0.526-0.72 0-1.282-0.145-1.686-0.436s-0.697-0.699-0.879-1.226c-0.182-0.527-0.273-1.498-0.273-2.914v-5.047z"></path>
<path d="M27.215 17.016v-1.594h3.004v3.769c-0.302 0.4-0.731 0.744-1.286 1.033s-1.112 0.432-1.672 0.432c-0.682 0-1.283-0.188-1.803-0.564s-0.934-0.94-1.238-1.691c-0.304-0.751-0.457-1.634-0.457-2.649 0-1.041 0.154-1.932 0.462-2.672s0.708-1.293 1.2-1.659c0.492-0.366 1.081-0.548 1.766-0.548 0.823 0 1.483 0.236 1.979 0.707s0.815 1.163 0.956 2.075l-1.379 0.355c-0.103-0.486-0.293-0.858-0.568-1.116s-0.605-0.387-0.988-0.387c-0.594 0-1.074 0.259-1.442 0.778s-0.551 1.309-0.551 2.372c0 1.14 0.199 2.007 0.597 2.601 0.341 0.512 0.802 0.768 1.384 0.768 0.272 0 0.554-0.072 0.847-0.216s0.555-0.341 0.784-0.59v-1.2h-1.597z"></path>
<path d="M4.742 24.75v-0.808h1.899v1.91c-0.191 0.203-0.462 0.377-0.813 0.523s-0.703 0.219-1.057 0.219c-0.431 0-0.811-0.095-1.14-0.286s-0.59-0.476-0.782-0.857c-0.193-0.38-0.289-0.828-0.289-1.343 0-0.528 0.097-0.979 0.292-1.354s0.448-0.655 0.759-0.841c0.311-0.185 0.683-0.278 1.116-0.278 0.521 0 0.937 0.119 1.251 0.358s0.515 0.589 0.605 1.052l-0.871 0.18c-0.065-0.246-0.185-0.435-0.359-0.566s-0.383-0.196-0.625-0.196c-0.375 0-0.679 0.131-0.911 0.394s-0.349 0.663-0.349 1.202c0 0.578 0.126 1.017 0.378 1.318 0.215 0.26 0.507 0.389 0.875 0.389 0.172 0 0.35-0.036 0.536-0.11s0.35-0.173 0.495-0.299v-0.608h-1.009z"></path>
<path d="M7.458 26.513v-4.795h3.239v0.811h-2.36v1.063h2.193v0.808h-2.193v1.305h2.44v0.808h-3.319z"></path>
<path d="M11.532 26.513v-4.795h0.857l1.786 3.202v-3.202h0.821v4.795h-0.886l-1.758-3.127v3.127h-0.821z"></path>
<path d="M15.748 24.145c0-0.572 0.094-1.042 0.281-1.412s0.433-0.645 0.735-0.826c0.303-0.181 0.669-0.271 1.1-0.271 0.624 0 1.133 0.215 1.527 0.644s0.59 1.041 0.59 1.835c0 0.803-0.208 1.429-0.624 1.881-0.366 0.399-0.862 0.599-1.489 0.599-0.632 0-1.131-0.197-1.496-0.592-0.416-0.452-0.624-1.071-0.624-1.858zM16.655 24.112c0 0.552 0.116 0.965 0.349 1.241s0.52 0.414 0.864 0.414c0.346 0 0.633-0.137 0.86-0.411s0.341-0.694 0.341-1.261c0-0.556-0.111-0.967-0.332-1.233s-0.512-0.399-0.87-0.399c-0.358 0-0.65 0.134-0.875 0.402s-0.338 0.684-0.338 1.246z"></path>
<path d="M20.656 26.513v-4.795h1.318l0.791 3.271 0.784-3.271h1.322v4.795h-0.817v-3.775l-0.868 3.775h-0.85l-0.861-3.775v3.775h-0.82z"></path>
<path d="M25.75 26.513v-4.795h3.239v0.811h-2.36v1.063h2.193v0.808h-2.193v1.305h2.44v0.808h-3.319z"></path>
</svg>
