<!-- Generated by IcoMoon.io -->
<svg version="1.1" xmlns="http://www.w3.org/2000/svg" width="32" height="32" viewBox="0 0 32 32">
<title>myredcap</title>
<path d="M1.042 21.294v-10.122h1.535v1.42c0.318-0.496 0.74-0.894 1.268-1.196s1.128-0.453 1.801-0.453c0.75 0 1.365 0.156 1.844 0.467s0.818 0.747 1.015 1.306c0.801-1.182 1.843-1.773 3.126-1.773 1.004 0 1.776 0.278 2.316 0.834s0.81 1.412 0.81 2.569v6.948h-1.706v-6.376c0-0.686-0.055-1.18-0.167-1.482s-0.313-0.545-0.605-0.729c-0.292-0.184-0.635-0.276-1.029-0.276-0.712 0-1.303 0.237-1.773 0.71s-0.705 1.231-0.705 2.273v5.881h-1.716v-6.577c0-0.762-0.14-1.334-0.419-1.716s-0.737-0.572-1.373-0.572c-0.483 0-0.929 0.127-1.339 0.381s-0.707 0.626-0.891 1.115c-0.184 0.489-0.277 1.195-0.277 2.116v5.252h-1.716z"></path>
<path d="M17.226 25.192l-0.191-1.611c0.375 0.102 0.702 0.152 0.982 0.152 0.381 0 0.686-0.064 0.915-0.191s0.416-0.305 0.562-0.534c0.108-0.172 0.283-0.597 0.524-1.277 0.032-0.096 0.083-0.235 0.152-0.419l-3.841-10.141h1.849l2.106 5.862c0.273 0.744 0.518 1.525 0.734 2.345 0.197-0.788 0.432-1.557 0.705-2.307l2.163-5.9h1.716l-3.851 10.294c-0.413 1.112-0.734 1.878-0.962 2.297-0.305 0.566-0.654 0.98-1.048 1.244s-0.864 0.396-1.411 0.396c-0.331 0-0.699-0.070-1.106-0.21z"></path>
<path d="M29.399 23.382c-0.036-1.505-0.163-3.007-0.473-4.503 0.86-0.865 1.562-1.845 2.079-2.96 0.391-0.893 0.396-1.892 0.18-2.95-0.392-0.827-0.913-1.576-1.561-2.252 0.109-0.221 0.132-0.46 0.038-0.724-0.16-0.134-0.331-0.157-0.506-0.124-0.745-0.777-1.624-1.369-2.649-1.76-0.971-0.413-2.077-0.499-3.349-0.182-0.745 0.404-1.455 0.868-2.066 1.502-0.327 0.277-0.617 0.508-0.888 0.714 1.141 2.377 2.697 4.473 4.654 6.298-0.178 1.081-0.131 2.096 0.218 3.021 0.378 1.118 0.827 2.2 1.808 3.002 0.267 0.414 0.626 0.702 1.070 0.873 0.48 0.137 0.961 0.155 1.445 0.045"></path>
</svg>
