<!-- Generated by IcoMoon.io -->
<svg version="1.1" xmlns="http://www.w3.org/2000/svg" width="32" height="32" viewBox="0 0 32 32">
<title>noaac</title>
<path d="M16.003 0.49c-8.457 0-15.324 6.866-15.324 15.324s6.867 15.324 15.324 15.324c8.458 0 15.324-6.866 15.324-15.324s-6.867-15.324-15.324-15.324zM16.054 3.064c7.135 0 12.928 5.793 12.928 12.928s-5.793 12.928-12.928 12.928c-7.135 0-12.928-5.793-12.928-12.928s5.793-12.928 12.928-12.928z"></path>
<path d="M16.011 4.416c-6.326 0-11.463 5.136-11.463 11.463s5.136 11.463 11.463 11.463 11.463-5.136 11.463-11.463c0-6.327-5.136-11.463-11.463-11.463zM14.301 6.018c1.29-0.745 2.415-0.722 3.379 0.050l0.302 0.004c0.261 0.081 0.4 0.234 0.393 0.474l0.017 0.811c0.032 0.25-0.027 0.413-0.205 0.467v12.826l3.020 3.235c0.132 0.464 0.084 0.804-0.104 1.046-0.576 0.742-1.39 0.889-2.216 0.412l-2.726-2.533-2.31 2.29c-0.912 0.771-2.044 0.754-2.783 0.219-0.671-0.486-1.017-1.324-0.496-2.257l3.346-3.431 0.060-11.713c-0.2-0.096-0.317-0.236-0.295-0.448l-0.008-1.032c0.023-0.264 0.29-0.399 0.627-0.42z"></path>
<path d="M17.169 6.029c-0 0.093-0.529 0.166-1.182 0.164s-1.181-0.079-1.181-0.171c0-0.093 0.529-0.166 1.182-0.164s1.181 0.079 1.181 0.171z"></path>
<path d="M12.647 25.225c-0.128 0.197-0.675 0.069-1.222-0.286s-0.888-0.802-0.76-0.999c0.128-0.197 0.675-0.069 1.222 0.286s0.888 0.802 0.76 0.999z"></path>
<path d="M20.907 24.047c0.149 0.197-0.092 0.629-0.537 0.965s-0.926 0.449-1.075 0.253c-0.149-0.197 0.092-0.629 0.537-0.965s0.926-0.449 1.075-0.253z"></path>
</svg>
