<!-- Generated by IcoMoon.io -->
<svg version="1.1" xmlns="http://www.w3.org/2000/svg" width="32" height="32" viewBox="0 0 32 32">
<title>participants</title>
<path d="M22.655 6.579c0.765 0.195 1.531 0.309 2.28 0.586 3.224 1.156 5.065 3.404 5.455 6.823 0.244 2.15 0.033 4.25-0.977 6.205-1.14 2.231-3.045 3.501-5.407 4.153-1.258 0.336-2.557 0.495-3.86 0.472-1.368 0.016-2.736 0.016-4.104 0-0.358 0-0.489 0.081-0.472 0.456 0.016 2.101 0 4.202 0.016 6.302 0 0.342-0.098 0.423-0.44 0.423-1.889-0.016-3.778-0.016-5.651 0-0.342 0-0.423-0.081-0.423-0.423 0.016-4.202 0.016-8.408 0-12.621 0-0.635 0.081-0.554-0.57-0.554h-0.489c0.033-0.244 0.228-0.179 0.375-0.195 0.537-0.065 0.537-0.049 0.537-0.603 0-1.449-0.016-2.899 0-4.332-0.016-2.101-0.016-4.202 0-6.302 0-0.472 0.13-0.635 0.554-0.635 2.084-0.033 4.185-0.065 6.286-0.016 0.166 0.015 0.316 0.105 0.407 0.244 0.411 0.535 0.65 1.183 0.684 1.857-0.065 0.492-0.065 0.99 0 1.482 0.011 0.527-0.155 1.044-0.472 1.466-0.101 0.11-0.223 0.198-0.358 0.261-0.456 0.065-0.342 0.407-0.342 0.7 0 1.889 0.016 3.778 0 5.667-0.016 0.407 0 0.814-0.016 1.221 0 0.244 0.081 0.391 0.342 0.375 1.645-0.049 3.29 0.114 4.918-0.081 2.019-0.244 3.273-1.677 3.306-3.729 0.016-0.961-0.147-1.857-0.717-2.654-0.192-0.262-0.429-0.489-0.7-0.668-0.158-0.077-0.293-0.195-0.391-0.342-0.033-0.134-0.033-0.273 0-0.407 0.285-1.52 0.334-3.074 0.147-4.609 0-0.179-0.065-0.358 0.081-0.521z"></path>
<path d="M16.776 8.387c-0.13-0.733-0.309-1.433-0.879-1.954-0.159-0.080-0.311-0.173-0.456-0.277-0.814-0.651-1.775-0.879-2.768-0.896-1.335-0.033-2.687-0.016-4.022 0-0.505 0-0.537 0.033-0.537 0.537v6.823c0 0.505 0 0.505 0.521 0.537 0.152-0.005 0.301 0.041 0.423 0.13 0 1.563 0 3.143 0.016 4.706 0 0.261-0.081 0.358-0.342 0.342-0.228 0-0.489-0.098-0.7 0.065 0 2.231-0.016 4.478 0 6.709 0 0.375-0.098 0.472-0.472 0.456-1.889-0.016-3.778-0.016-5.651 0-0.293 0-0.391-0.065-0.391-0.375 0.016-8.251 0.016-16.513 0-24.786 0-0.326 0.098-0.407 0.407-0.407 3.599 0.016 7.182 0 10.781 0.016 2.068 0.016 4.104 0.293 5.977 1.27 2.166 1.124 3.485 2.899 3.99 5.293 0.049 0.717 0.163 1.449 0.163 2.166-0.015 1.131-0.13 2.259-0.342 3.371 0.081 0.228-0.033 0.423-0.098 0.619-0.896 2.443-2.606 4.071-5.032 4.951-0.43 0.162-0.87 0.293-1.319 0.391-0.163 0.033-0.309 0.098-0.472-0.016v-5.863c0.147-0.247 0.328-0.472 0.537-0.668 0.081-0.065 0.13-0.163 0.212-0.244 0.309-0.407 0.391-0.896 0.472-1.384-0.071-0.502-0.076-1.011-0.016-1.514z"></path>
<path d="M16.141 11.562c-0.14 0.265-0.341 0.494-0.586 0.668v-0.163c-0.081-0.391 0.081-0.57 0.489-0.521 0.049-0.033 0.081-0.016 0.098 0.016z"></path>
<path d="M16.776 8.387v1.547c-0.122-0.508-0.122-1.039 0-1.547z"></path>
<path d="M16.304 11.318c-0.018 0.1-0.077 0.189-0.163 0.244z"></path>
</svg>
