<!-- Generated by IcoMoon.io -->
<svg version="1.1" xmlns="http://www.w3.org/2000/svg" width="32" height="32" viewBox="0 0 32 32">
<title>peer</title>
<path d="M23.649 21.273l2.428 2.305c0.313 0.316 0.335 0.491 0.020 0.807l-1.010 0.956c-0.313 0.316-0.712 0.436-1.028 0.12l-4.576-4.188h4.167zM4.482 13.135c-0.172-0.608-0.265-1.249-0.265-1.912 0-3.863 3.13-6.993 6.993-6.993s6.993 3.13 6.993 6.993c0 0.663-0.092 1.305-0.264 1.912h-2.872c0.286-0.576 0.446-1.225 0.446-1.912 0-2.38-1.926-4.303-4.303-4.303-2.38 0-4.303 1.926-4.303 4.303 0 0.687 0.161 1.337 0.446 1.912h-2.871z"></path>
<path d="M9.309 15.986l-0.037 0.211c-0.084 0.475-0.233 0.82-0.448 1.038s-0.568 0.384-1.060 0.5c-0.492 0.116-1.118 0.175-1.878 0.175h-0.934l-0.528 2.994h-3.48l0.868-4.918h3.48l-0.114 0.647c0.099 0.003 0.184 0.004 0.255 0.004 0.32 0 0.549-0.044 0.689-0.131 0.135-0.085 0.228-0.258 0.278-0.521h2.91zM1.972 15.075l0.283-1.606h3.505c0.948 0 1.669 0.042 2.165 0.124s0.857 0.202 1.086 0.358c0.229 0.156 0.369 0.345 0.421 0.567 0.032 0.138 0.039 0.324 0.019 0.556h-2.93c-0.017-0.102-0.063-0.175-0.137-0.219-0.13-0.076-0.42-0.115-0.872-0.115l-0.059 0.334h-3.48z"></path>
<path d="M9.7 15.986h3.48l-0.067 0.381h2.174l-0.25 1.414h-2.174l-0.288 1.635h2.555l-0.262 1.488h-6.035l0.867-4.918zM15.684 14.956h-2.323l-0.021 0.118h-3.48l0.283-1.606h5.803l-0.262 1.488z"></path>
<path d="M16.125 15.986h3.48l-0.067 0.381h2.174l-0.249 1.414h-2.174l-0.288 1.635h2.554l-0.262 1.488h-6.035l0.867-4.918zM22.11 14.956h-2.323l-0.021 0.118h-3.48l0.283-1.606h5.803l-0.262 1.488z"></path>
<path d="M30.284 15.986c-0.111 0.316-0.268 0.542-0.47 0.679-0.294 0.199-0.825 0.319-1.593 0.358 0.672 0.095 1.113 0.222 1.322 0.381s0.33 0.306 0.365 0.439c0.034 0.133-0.001 0.5-0.107 1.1l-0.346 1.961h-3.233l0.436-2.471c0.070-0.398 0.057-0.644-0.039-0.74s-0.384-0.142-0.864-0.142l-0.591 3.353h-3.48l0.867-4.918h3.48l-0.072 0.408c0.391 0 0.671-0.030 0.838-0.090 0.116-0.042 0.206-0.148 0.27-0.319h3.216zM22.712 15.075l0.283-1.606h2.463c1.643 0 2.748 0.035 3.317 0.106s1.011 0.251 1.327 0.54c0.24 0.22 0.357 0.54 0.349 0.961h-3.236c-0.018-0.104-0.069-0.179-0.153-0.224-0.139-0.073-0.409-0.11-0.811-0.11l-0.059 0.334h-3.48z"></path>
</svg>
