<!-- Generated by IcoMoon.io -->
<svg version="1.1" xmlns="http://www.w3.org/2000/svg" width="32" height="32" viewBox="0 0 32 32">
<title>pegasus</title>
<path d="M1.372 9.783l4.41-0.54c4.669 0.090 9.332 0.54 13.991 1.381 3.509 0.276 6.745 0.255 9.618-0.168l1.564-0.163-4.257 4.408c-1.58 0.175-4.882-0.198-6.472-0.432-0.419-0.311-8.031-1.505-9.712-0.949 1.771 0.248 3.506 0.651 5.177 1.328 1.381 0.508 2.774 0.855 4.178 1.060l4.536 0.3-5.064 3.375c-0.666 0.308-1.552 0.362-2.609 0.219l-3.505-1.753c-0.965-0.233-2.049-0.258-3.009-0.24 1.329 0.345 5.665 2.28 6.373 3.028-2.178 1.102-4.43 2.076-6.757 2.919-1.168 0.068-2.342-0.024-3.523-0.306-1.415-0.315-2.75-0.906-3.992-1.82l-0.034-4.988 1.404 1.422 0.2 1.873c0.885 0.060 1.633-0.051 1.953-0.702 0.372-0.46 0.576-1.109 0.65-1.906 0.119-1.356 0.139-2.719 0.084-4.089 0.37-0.095 0.64-0.316 0.828-0.642-0.852-0.867-1.934-1.548-3.304-1.996-0.915-0.095-1.826-0.257-2.728-0.618"></path>
<path d="M6.577 23.263c7.517-3.21 7.88-3.887 7.88-3.887 0.784 0.347 1.493 0.762 2.131 1.243-2.134 1.117-4.391 2.090-6.74 2.959-1.211 0.019-2.318-0.070-3.272-0.315"></path>
<path d="M15.416 18.924l4.95-3.166 3.992 0.287-4.941 3.346c-0.946 0.33-1.847 0.38-2.711 0.201l-1.29-0.667"></path>
<path d="M22.228 14.485l4.134-3.731 4.584-0.433-4.217 4.399c-1.511 0.094-3.009-0.016-4.5-0.236"></path>
</svg>
