<!-- Generated by IcoMoon.io -->
<svg version="1.1" xmlns="http://www.w3.org/2000/svg" width="32" height="32" viewBox="0 0 32 32">
<title>pegasus</title>
<path d="M-1.7 8.916l5.025-0.616c5.32 0.103 10.634 0.615 15.943 1.573 3.998 0.315 7.686 0.291 10.96-0.191l1.782-0.186-4.851 5.023c-1.801 0.199-5.563-0.226-7.375-0.492-0.477-0.355-9.151-1.715-11.066-1.082 2.018 0.283 3.995 0.741 5.899 1.514 1.573 0.579 3.161 0.975 4.761 1.208l5.169 0.341-5.77 3.846c-0.758 0.351-1.768 0.413-2.973 0.25l-3.994-1.998c-1.1-0.265-2.334-0.294-3.428-0.274 1.515 0.393 6.456 2.598 7.262 3.45-2.481 1.256-5.048 2.365-7.7 3.327-1.331 0.078-2.669-0.027-4.015-0.349-1.612-0.359-3.134-1.032-4.549-2.074l-0.039-5.683 1.599 1.62 0.228 2.135c1.009 0.069 1.861-0.058 2.225-0.8 0.424-0.524 0.656-1.264 0.741-2.171 0.135-1.545 0.158-3.099 0.096-4.66 0.422-0.109 0.73-0.361 0.944-0.731-0.971-0.988-2.204-1.763-3.765-2.274-1.042-0.108-2.081-0.292-3.108-0.704"></path>
<path d="M4.231 24.276c8.566-3.657 8.98-4.429 8.98-4.429 0.893 0.396 1.701 0.869 2.428 1.416-2.431 1.273-5.004 2.381-7.68 3.372-1.38 0.022-2.641-0.079-3.728-0.359"></path>
<path d="M14.303 19.332l5.641-3.607 4.549 0.327-5.63 3.812c-1.078 0.376-2.105 0.433-3.089 0.229l-1.47-0.761"></path>
<path d="M22.065 14.273l4.711-4.251 5.223-0.493-4.806 5.013c-1.722 0.107-3.429-0.018-5.128-0.269"></path>
</svg>
