<!-- Generated by IcoMoon.io -->
<svg version="1.1" xmlns="http://www.w3.org/2000/svg" width="32" height="32" viewBox="0 0 32 32">
<title>pmforallpeople</title>
<path d="M2.197 12.477l1.12 0.548c0.019 0.421-0.037 0.847 0.020 1.224 0.003 0.467 0.268 0.826 0.754 1.184 0.678 0.249 1.298 0.029 1.889-0.424l1.698-1.255c0.986-0.593 1.969-0.919 2.948-0.814 2.021 0.57 3.827 1.464 5.632 2.44 0.68 0.461 1.456 0.675 2.194 0.766 1.568 0.266 2.895 0.122 4.121-0.192 1.655-0.37 3.067-0.951 4.438-1.568 0.648-0.224 1.324-0.195 2.008-0.096 0.481 0.054 0.932 0.216 1.369 0.425-0.745-0.435-1.558-0.81-2.542-1.034-0.626-0.129-1.262-0.116-1.917 0.117-1.006 0.302-1.895 0.768-3.038 1.163l-1.618 0.48c-1.033 0.255-2.143 0.382-3.384 0.249-0.491-0.023-1.010-0.178-1.515-0.351l-3.673-1.602c-0.856-0.241-1.383-0.285-2.116-0.143-1.155 0.338-2.128 0.974-3.037 1.717-0.646 0.635-1.374 1.077-2.398 0.786-0.401-0.048-0.802-0.237-1.181-0.427-0.496-0.274-0.945-0.615-1.308-1.076-0.377-0.328-0.566-0.807-0.557-1.446l0.091-0.673"></path>
<path d="M1.254 19.419c0.861-1.388 1.725-2.767 2.615-4.060 1.095-0.884 2.244-0.965 3.49-0.231l2.611 2.163c1.113 0.866 2.167 0.978 3.159 0.271 1.096-0.723 2.037-1.526 2.982-2.327 1.43-0.691 2.916-0.71 4.446-0.178l4.507 2.091c1.383 0.532 2.748 0.873 4.046 0.43l1.383-0.514-0.469-1.214-1.29 0.53c-1.233 0.233-2.213 0.209-2.972-0.104-1.845-0.561-3.572-1.503-5.286-2.28-1.521-0.554-3.013-0.689-4.455-0.139-1.127 0.614-2.051 1.407-3.004 2.178-0.925 0.755-1.939 0.93-3.012 0.394-1.041-0.773-2.085-1.653-3.121-2.541-1.343-0.803-2.471-0.615-3.515 0.378-0.933 1.256-1.728 2.67-2.724 4.028l0.611 1.127z"></path>
</svg>
