<!-- Generated by IcoMoon.io -->
<svg version="1.1" xmlns="http://www.w3.org/2000/svg" width="32" height="32" viewBox="0 0 32 32">
<title>proclaimstudy</title>
<path d="M16.034 0.99c-8.299 0-15.037 6.738-15.037 15.037s6.738 15.037 15.037 15.037c8.299 0 15.037-6.738 15.037-15.037s-6.738-15.037-15.037-15.037zM16.034 3.559c6.881 0 12.468 5.587 12.468 12.468s-5.587 12.468-12.468 12.468c-6.881 0-12.468-5.587-12.468-12.468s5.587-12.468 12.468-12.468z"></path>
<path d="M8.758 13.296c0.073 0.004 0.092 0.004 0.165 0.014 0.887 0.12 1.556 1.024 1.407 1.96-0.005 0.034-0.011 0.067-0.016 0.101-0.31 2.056-0.247 4.239 0.876 6.062 0.619 1.006 1.53 1.815 2.546 2.43 0 0 0.152 0.095 0.264 0.198 0.686 0.631 0.682 1.866-0.051 2.487-0.568 0.481-1.439 0.459-2.069 0.068-1.554-0.963-2.902-2.289-3.775-3.893-1.278-2.349-1.476-5.192-1.070-7.852 0.060-0.394 0.213-0.823 0.519-1.116 0.259-0.248 0.601-0.408 0.956-0.449 0.16-0.018 0.197-0.011 0.248-0.010z"></path>
<path d="M24.354 11.373c0.253 0.024 0.294 0.043 0.405 0.080 0.55 0.182 0.942 0.679 1.109 1.233 0.756 2.502 0.637 5.256-0.535 7.627-0.844 1.707-2.141 3.166-3.6 4.387-0.326 0.273-0.758 0.499-1.21 0.495-0.798-0.007-1.54-0.669-1.632-1.468-0.075-0.646 0.294-1.213 0.83-1.669 1.55-1.327 2.885-2.994 3.236-5.027 0.201-1.164 0.053-2.373-0.302-3.506l-0.023-0.079c-0.017-0.072-0.022-0.089-0.034-0.162-0.139-0.893 0.576-1.834 1.508-1.908 0.16-0.013 0.197-0.003 0.248-0.001z"></path>
<path d="M15.297 5.42c2.237 0.019 4.45 0.804 6.376 1.896 0.616 0.349 1.017 1.030 0.924 1.721-0.139 1.031-1.398 1.762-2.394 1.257-0.187-0.095-0.253-0.142-0.344-0.192-1.79-0.981-3.821-1.641-5.847-1.25-1.163 0.224-2.252 0.8-3.173 1.522 0 0-0.147 0.112-0.289 0.182-0.835 0.413-1.989-0.030-2.304-0.949-0.232-0.677 0.041-1.453 0.63-1.909 1.817-1.407 4.025-2.264 6.316-2.279 0.035-0 0.070 0 0.105 0z"></path>
<path d="M15.96 11.525c0.386 0.019 0.924 0.142 1.416 0.229 0.766 0.137 1.451 0.453 2.057 1.084 0.383 0.399 0.769 0.795 1.172 1.173 0 0 0.32 0.33 0.438 0.684 0.254 0.76-0.128 1.68-0.868 2.028-0.582 0.273-1.316 0.173-1.804-0.259s-0.94-0.93-1.407-1.406c0 0-0.428-0.081-0.81-0.146-0.208-0.036-0.489-0.086-0.489-0.086-0.351-0.064-0.903-0.327-1.18-0.78-0.482-0.792-0.146-1.97 0.724-2.37 0.161-0.074 0.333-0.122 0.509-0.141 0.080-0.009 0.16-0.011 0.241-0.009z"></path>
<path d="M14.082 16.546c0.579 0.023 1.126 0.344 1.408 0.852 0.321 0.577 0.577 1.186 0.861 1.789 0 0 0.377 0.218 0.716 0.406 0.185 0.103 0.433 0.243 0.433 0.243 0.164 0.093 0.423 0.283 0.586 0.513 0.526 0.743 0.295 1.925-0.529 2.398-0.497 0.285-1.137 0.283-1.646 0.002-0.065-0.037-0.129-0.073-0.194-0.11-0.848-0.476-1.762-0.887-2.25-1.804-0.324-0.608-0.576-1.249-0.897-1.865 0 0-0.172-0.372-0.186-0.695-0.037-0.869 0.703-1.703 1.609-1.729 0.030-0.001 0.060-0 0.091-0z"></path>
</svg>
