<!-- Generated by IcoMoon.io -->
<svg version="1.1" xmlns="http://www.w3.org/2000/svg" width="32" height="32" viewBox="0 0 32 32">
<title>rd</title>
<path d="M30.428 2.86c0.395 0.086 0.453 0.177 0.48 0.554v24.708c-0.031 0.435-0.15 0.531-0.56 0.56h-28.732c-0.435-0.031-0.531-0.15-0.56-0.56v-24.708c0.031-0.435 0.15-0.531 0.56-0.56h28.732c0.027 0.002 0.053 0.004 0.080 0.006zM2.176 27.562h27.612v-23.588h-27.612c0 7.863 0 15.725 0 23.588z"></path>
<path d="M29.826 3.935v23.764h-27.694v-23.764h27.694zM22.156 22.003c0.732 0 1.379-0.068 1.943-0.206s1.045-0.34 1.444-0.606c0.399-0.267 0.766-0.632 1.101-1.097s0.611-1.052 0.825-1.761 0.322-1.523 0.322-2.442c0-1.078-0.158-2.036-0.474-2.875s-0.793-1.527-1.431-2.066c-0.49-0.418-1.081-0.707-1.774-0.866-0.495-0.116-1.212-0.173-2.153-0.173h-4.165v12.093h4.364zM16.274 22.003l-2.103-3.291c-0.418-0.644-0.86-1.18-1.328-1.609-0.22-0.198-0.542-0.399-0.965-0.602 1.16-0.16 2.018-0.533 2.573-1.122s0.833-1.312 0.833-2.17c0-0.665-0.168-1.273-0.503-1.823s-0.784-0.933-1.345-1.151-1.38-0.326-2.458-0.326h-5.362v12.093h1.6v-5.37h1.856c0.412 0 0.709 0.019 0.891 0.058 0.248 0.060 0.491 0.168 0.73 0.322s0.51 0.423 0.812 0.808 0.687 0.94 1.155 1.666l1.6 2.516h2.012zM21.933 11.338c0.951 0 1.642 0.082 2.070 0.247 0.594 0.231 1.099 0.686 1.514 1.365s0.623 1.651 0.623 2.916c0 0.913-0.106 1.69-0.318 2.33s-0.507 1.151-0.887 1.53c-0.269 0.269-0.631 0.478-1.085 0.627s-1.079 0.223-1.876 0.223h-2.582v-9.239h2.541zM11.044 11.247c0.897 0 1.552 0.184 1.967 0.553s0.623 0.839 0.623 1.411c0 0.39-0.107 0.752-0.322 1.085s-0.528 0.575-0.94 0.726c-0.412 0.151-0.984 0.227-1.716 0.227h-3.44v-4.001h3.828z"></path>
</svg>
