<!-- Generated by IcoMoon.io -->
<svg version="1.1" xmlns="http://www.w3.org/2000/svg" width="32" height="32" viewBox="0 0 32 32">
<title>recruit</title>
<path d="M14.932 1.658c-1.841 0.163-3.541 0.623-5.141 1.392-1.594 0.774-2.621 1.504-3.923 2.812-1.308 1.302-2.037 2.329-2.812 3.923-2.132 4.422-1.846 9.67 0.764 13.823 0.544 0.864 1.106 1.571 1.88 2.368 1.24 1.268 2.379 2.11 3.906 2.862 4.922 2.447 10.646 1.914 15.080-1.409 0.668-0.499 1.903-1.695 2.452-2.374 1.28-1.577 2.29-3.586 2.778-5.528 0.842-3.356 0.488-6.757-1.033-9.849-0.786-1.594-1.605-2.722-2.901-3.985-2.194-2.138-4.854-3.452-7.964-3.928-0.567-0.084-2.537-0.157-3.087-0.107zM17.008 2.826c2.043 0.101 4.428 0.915 6.257 2.138 3.266 2.177 5.326 5.483 5.842 9.372 0.107 0.808 0.107 2.509-0.006 3.328-0.393 2.946-1.639 5.5-3.721 7.61-2.105 2.133-4.72 3.423-7.728 3.827-0.802 0.107-2.509 0.107-3.311 0-5.864-0.78-10.416-5.18-11.392-11.005-0.196-1.162-0.196-3.042 0-4.215 0.943-5.64 5.292-9.99 10.944-10.938 0.584-0.101 1.835-0.185 2.273-0.157 0.14 0.006 0.516 0.028 0.842 0.039z"></path>
<path d="M15.476 3.623c-0.023 0.023-0.039 0.814-0.039 1.762v1.723l-0.41 0.034c-1.252 0.107-2.806 0.668-3.906 1.403-0.466 0.314-0.471 0.32-0.718 0.258-0.505-0.129-1.027 0.045-1.403 0.477-0.325 0.37-0.432 0.847-0.297 1.319 0.050 0.18 0.034 0.23-0.236 0.645-0.713 1.111-1.336 2.963-1.336 3.973v0.213l-1.751 0.011-1.757 0.017v1.066l1.745 0.017 1.745 0.011 0.034 0.415c0.112 1.336 0.747 2.991 1.594 4.187 0.488 0.685 1.409 1.605 2.093 2.093 1.179 0.836 2.862 1.482 4.164 1.588l0.438 0.039 0.011 1.745 0.017 1.745h1.066l0.017-1.745 0.011-1.745 0.438-0.039c1.15-0.095 2.733-0.651 3.766-1.325l0.359-0.23 0.286 0.129c0.23 0.101 0.387 0.129 0.791 0.129 0.46 0 0.544-0.017 0.881-0.185 0.432-0.213 0.73-0.516 0.937-0.96 0.123-0.269 0.146-0.387 0.146-0.819 0-0.455-0.023-0.539-0.185-0.87l-0.185-0.37 0.247-0.528c0.427-0.909 0.736-2.009 0.803-2.817l0.039-0.438 1.745-0.011 1.745-0.017v-1.066l-1.745-0.017-1.745-0.011-0.039-0.438c-0.067-0.803-0.376-1.903-0.791-2.789l-0.236-0.511 1.426-0.78c0.78-0.426 1.42-0.808 1.42-0.842 0-0.118-0.875-1.403-1.302-1.908-0.825-0.971-1.656-1.706-2.711-2.396-0.595-0.393-1.841-1.055-1.976-1.055-0.023 0-0.32 0.685-0.662 1.515-0.337 0.836-0.617 1.515-0.617 1.515s-0.23-0.079-0.505-0.174c-0.629-0.213-1.364-0.376-1.908-0.426l-0.421-0.034-0.011-1.745-0.017-1.745-0.505-0.017c-0.281-0.006-0.528-0.001-0.551 0.022zM15.437 10.071v2.104l-0.152 0.034c-0.814 0.18-1.392 0.494-1.981 1.089-0.595 0.589-0.909 1.167-1.089 1.976-0.034 0.152-0.050 0.157-0.387 0.157s-0.353-0.011-0.471-0.191c-0.494-0.769-1.701-0.797-2.222-0.050l-0.174 0.241h-0.977l0.028-0.269c0.118-1.162 0.668-2.716 1.263-3.558 0.101-0.146 0.112-0.146 0.297-0.067 0.466 0.191 1.201 0.028 1.555-0.348s0.477-1.004 0.297-1.51c-0.096-0.269-0.096-0.269 0.674-0.696 0.881-0.488 1.903-0.831 2.862-0.954 0.219-0.023 0.41-0.050 0.438-0.056 0.022 0 0.039 0.943 0.039 2.099zM17.513 8.112c0.718 0.129 1.532 0.41 1.498 0.522-0.028 0.101-1.51 3.726-1.538 3.76-0.011 0.017-0.152-0.017-0.314-0.062-0.157-0.050-0.359-0.107-0.443-0.123l-0.157-0.034v-4.209l0.241 0.034c0.129 0.016 0.449 0.067 0.713 0.112zM23.625 13.511c0.163 0.488 0.297 1.134 0.359 1.678l0.028 0.241h-4.198l-0.034-0.157c-0.062-0.286-0.208-0.713-0.309-0.92l-0.107-0.208 0.353-0.196c0.191-0.107 1.016-0.561 1.835-1.010l1.487-0.82 0.208 0.432c0.113 0.241 0.286 0.673 0.376 0.96zM15.437 13.825v0.747l-0.275 0.168c-0.174 0.107-0.331 0.269-0.426 0.432l-0.152 0.258h-1.499l0.084-0.297c0.258-0.876 0.988-1.628 1.874-1.931 0.202-0.067 0.37-0.129 0.382-0.129 0.006 0 0.011 0.337 0.011 0.752zM17.098 13.253c0.017 0.023-0.466 1.223-0.511 1.274-0.017 0.011-0.028-0.309-0.028-0.713v-0.735l0.258 0.079c0.14 0.039 0.269 0.084 0.28 0.096zM18.714 14.835c0.050 0.135 0.118 0.326 0.146 0.421l0.050 0.18-0.769-0.017c-0.971-0.023-0.988-0.067-0.18-0.505 0.325-0.18 0.606-0.325 0.623-0.325 0.023-0 0.079 0.112 0.129 0.246zM9.14 16.8c0.533 0.741 1.723 0.713 2.217-0.056 0.118-0.18 0.135-0.191 0.471-0.191s0.353 0.006 0.387 0.152c0.18 0.814 0.494 1.392 1.089 1.981 0.589 0.595 1.167 0.909 1.981 1.089l0.152 0.034v4.209l-0.123-0.023c-0.073-0.017-0.28-0.045-0.466-0.062-0.185-0.023-0.567-0.101-0.853-0.174-2.542-0.657-4.585-2.498-5.517-4.973-0.208-0.556-0.41-1.403-0.466-1.97l-0.028-0.264h0.982l0.174 0.248zM14.747 16.828c0.107 0.174 0.269 0.331 0.432 0.426l0.258 0.152v1.493l-0.208-0.056c-0.937-0.247-1.79-1.077-2.060-1.998l-0.084-0.292h1.493l0.168 0.275zM18.849 16.761c-0.258 0.96-1.122 1.824-2.076 2.082l-0.213 0.056v-1.487l0.275-0.168c0.174-0.107 0.331-0.269 0.426-0.432l0.152-0.258h1.493l-0.056 0.208zM23.984 16.789c-0.101 0.898-0.353 1.818-0.713 2.598l-0.196 0.421-0.213-0.096c-0.32-0.135-0.976-0.118-1.375 0.034-0.443 0.168-0.842 0.544-1.066 0.999-0.157 0.32-0.18 0.421-0.18 0.825 0 0.353 0.028 0.516 0.123 0.73 0.067 0.152 0.123 0.292 0.123 0.314 0 0.073-0.859 0.555-1.352 0.763-0.735 0.309-1.386 0.477-2.363 0.606l-0.213 0.028v-4.203l0.157-0.034c0.808-0.18 1.386-0.494 1.976-1.089 0.595-0.589 0.909-1.167 1.089-1.981l0.034-0.152h4.198l-0.028 0.236z"></path>
</svg>
