<!-- Generated by IcoMoon.io -->
<svg version="1.1" xmlns="http://www.w3.org/2000/svg" width="32" height="32" viewBox="0 0 32 32">
<title>redcap</title>
<path d="M5.869 18.733l-0.489-4.484c-0.24-1.659-0.099-3.082 0.462-4.247 2.005-3.945 5.007-6.498 9.512-6.951 0.015-0.373 0.302-0.635 0.799-0.811 0.507 0.014 0.806 0.122 0.887 0.327 3.789-0.719 7.108-0.293 9.834 1.584 3.031 3.134 4.47 6.749 4.848 10.685l-3.987 1.318c-1.131 0.392-2.062 1.016-2.746 1.928-1.24 2.831-2.985 5.336-4.963 7.692-1.25 1.744-2.826 2.691-4.703 2.904-1.563 0.348-3.123 0.38-4.68 0.147l-6.284-2.003c-0.452 0.983-0.992 1.914-1.934 2.618-0.651 0.398-1.301 0.467-1.948-0.116-0.367-0.511-0.138-1.043 0.268-1.58l4.42-6.525c0.639-0.668 0.943-1.469 0.704-2.485"></path>
</svg>
