<!-- Generated by IcoMoon.io -->
<svg version="1.1" xmlns="http://www.w3.org/2000/svg" width="32" height="32" viewBox="0 0 32 32">
<title>redcapmobile</title>
<path d="M11.436 9.942h8.421c1.453 0 2.721 0.151 3.806 0.454s1.987 0.727 2.708 1.272 1.263 1.192 1.626 1.94c0.363 0.748 0.545 1.563 0.545 2.443 0 0.639-0.124 1.241-0.372 1.808s-0.594 1.090-1.040 1.569c-0.446 0.479-0.985 0.903-1.618 1.271s-1.329 0.675-2.088 0.916l7.975 10.716h-5.977l-7.513-10.121h-0.974v10.121h-5.498v-22.389zM16.934 20.245h1.189c0.671 0 1.293-0.093 1.866-0.28s1.068-0.454 1.486-0.801c0.418-0.347 0.746-0.773 0.982-1.28s0.355-1.079 0.355-1.717c0-0.594-0.091-1.139-0.272-1.634s-0.432-0.922-0.751-1.28c-0.319-0.358-0.704-0.636-1.156-0.834s-0.941-0.297-1.47-0.297h-2.229v8.123z"></path>
<path d="M5.629 12.261l-0.354-3.243c-0.174-1.2-0.072-2.229 0.334-3.071 1.45-2.853 3.621-4.699 6.879-5.027 0.011-0.27 0.218-0.459 0.578-0.586 0.367 0.010 0.583 0.088 0.642 0.236 2.74-0.52 5.14-0.212 7.112 1.145 2.192 2.267 3.233 4.881 3.506 7.727l-2.884 0.953c-0.818 0.284-1.492 0.735-1.986 1.394-0.897 2.047-2.159 3.859-3.589 5.563-0.904 1.261-2.044 1.946-3.401 2.1-1.13 0.252-2.258 0.275-3.385 0.107l-4.544-1.449c-0.327 0.711-0.718 1.385-1.399 1.893-0.471 0.288-0.941 0.337-1.409-0.084-0.265-0.37-0.1-0.754 0.194-1.143l3.197-4.719c0.462-0.483 0.682-1.062 0.509-1.797z"></path>
</svg>
