<!-- Generated by IcoMoon.io -->
<svg version="1.1" xmlns="http://www.w3.org/2000/svg" width="32" height="32" viewBox="0 0 32 32">
<title>researchmatch</title>
<path d="M10.459 9.312h2.102l0.040 5.678-2.188-0.002c-2.098 0.201-3.096 1.249-4.041 3.6v10.095h-5.674l0.016-19.371h5.732l-0.074 3.761c1.092-1.801 2.278-3.607 4.087-3.761v0z"></path>
<path d="M7.035 4.948c0 1.718-1.393 3.111-3.111 3.111s-3.111-1.393-3.111-3.111c0-1.718 1.393-3.111 3.111-3.111s3.111 1.393 3.111 3.111z"></path>
<path d="M31.005 4.948c0 1.718-1.393 3.111-3.111 3.111s-3.111-1.393-3.111-3.111c0-1.718 1.393-3.111 3.111-3.111s3.111 1.393 3.111 3.111z"></path>
<path d="M19.52 4.948c0 1.718-1.393 3.111-3.111 3.111s-3.111-1.393-3.111-3.111c0-1.718 1.393-3.111 3.111-3.111s3.111 1.393 3.111 3.111z"></path>
<path d="M19.296 28.537h-5.607v-16.54l0.018-2.685c2.203 0.090 3.749 0.794 4.364 2.574 0.887-1.772 3.361-3.048 6.269-3.048 3.654 0 6.62 2.014 6.62 4.494 0 0.18 0.019 0.394-0.011 0.569l-0.035 14.628h-5.501v-9.778h0.044v-2.393h-0.003c-0.060-1.818-1.425-3.273-3.097-3.273-1.71 0-3.099 1.523-3.099 3.399 0 0.181 0.013 0.359 0.038 0.532v11.521z"></path>
</svg>
