<!-- Generated by IcoMoon.io -->
<svg version="1.1" xmlns="http://www.w3.org/2000/svg" width="32" height="32" viewBox="0 0 32 32">
<title>right</title>
<path d="M11.087 19.349c1.143 0.018 2.321 0.516 2.907 1.581 0.279 0.507 0.073 1.112-0.141 1.685-0.172 0.481 0.225 1.023 0.308 1.548 0.248 1.583-1.982 2.939-3.906 2.516-2.147-0.472-3.529-3.141-2.53-5.229 0.601-1.257 1.932-2.109 3.363-2.101zM10.999 19.829c-1.495 0.029-2.87 1.209-3.115 2.696-0.262 1.593 0.85 3.307 2.434 3.677 1.044 0.243 2.196-0.082 2.963-0.843 0.369-0.366 0.525-0.919 0.323-1.413-0.11-0.261-0.251-0.511-0.294-0.787-0.083-0.538 0.348-1.045 0.38-1.548 0.032-0.509-0.389-0.902-0.734-1.18-0.546-0.439-1.278-0.605-1.957-0.601z"></path>
<path d="M13.833 24.359c0 0.469-0.146 0.849-0.326 0.849s-0.326-0.38-0.326-0.849c0-0.469 0.146-0.849 0.326-0.849s0.326 0.38 0.326 0.849z"></path>
<path d="M13.827 21.675c0 0.469-0.146 0.849-0.326 0.849s-0.326-0.38-0.326-0.849c0-0.469 0.146-0.849 0.326-0.849s0.326 0.38 0.326 0.849z"></path>
<path d="M15.992 19.349c1.719 0.033 3.301 1.391 3.582 3.098 0.302 1.834-0.983 3.799-2.799 4.222-1.217 0.284-2.561-0.106-3.442-1.002-0.477-0.484-0.696-1.195-0.383-1.937 0.193-0.445 0.298-0.837 0.014-1.439-0.1-0.219-0.177-0.452-0.169-0.692 0.047-1.38 1.73-2.26 3.197-2.25zM15.902 19.829c-0.937 0.015-1.908 0.379-2.446 1.267-0.097 0.16-0.18 0.344-0.183 0.535-0.003 0.252 0.135 0.477 0.24 0.698 0.098 0.211 0.104 0.239 0.133 0.355 0.189 0.749-0.625 1.499-0.285 2.223 0.645 1.373 2.977 1.825 4.432 0.782 1.243-0.891 1.702-2.718 0.998-4.102-0.538-1.058-1.681-1.764-2.89-1.758z"></path>
<path d="M2.183 15.763v-7.69h1.173v1.166c0.3-0.546 0.576-0.905 0.829-1.079s0.532-0.261 0.836-0.261c0.439 0 0.886 0.14 1.34 0.42l-0.449 1.209c-0.318-0.188-0.637-0.283-0.956-0.283-0.285 0-0.54 0.086-0.767 0.257s-0.389 0.409-0.485 0.713c-0.145 0.464-0.217 0.971-0.217 1.521v4.026h-1.303z"></path>
<path d="M7.143 6.647v-1.499h1.303v1.499h-1.303zM7.143 15.763v-7.69h1.303v7.69h-1.303z"></path>
<path d="M10.192 16.4l1.267 0.188c0.053 0.391 0.2 0.676 0.442 0.855 0.324 0.241 0.765 0.362 1.325 0.362 0.604 0 1.069-0.121 1.397-0.362s0.55-0.58 0.666-1.014c0.068-0.266 0.099-0.823 0.094-1.673-0.57 0.671-1.279 1.007-2.129 1.007-1.057 0-1.875-0.381-2.455-1.144s-0.869-1.678-0.869-2.745c0-0.734 0.133-1.411 0.398-2.031s0.65-1.1 1.155-1.437c0.504-0.338 1.097-0.507 1.778-0.507 0.908 0 1.656 0.367 2.245 1.101v-0.927h1.202v6.647c0 1.197-0.122 2.046-0.366 2.545s-0.63 0.894-1.158 1.184-1.179 0.435-1.951 0.435c-0.917 0-1.658-0.206-2.223-0.619s-0.838-1.034-0.818-1.865zM11.271 11.78c0 1.009 0.2 1.745 0.601 2.209s0.903 0.695 1.506 0.695c0.599 0 1.101-0.23 1.506-0.692s0.608-1.184 0.608-2.169c0-0.941-0.209-1.651-0.627-2.129s-0.921-0.717-1.51-0.717c-0.579 0-1.072 0.235-1.477 0.706s-0.608 1.17-0.608 2.096z"></path>
<path d="M18.678 15.763v-10.615h1.303v3.809c0.608-0.705 1.376-1.057 2.303-1.057 0.57 0 1.064 0.112 1.484 0.337s0.72 0.534 0.901 0.93 0.272 0.971 0.272 1.724v4.873h-1.303v-4.873c0-0.652-0.141-1.126-0.424-1.423s-0.682-0.445-1.198-0.445c-0.386 0-0.749 0.1-1.090 0.3s-0.583 0.472-0.728 0.815c-0.145 0.343-0.217 0.816-0.217 1.419v4.207h-1.303z"></path>
<path d="M29.772 14.597l0.188 1.151c-0.367 0.077-0.695 0.116-0.985 0.116-0.473 0-0.84-0.075-1.101-0.225s-0.444-0.346-0.55-0.59-0.159-0.757-0.159-1.539v-4.424h-0.956v-1.014h0.956v-1.904l1.296-0.782v2.686h1.311v1.014h-1.311v4.497c0 0.372 0.023 0.611 0.069 0.717s0.121 0.191 0.224 0.253c0.104 0.063 0.252 0.094 0.445 0.094 0.145 0 0.336-0.017 0.572-0.051z"></path>
</svg>
