<!-- Generated by IcoMoon.io -->
<svg version="1.1" xmlns="http://www.w3.org/2000/svg" width="32" height="32" viewBox="0 0 32 32">
<title>rocket</title>
<path d="M15.74 10.676l-2.409-2.106-8.998 0.177 4.115 3.511 0.167 7.493-3.724 3.262 8.995-0.144 1.787-2.032c3.467-0.076 6.877-0.222 9.45-1.415l-0.060-7.444c-1.299-0.644-4.96-1.013-9.323-1.301zM21.836 14.027c0.893 0 1.617 0.724 1.617 1.617s-0.724 1.617-1.617 1.617c-0.892 0-1.617-0.724-1.617-1.617s0.724-1.617 1.617-1.617z"></path>
<path d="M25.596 12.138l0.070 7.060c2.46-0.783 4.25-2.332 5.961-3.809-1.765-1.34-3.582-2.625-6.030-3.251"></path>
<path d="M8.586 19.364l-1.634-0.028-1.065-1.644-0.010-3.372 1.020-1.449h1.575l0.114 6.493"></path>
<path d="M5.598 14.42l-0.003 3.221c-2.452-0.138-4.943 0.079-5.968-1.668 1.48-1.622 3.442-1.584 5.786-1.566"></path>
</svg>
