<!-- Generated by IcoMoon.io -->
<svg version="1.1" xmlns="http://www.w3.org/2000/svg" width="32" height="32" viewBox="0 0 32 32">
<title>sd</title>
<path d="M30.428 2.86c0.395 0.086 0.453 0.177 0.48 0.554v24.708c-0.031 0.435-0.15 0.531-0.56 0.56h-28.732c-0.435-0.031-0.531-0.15-0.56-0.56v-24.708c0.031-0.435 0.15-0.531 0.56-0.56h28.732c0.027 0.002 0.053 0.004 0.080 0.006zM2.176 27.562h27.612v-23.588h-27.612c0 7.863 0 15.725 0 23.588z"></path>
<path d="M29.826 3.935v23.764h-27.694v-23.764h27.694zM5.047 18.118c0.022 0.808 0.243 1.533 0.664 2.174s1.001 1.12 1.74 1.439c0.74 0.319 1.657 0.478 2.751 0.478 0.863 0 1.64-0.158 2.33-0.474s1.22-0.759 1.588-1.328c0.369-0.569 0.553-1.175 0.553-1.819 0-0.649-0.168-1.222-0.503-1.72s-0.855-0.909-1.559-1.233c-0.484-0.22-1.376-0.477-2.677-0.771s-2.105-0.582-2.413-0.862c-0.314-0.281-0.47-0.638-0.47-1.072 0-0.5 0.221-0.928 0.664-1.283s1.148-0.532 2.116-0.532c0.929 0 1.632 0.195 2.108 0.586s0.755 0.968 0.837 1.732l1.534-0.116c-0.028-0.709-0.225-1.345-0.594-1.905s-0.895-0.986-1.58-1.275c-0.685-0.289-1.475-0.433-2.372-0.433-0.814 0-1.554 0.137-2.219 0.412s-1.171 0.678-1.518 1.209c-0.346 0.531-0.52 1.101-0.52 1.712 0 0.556 0.142 1.057 0.425 1.505s0.714 0.824 1.291 1.126c0.445 0.236 1.224 0.488 2.334 0.755s1.828 0.463 2.153 0.59c0.506 0.192 0.869 0.43 1.089 0.714s0.33 0.614 0.33 0.994c0 0.374-0.114 0.719-0.342 1.035s-0.576 0.565-1.044 0.747c-0.467 0.181-1.006 0.272-1.617 0.272-0.687 0-1.306-0.12-1.856-0.359s-0.956-0.553-1.217-0.94c-0.261-0.388-0.428-0.884-0.499-1.489l-1.509 0.132zM21.223 22.003c0.732 0 1.379-0.068 1.943-0.206s1.045-0.34 1.444-0.606c0.399-0.267 0.766-0.632 1.101-1.097s0.611-1.052 0.825-1.761 0.322-1.523 0.322-2.442c0-1.078-0.158-2.036-0.474-2.875s-0.793-1.527-1.431-2.066c-0.49-0.418-1.081-0.707-1.773-0.866-0.495-0.116-1.213-0.173-2.153-0.173h-4.165v12.093h4.364zM21.001 11.338c0.951 0 1.642 0.082 2.070 0.247 0.594 0.231 1.099 0.686 1.514 1.365s0.623 1.651 0.623 2.916c0 0.913-0.106 1.69-0.318 2.33s-0.507 1.151-0.887 1.53c-0.269 0.269-0.631 0.478-1.084 0.627s-1.079 0.223-1.877 0.223h-2.582v-9.239h2.54z"></path>
</svg>
