<!-- Generated by IcoMoon.io -->
<svg version="1.1" xmlns="http://www.w3.org/2000/svg" width="32" height="32" viewBox="0 0 32 32">
<title>sphinx</title>
<path d="M8.385 14.64l0.442-1.064-0.079-1.119-0.402-0.672 0.515-0.727 1.047-2.279c0.186-0.218 0.456-0.348 0.791-0.41l1.706-0.026c0.451 0.072 0.722 0.272 0.868 0.56 0.851 1.569 1.708 3.132 2.837 4.439 1.085 1.593 1.62 1.892 2.035 1.907l4.247 0.043 4.125-0.033c1.357 1.491 1.945 3.409 2.623 5.278 0.161 1.013-0.317 1.478-1.295 1.515l-5.439 0.006-1.073-0.5c0.121-0.272 0.392-0.518 0.857-0.732l0.793-0.011c0.364 0.085 0.663 0.181 0.932 0.284 0.322-0.026 0.608-0.038 0.852-0.032l-0.428-0.679-0.6-0.627c-0.603-0.234-1.261-0.306-1.987-0.174l-4.212 1.465c-1.415 0.14-2.854 0.155-4.325-0.011-1.178 0.020-2.233-0.291-3.239-0.731l-1.719 1.6h-7.334l1.178-1.178h4.142c0.669-0.672 1.253-1.405 1.726-2.219 0.213-0.72 0.511-1.369 0.885-1.955l1.469-1.767c0.104-0.326 0.091-0.637-0.039-0.933-0.028-0.144-0.123-0.307-0.264-0.481-0.251-0.138-0.495-0.113-0.733 0.077l-0.9 1.186"></path>
<path d="M16.624 12.93c0.794-1.446 1.911-2.608 3.316-3.517 0.929-0.526 1.914-0.835 2.949-0.949 1.129-0.075 1.907-0.025 2.387 0.132 1.055 0.231 1.807 0.529 2.374 0.866 0.853 0.502 1.463 1.030 1.906 1.576 0.668 0.73 1.161 1.438 1.541 2.131 0.336 0.791 0.535 1.599 0.596 2.424 0.090 0.766 0.113 1.462 0.096 2.117-0.046 0.842-0.264 1.565-0.665 2.161 0.025 0.121-1.159 0.896-1.46 0.536-0.191-0.228-0.289-0.641-0.447-1.075-0.435-1.2-1.020-2.753-2.368-4.506l-8.591-0.016c-0.833-0.384-1.332-1.11-1.635-1.879"></path>
</svg>
