<!-- Generated by IcoMoon.io -->
<svg version="1.1" xmlns="http://www.w3.org/2000/svg" width="32" height="32" viewBox="0 0 32 32">
<title>starcrn</title>
<path d="M16.213 0.986l-3.286 10.181h1.105l2.181-6.759 2.183 6.759h1.104l-3.286-10.181z"></path>
<path d="M21.588 13.527l7.157-0.014-5.799 4.196 0.342 1.051 8.712-6.304-10.754 0.020 0.342 1.051z"></path>
<path d="M6.457 31.014l8.716-6.359-0.893-0.649-5.812 4.24 2.236-6.839-0.893-0.649-3.354 10.256z"></path>
<path d="M9.452 17.69l-5.771-4.177 7.125 0.014 0.341-1.051-10.72-0.020 8.685 6.284 0.341-1.050z"></path>
<path d="M21.715 21.388l2.243 6.858-5.83-4.252-0.893 0.648 8.734 6.372-3.36-10.274-0.895 0.648z"></path>
<path d="M22.892 3.562h1.183c0.184 0 0.343 0.033 0.478 0.097 0.134 0.065 0.244 0.158 0.329 0.277s0.148 0.264 0.188 0.433c0.040 0.169 0.060 0.359 0.060 0.569 0 0.41-0.092 0.738-0.277 0.983s-0.46 0.368-0.829 0.368h-1.133v-2.727h0.001zM25.269 11.168h1.9v-0.088l-1.601-3.743c0.206-0.113 0.389-0.248 0.552-0.402 0.163-0.155 0.302-0.336 0.418-0.543s0.203-0.444 0.264-0.71c0.061-0.266 0.091-0.564 0.091-0.895 0-0.452-0.067-0.85-0.197-1.193-0.132-0.343-0.322-0.631-0.572-0.864s-0.552-0.409-0.911-0.528c-0.359-0.119-0.765-0.179-1.221-0.179h-2.861v9.145h1.762v-3.342h1.001l1.376 3.341z"></path>
<path d="M4.083 9.178c-0.034 0.126-0.089 0.234-0.167 0.323-0.077 0.090-0.178 0.161-0.301 0.214s-0.273 0.078-0.45 0.078c-0.217 0-0.409-0.026-0.571-0.078-0.163-0.053-0.3-0.138-0.411-0.258-0.111-0.119-0.194-0.276-0.248-0.468-0.055-0.193-0.082-0.427-0.082-0.703h-1.853c0 0.52 0.091 0.967 0.273 1.344s0.422 0.689 0.719 0.935c0.298 0.248 0.635 0.43 1.015 0.55s0.765 0.179 1.158 0.179c0.436 0 0.827-0.057 1.175-0.173s0.643-0.28 0.889-0.496c0.245-0.216 0.433-0.48 0.565-0.794s0.197-0.671 0.197-1.074c0-0.377-0.053-0.715-0.158-1.015-0.105-0.299-0.264-0.569-0.478-0.807s-0.48-0.452-0.798-0.641c-0.318-0.188-0.691-0.36-1.118-0.515-0.206-0.088-0.392-0.178-0.562-0.27s-0.314-0.19-0.433-0.295c-0.119-0.105-0.211-0.217-0.277-0.339s-0.097-0.258-0.097-0.409c0-0.146 0.021-0.285 0.063-0.415s0.105-0.242 0.188-0.336c0.084-0.095 0.189-0.168 0.318-0.223 0.127-0.055 0.279-0.082 0.455-0.082 0.188 0 0.349 0.033 0.483 0.097 0.134 0.065 0.244 0.155 0.329 0.27 0.085 0.116 0.148 0.253 0.188 0.415s0.060 0.339 0.060 0.53h1.84c0-0.415-0.067-0.794-0.201-1.14s-0.326-0.642-0.575-0.892c-0.249-0.249-0.551-0.444-0.904-0.584-0.354-0.14-0.751-0.21-1.19-0.21-0.427 0-0.817 0.062-1.171 0.186s-0.66 0.297-0.917 0.518c-0.257 0.222-0.458 0.49-0.6 0.807s-0.214 0.664-0.214 1.045c0 0.398 0.070 0.746 0.21 1.045s0.329 0.563 0.565 0.792c0.236 0.229 0.51 0.426 0.823 0.593 0.312 0.167 0.64 0.316 0.983 0.446 0.288 0.117 0.52 0.229 0.694 0.333 0.174 0.105 0.308 0.213 0.402 0.323 0.095 0.111 0.157 0.229 0.186 0.355s0.044 0.269 0.044 0.427c-0.001 0.149-0.018 0.285-0.051 0.411z"></path>
<path d="M13.307 2.024h-6.336v1.538h2.266v7.606h1.768v-7.606h2.303v-1.538z"></path>
</svg>
