<!-- Generated by IcoMoon.io -->
<svg version="1.1" xmlns="http://www.w3.org/2000/svg" width="32" height="32" viewBox="0 0 32 32">
<title>stride</title>
<path d="M26.87 19.36h4.107v1.076h-4.107v-1.076zM30.844 12.063h-2.813v2.973h2.627v1h-2.627v2.326h-1.16v-7.366h3.973v1.067z"></path>
<path d="M24.711 19.36c-0.614 0.717-1.45 1.076-2.507 1.076h-2.16v-1.076h1.187v0.023h0.973c0.105 0 0.207-0.008 0.308-0.023h2.199zM20.044 18.362v-7.366h2.173c1.12 0 1.989 0.404 2.607 1.213s0.927 1.982 0.927 3.52c0 1.048-0.146 1.925-0.438 2.633h-1.361c0.174-0.282 0.313-0.624 0.419-1.026 0.12-0.458 0.18-0.993 0.18-1.607 0-0.622-0.060-1.164-0.18-1.627s-0.284-0.844-0.493-1.147c-0.209-0.302-0.458-0.529-0.747-0.68s-0.598-0.227-0.927-0.227h-0.973v6.313h-1.187z"></path>
<path d="M17.31 19.36h1.2v1.076h-1.2v-1.076zM18.51 18.362h-1.2v-7.366h1.2v7.366z"></path>
<path d="M11.297 19.36h1.173v1.076h-1.173v-1.076zM14.755 19.36h1.262l0.427 1.076h-1.28l-0.409-1.076zM11.297 18.362v-7.366h2.44c0.347 0 0.674 0.046 0.98 0.14s0.576 0.242 0.807 0.447c0.231 0.204 0.413 0.471 0.547 0.8s0.2 0.724 0.2 1.187c0 0.382-0.049 0.716-0.147 1s-0.225 0.527-0.38 0.727-0.327 0.358-0.513 0.473c-0.187 0.116-0.369 0.191-0.547 0.227l0.938 2.366h-1.245l-0.812-2.139h-1.093v2.139h-1.173zM13.55 12.010h-1.080v3.28h1.107c0.453 0 0.818-0.144 1.093-0.433s0.413-0.7 0.413-1.233c0-0.32-0.044-0.582-0.133-0.787s-0.204-0.369-0.347-0.493c-0.142-0.124-0.307-0.211-0.493-0.26s-0.373-0.073-0.56-0.073z"></path>
<path d="M7.817 19.36h1.187v1.076h-1.187v-1.076zM10.804 12.023h-1.8v6.339h-1.187v-6.339h-1.8v-1.027h4.787v1.027z"></path>
<path d="M5.759 19.36c-0.115 0.223-0.253 0.417-0.416 0.583-0.227 0.231-0.495 0.409-0.807 0.533s-0.644 0.187-1 0.187c-0.48 0-0.935-0.1-1.366-0.3s-0.776-0.464-1.034-0.793c-0.073-0.142-0.018-0.213 0.171-0.21h1.366c0.286 0.131 0.573 0.196 0.863 0.196 0.28 0 0.526-0.066 0.736-0.196h1.486zM4.885 18.362c0.017-0.114 0.025-0.236 0.025-0.366 0-0.24-0.040-0.451-0.12-0.634s-0.191-0.347-0.333-0.493c-0.142-0.147-0.304-0.28-0.486-0.4s-0.38-0.233-0.594-0.34c-0.258-0.124-0.5-0.264-0.726-0.42s-0.429-0.336-0.607-0.54c-0.178-0.204-0.318-0.447-0.42-0.727s-0.153-0.611-0.153-0.993c0-0.453 0.071-0.849 0.213-1.187s0.331-0.618 0.567-0.84c0.236-0.222 0.504-0.387 0.806-0.493s0.609-0.16 0.92-0.16c0.453 0 0.86 0.076 1.22 0.227s0.66 0.378 0.9 0.68l-0.72 0.853c-0.338-0.444-0.791-0.667-1.36-0.667-0.169 0-0.335 0.029-0.5 0.087s-0.313 0.151-0.447 0.28c-0.133 0.129-0.24 0.291-0.32 0.487s-0.12 0.431-0.12 0.707c0 0.24 0.038 0.447 0.113 0.62s0.178 0.329 0.307 0.467c0.129 0.138 0.278 0.262 0.446 0.373s0.351 0.216 0.547 0.314c0.249 0.124 0.493 0.264 0.733 0.42s0.458 0.34 0.653 0.553c0.196 0.213 0.353 0.465 0.473 0.753s0.18 0.625 0.18 1.007c0 0.149-0.008 0.293-0.025 0.433h-1.174z"></path>
<path d="M1.044 17.892h1.545v0.706h-1.545v-0.706z"></path>
</svg>
