<!-- Generated by IcoMoon.io -->
<svg version="1.1" xmlns="http://www.w3.org/2000/svg" width="32" height="32" viewBox="0 0 32 32">
<title>studies</title>
<path d="M0.549 11.295h31.081v9.479h-31.081v-9.479zM27.73 18.913c0.592 0 1.068-0.147 1.427-0.442s0.539-0.685 0.539-1.172c0-0.343-0.096-0.636-0.287-0.881s-0.529-0.504-1.013-0.779l-0.401-0.227c-0.348-0.199-0.587-0.37-0.718-0.514s-0.196-0.309-0.196-0.495c0-0.222 0.090-0.406 0.268-0.552s0.406-0.219 0.68-0.219c0.29 0 0.73 0.116 1.32 0.348v-0.726c-0.479-0.144-0.934-0.216-1.365-0.216-0.484 0-0.882 0.139-1.195 0.418s-0.469 0.633-0.469 1.064c0 0.32 0.098 0.601 0.293 0.841s0.531 0.497 1.007 0.769l0.386 0.223c0.335 0.189 0.565 0.36 0.69 0.514s0.187 0.34 0.187 0.559c0 0.267-0.095 0.483-0.285 0.647s-0.442 0.245-0.754 0.245c-0.406 0-0.924-0.146-1.554-0.438v0.786c0.585 0.164 1.065 0.246 1.44 0.246zM3.861 18.913c0.592 0 1.068-0.147 1.427-0.442s0.539-0.685 0.539-1.172c0-0.343-0.096-0.636-0.287-0.881s-0.529-0.504-1.013-0.779l-0.401-0.227c-0.348-0.199-0.587-0.37-0.718-0.514s-0.197-0.309-0.197-0.495c0-0.222 0.090-0.406 0.268-0.552s0.406-0.219 0.681-0.219c0.29 0 0.73 0.116 1.319 0.348v-0.726c-0.479-0.144-0.934-0.216-1.365-0.216-0.484 0-0.882 0.139-1.195 0.418s-0.469 0.633-0.469 1.064c0 0.32 0.098 0.601 0.293 0.841s0.531 0.497 1.008 0.769l0.386 0.223c0.335 0.189 0.565 0.36 0.69 0.514s0.187 0.34 0.187 0.559c0 0.267-0.095 0.483-0.285 0.647s-0.442 0.245-0.754 0.245c-0.406 0-0.924-0.146-1.554-0.438v0.786c0.585 0.164 1.065 0.246 1.44 0.246zM11.65 13.178h-0.794v3.524c0 0.754 0.166 1.311 0.499 1.671s0.848 0.54 1.546 0.54c0.685 0 1.185-0.174 1.499-0.522s0.471-0.904 0.471-1.667v-3.546h-0.696v3.557c0 0.575-0.092 0.982-0.278 1.223s-0.5 0.361-0.943 0.361c-0.454 0-0.784-0.128-0.992-0.384s-0.312-0.665-0.312-1.227v-3.531zM21.926 18.773v-5.595h-0.794v5.595h0.794zM26.191 18.773v-0.594h-2.495v-2.026h1.955v-0.586h-1.955v-1.796h2.332v-0.594h-3.126v5.595h3.289zM17.661 13.178h-1.86v5.595h1.871c0.892 0 1.584-0.256 2.076-0.767s0.737-1.232 0.737-2.163c0-0.766-0.198-1.384-0.594-1.852-0.249-0.295-0.545-0.504-0.886-0.628s-0.789-0.185-1.344-0.185zM10.579 13.772v-0.594h-4.763v0.594h1.985v5.002h0.794v-5.002h1.985zM17.249 13.772c0.542 0 0.948 0.042 1.217 0.127s0.502 0.241 0.696 0.471c0.32 0.375 0.48 0.892 0.48 1.55 0 0.7-0.163 1.259-0.488 1.675-0.303 0.391-0.817 0.586-1.543 0.586h-1.017v-4.408h0.654z"></path>
</svg>
