<!-- Generated by IcoMoon.io -->
<svg version="1.1" xmlns="http://www.w3.org/2000/svg" width="32" height="32" viewBox="0 0 32 32">
<title>tin</title>
<path d="M23.206 8.761c0 0 1.044 0.245 1.803 0.529 2.648 0.991 5.794 2.972 4.307 5.753-0.251 0.469-0.786 1.045-0.786 1.045-0.031 0.046-0.063 0.092-0.095 0.137-2.692 3.747-7.557 5.477-11.982 6.99-2.182 0.746-4.39 1.414-6.595 2.088 0 0-0.235 0.038-0.352-0.11-0.132-0.166-0.050-0.434 0.161-0.516 5.639-1.723 11.65-3.228 16.020-6.595 0.882-0.679 1.69-1.467 2.32-2.387 0 0 1.153-1.135 0.991-2.261-0.103-0.72-0.584-1.325-1.086-1.815 0 0-1.223-0.894-2.455-1.44-0.755-0.335-1.543-0.589-2.348-0.773 0 0-0.581-0.645 0.097-0.645z"></path>
<path d="M20.753 6.273c0 0 0.563 0.187 0.954 0.32 2.090 0.719 4.186 1.5 6.045 2.696 0 0 1.195 0.969 0.43 2.039 0 0-1.449 0.612-2.804 0.963-5.298 1.37-10.836 1.58-16.225 1.421 0 0-0.235-0.040-0.298-0.217-0.222-0.619 1.383-0.399 2.734-0.396 5.436 0.013 10.962-0.348 16.056-2.194 0 0 0.171-0.167 0.181-0.377 0.018-0.354-0.442-0.697-0.442-0.697-2.075-1.335-4.453-2.132-6.794-2.925 0 0-0.513-0.701 0.162-0.632z"></path>
<path d="M18.058 5.172c3.127 0.737 6.188 1.771 9.063 3.214 0 0 1.473 1.003 1.291 2.249-0.072 0.493-0.363 0.942-0.71 1.315 0 0-0.69 0.449-1.259 0.769-4.943 2.78-10.591 4.107-16.257 4.55 0 0-0.144-0.005-0.213-0.095-0.107-0.139-0.015-0.364 0.175-0.394 5.982-0.468 11.972-1.954 17.105-5.108 0 0 0.783-0.666 0.675-1.441-0.082-0.593-0.559-1.040-1.004-1.383 0 0-0.836-0.428-1.499-0.725-2.404-1.074-4.92-1.871-7.48-2.474 0 0-0.113-0.039-0.157-0.118-0.091-0.161 0.039-0.394 0.27-0.359z"></path>
<path d="M23.979 21.986c0.181 0.014 0.208 0.074 0.251 0.133 0.107 0.145 0.067 0.364-0.090 0.471l-4.668 2.928c-0.297 0.171-0.724-0.298-0.348-0.554l4.668-2.928c0.054-0.031 0.067-0.050 0.187-0.050z"></path>
<path d="M23.854 5.381c0.254 0.036 0.259 0.073 0.362 0.111 1.391 0.527 2.721 1.273 3.71 2.388 0.254 0.264 0.284 0.306 0.405 0.457 0.762 0.949 1.16 2.287 0.513 3.476-0.854 1.57-2.849 2.808-4.583 3.898-6.269 3.942-13.861 4.998-21.112 5.446 0 0-0.206-0.003-0.337-0.097-0.343-0.246-0.2-0.886 0.272-0.948 8.79-0.544 17.993-1.991 24.18-8.090 0.261-0.257 0.62-0.639 0.62-0.639 0.535-0.899-0.033-2.071-0.728-2.793-0.288-0.325-0.388-0.412-0.602-0.595-0.848-0.728-1.872-1.224-2.916-1.6 0 0-0.82-1.019 0.215-1.014z"></path>
<path d="M22.518 10.435c0.198 0.036 0.198 0.036 0.395 0.067 1.775 0.271 3.6 0.241 5.251 1.037 1.082 0.522 1.522 2.7 0.458 4.053-3.865 4.913-11.4 6.23-18.041 8.25-2.168 0.662-4.326 1.36-6.455 2.146 0 0-0.232 0.058-0.39-0.022-0.334-0.167-0.341-0.723 0.050-0.899 5.939-2.193 12.318-3.49 18.018-5.926 2.317-0.99 4.597-2.217 6.126-4.259 0.515-0.71 0.598-1.926-0.026-2.375 0 0-2.565-0.743-4.353-0.932-0.832-0.092-2.121-0.365-1.464-1.008 0.095-0.094 0.158-0.163 0.431-0.132z"></path>
<path d="M23.49 8.265c2.184 0.305 4.254 1.493 5.56 3.253 1.028 1.386 0.806 2.774 0.509 3.994-0.082 0.338-0.292 0.739-0.292 0.739-3.803 5.111-10.529 7.235-16.678 9.578 0 0-0.846-0.326-0.233-0.611 0.325-0.124 0.65-0.248 0.976-0.372 5.64-2.166 11.663-4 15.345-8.896 0 0 0.983-2.576-0.217-4.127-1.213-1.569-3.086-2.634-5.060-2.91 0 0-0.584-0.693 0.090-0.648z"></path>
<path d="M24.259 11.497c2.283 0.026 5.509 0.745 4.596 2.726-0.125 0.272-0.404 0.602-0.404 0.602-0.143 0.149-0.204 0.163-0.307 0.24-5.605 4.136-12.544 6.203-19.482 7.518 0 0-0.253 0.092-0.415-0.020-0.213-0.146-0.146-0.518 0.124-0.592 6.463-1.212 12.88-3.009 18.354-6.703 0.131-0.089 0.261-0.178 0.39-0.269s0.258-0.182 0.386-0.274c0.475-0.344 0.437-0.213 0.698-0.66 0.698-1.195-2.658-2.103-5.376-1.846 0 0-1.442-0.665 1.112-0.721 0.108-0.002 0.216-0.002 0.323-0.002z"></path>
<path d="M29.304 16.953c1.082 0.098-0.776 2.899-2.778 4.129 0 0-0.234 0.094-0.38-0.027-0.361-0.299 0.484-0.778 1.033-1.244 0.821-0.697 1.456-1.608 1.795-2.634 0 0 0.081-0.23 0.329-0.224z"></path>
<path d="M19.453 23.712c0.574 0.099 0.291 0.527 0.091 0.625l-9.188 3.945c-0.33 0.122-0.671-0.398-0.258-0.601l9.188-3.945c0.066-0.025 0.086-0.029 0.167-0.024z"></path>
<path d="M19.103 10.698c0.399 0.003 0.796 0.036 1.189 0.1 0 0 0.251 0.064 0.252 0.249 0.001 0.308-0.534 0.186-1.026 0.155-0.756-0.048-1.514 0.034-2.256 0.193 0 0-0.436-0.107-0.255-0.377 0.072-0.108 0.22-0.118 0.351-0.144 0.574-0.112 1.156-0.176 1.744-0.176z"></path>
</svg>
