<!-- Generated by IcoMoon.io -->
<svg version="1.1" xmlns="http://www.w3.org/2000/svg" width="32" height="32" viewBox="0 0 32 32">
<title>trialstoday</title>
<path d="M16.17 1.706c0.146 0.024 0.183 0.036 0.315 0.104l10.685 6.222c0.686 0.436 1.215 1.155 1.237 1.981v11.375c-0.029 0.825-0.386 1.617-0.999 2.164 0 0 0.006 0.010-0.145 0.109l-10.825 6.419c-0.38 0.199-0.448 0.189-0.811 0.003-3.612-2.104-7.248-4.17-10.837-6.313-0.726-0.445-1.237-1.202-1.342-2.048l-0.009-0.126v-11.249c0.053-0.998 0.702-1.907 1.539-2.435l10.708-6.105c0 0 0.042-0.125 0.484-0.1zM5.84 9.26c-0.376 0.272-0.734 0.647-0.8 1.125-0.45 3.694-0.001 7.443-0.001 11.165 0.046 0.366 0.292 0.683 0.621 0.875l10.366 6.038 10.354-6.14c0.264-0.241 0.409-0.591 0.425-0.954 0.134-3.78 0.318-7.579-0.001-11.348-0.030-0.293-0.496-0.639-0.496-0.639-2.887-1.999-7.13-4.485-8.847-5.488-1.914-1.118-0.873-1.101-2.801-0.006-1.789 1.016-5.276 3.054-8.822 5.372z"></path>
<path d="M19.855 16.226c0.551 0.053 0.54 0.204 0.657 0.431 0.158 0.306 0.228 0.429-0.172 0.992-0.246 0.341-0.507 0.672-0.79 0.982-1.177 1.289-3.018 2.256-4.822 1.554-1.293-0.504-2.403-1.525-3.049-2.685-0.369-0.662 0.711-1.679 1.346-0.86 0.297 0.408 0.358 0.477 0.544 0.692 0.103 0.119 0.209 0.235 0.318 0.348 0.093 0.095 0.188 0.187 0.286 0.276 0.075 0.068 0.151 0.133 0.229 0.196 0.753 0.605 1.856 0.893 2.77 0.39 0.812-0.447 1.432-1.199 1.974-1.974 0 0 0.325-0.354 0.709-0.34z"></path>
<path d="M15.845 19.284c1.861 0.033 3.376 1.728 4.174 3.289 0.173 0.339 0.328 0.687 0.467 1.041 0.185 0.47 0.141 1.066-0.353 1.268-1.062 0.434-1.481-1.714-2.229-2.687-0.082-0.106-0.167-0.21-0.257-0.309-0.067-0.074-0.135-0.146-0.207-0.215-0.76-0.739-2.092-1.027-3.023-0.161-0.801 0.745-1.263 1.816-1.597 2.884 0 0-0.175 0.424-0.541 0.53-0.6 0.174-1.188-0.391-0.919-1.218 0.174-0.526 0.379-1.041 0.631-1.533 0.076-0.15 0.157-0.298 0.243-0.443 0.731-1.239 1.884-2.376 3.465-2.443 0.048-0.001 0.097-0.002 0.145-0.002z"></path>
<path d="M17.354 16.176c0 0.625-0.576 1.132-1.288 1.132s-1.288-0.507-1.288-1.132c0-0.625 0.576-1.132 1.288-1.132s1.288 0.507 1.288 1.132z"></path>
<path d="M16.113 14.485c1.22 0.041 2.37 1.427 1.491 2.631-0.884 1.212-3.49 0.836-3.382-1.030 0.052-0.907 0.876-1.612 1.891-1.6zM16.046 15.604c-0.364 0.012-0.766 0.269-0.7 0.647 0.142 0.818 2.097 0.389 1.296-0.423-0.153-0.155-0.331-0.227-0.596-0.224z"></path>
<path d="M12.087 7.265c1.318 0.088 0.996 2.957 2.98 3.896 1.097 0.519 2.378-0.483 2.966-1.308 0.447-0.628 0.78-1.33 1.050-2.055 0 0 0.577-0.783 1.183-0.393 1.055 0.68-0.398 2.721-1.157 3.678-0.999 1.26-2.669 2.225-4.314 1.687-1.764-0.577-2.867-2.465-3.478-4.399-0.162-0.513 0.106-1.073 0.721-1.108 0.016 0 0.033 0 0.049 0z"></path>
<path d="M16.111 11.774c1.851 0.027 3.365 1.56 4.346 2.963 0 0 0.208 0.369 0.11 0.692-0.17 0.557-1.022 0.76-1.421 0.225-0.053-0.076-0.053-0.075-0.106-0.15-0.795-1.1-1.82-2.265-3.171-2.117-1.271 0.139-2.154 1.247-2.844 2.195 0 0-0.441 0.444-0.904 0.287-0.477-0.162-0.717-0.749-0.39-1.228 0.316-0.434 0.374-0.498 0.563-0.721 0.124-0.146 0.252-0.289 0.384-0.427 0.905-0.947 2.026-1.721 3.433-1.716z"></path>
</svg>
