<!-- Generated by IcoMoon.io -->
<svg version="1.1" xmlns="http://www.w3.org/2000/svg" width="32" height="32" viewBox="0 0 32 32">
<title>vcc</title>
<path d="M16.347 6.436c2.99 0.028 5.773 1.517 7.85 3.863 0.745 0.842-0.291 1.598-1.010 0.79-2.447-2.72-6.245-4.229-9.978-2.724-2.973 1.199-4.835 4.312-5.323 7.622 0 0 0.481 3.627 2.13 5.553 1.519 1.774 3.965 2.537 6.364 2.58 0 0 0.573-0.027 1.045-0.085 2.72-0.337 5.438-1.733 6.566-4.656 0 0 0.374-0.541 0.828-0.366 0.887 0.343-0.028 2.044-1.022 3.241-2.2 2.646-6.283 3.468-9.328 2.99-2.488-0.39-4.824-1.705-6.21-3.947-0.956-1.547-1.432-3.35-1.652-5.132 0 0 0.205-1.93 0.83-3.505 1.356-3.419 4.622-5.868 8.453-6.216 0.152-0.005 0.304-0.008 0.457-0.007z"></path>
<path d="M16.323 4.080c1.525 0.010 3.042 0.277 4.508 0.72 0.724 0.219 0.694 1.543-0.492 1.189-4.473-1.301-9.324-0.209-12.702 3.385 0 0-0.401 0.3-0.739 0.141-0.361-0.17-0.471-0.694-0.194-1.017 0.089-0.095 0.089-0.095 0.179-0.189 2.43-2.511 5.675-4.188 9.259-4.229 0.060-0 0.12-0 0.18-0z"></path>
<path d="M4.961 15.324c0.314 0.036 0.564 0.292 0.592 0.609 0.005 0.109 0.005 0.109 0.011 0.218 0.259 4.235 3.012 7.932 7.101 9.774 0 0 0.398 0.259 0.376 0.622-0.029 0.476-0.495 0.732-1.134 0.439-3.307-1.543-6.106-4.226-7.125-7.77-0.291-1.012-0.449-2.055-0.502-3.109-0.007-0.135 0.109-0.803 0.682-0.783z"></path>
<path d="M27.305 18.993c0.274 0.019 0.29 0.073 0.371 0.137 0.517 0.408-0.027 1.408-0.472 2.268-1.215 2.344-3.268 4.207-5.69 5.302 0 0-0.452 0.126-0.709-0.124-0.356-0.345-0.197-0.861 0.443-1.164 2.496-1.197 4.449-3.333 5.432-6.001 0 0 0.21-0.398 0.585-0.419 0.013 0 0.027 0 0.040 0z"></path>
<path d="M19.62 1.949c0.193 0.023 0.202 0.040 0.286 0.060 4.075 1.016 7.439 3.918 9.62 7.676 0.321 0.553-0.047 1.411-0.713 1.097-0.221-0.104-0.335-0.353-0.449-0.549-1.992-3.373-5.063-6.111-8.94-7.023 0 0-0.868-0.617-0.26-1.117 0.118-0.097 0.197-0.154 0.456-0.144z"></path>
<path d="M12.986 1.905c0.675 0.052 0.973 1.005-0.23 1.363-2.189 0.659-4.22 1.821-5.817 3.474 0 0-0.288 0.244-0.589 0.182-0.445-0.092-0.7-0.665-0.332-1.072 0.079-0.082 0.079-0.082 0.159-0.163 1.794-1.797 4.087-3.056 6.545-3.744 0 0 0.045-0.044 0.265-0.040z"></path>
<path d="M4.343 8.266c0.317 0.032 0.338 0.107 0.424 0.197 0.488 0.512-0.359 1.529-0.759 2.547-0.882 2.25-1.106 4.733-0.752 7.148 0 0-0.045 0.617-0.493 0.717-0.699 0.156-0.867-1.038-0.925-1.97-0.177-2.851 0.458-5.707 1.869-8.243 0.131-0.236 0.347-0.403 0.637-0.396z"></path>
<path d="M3.996 21.458c0.411 0.071 0.353 0.099 0.602 0.52 1.499 2.484 3.729 4.517 6.365 5.704 5.030 2.264 11.623 1.64 15.35-3.057 0 0 0.44-0.363 0.806-0.165 0.886 0.48-0.732 2.218-2.302 3.324-0.34 0.239-0.691 0.461-1.052 0.665-5.487 3.098-12.973 1.928-17.595-2.466-1.069-1.017-1.991-2.193-2.735-3.458-0.139-0.236-0.147-1.105 0.561-1.067z"></path>
</svg>
