<!-- Generated by IcoMoon.io -->
<svg version="1.1" xmlns="http://www.w3.org/2000/svg" width="32" height="32" viewBox="0 0 32 32">
<title>victastrialsites</title>
<path d="M3.344 17.495l-2.292-6.414h1.404l1.623 4.747 1.571-4.747h1.374l-2.297 6.414h-1.382z"></path>
<path d="M7.196 11.082h1.295v6.414h-1.295v-6.414z"></path>
<path d="M13.381 15.137l1.255 0.398c-0.192 0.7-0.512 1.22-0.96 1.56s-1.016 0.51-1.704 0.51c-0.852 0-1.552-0.291-2.1-0.873s-0.823-1.378-0.823-2.387c0-1.068 0.276-1.897 0.827-2.487s1.276-0.886 2.174-0.886c0.785 0 1.422 0.232 1.912 0.696 0.292 0.274 0.51 0.668 0.656 1.181l-1.282 0.306c-0.076-0.332-0.234-0.595-0.475-0.788s-0.533-0.289-0.877-0.289c-0.475 0-0.861 0.171-1.157 0.512s-0.444 0.894-0.444 1.658c0 0.811 0.146 1.388 0.438 1.732s0.671 0.516 1.137 0.516c0.344 0 0.64-0.109 0.888-0.328s0.426-0.563 0.534-1.033z"></path>
<path d="M16.743 17.495v-5.329h-1.903v-1.085h5.097v1.085h-1.899v5.329h-1.295z"></path>
<path d="M25.443 17.495h-1.409l-0.56-1.457h-2.564l-0.53 1.457h-1.374l2.498-6.414h1.369l2.568 6.414zM23.059 14.958l-0.884-2.38-0.866 2.38h1.75z"></path>
<path d="M25.354 15.409l1.26-0.123c0.076 0.423 0.23 0.733 0.462 0.932s0.545 0.298 0.938 0.298c0.417 0 0.732-0.088 0.943-0.265s0.317-0.383 0.317-0.619c0-0.152-0.044-0.281-0.133-0.387s-0.244-0.199-0.466-0.278c-0.152-0.052-0.497-0.146-1.037-0.28-0.694-0.172-1.181-0.384-1.461-0.635-0.394-0.353-0.591-0.783-0.591-1.291 0-0.327 0.093-0.632 0.278-0.916s0.452-0.501 0.801-0.65c0.348-0.149 0.769-0.223 1.262-0.223 0.805 0 1.411 0.177 1.818 0.53s0.62 0.824 0.641 1.413l-1.295 0.057c-0.056-0.33-0.174-0.567-0.357-0.711s-0.456-0.217-0.82-0.217c-0.376 0-0.671 0.077-0.884 0.232-0.137 0.099-0.205 0.232-0.205 0.398 0 0.152 0.064 0.281 0.192 0.389 0.164 0.137 0.56 0.28 1.19 0.428s1.096 0.303 1.398 0.462 0.538 0.376 0.709 0.652c0.171 0.276 0.256 0.616 0.256 1.021 0 0.368-0.102 0.712-0.306 1.033s-0.493 0.559-0.866 0.715c-0.373 0.156-0.839 0.234-1.396 0.234-0.811 0-1.434-0.188-1.868-0.562s-0.694-0.921-0.779-1.638z"></path>
<path d="M1.544 19.68l0.343-0.030c0.016 0.137 0.054 0.25 0.114 0.338s0.151 0.159 0.276 0.214 0.266 0.082 0.422 0.082c0.139 0 0.261-0.020 0.368-0.062s0.185-0.098 0.237-0.17c0.052-0.072 0.078-0.15 0.078-0.236s-0.025-0.162-0.075-0.226c-0.050-0.064-0.132-0.118-0.248-0.162-0.074-0.029-0.237-0.073-0.489-0.134s-0.429-0.118-0.531-0.172c-0.131-0.069-0.229-0.154-0.293-0.256s-0.097-0.216-0.097-0.342c0-0.139 0.039-0.268 0.118-0.389s0.194-0.212 0.345-0.275c0.151-0.062 0.319-0.094 0.504-0.094 0.204 0 0.384 0.033 0.539 0.098s0.275 0.162 0.359 0.29c0.084 0.127 0.129 0.272 0.135 0.433l-0.349 0.026c-0.019-0.174-0.082-0.305-0.19-0.394s-0.268-0.133-0.479-0.133c-0.22 0-0.38 0.040-0.481 0.121s-0.151 0.178-0.151 0.292c0 0.099 0.036 0.18 0.107 0.244 0.070 0.064 0.253 0.129 0.548 0.196s0.498 0.125 0.608 0.175c0.16 0.074 0.278 0.167 0.354 0.28s0.115 0.243 0.115 0.391c0 0.146-0.042 0.284-0.126 0.413s-0.204 0.23-0.361 0.302c-0.157 0.072-0.333 0.108-0.53 0.108-0.249 0-0.457-0.036-0.625-0.109s-0.3-0.182-0.396-0.327c-0.096-0.146-0.146-0.31-0.151-0.494z"></path>
<path d="M4.13 18.203v-0.388h0.337v0.388h-0.337zM4.13 20.564v-1.991h0.337v1.991h-0.337z"></path>
<path d="M5.66 20.262l0.049 0.298c-0.095 0.020-0.18 0.030-0.255 0.030-0.123 0-0.218-0.019-0.285-0.058s-0.115-0.090-0.142-0.153-0.041-0.196-0.041-0.398v-1.146h-0.247v-0.262h0.247v-0.493l0.336-0.203v0.696h0.34v0.262h-0.34v1.164c0 0.096 0.006 0.158 0.018 0.186s0.031 0.049 0.058 0.066c0.027 0.016 0.065 0.024 0.116 0.024 0.037 0 0.087-0.004 0.148-0.013z"></path>
<path d="M7.296 19.922l0.348 0.043c-0.055 0.204-0.157 0.362-0.306 0.474s-0.339 0.169-0.57 0.169c-0.291 0-0.522-0.090-0.693-0.269s-0.256-0.431-0.256-0.755c0-0.335 0.086-0.595 0.259-0.78s0.396-0.277 0.671-0.277c0.267 0 0.484 0.091 0.653 0.272s0.253 0.436 0.253 0.765c0 0.020-0.001 0.050-0.002 0.090h-1.485c0.012 0.219 0.074 0.386 0.186 0.503s0.25 0.174 0.416 0.174c0.124 0 0.229-0.033 0.317-0.098s0.157-0.169 0.208-0.311zM6.188 19.377h1.112c-0.015-0.167-0.057-0.293-0.127-0.377-0.108-0.13-0.247-0.195-0.418-0.195-0.155 0-0.285 0.052-0.391 0.156s-0.164 0.243-0.175 0.416z"></path>
<path d="M9.052 20.564v-2.749h0.548l0.651 1.946c0.060 0.181 0.104 0.317 0.132 0.407 0.031-0.1 0.080-0.247 0.146-0.441l0.658-1.913h0.489v2.749h-0.35v-2.3l-0.799 2.3h-0.328l-0.795-2.34v2.34h-0.351z"></path>
<path d="M13.46 20.318c-0.125 0.106-0.245 0.181-0.361 0.225s-0.24 0.066-0.372 0.066c-0.219 0-0.387-0.053-0.504-0.16s-0.176-0.244-0.176-0.41c0-0.098 0.022-0.187 0.067-0.267s0.103-0.145 0.174-0.194c0.072-0.049 0.153-0.085 0.243-0.111 0.066-0.017 0.166-0.034 0.3-0.051 0.273-0.032 0.473-0.071 0.602-0.116 0.001-0.046 0.002-0.076 0.002-0.088 0-0.138-0.032-0.235-0.096-0.291-0.086-0.076-0.214-0.114-0.384-0.114-0.159 0-0.276 0.028-0.351 0.084s-0.132 0.154-0.168 0.295l-0.33-0.045c0.030-0.141 0.079-0.255 0.148-0.342s0.168-0.154 0.298-0.201c0.13-0.047 0.281-0.070 0.452-0.070 0.17 0 0.308 0.020 0.414 0.060s0.185 0.091 0.235 0.151c0.050 0.061 0.085 0.137 0.105 0.23 0.011 0.058 0.017 0.161 0.017 0.311v0.45c0 0.314 0.007 0.512 0.021 0.595s0.043 0.163 0.085 0.239h-0.353c-0.035-0.070-0.058-0.152-0.068-0.245zM13.432 19.564c-0.122 0.050-0.306 0.092-0.551 0.128-0.139 0.020-0.237 0.042-0.294 0.068s-0.102 0.061-0.133 0.109c-0.031 0.048-0.047 0.102-0.047 0.16 0 0.090 0.034 0.165 0.102 0.225s0.168 0.090 0.299 0.090c0.13 0 0.246-0.028 0.347-0.085s0.176-0.135 0.223-0.233c0.036-0.076 0.054-0.189 0.054-0.338v-0.124z"></path>
<path d="M14.239 20.564v-1.991h0.304v0.283c0.146-0.219 0.357-0.328 0.634-0.328 0.12 0 0.23 0.021 0.331 0.065s0.176 0.1 0.226 0.17c0.050 0.070 0.085 0.153 0.105 0.25 0.012 0.062 0.019 0.172 0.019 0.328v1.224h-0.338v-1.211c0-0.138-0.013-0.24-0.039-0.308s-0.073-0.123-0.14-0.163c-0.067-0.041-0.145-0.061-0.235-0.061-0.144 0-0.268 0.046-0.372 0.137s-0.156 0.264-0.156 0.519v1.087h-0.337z"></path>
<path d="M17.617 20.318c-0.125 0.106-0.245 0.181-0.361 0.225s-0.24 0.066-0.372 0.066c-0.219 0-0.387-0.053-0.504-0.16s-0.176-0.244-0.176-0.41c0-0.098 0.022-0.187 0.067-0.267s0.102-0.145 0.174-0.194c0.072-0.049 0.153-0.085 0.243-0.111 0.066-0.017 0.166-0.034 0.3-0.051 0.273-0.032 0.473-0.071 0.602-0.116 0.001-0.046 0.002-0.076 0.002-0.088 0-0.138-0.032-0.235-0.096-0.291-0.086-0.076-0.214-0.114-0.384-0.114-0.159 0-0.276 0.028-0.352 0.084s-0.132 0.154-0.168 0.295l-0.33-0.045c0.030-0.141 0.079-0.255 0.148-0.342s0.168-0.154 0.298-0.201c0.13-0.047 0.281-0.070 0.452-0.070 0.17 0 0.308 0.020 0.414 0.060s0.184 0.091 0.235 0.151c0.050 0.061 0.085 0.137 0.105 0.23 0.011 0.058 0.017 0.161 0.017 0.311v0.45c0 0.314 0.007 0.512 0.022 0.595s0.043 0.163 0.085 0.239h-0.352c-0.035-0.070-0.058-0.152-0.068-0.245zM17.588 19.564c-0.123 0.050-0.306 0.092-0.551 0.128-0.139 0.020-0.237 0.042-0.294 0.068s-0.102 0.061-0.133 0.109c-0.031 0.048-0.047 0.102-0.047 0.16 0 0.090 0.034 0.165 0.102 0.225s0.168 0.090 0.299 0.090c0.13 0 0.245-0.028 0.347-0.085s0.176-0.135 0.223-0.233c0.036-0.076 0.054-0.189 0.054-0.338v-0.124z"></path>
<path d="M18.333 20.729l0.328 0.049c0.014 0.101 0.052 0.175 0.115 0.221 0.084 0.062 0.198 0.094 0.343 0.094 0.156 0 0.277-0.031 0.362-0.094s0.142-0.15 0.172-0.263c0.018-0.069 0.026-0.213 0.024-0.433-0.148 0.174-0.331 0.26-0.551 0.26-0.274 0-0.485-0.099-0.636-0.296s-0.225-0.434-0.225-0.71c0-0.19 0.034-0.365 0.103-0.526s0.169-0.284 0.299-0.372c0.131-0.087 0.284-0.131 0.46-0.131 0.235 0 0.429 0.095 0.581 0.285v-0.24h0.311v1.721c0 0.31-0.031 0.53-0.095 0.659s-0.163 0.232-0.3 0.307-0.305 0.113-0.505 0.113c-0.237 0-0.429-0.053-0.576-0.16s-0.217-0.268-0.212-0.483zM18.613 19.533c0 0.261 0.052 0.452 0.156 0.572s0.234 0.18 0.39 0.18c0.155 0 0.285-0.060 0.39-0.179s0.157-0.307 0.157-0.562c0-0.244-0.054-0.428-0.162-0.551s-0.238-0.186-0.391-0.186c-0.15 0-0.277 0.061-0.382 0.183s-0.157 0.303-0.157 0.543z"></path>
<path d="M21.836 19.922l0.349 0.043c-0.055 0.204-0.157 0.362-0.306 0.474s-0.339 0.169-0.57 0.169c-0.291 0-0.522-0.090-0.693-0.269s-0.256-0.431-0.256-0.755c0-0.335 0.086-0.595 0.259-0.78s0.396-0.277 0.671-0.277c0.266 0 0.484 0.091 0.652 0.272s0.253 0.436 0.253 0.765c0 0.020-0.001 0.050-0.002 0.090h-1.485c0.012 0.219 0.075 0.386 0.186 0.503s0.25 0.174 0.416 0.174c0.124 0 0.229-0.033 0.317-0.098s0.157-0.169 0.208-0.311zM20.728 19.377h1.112c-0.015-0.167-0.057-0.293-0.127-0.377-0.108-0.13-0.247-0.195-0.418-0.195-0.155 0-0.285 0.052-0.391 0.156s-0.164 0.243-0.175 0.416z"></path>
<path d="M22.551 20.564v-1.991h0.302v0.279c0.063-0.098 0.146-0.176 0.249-0.236s0.222-0.089 0.355-0.089c0.148 0 0.268 0.031 0.363 0.092s0.161 0.147 0.2 0.257c0.157-0.233 0.363-0.349 0.615-0.349 0.197 0 0.349 0.055 0.455 0.164s0.159 0.278 0.159 0.505v1.367h-0.335v-1.254c0-0.135-0.011-0.232-0.033-0.292s-0.061-0.107-0.119-0.143-0.125-0.054-0.203-0.054c-0.14 0-0.256 0.046-0.349 0.14s-0.139 0.242-0.139 0.447v1.157h-0.338v-1.294c0-0.15-0.028-0.262-0.083-0.337s-0.145-0.113-0.27-0.113c-0.095 0-0.183 0.025-0.264 0.075s-0.139 0.123-0.175 0.22c-0.036 0.096-0.054 0.235-0.054 0.416v1.033h-0.338z"></path>
<path d="M27.056 19.922l0.349 0.043c-0.055 0.204-0.157 0.362-0.306 0.474s-0.339 0.169-0.57 0.169c-0.291 0-0.522-0.090-0.693-0.269s-0.256-0.431-0.256-0.755c0-0.335 0.086-0.595 0.259-0.78s0.396-0.277 0.671-0.277c0.266 0 0.484 0.091 0.652 0.272s0.253 0.436 0.253 0.765c0 0.020-0.001 0.050-0.002 0.090h-1.485c0.012 0.219 0.075 0.386 0.186 0.503s0.25 0.174 0.416 0.174c0.124 0 0.229-0.033 0.317-0.098s0.157-0.169 0.208-0.311zM25.947 19.377h1.112c-0.015-0.167-0.057-0.293-0.127-0.377-0.108-0.13-0.247-0.195-0.418-0.195-0.155 0-0.285 0.052-0.391 0.156s-0.164 0.243-0.175 0.416z"></path>
<path d="M27.77 20.564v-1.991h0.304v0.283c0.146-0.219 0.357-0.328 0.634-0.328 0.12 0 0.23 0.021 0.331 0.065s0.176 0.1 0.226 0.17c0.050 0.070 0.085 0.153 0.105 0.25 0.012 0.062 0.019 0.172 0.019 0.328v1.224h-0.337v-1.211c0-0.138-0.013-0.24-0.039-0.308s-0.073-0.123-0.14-0.163c-0.067-0.041-0.145-0.061-0.235-0.061-0.144 0-0.268 0.046-0.372 0.137s-0.157 0.264-0.157 0.519v1.087h-0.337z"></path>
<path d="M30.585 20.262l0.049 0.298c-0.095 0.020-0.18 0.030-0.255 0.030-0.123 0-0.218-0.019-0.285-0.058s-0.115-0.090-0.142-0.153-0.041-0.196-0.041-0.398v-1.146h-0.247v-0.262h0.247v-0.493l0.336-0.203v0.696h0.339v0.262h-0.339v1.164c0 0.096 0.006 0.158 0.018 0.186s0.031 0.049 0.058 0.066c0.027 0.016 0.065 0.024 0.115 0.024 0.038 0 0.087-0.004 0.148-0.013z"></path>
</svg>
