<!-- Generated by IcoMoon.io -->
<svg version="1.1" xmlns="http://www.w3.org/2000/svg" width="32" height="32" viewBox="0 0 32 32">
<title>victraim</title>
<path d="M12.373 14.816h4.208v3.228c-0.633 2.219-3.47 2.163-4.163 0v-3.228z"></path>
<path d="M12.373 14.54h4.208v-3.117c-0.633-2.143-3.47-2.089-4.163 0v3.117z"></path>
<path d="M16.038 17.68l-0.244 0.158c-0 0.016-0.001 0.038-0.003 0.067h0.247v0.109h-0.591c0-0.006-0.001-0.029-0.003-0.068s-0.003-0.071-0.003-0.096c0-0.15 0.058-0.225 0.174-0.225 0.035 0 0.067 0.010 0.096 0.031s0.049 0.047 0.061 0.078l0.266-0.175v0.121zM15.538 17.905h0.164c0.002-0.019 0.002-0.034 0.002-0.044 0-0.044-0.006-0.076-0.018-0.096s-0.036-0.031-0.072-0.031c-0.029 0-0.049 0.011-0.061 0.033s-0.017 0.056-0.017 0.103c0 0.011 0.001 0.023 0.002 0.036z"></path>
<path d="M16.038 17.237l-0.141 0.111 0.141 0.1v0.119l-0.221-0.166-0.211 0.153v-0.116l0.132-0.091-0.132-0.102v-0.115l0.211 0.166 0.221-0.181v0.122z"></path>
<path d="M31.583 19.44h-2.106l-1.27-5.072-2.465 5.194h-0.777l-2.465-5.194-1.32 5.072h-2.097l2.465-9.413h1.153l2.649 6.337 2.59-6.337h1.145l2.498 9.413z"></path>
<path d="M7.984 19.434l-0.784-1.907h-3.679l-0.748 1.907h-2.118l4.281-9.535h0.836l4.317 9.535h-2.104zM5.353 12.776l-1.29 3.474h2.58l-1.29-3.474z"></path>
</svg>
