<!-- Generated by IcoMoon.io -->
<svg version="1.1" xmlns="http://www.w3.org/2000/svg" width="39" height="32" viewBox="0 0 39 32">
<title>vumc</title>
<path d="M38.060 1.164v2.024l-1.206 0.008c-1.321 0.307-2.249 0.964-2.748 2.002l-10.345 26.397h-8.212l-10.919-27.062c-0.427-0.895-1.093-1.339-1.999-1.326h-1.649v-2.019h16.672v2.070h-2.118c-0.935 0.188-1.132 0.695-0.6 1.515l2.079 1.869c0.716 0.638 1.361 1.359 1.826 2.287 0.204 0.716-0.040 1.066-0.868 0.989-0.485-0.046-0.899-0.23-1.437-0.464-0.546-0.163-1.115-0.245-1.723-0.199-0.398 0.012-0.647 0.178-0.76 0.484-0.155 0.46-0.118 0.883 0.122 1.264 1.027 1.306 2.414 2.079 3.994 2.567 1.034 0.546 1.798 1.29 2.404 2.181l1.117 3.424-1.095-0.341c-0.489-0.145-0.799-0.459-0.941-0.93l-0.581-1.312c-0.051-0.192-0.205-0.279-0.458-0.266-0.288 0.019-0.436 0.185-0.429 0.513-0.029 1.269-0.301 2.406-0.971 3.327-0.108 0.735 0.184 0.88 0.815 0.525l1.479-0.983c0.281-0.031 0.557-0.010 0.834 0.034 0.424 0.066 0.805 0.189 1.218 0.392 0.325 0.216 0.612 0.485 0.866 0.801l1.248 3.537 1.193 0.105-0.518-1.627c-0.47-1.247-0.225-2.273 0.338-3.199l2.771-3.6c0.247-1.049 0.363-1.942-0.554-1.601l-1.438 0.714c-0.486 0.106-0.965 0.201-1.106-0.283-0.036-0.699 0.151-1.311 0.498-1.861l2.906-4.042c0.248-0.502 0.032-0.899-0.334-1.262-0.189-0.268-0.458-0.354-0.842-0.179l-2.623 1.695c-0.366 0.359-0.754 0.387-1.164 0.085-0.54-0.718-0.358-1.405 0.168-2.075l1.82-2.721c0.537-1.068 0.011-1.467-1.143-1.47h-2.228v-1.981h16.642zM16.612 20.018c0.594-1.078 1.047-2.203 0.888-3.534-0.465-0.138-1.007-0.222-1.631-0.249-0.43-0.019-2.297 0.884-1.448 2.682 0.497 0.565 1.216 0.942 2.19 1.101z"></path>
<path d="M38.060 1.164v2.024l-1.206 0.008c-1.321 0.307-2.249 0.964-2.748 2.002l-10.345 26.397h-8.212l-10.919-27.062c-0.427-0.895-1.093-1.339-1.999-1.326h-1.649v-2.019h16.672v2.070h-2.118c-0.935 0.188-1.132 0.695-0.6 1.515l2.079 1.869c0.716 0.638 1.361 1.359 1.826 2.287 0.204 0.716-0.040 1.066-0.868 0.989-0.485-0.046-0.899-0.23-1.437-0.464-0.546-0.163-1.115-0.245-1.723-0.199-0.398 0.012-0.647 0.178-0.76 0.484-0.155 0.46-0.118 0.883 0.122 1.264 1.027 1.306 2.414 2.079 3.994 2.567 1.034 0.546 1.798 1.29 2.404 2.181l1.117 3.424-1.095-0.341c-0.489-0.145-0.799-0.459-0.941-0.93l-0.581-1.312c-0.051-0.192-0.205-0.279-0.458-0.266-0.288 0.019-0.436 0.185-0.429 0.513-0.029 1.269-0.301 2.406-0.971 3.327-0.108 0.735 0.184 0.88 0.815 0.525l1.479-0.983c0.281-0.031 0.557-0.010 0.834 0.034 0.424 0.066 0.805 0.189 1.218 0.392 0.325 0.216 0.612 0.485 0.866 0.801l1.248 3.537 1.193 0.105-0.518-1.627c-0.47-1.247-0.225-2.273 0.338-3.199l2.771-3.6c0.247-1.049 0.363-1.942-0.554-1.601l-1.438 0.714c-0.486 0.106-0.965 0.201-1.106-0.283-0.036-0.699 0.151-1.311 0.498-1.861l2.906-4.042c0.248-0.502 0.032-0.899-0.334-1.262-0.189-0.268-0.458-0.354-0.842-0.179l-2.623 1.695c-0.366 0.359-0.754 0.387-1.164 0.085-0.54-0.718-0.358-1.405 0.168-2.075l1.82-2.721c0.537-1.068 0.011-1.467-1.143-1.47h-2.228v-1.981h16.642zM16.612 20.018c0.594-1.078 1.047-2.203 0.888-3.534-0.465-0.138-1.007-0.222-1.631-0.249-0.43-0.019-2.297 0.884-1.448 2.682 0.497 0.565 1.216 0.942 2.19 1.101z"></path>
<path d="M38.060 1.164v2.024l-1.206 0.008c-1.321 0.307-2.249 0.964-2.748 2.002l-10.345 26.397h-8.212l-10.919-27.062c-0.427-0.895-1.093-1.339-1.999-1.326h-1.649v-2.019h16.672v2.070h-2.118c-0.935 0.188-1.132 0.695-0.6 1.515l2.079 1.869c0.716 0.638 1.361 1.359 1.826 2.287 0.204 0.716-0.040 1.066-0.868 0.989-0.485-0.046-0.899-0.23-1.437-0.464-0.546-0.163-1.115-0.245-1.723-0.199-0.398 0.012-0.647 0.178-0.76 0.484-0.155 0.46-0.118 0.883 0.122 1.264 1.027 1.306 2.414 2.079 3.994 2.567 1.034 0.546 1.798 1.29 2.404 2.181l1.117 3.424-1.095-0.341c-0.489-0.145-0.799-0.459-0.941-0.93l-0.581-1.312c-0.051-0.192-0.205-0.279-0.458-0.266-0.288 0.019-0.436 0.185-0.429 0.513-0.029 1.269-0.301 2.406-0.971 3.327-0.108 0.735 0.184 0.88 0.815 0.525l1.479-0.983c0.281-0.031 0.557-0.010 0.834 0.034 0.424 0.066 0.805 0.189 1.218 0.392 0.325 0.216 0.612 0.485 0.866 0.801l1.248 3.537 1.193 0.105-0.518-1.627c-0.47-1.247-0.225-2.273 0.338-3.199l2.771-3.6c0.247-1.049 0.363-1.942-0.554-1.601l-1.438 0.714c-0.486 0.106-0.965 0.201-1.106-0.283-0.036-0.699 0.151-1.311 0.498-1.861l2.906-4.042c0.248-0.502 0.032-0.899-0.334-1.262-0.189-0.268-0.458-0.354-0.842-0.179l-2.623 1.695c-0.366 0.359-0.754 0.387-1.164 0.085-0.54-0.718-0.358-1.405 0.168-2.075l1.82-2.721c0.537-1.068 0.011-1.467-1.143-1.47h-2.228v-1.981h16.642zM16.612 20.018c0.594-1.078 1.047-2.203 0.888-3.534-0.465-0.138-1.007-0.222-1.631-0.249-0.43-0.019-2.297 0.884-1.448 2.682 0.497 0.565 1.216 0.942 2.19 1.101z"></path>
</svg>
