<?xml version="1.0" encoding="UTF-8" standalone="no"?>
<!DOCTYPE svg PUBLIC "-//W3C//DTD SVG 1.1//EN" "http://www.w3.org/Graphics/SVG/1.1/DTD/svg11.dtd">
<svg width="100%" height="100%" viewBox="0 0 100 100" version="1.1" xmlns="http://www.w3.org/2000/svg" xmlns:xlink="http://www.w3.org/1999/xlink" xml:space="preserve" xmlns:serif="http://www.serif.com/" style="fill-rule:evenodd;clip-rule:evenodd;stroke-linejoin:round;stroke-miterlimit:1.41421;">
    <g id="cds_kb">
        <g transform="matrix(1,0,0,1,-1,0)">
            <path d="M23.762,51.243L26.648,52.158C26.206,53.768 25.47,54.963 24.44,55.744C23.411,56.525 22.105,56.915 20.523,56.915C18.565,56.915 16.956,56.247 15.696,54.909C14.435,53.571 13.805,51.743 13.805,49.423C13.805,46.969 14.438,45.063 15.706,43.705C16.973,42.347 18.639,41.669 20.704,41.669C22.508,41.669 23.973,42.202 25.099,43.268C25.77,43.898 26.273,44.803 26.608,45.983L23.661,46.687C23.487,45.923 23.123,45.319 22.57,44.877C22.017,44.434 21.344,44.213 20.553,44.213C19.46,44.213 18.574,44.605 17.893,45.39C17.213,46.174 16.872,47.445 16.872,49.202C16.872,51.065 17.208,52.393 17.878,53.184C18.549,53.975 19.42,54.371 20.493,54.371C21.284,54.371 21.965,54.12 22.535,53.617C23.105,53.114 23.514,52.323 23.762,51.243Z" style="fill-rule:nonzero;"/>
            <path d="M28.533,41.92L33.974,41.92C35.201,41.92 36.137,42.014 36.78,42.202C37.645,42.456 38.386,42.909 39.003,43.559C39.62,44.21 40.089,45.006 40.411,45.948C40.733,46.89 40.894,48.052 40.894,49.433C40.894,50.646 40.743,51.692 40.441,52.571C40.072,53.643 39.546,54.512 38.862,55.176C38.346,55.678 37.649,56.071 36.77,56.352C36.113,56.56 35.235,56.664 34.135,56.664L28.533,56.664L28.533,41.92ZM31.51,44.414L31.51,54.18L33.733,54.18C34.564,54.18 35.165,54.133 35.533,54.039C36.016,53.918 36.417,53.714 36.735,53.426C37.054,53.137 37.313,52.663 37.515,52.002C37.716,51.342 37.816,50.442 37.816,49.302C37.816,48.162 37.716,47.287 37.515,46.677C37.313,46.067 37.032,45.591 36.67,45.249C36.308,44.907 35.848,44.676 35.292,44.555C34.876,44.461 34.062,44.414 32.848,44.414L31.51,44.414Z" style="fill-rule:nonzero;"/>
            <path d="M42.005,51.867L44.901,51.585C45.076,52.557 45.429,53.271 45.962,53.727C46.495,54.183 47.214,54.411 48.12,54.411C49.078,54.411 49.801,54.208 50.287,53.803C50.773,53.397 51.016,52.923 51.016,52.38C51.016,52.031 50.914,51.734 50.709,51.49C50.505,51.245 50.148,51.032 49.638,50.851C49.29,50.73 48.495,50.516 47.255,50.207C45.659,49.812 44.539,49.326 43.896,48.749C42.99,47.938 42.538,46.949 42.538,45.782C42.538,45.031 42.751,44.329 43.176,43.675C43.602,43.021 44.216,42.523 45.017,42.182C45.818,41.84 46.785,41.669 47.918,41.669C49.769,41.669 51.162,42.074 52.097,42.886C53.033,43.697 53.524,44.78 53.571,46.134L50.594,46.265C50.466,45.507 50.193,44.962 49.774,44.63C49.355,44.299 48.726,44.133 47.888,44.133C47.023,44.133 46.346,44.31 45.857,44.666C45.542,44.894 45.384,45.199 45.384,45.581C45.384,45.93 45.532,46.228 45.827,46.476C46.202,46.791 47.114,47.12 48.562,47.462C50.01,47.804 51.081,48.157 51.775,48.523C52.469,48.888 53.012,49.388 53.405,50.021C53.797,50.655 53.993,51.438 53.993,52.37C53.993,53.214 53.758,54.006 53.289,54.743C52.82,55.481 52.156,56.029 51.298,56.387C50.439,56.746 49.37,56.926 48.089,56.926C46.225,56.926 44.794,56.495 43.795,55.633C42.796,54.772 42.199,53.516 42.005,51.867Z" style="fill-rule:nonzero;"/>
        </g>
        <g transform="matrix(0.97,0,0,1,50.3849,0)">
            <path d="M14.338,56.664L14.338,41.92L16.289,41.92L16.289,49.232L23.611,41.92L26.256,41.92L20.071,47.894L26.527,56.664L23.953,56.664L18.703,49.202L16.289,51.555L16.289,56.664L14.338,56.664Z" style="fill-rule:nonzero;"/>
            <path d="M27.479,56.664L27.479,41.92L33.01,41.92C34.137,41.92 35.04,42.069 35.721,42.368C36.401,42.666 36.934,43.125 37.32,43.745C37.705,44.366 37.898,45.014 37.898,45.692C37.898,46.322 37.727,46.915 37.385,47.472C37.043,48.028 36.527,48.477 35.836,48.819C36.728,49.081 37.414,49.527 37.893,50.157C38.373,50.787 38.612,51.531 38.612,52.39C38.612,53.08 38.466,53.722 38.175,54.316C37.883,54.909 37.523,55.367 37.094,55.688C36.664,56.01 36.126,56.253 35.479,56.418C34.832,56.582 34.04,56.664 33.101,56.664L27.479,56.664ZM29.43,48.115L32.618,48.115C33.483,48.115 34.103,48.058 34.479,47.944C34.975,47.797 35.349,47.552 35.6,47.21C35.852,46.868 35.977,46.439 35.977,45.923C35.977,45.433 35.86,45.003 35.625,44.63C35.391,44.258 35.055,44.004 34.62,43.866C34.184,43.729 33.436,43.66 32.377,43.66L29.43,43.66L29.43,48.115ZM29.43,54.924L33.101,54.924C33.731,54.924 34.174,54.901 34.428,54.854C34.878,54.773 35.253,54.639 35.555,54.451C35.857,54.264 36.105,53.99 36.299,53.632C36.494,53.273 36.591,52.859 36.591,52.39C36.591,51.84 36.45,51.362 36.168,50.957C35.887,50.551 35.496,50.266 34.997,50.102C34.497,49.937 33.778,49.855 32.839,49.855L29.43,49.855L29.43,54.924Z" style="fill-rule:nonzero;"/>
        </g>
        <g transform="matrix(0.97,0,0,1,39.4181,-3.72905)">
            <rect x="12.518" y="59.45" width="11.998" height="1.307" style="fill-rule:nonzero;"/>
        </g>
    </g>
</svg>
