<?xml version="1.0" encoding="UTF-8" standalone="no"?>
<!DOCTYPE svg PUBLIC "-//W3C//DTD SVG 1.1//EN" "http://www.w3.org/Graphics/SVG/1.1/DTD/svg11.dtd">
<svg width="100%" height="100%" viewBox="0 0 100 100" version="1.1" xmlns="http://www.w3.org/2000/svg" xmlns:xlink="http://www.w3.org/1999/xlink" xml:space="preserve" xmlns:serif="http://www.serif.com/" style="fill-rule:evenodd;clip-rule:evenodd;stroke-linejoin:round;stroke-miterlimit:1.41421;">
    <g transform="matrix(1,0,0,1,6.36002,3.08822)">
        <g id="crc">
            <path d="M28.752,48.769L32.956,50.102C32.312,52.445 31.24,54.186 29.741,55.324C28.242,56.461 26.34,57.03 24.035,57.03C21.184,57.03 18.84,56.056 17.004,54.108C15.168,52.16 14.25,49.496 14.25,46.117C14.25,42.543 15.173,39.767 17.019,37.79C18.864,35.812 21.291,34.823 24.299,34.823C26.926,34.823 29.06,35.6 30.7,37.152C31.677,38.07 32.409,39.389 32.898,41.107L28.606,42.133C28.352,41.019 27.822,40.141 27.016,39.496C26.211,38.852 25.232,38.529 24.079,38.529C22.488,38.529 21.196,39.101 20.205,40.243C19.214,41.386 18.718,43.236 18.718,45.795C18.718,48.51 19.206,50.443 20.183,51.596C21.159,52.748 22.429,53.324 23.991,53.324C25.144,53.324 26.135,52.958 26.965,52.226C27.795,51.493 28.391,50.341 28.752,48.769Z" style="fill-rule:nonzero;"/>
            <path d="M35.732,56.664L35.732,35.189L44.858,35.189C47.153,35.189 48.82,35.382 49.86,35.768C50.9,36.154 51.733,36.84 52.358,37.826C52.983,38.812 53.295,39.94 53.295,41.21C53.295,42.821 52.821,44.152 51.874,45.202C50.927,46.251 49.511,46.913 47.626,47.186C48.564,47.733 49.338,48.334 49.948,48.988C50.558,49.643 51.381,50.805 52.416,52.475L55.038,56.664L49.853,56.664L46.718,51.991C45.605,50.321 44.843,49.269 44.433,48.834C44.023,48.4 43.588,48.102 43.129,47.941C42.67,47.78 41.943,47.699 40.946,47.699L40.068,47.699L40.068,56.664L35.732,56.664ZM40.068,44.271L43.276,44.271C45.356,44.271 46.654,44.184 47.172,44.008C47.69,43.832 48.095,43.529 48.388,43.1C48.681,42.67 48.827,42.133 48.827,41.488C48.827,40.766 48.634,40.182 48.249,39.738C47.863,39.293 47.319,39.013 46.615,38.895C46.264,38.847 45.209,38.822 43.451,38.822L40.068,38.822L40.068,44.271Z" style="fill-rule:nonzero;"/>
            <path d="M70.162,48.769L74.366,50.102C73.722,52.445 72.65,54.186 71.151,55.324C69.652,56.461 67.75,57.03 65.445,57.03C62.594,57.03 60.25,56.056 58.414,54.108C56.578,52.16 55.66,49.496 55.66,46.117C55.66,42.543 56.583,39.767 58.429,37.79C60.275,35.812 62.701,34.823 65.709,34.823C68.336,34.823 70.47,35.6 72.111,37.152C73.087,38.07 73.819,39.389 74.308,41.107L70.016,42.133C69.762,41.019 69.232,40.141 68.426,39.496C67.621,38.852 66.642,38.529 65.489,38.529C63.898,38.529 62.606,39.101 61.615,40.243C60.624,41.386 60.128,43.236 60.128,45.795C60.128,48.51 60.616,50.443 61.593,51.596C62.569,52.748 63.839,53.324 65.402,53.324C66.554,53.324 67.545,52.958 68.375,52.226C69.205,51.493 69.801,50.341 70.162,48.769Z" style="fill-rule:nonzero;"/>
        </g>
    </g>
</svg>
