<?xml version="1.0" encoding="UTF-8" standalone="no"?>
<!DOCTYPE svg PUBLIC "-//W3C//DTD SVG 1.1//EN" "http://www.w3.org/Graphics/SVG/1.1/DTD/svg11.dtd">
<svg width="100%" height="100%" viewBox="0 0 100 100" version="1.1" xmlns="http://www.w3.org/2000/svg" xmlns:xlink="http://www.w3.org/1999/xlink" xml:space="preserve" xmlns:serif="http://www.serif.com/" style="fill-rule:evenodd;clip-rule:evenodd;stroke-linejoin:round;stroke-miterlimit:1.41421;">
    <g id="dnascan">
        <g>
            <path d="M50.716,1.932C72.535,2.14 93.107,18.977 97.144,40.762C99.991,56.122 94.685,72.779 83.402,83.665C70.24,96.364 49.469,100.559 32.181,93.367C17.009,87.054 5.621,72.386 3.34,56.104C0.51,35.904 12.257,14.548 30.855,6.133C37.067,3.323 43.894,1.911 50.716,1.932ZM50.121,4.932C29.776,5.126 10.709,20.696 6.729,40.763C3.863,55.212 8.735,70.996 19.308,81.32C31.596,93.319 51.087,97.303 67.234,90.7C81.49,84.871 92.237,71.188 94.468,55.965C97.228,37.131 86.474,17.155 69.219,9.093C63.27,6.314 56.736,4.911 50.121,4.932Z" style="fill-rule:nonzero;"/>
            <path d="M33.708,19.827C34.202,19.912 34.559,20.304 34.581,20.819L34.581,26.872C35.833,30.73 39.697,33.165 43.808,34.125C43.808,34.125 48.458,36.05 50.852,38.806C50.852,38.806 51.292,42.237 49.061,39.803C47.493,38.121 45.459,36.928 43.322,36.075C43.322,36.075 35.146,34.262 32.838,27.952C32.727,27.647 32.593,27.348 32.581,27.027L32.581,20.819C32.606,20.225 32.907,19.759 33.708,19.827Z" style="fill-rule:nonzero;"/>
            <path d="M54.016,20.001C54.763,20.13 54.882,20.311 54.92,21.018L54.791,26.961C54.647,28.8 53.973,29.367 53.366,30.194C50.703,33.826 46.086,35.072 41.91,37.538C37.752,41.241 32.908,45.856 34.531,52.225C35.724,56.906 39.796,60.906 44.487,62.898C48.491,64.632 52.254,67.19 54.616,70.803C54.737,70.987 54.846,71.042 54.881,71.502L54.92,77.745C54.846,78.826 53.029,79.1 52.92,77.758L52.883,71.808C52.575,71.343 52.24,70.896 51.883,70.469C49.574,67.707 46.369,65.821 43.049,64.466C43.049,64.466 26.3,55.187 34.83,42.264C36.402,39.883 38.507,37.89 40.652,35.98C40.652,35.98 45.232,33.754 48.788,31.56C50.589,30.448 52.24,28.864 52.794,26.805C52.794,26.805 52.935,20.826 52.935,20.826C53.115,20.107 53.25,19.985 54.016,20.001Z" style="fill-rule:nonzero;"/>
            <path d="M42.671,63.025C45.104,63.243 43.726,64.637 42.307,65.234C41.734,65.479 41.165,65.735 40.607,66.013C40.157,66.236 39.713,66.472 39.279,66.725C38.991,66.892 38.708,67.067 38.43,67.251C38.172,67.422 37.918,67.602 37.671,67.79C36.363,68.791 35.149,70.181 35.061,71.905C34.973,74.334 35.301,77.609 34.523,78.307C33.953,78.818 32.857,78.393 32.856,77.526C32.956,74.755 32.682,71.772 33.527,69.743C35.014,66.17 38.906,64.451 42.242,63.097C42.242,63.097 42.317,63.019 42.671,63.025Z" style="fill-rule:nonzero;"/>
            <path d="M53.177,44.793C54.886,45.001 55.578,48.4 55.571,50.601C55.559,54.266 52.894,57.79 49.335,59.951C49.335,59.951 46.139,59.634 48.74,57.965C50.699,56.684 52.325,54.931 53.266,52.77C53.266,52.77 53.755,50.724 53.409,49.014L52.149,46.125C51.938,45.459 52.29,44.748 53.177,44.793Z" style="fill-rule:nonzero;"/>
            <path d="M50.793,22.734C51.68,22.875 51.259,23.705 50.741,23.732L36.684,23.732C35.803,23.685 36.12,22.761 36.684,22.732C41.387,22.732 46.097,22.488 50.793,22.734Z" style="fill-rule:nonzero;"/>
            <path d="M49.778,25.827C50.277,25.901 50.363,26.735 49.778,26.822C45.685,27.023 41.582,26.824 37.484,26.824C36.617,26.782 36.915,25.904 37.435,25.827C41.544,25.625 45.668,25.625 49.778,25.827Z" style="fill-rule:nonzero;"/>
            <path d="M46.275,28.951C46.777,29.001 46.885,29.887 46.275,29.949C44.376,30.012 42.475,30.012 40.576,29.949C40.062,29.897 40.019,29.007 40.576,28.951C42.475,28.887 44.376,28.887 46.275,28.951Z" style="fill-rule:nonzero;"/>
            <path d="M44.843,39.462C45.332,39.496 45.517,40.414 44.843,40.461C43.689,40.488 42.177,40.66 41.78,40.361C41.459,40.118 41.594,39.515 42.035,39.464C42.968,39.399 43.907,39.44 44.843,39.462Z" style="fill-rule:nonzero;"/>
            <path d="M43.079,42.768C43.581,42.811 43.694,43.714 43.079,43.767C41.671,43.807 40.261,43.807 38.853,43.767C38.351,43.724 38.238,42.821 38.853,42.768C40.261,42.728 41.671,42.728 43.079,42.768Z" style="fill-rule:nonzero;"/>
            <path d="M40.899,45.695C41.397,45.737 41.504,46.643 40.899,46.694C39.552,46.732 38.203,46.732 36.856,46.694C36.358,46.652 36.251,45.746 36.856,45.695C38.203,45.658 39.552,45.658 40.899,45.695Z" style="fill-rule:nonzero;"/>
            <path d="M39.153,49.023C39.642,49.058 39.838,49.973 39.153,50.022C37.953,50.051 36.362,50.18 35.974,49.956C35.61,49.746 35.708,49.059 36.2,49.023C37.184,49 38.169,49 39.153,49.023Z" style="fill-rule:nonzero;"/>
            <path d="M38.549,52.33C39.056,52.356 39.144,53.28 38.566,53.329C37.932,53.361 37.155,53.461 36.829,53.25C36.48,53.024 36.605,52.355 37.084,52.33C37.572,52.322 38.061,52.322 38.549,52.33Z" style="fill-rule:nonzero;"/>
            <path d="M50.548,47.557C51.058,47.597 51.115,48.511 50.548,48.556C49.388,48.586 48.226,48.586 47.065,48.556C46.576,48.517 46.405,47.609 47.065,47.557C48.226,47.527 49.388,47.527 50.548,47.557Z" style="fill-rule:nonzero;"/>
            <path d="M51.153,50.264C51.656,50.311 51.774,51.203 51.153,51.262C49.472,51.315 47.788,51.315 46.106,51.262C45.604,51.214 45.485,50.323 46.106,50.264C47.788,50.211 49.472,50.211 51.153,50.264Z" style="fill-rule:nonzero;"/>
            <path d="M50.828,52.404C51.332,52.454 51.444,53.342 50.828,53.402C48.993,53.462 47.156,53.462 45.322,53.402C44.818,53.353 44.706,52.465 45.322,52.404C47.156,52.344 48.993,52.344 50.828,52.404Z" style="fill-rule:nonzero;"/>
            <path d="M49.209,54.766C49.713,54.809 49.822,55.713 49.209,55.765C47.866,55.802 46.522,55.802 45.179,55.765C44.676,55.722 44.566,54.818 45.179,54.766C46.522,54.729 47.866,54.729 49.209,54.766Z" style="fill-rule:nonzero;"/>
            <path d="M47.478,56.862C47.965,56.887 48.18,57.824 47.478,57.861C46.816,57.873 45.997,57.991 45.668,57.785C45.319,57.567 45.421,56.904 45.898,56.863C46.424,56.835 46.951,56.852 47.478,56.862Z" style="fill-rule:nonzero;"/>
            <path d="M52.216,40.876C60.287,41.029 66.84,50.523 63.057,58.369C59.752,65.223 49.346,67.352 43.64,61.911C36.942,55.525 40.741,41.088 51.901,40.876C52.058,40.875 52.058,40.875 52.216,40.876ZM51.933,43.376C45.528,43.497 40.308,51.054 43.311,57.283C46.756,64.428 60.326,64.011 61.668,54.436C62.438,48.939 57.915,43.338 51.933,43.376Z" style="fill-rule:nonzero;"/>
            <path d="M74.181,71.648L60.825,58.554L57.296,62.153L70.653,75.247L74.181,71.648Z"/>
            <path d="M47.889,68.902C48.394,68.964 48.454,69.83 47.889,69.899C45.029,70.014 42.165,69.901 39.303,69.901C38.767,69.879 38.709,68.97 39.262,68.902C42.136,68.787 45.016,68.787 47.889,68.902Z" style="fill-rule:nonzero;"/>
            <path d="M49.8,71.963C50.294,72.036 50.366,72.874 49.8,72.958C45.656,73.162 41.502,72.96 37.353,72.96C37.03,72.945 36.973,72.812 36.912,72.696C36.755,72.404 36.951,72.015 37.304,71.963C41.464,71.758 45.639,71.758 49.8,71.963Z" style="fill-rule:nonzero;"/>
            <path d="M50.78,75.32C51.666,75.461 51.245,76.29 50.727,76.317L36.62,76.317C35.687,76.269 36.052,75.347 36.62,75.317C41.34,75.317 46.066,75.073 50.78,75.32Z" style="fill-rule:nonzero;"/>
        </g>
    </g>
</svg>
