<?xml version="1.0" encoding="UTF-8" standalone="no"?>
<!DOCTYPE svg PUBLIC "-//W3C//DTD SVG 1.1//EN" "http://www.w3.org/Graphics/SVG/1.1/DTD/svg11.dtd">
<svg width="100%" height="100%" viewBox="0 0 350 350" version="1.1" xmlns="http://www.w3.org/2000/svg" xmlns:xlink="http://www.w3.org/1999/xlink" xml:space="preserve" xmlns:serif="http://www.serif.com/" style="fill-rule:evenodd;clip-rule:evenodd;stroke-linejoin:round;stroke-miterlimit:1.41421;">
    <g transform="matrix(1,0,0,1,106.65,26.665)">
        <path d="M25.45,55.94L78.73,35.01" style="fill-rule:nonzero;"/>
    </g>
    <g transform="matrix(1,0,0,1,28.41,-55.065)">
        <path d="M103.69,137.67C107.259,134.215 111.254,131.231 115.58,128.79C119.724,126.388 124.043,124.303 128.5,122.55C132.956,120.79 137.539,119.373 142.21,118.31C147.052,117.153 152.023,116.625 157,116.74C153.438,120.201 149.445,123.188 145.12,125.63C140.976,128.034 136.653,130.117 132.19,131.86C127.731,133.613 123.144,135.024 118.47,136.08C113.631,137.239 108.664,137.774 103.69,137.67Z" style="fill:rgb(247,148,29);fill-rule:nonzero;"/>
    </g>
    <g transform="matrix(1,0,0,1,28.41,-55.065)">
        <path d="M88.896,109.668C91.409,110.771 93.695,112.331 94.659,114.801C95.31,116.471 95.271,118.278 95.393,119.966C96.675,136.992 101.211,153.816 109.51,168.802C122.984,193.132 145.109,211.912 165.153,230.52C179.784,244.138 194.479,257.791 205.718,274.821C216.516,291.182 222.621,311.804 216.998,330.589C209.835,354.522 184.928,370.509 161.035,375.675C153.756,377.249 146.318,378.041 138.853,378.165L138.505,378.169C136.205,377.837 135.459,378.006 133.488,376.614C128.63,373.184 129.198,363.817 135.654,361.622C137.31,361.059 139.08,361.169 140.752,361.111C156.85,360.506 173.253,356.251 185.9,346.393C195.989,338.529 202.836,326.578 202.191,313.21C201.355,295.884 190.123,280.93 179.497,268.965C151.777,237.753 115.265,213.793 95.01,177.704C84.955,159.789 79.532,139.436 78.281,118.846C78.281,118.846 78.175,117.044 78.518,115.734C79.204,113.116 81.2,110.927 83.651,109.971C85.293,109.331 87.121,109.491 88.896,109.668Z" style="fill-rule:nonzero;"/>
    </g>
    <g transform="matrix(1,0,0,1,28.41,-55.065)">
        <path d="M162.775,82.614C165.761,84.734 167.578,88.269 169.281,91.578C178.276,109.06 186.63,127.126 187.944,147.226C189.355,168.811 185.083,190.766 181.639,212.158C174.814,254.128 161.374,294.881 151.657,336.506C149.003,347.873 146.741,359.349 145.349,370.916L144.622,373.474C143.327,375.404 143.157,376.149 141.049,377.324C137.248,379.443 131.688,377.989 129.486,374.039C128.049,371.461 128.31,370.047 128.758,366.573C135.614,313.364 156.101,263.558 164.857,209.443C169.186,182.686 175.313,155.323 167.655,130.21C163.818,117.626 157.602,105.885 151.47,94.173L150.62,91.653C150.6,89.869 150.601,88.034 151.384,86.455C152.586,84.03 154.984,82.29 157.577,81.85C159.315,81.555 161.072,82.082 162.775,82.614Z" style="fill-rule:nonzero;"/>
    </g>
    <g transform="matrix(1,0,0,1,106.65,26.665)">
        <path d="M88.21,213.19L118.7,222.86" style="fill-rule:nonzero;"/>
    </g>
    <g transform="matrix(1,0,0,1,28.41,-55.065)">
        <path d="M166.45,294.92C169.277,293.741 172.318,293.162 175.38,293.22C178.095,293.257 180.791,293.691 183.38,294.51C185.964,295.322 188.414,296.511 190.65,298.04C193.187,299.76 195.336,301.991 196.96,304.59C194.127,305.785 191.074,306.368 188,306.3C182.554,306.219 177.251,304.532 172.76,301.45C170.228,299.733 168.079,297.51 166.45,294.92Z" style="fill:rgb(247,148,29);fill-rule:nonzero;"/>
    </g>
    <g transform="matrix(1,0,0,1,106.65,26.665)">
        <path d="M37.05,81.07L85.71,67.9" style="fill-rule:nonzero;"/>
    </g>
    <g transform="matrix(1,0,0,1,28.41,-55.065)">
        <path d="M115.29,162.81C118.556,159.779 122.266,157.263 126.29,155.35C130.09,153.497 134.058,152.01 138.14,150.91C142.217,149.787 146.393,149.06 150.61,148.74C155.063,148.35 159.549,148.65 163.91,149.63C160.648,152.669 156.938,155.188 152.91,157.1C149.107,158.953 145.136,160.436 141.05,161.53C136.967,162.637 132.788,163.356 128.57,163.68C124.125,164.061 119.648,163.768 115.29,162.81Z" style="fill:rgb(247,148,29);fill-rule:nonzero;"/>
    </g>
    <g transform="matrix(1,0,0,1,106.65,26.665)">
        <path d="M50.4,105.67L88.63,95.49" style="fill-rule:nonzero;"/>
    </g>
    <g transform="matrix(1,0,0,1,28.41,-55.065)">
        <path d="M128.63,187.4C131.018,184.671 133.881,182.398 137.08,180.69C140.007,179.092 143.116,177.853 146.34,177C149.553,176.125 152.861,175.652 156.19,175.59C159.82,175.476 163.441,176.032 166.87,177.23C164.486,179.968 161.622,182.249 158.42,183.96C152.535,187.129 145.982,188.856 139.3,189C135.676,189.119 132.06,188.576 128.63,187.4Z" style="fill:rgb(247,148,29);fill-rule:nonzero;"/>
    </g>
    <g transform="matrix(1,0,0,1,106.65,26.665)">
        <path d="M77.74,250.13L101.4,265.86" style="fill-rule:nonzero;"/>
    </g>
    <g transform="matrix(1,0,0,1,28.41,-55.065)">
        <path d="M156,331.86C158.759,331.363 161.593,331.483 164.3,332.21C169.005,333.445 173.171,336.207 176.14,340.06C177.861,342.279 179.064,344.856 179.66,347.6C176.897,348.109 174.054,347.996 171.34,347.27C169.001,346.645 166.783,345.631 164.78,344.27C162.766,342.932 160.989,341.27 159.52,339.35C157.808,337.144 156.605,334.586 156,331.86Z" style="fill:rgb(247,148,29);fill-rule:nonzero;"/>
    </g>
    <g transform="matrix(1,0,0,1,106.65,26.665)">
        <path d="M80.03,232.39L118.54,246.25" style="fill-rule:nonzero;"/>
    </g>
    <g transform="matrix(1,0,0,1,28.41,-55.065)">
        <path d="M158.27,314.12C161.903,313.269 165.658,313.069 169.36,313.53C176.22,314.33 182.807,316.695 188.61,320.44C191.762,322.441 194.526,324.996 196.77,327.98C193.14,328.847 189.383,329.054 185.68,328.59C178.816,327.786 172.228,325.411 166.43,321.65C163.287,319.642 160.524,317.092 158.27,314.12Z" style="fill:rgb(247,148,29);fill-rule:nonzero;"/>
    </g>
</svg>
