<?xml version="1.0" encoding="UTF-8" standalone="no"?>
<!DOCTYPE svg PUBLIC "-//W3C//DTD SVG 1.1//EN" "http://www.w3.org/Graphics/SVG/1.1/DTD/svg11.dtd">
<svg width="100%" height="100%" viewBox="0 0 100 100" version="1.1" xmlns="http://www.w3.org/2000/svg" xmlns:xlink="http://www.w3.org/1999/xlink" xml:space="preserve" xmlns:serif="http://www.serif.com/" style="fill-rule:evenodd;clip-rule:evenodd;stroke-linejoin:round;stroke-miterlimit:1.41421;">
    <g id="emerge">
        <g transform="matrix(1,0,0,1,0,2)">
            <path d="M7.05,41.154C8.57,41.026 9.65,40.714 10.29,40.218C10.93,39.722 11.25,39.098 11.25,38.346C11.25,37.898 11.142,37.558 10.926,37.326C10.71,37.094 10.418,36.978 10.05,36.978C9.666,36.978 9.31,37.094 8.982,37.326C8.654,37.558 8.358,37.866 8.094,38.25C7.83,38.634 7.61,39.078 7.434,39.582C7.258,40.086 7.13,40.61 7.05,41.154ZM6.978,41.874C6.962,42.034 6.95,42.194 6.942,42.354C6.934,42.514 6.93,42.682 6.93,42.858C6.93,43.226 6.962,43.586 7.026,43.938C7.09,44.29 7.202,44.602 7.362,44.874C7.522,45.146 7.742,45.366 8.022,45.534C8.302,45.702 8.658,45.786 9.09,45.786C9.506,45.786 9.938,45.71 10.386,45.558C10.834,45.406 11.29,45.17 11.754,44.85C11.914,44.738 12.026,44.682 12.09,44.682C12.218,44.682 12.302,44.746 12.342,44.874C12.382,45.002 12.402,45.098 12.402,45.162C12.162,45.386 11.89,45.61 11.586,45.834C11.282,46.058 10.954,46.258 10.602,46.434C10.25,46.61 9.874,46.754 9.474,46.866C9.074,46.978 8.658,47.034 8.226,47.034C7.554,47.034 7.006,46.91 6.582,46.662C6.158,46.414 5.822,46.094 5.574,45.702C5.326,45.31 5.158,44.882 5.07,44.418C4.982,43.954 4.938,43.506 4.938,43.074C4.938,42.226 5.07,41.386 5.334,40.554C5.598,39.722 5.97,38.978 6.45,38.322C6.93,37.666 7.514,37.138 8.202,36.738C8.89,36.338 9.658,36.138 10.506,36.138C10.842,36.138 11.17,36.182 11.49,36.27C11.81,36.358 12.094,36.49 12.342,36.666C12.59,36.842 12.79,37.074 12.942,37.362C13.094,37.65 13.17,37.994 13.17,38.394C13.17,38.986 13.014,39.494 12.702,39.918C12.39,40.342 11.958,40.694 11.406,40.974C10.854,41.254 10.202,41.466 9.45,41.61C8.698,41.754 7.874,41.842 6.978,41.874Z" style="fill:rgb(0,139,204);fill-rule:nonzero;"/>
        </g>
        <g transform="matrix(1,0,0,1,-1.94772,2.27608)">
            <path d="M18.893,46.47L18.893,30.914L21.251,30.914L21.251,33.096C21.739,32.335 22.389,31.722 23.199,31.258C24.01,30.794 24.933,30.562 25.968,30.562C27.12,30.562 28.065,30.801 28.802,31.28C29.54,31.758 30.06,32.427 30.362,33.287C31.593,31.47 33.194,30.562 35.167,30.562C36.71,30.562 37.897,30.989 38.727,31.844C39.557,32.698 39.972,34.014 39.972,35.792L39.972,46.47L37.35,46.47L37.35,36.671C37.35,35.616 37.264,34.857 37.093,34.393C36.923,33.929 36.612,33.555 36.163,33.272C35.714,32.989 35.187,32.847 34.581,32.847C33.487,32.847 32.579,33.211 31.857,33.939C31.134,34.666 30.773,35.831 30.773,37.432L30.773,46.47L28.136,46.47L28.136,36.363C28.136,35.191 27.921,34.312 27.491,33.726C27.062,33.14 26.359,32.847 25.382,32.847C24.64,32.847 23.954,33.043 23.324,33.433C22.694,33.824 22.237,34.395 21.954,35.147C21.671,35.899 21.529,36.983 21.529,38.399L21.529,46.47L18.893,46.47Z" style="fill-rule:nonzero;"/>
            <path d="M52.582,41.461L55.307,41.797C54.877,43.389 54.081,44.625 52.919,45.504C51.757,46.382 50.273,46.822 48.466,46.822C46.191,46.822 44.387,46.121 43.054,44.72C41.721,43.318 41.054,41.353 41.054,38.824C41.054,36.207 41.728,34.175 43.076,32.73C44.423,31.285 46.171,30.562 48.32,30.562C50.4,30.562 52.099,31.27 53.417,32.686C54.736,34.102 55.395,36.094 55.395,38.663C55.395,38.819 55.39,39.053 55.38,39.366L43.779,39.366C43.876,41.075 44.36,42.383 45.229,43.292C46.098,44.2 47.182,44.654 48.481,44.654C49.448,44.654 50.273,44.4 50.956,43.892C51.64,43.384 52.182,42.574 52.582,41.461ZM43.925,37.198L52.612,37.198C52.494,35.889 52.162,34.908 51.616,34.254C50.776,33.238 49.687,32.73 48.349,32.73C47.138,32.73 46.12,33.135 45.295,33.946C44.47,34.756 44.013,35.84 43.925,37.198Z" style="fill-rule:nonzero;"/>
            <path d="M56.638,46.47L56.638,30.914L59.011,30.914L59.011,33.272C59.617,32.169 60.176,31.441 60.689,31.089C61.201,30.738 61.765,30.562 62.38,30.562C63.269,30.562 64.172,30.845 65.09,31.412L64.182,33.858C63.538,33.477 62.893,33.287 62.249,33.287C61.672,33.287 61.155,33.46 60.696,33.807C60.237,34.153 59.91,34.634 59.714,35.25C59.421,36.187 59.275,37.213 59.275,38.326L59.275,46.47L56.638,46.47Z" style="fill-rule:nonzero;"/>
            <path d="M64.224,47.759L66.788,48.14C66.895,48.931 67.193,49.507 67.681,49.869C68.336,50.357 69.229,50.601 70.362,50.601C71.583,50.601 72.525,50.357 73.189,49.869C73.853,49.38 74.303,48.697 74.537,47.818C74.674,47.281 74.737,46.153 74.727,44.434C73.575,45.792 72.139,46.47 70.421,46.47C68.282,46.47 66.627,45.699 65.455,44.156C64.283,42.613 63.697,40.762 63.697,38.604C63.697,37.12 63.966,35.75 64.503,34.495C65.04,33.24 65.819,32.271 66.839,31.588C67.86,30.904 69.058,30.562 70.435,30.562C72.271,30.562 73.785,31.304 74.976,32.789L74.976,30.914L77.408,30.914L77.408,44.361C77.408,46.783 77.161,48.499 76.668,49.51C76.175,50.521 75.394,51.319 74.324,51.905C73.255,52.491 71.939,52.784 70.377,52.784C68.521,52.784 67.022,52.366 65.88,51.531C64.737,50.696 64.185,49.439 64.224,47.759ZM66.407,38.414C66.407,40.455 66.812,41.944 67.623,42.881C68.433,43.819 69.449,44.288 70.67,44.288C71.881,44.288 72.896,43.821 73.717,42.889C74.537,41.956 74.947,40.494 74.947,38.502C74.947,36.597 74.525,35.162 73.68,34.195C72.835,33.228 71.817,32.745 70.626,32.745C69.454,32.745 68.458,33.221 67.637,34.173C66.817,35.125 66.407,36.539 66.407,38.414Z" style="fill-rule:nonzero;"/>
            <path d="M90.092,41.461L92.816,41.797C92.387,43.389 91.591,44.625 90.429,45.504C89.267,46.382 87.782,46.822 85.976,46.822C83.7,46.822 81.896,46.121 80.563,44.72C79.23,43.318 78.563,41.353 78.563,38.824C78.563,36.207 79.237,34.175 80.585,32.73C81.933,31.285 83.681,30.562 85.829,30.562C87.909,30.562 89.608,31.27 90.927,32.686C92.245,34.102 92.904,36.094 92.904,38.663C92.904,38.819 92.899,39.053 92.89,39.366L81.288,39.366C81.386,41.075 81.869,42.383 82.738,43.292C83.607,44.2 84.691,44.654 85.99,44.654C86.957,44.654 87.782,44.4 88.466,43.892C89.149,43.384 89.691,42.574 90.092,41.461ZM81.435,37.198L90.121,37.198C90.004,35.889 89.672,34.908 89.125,34.254C88.285,33.238 87.196,32.73 85.858,32.73C84.647,32.73 83.629,33.135 82.804,33.946C81.979,34.756 81.522,35.84 81.435,37.198Z" style="fill-rule:nonzero;"/>
        </g>
        <g transform="matrix(1,0,0,1,-12.7793,23.8566)">
            <path d="M18.497,46.47L18.497,30.914L20.445,30.914L20.445,33.126C20.914,32.266 21.488,31.624 22.167,31.199C22.845,30.775 23.624,30.562 24.503,30.562C25.187,30.562 25.819,30.696 26.4,30.965C26.981,31.234 27.45,31.585 27.806,32.02C28.163,32.454 28.429,33.018 28.605,33.712C28.78,34.405 28.868,35.469 28.868,36.905L28.868,46.47L26.7,46.47L26.7,37.007C26.7,35.865 26.603,35.03 26.407,34.503C26.212,33.975 25.907,33.567 25.492,33.279C25.077,32.991 24.596,32.847 24.049,32.847C23.014,32.847 22.189,33.233 21.573,34.005C20.958,34.776 20.651,36.099 20.651,37.974L20.651,46.47L18.497,46.47Z" style="fill-rule:nonzero;"/>
            <path d="M41.689,41.461L43.916,41.797C43.545,43.458 42.873,44.71 41.902,45.555C40.93,46.4 39.726,46.822 38.291,46.822C36.484,46.822 35.022,46.136 33.904,44.764C32.786,43.392 32.226,41.412 32.226,38.824C32.226,36.138 32.79,34.09 33.918,32.679C35.046,31.268 36.474,30.562 38.203,30.562C39.853,30.562 41.23,31.255 42.334,32.642C43.437,34.029 43.989,36.036 43.989,38.663L43.974,39.366L34.453,39.366C34.541,41.114 34.946,42.432 35.669,43.321C36.391,44.21 37.27,44.654 38.306,44.654C39.927,44.654 41.055,43.589 41.689,41.461ZM34.585,37.198L41.704,37.198C41.606,35.85 41.318,34.844 40.84,34.18C40.146,33.213 39.263,32.73 38.188,32.73C37.222,32.73 36.396,33.133 35.713,33.939C35.029,34.744 34.653,35.831 34.585,37.198Z" style="fill-rule:nonzero;"/>
            <path d="M52.24,44.112L52.533,46.441C51.937,46.597 51.4,46.675 50.921,46.675C50.17,46.675 49.564,46.526 49.105,46.229C48.646,45.931 48.331,45.523 48.16,45.005C47.989,44.488 47.904,43.458 47.904,41.915L47.904,32.964L46.322,32.964L46.322,30.914L47.904,30.914L47.904,27.061L50.057,25.479L50.057,30.914L52.24,30.914L52.24,32.964L50.057,32.964L50.057,42.061C50.057,42.901 50.121,43.443 50.248,43.687C50.433,44.039 50.78,44.214 51.288,44.214C51.532,44.214 51.849,44.18 52.24,44.112Z" style="fill-rule:nonzero;"/>
            <path d="M57.385,46.47L53.489,30.914L55.73,30.914L57.751,39.893L58.498,43.233L59.172,40.025L61.194,30.914L63.42,30.914L65.325,39.937L65.969,42.911L66.701,39.908L68.884,30.914L70.993,30.914L66.994,46.47L64.753,46.47L62.717,37.154L62.234,34.503L59.656,46.47L57.385,46.47Z" style="fill-rule:nonzero;"/>
            <path d="M72.77,38.692C72.77,36.006 73.334,33.98 74.461,32.613C75.589,31.246 77.018,30.562 78.746,30.562C80.445,30.562 81.866,31.246 83.009,32.613C84.151,33.98 84.723,35.953 84.723,38.531C84.723,41.324 84.161,43.404 83.038,44.771C81.915,46.138 80.484,46.822 78.746,46.822C77.037,46.822 75.614,46.136 74.476,44.764C73.338,43.392 72.77,41.368 72.77,38.692ZM74.981,38.692C74.981,40.704 75.348,42.2 76.08,43.182C76.813,44.163 77.721,44.654 78.805,44.654C79.82,44.654 80.692,44.158 81.419,43.167C82.147,42.176 82.511,40.684 82.511,38.692C82.511,36.69 82.145,35.198 81.412,34.217C80.68,33.235 79.772,32.745 78.688,32.745C77.662,32.745 76.788,33.238 76.065,34.224C75.343,35.211 74.981,36.7 74.981,38.692Z" style="fill-rule:nonzero;"/>
            <path d="M88.037,46.47L88.037,30.914L89.985,30.914L89.985,33.272C90.483,32.178 90.94,31.453 91.355,31.097C91.77,30.74 92.236,30.562 92.754,30.562C93.476,30.562 94.214,30.845 94.966,31.412L94.233,33.858C93.696,33.477 93.174,33.287 92.666,33.287C92.207,33.287 91.787,33.448 91.406,33.77C91.025,34.092 90.757,34.542 90.6,35.118C90.327,36.124 90.19,37.193 90.19,38.326L90.19,46.47L88.037,46.47Z" style="fill-rule:nonzero;"/>
            <path d="M97.064,46.47L97.064,24.996L99.217,24.996L99.217,37.242L104.344,30.914L107.142,30.914L102.264,36.685L107.625,46.47L104.974,46.47L100.741,38.516L99.217,40.303L99.217,46.47L97.064,46.47Z" style="fill-rule:nonzero;"/>
        </g>
    </g>
</svg>
