<?xml version="1.0" encoding="UTF-8" standalone="no"?>
<!DOCTYPE svg PUBLIC "-//W3C//DTD SVG 1.1//EN" "http://www.w3.org/Graphics/SVG/1.1/DTD/svg11.dtd">
<svg width="100%" height="100%" viewBox="0 0 100 100" version="1.1" xmlns="http://www.w3.org/2000/svg" xmlns:xlink="http://www.w3.org/1999/xlink" xml:space="preserve" xmlns:serif="http://www.serif.com/" style="fill-rule:evenodd;clip-rule:evenodd;stroke-linejoin:round;stroke-miterlimit:1.41421;">
    <g transform="matrix(1.5625,0,0,1.5625,0,0)">
        <g id="esmart">
            <path d="M32.174,1.611C48.732,1.611 62.174,15.054 62.174,31.611C62.174,48.169 48.732,61.611 32.174,61.611C15.617,61.611 2.174,48.169 2.174,31.611C2.174,15.054 15.617,1.611 32.174,1.611ZM49.579,33.475C49.603,32.725 49.615,32.163 49.615,31.788C49.615,25.624 48.033,20.842 44.869,17.444C41.704,14.046 37.626,12.346 32.634,12.346C27.478,12.346 23.283,14.081 20.048,17.549C16.814,21.018 15.197,25.893 15.197,32.174C15.197,38.245 16.796,42.962 19.995,46.325C23.195,49.688 27.525,51.37 32.986,51.37C37.322,51.37 40.884,50.315 43.673,48.206C46.462,46.096 48.372,43.132 49.404,39.311L42.865,38.503C41.904,41.174 40.603,43.12 38.962,44.339C37.322,45.557 35.341,46.167 33.021,46.167C29.904,46.167 27.302,45.077 25.216,42.897C23.13,40.717 21.97,37.577 21.736,33.475L49.579,33.475ZM22.087,28.272L42.935,28.272C42.654,25.132 41.857,22.776 40.544,21.206C38.529,18.768 35.915,17.549 32.704,17.549C29.798,17.549 27.355,18.522 25.374,20.467C23.394,22.413 22.298,25.014 22.087,28.272Z" style="fill:rgb(255,189,35);"/>
        </g>
    </g>
</svg>
