<?xml version="1.0" encoding="UTF-8" standalone="no"?>
<!DOCTYPE svg PUBLIC "-//W3C//DTD SVG 1.1//EN" "http://www.w3.org/Graphics/SVG/1.1/DTD/svg11.dtd">
<svg width="100%" height="100%" viewBox="0 0 100 100" version="1.1" xmlns="http://www.w3.org/2000/svg" xmlns:xlink="http://www.w3.org/1999/xlink" xml:space="preserve" xmlns:serif="http://www.serif.com/" style="fill-rule:evenodd;clip-rule:evenodd;stroke-linejoin:round;stroke-miterlimit:1.41421;">
    <g id="etl_dashboard">
        <g transform="matrix(0.0941104,0,0,0.0941104,2.7474,1.88373)">
            <path d="M502.3,254.6C436.7,254.6 375.1,280.1 328.9,326.4C282.7,372.7 257.1,434.2 257.1,499.8C257.1,565.4 282.6,626.7 328.9,673.2C375.1,719.4 436.9,745 502.3,745C567.9,745 629.5,719.5 675.7,673.2C721.9,626.9 747.5,565.4 747.5,499.8C747.5,434.2 722,372.9 675.7,326.4C629.5,280.2 567.9,254.6 502.3,254.6ZM502.3,704C389.2,704 298,612.4 298,499.7C298,387 389.2,295.4 502.3,295.4C615.4,295.4 706.6,387.1 706.6,499.7C706.6,612.3 615.4,704 502.3,704ZM930.5,397.6L891.7,397.6C860,397.6 833.5,371 833.5,338.4C833.5,322.1 840.4,307.5 852.7,296.5L877.7,272C902.5,247.5 902.5,207.7 877.7,182.9L820.8,126.5C809.6,115.3 793,108.6 776.1,108.6C759.2,108.6 742.9,115.2 731.4,126.5L707.4,150.5C695.9,163.3 680.1,170.2 663.5,170.2C630.8,170.2 603,143.6 603,112.2L603,73.6C603,39.1 576.2,9.5 541.7,9.5L464,9.5C428.8,9.5 400.7,38.9 400.7,73.6L400.7,112.4C400.7,143.8 373.6,170.4 341,170.4C324.7,170.4 309.8,163.5 298.6,151.5L273.8,127C262.6,115.5 246,109.1 229.1,109.1C212.2,109.1 195.9,115.7 184.4,127L127.5,183.2C103,207.7 103,247.8 127.5,272.1L151.5,296.1C164.3,307.6 171.4,322.1 171.4,338.7C171.4,371.4 144.8,397.9 113.2,397.9L74.4,397.9C39.4,397.6 10.1,426.2 10.1,461L10.1,538.6C10.1,573.1 39.5,601.9 74.4,601.9L113.2,601.9C144.9,601.9 171.4,628.5 171.4,661.1C171.4,677.4 164.3,692.5 151.5,704L127.5,727.5C103,752 103,791.8 127.5,816.4L184.4,873.1C195.6,884.6 212.2,891 229.1,891C246,891 262.3,884.4 273.8,873.1L298.6,848.6C309.3,836.6 324.4,829.7 340.7,829.7C373.4,829.7 400.4,856.3 400.4,887.7L400.4,926.5C400.4,961 428.5,990.6 463.5,990.6L541.1,990.6C575.8,990.6 604.7,961.2 604.7,926.5L604.7,887.7C604.7,856.3 631.5,829.7 664.2,829.7C680.5,829.7 695.6,836.8 707.4,849.4L731.4,873.4C742.9,884.6 759.2,891.3 776.1,891.3C793,891.3 809.3,884.7 820.8,873.4L877.7,816.7C902.2,792.2 902.2,752.1 877.7,727.6L852.7,703.1C840.4,692.1 833.5,676.5 833.5,660.5C833.5,627.8 860.1,600.2 891.7,600.2L930.5,600.2C965.2,600.2 990,573.9 990,539.2L990,499.9L990,461.1C990,426.2 965.2,397.6 930.5,397.6ZM949.7,499.7L949.7,538.3C949.7,549 943.8,558.5 931.1,558.5L892.3,558.5C866,558.5 841,569.7 822.1,589.1C803.5,608.3 793.2,633.5 793.2,660.1C793.2,687.7 804.4,713.2 825.1,732.1L849.4,756.1C857.8,764.8 857.8,779.1 849.4,787.5L792.5,844.2C788.4,848 782.5,850.3 776.4,850.3C770.3,850.3 764.1,848 760.3,844.2L737,821C717.3,800.3 691.5,788.8 664.2,788.8C637.6,788.8 613.1,799 594,817.4C574.6,836.3 564.4,861.1 564.4,887.6L564.4,926.4C564.4,938.9 553.4,949.6 541.7,949.6L464,949.6C452.3,949.6 441.8,938.9 441.8,926.4L441.8,887.6C441.8,861.3 431.3,836.3 411.9,817.4C392.7,799 367.7,788.8 341.4,788.8C314.3,788.8 288.3,800.3 269.6,820.5L245.9,844.2C241.8,848 235.9,850.3 229.8,850.3C223.7,850.3 217.5,848.3 214.2,844.7L213.9,844.4L213.6,844.1L156.7,787.4C148.3,779 148.3,764.9 156.7,756.2L179.9,733.2C200.8,713.8 212.3,688 212.3,660.4C212.3,633.8 202.1,609.6 183.4,590.4C164.5,571 139.5,561 113.2,561L74.1,561C61.3,561 50.6,550 50.6,538.5L50.6,499.4L50.6,460.6C50.6,449.1 61.3,438.1 74.1,438.1L112.9,438.1C139.2,438.1 164.2,428.1 183.1,408.7C201.7,389.5 212,364.8 212,338.5C212,310.9 200.5,285.1 179.6,266L156.1,242.8C150.5,237.2 149.7,230.8 149.7,227.2C149.7,223.9 150.5,217.2 156.1,211.6L212.8,155.2C216.9,151.4 222.8,149.1 228.9,149.1C235,149.1 241.2,151.1 244.5,154.7L269.1,179.3C288,199.7 313.5,211 340.9,211C367.5,211 392.2,200.8 411.4,182.4C430.8,163.5 441.5,138.7 441.5,112.2L441.5,73.4C441.5,60.9 451.7,50.2 463.2,50.2L541.1,50.2C552.6,50.2 561.5,60.9 561.5,73.4L561.5,112.2C561.5,138.5 572.7,163.5 592.1,182.4C611.3,200.8 636.5,211 663.1,211C690.7,211 716.7,199.5 736.1,178.8L759.3,155.6C763.4,151.8 769.3,149.5 775.4,149.5C781.5,149.5 787.7,151.8 791.5,155.4L848.4,211.8C852.5,215.9 855,221.5 855,227.4C855,233.3 852.7,238.9 848.6,243L824.3,267C803.9,285.9 792.4,311.4 792.4,339C792.4,365.6 802.6,389.8 821.3,409C840.2,428.4 865.2,438.4 891.5,438.4L930.3,438.4C944.1,438.4 949.2,451.2 949.5,461.4L949.7,499.7Z" style="fill:rgb(128,128,128);fill-rule:nonzero;"/>
        </g>
        <path d="M50.169,30.986C60.054,30.986 68.079,39.011 68.079,48.896C68.079,58.78 60.054,66.805 50.169,66.805C40.285,66.805 32.259,58.78 32.259,48.896C32.259,39.011 40.285,30.986 50.169,30.986ZM50.194,40.788C54.713,40.788 58.381,44.456 58.381,48.975C58.381,53.493 54.713,57.162 50.194,57.162C45.676,57.162 42.007,53.493 42.007,48.975C42.007,44.456 45.676,40.788 50.194,40.788Z" style="fill:rgb(175,73,25);"/>
    </g>
</svg>
