<?xml version="1.0" encoding="UTF-8" standalone="no"?>
<!DOCTYPE svg PUBLIC "-//W3C//DTD SVG 1.1//EN" "http://www.w3.org/Graphics/SVG/1.1/DTD/svg11.dtd">
<svg width="100%" height="100%" viewBox="0 0 200 200" version="1.1" xmlns="http://www.w3.org/2000/svg" xmlns:xlink="http://www.w3.org/1999/xlink" xml:space="preserve" xmlns:serif="http://www.serif.com/" style="fill-rule:evenodd;clip-rule:evenodd;stroke-linecap:round;stroke-linejoin:round;stroke-miterlimit:1.5;">
    <g transform="matrix(1,0,0,1,11.3308,20.7145)">
        <path d="M179.135,0C168.09,9.241 150.553,15.319 127.944,18.926C108.745,21.748 88.47,23.602 67.777,25.082C53.61,26.416 42.784,32.039 36.138,43.026L15.747,90.286C21.023,85.136 26.465,80.281 32.62,76.693C40.86,72.053 50.101,68.622 60.513,66.605C80.555,63.819 100.649,61.081 118.916,56.68C136.719,53.284 151.666,45.952 163.322,34.081C171.637,22.787 180.917,11.513 179.135,0" style="fill:rgb(244,134,64);fill-opacity:0.498039;stroke:rgb(244,134,64);stroke-width:0.75px;"/>
    </g>
    <g transform="matrix(1,0,0,1,11.3308,20.7145)">
        <path d="M117.956,58.797C111.587,71.423 101.87,80.703 90.253,88.082C81.192,93.436 71.498,98.249 60.975,100.824C47.608,105.058 34.216,109.257 22.013,115.123C14.529,120.535 8.747,127.357 7.989,140.258C8.449,147.749 12.531,153.309 18.884,157.658C12.435,157.666 7.103,152.669 2.367,145.002C-0.191,137.385 -0.256,130.328 2.277,123.855L14.781,91.819C26.667,80.406 36.034,75.46 41.364,73.268C49.002,70.127 58.833,67.38 70.558,65.99C86.59,63.787 102.494,61.134 118.141,57.579" style="fill:rgb(225,65,105);stroke:rgb(225,65,105);stroke-opacity:0.498039;stroke-width:0.75px;"/>
    </g>
    <g transform="matrix(1,0,0,1,11.3308,20.7145)">
        <path d="M68.646,99.118C61.642,106.642 56.781,115.631 52.99,125.35C48.495,140.179 44.557,149.623 41.445,151.054C38.804,154.771 35.126,156.833 30.819,157.891C27.269,158.647 23.61,158.738 19.692,157.258C11.76,152.231 8.379,145.883 8.703,138.459C9.737,128.737 14.389,121.264 22.07,115.673C36.474,108.839 68.481,98.936 68.646,99.118Z" style="fill:rgb(122,35,130);fill-opacity:0.498039;stroke:rgb(122,35,130);stroke-opacity:0.498039;stroke-width:0.75px;"/>
    </g>
</svg>
