<?xml version="1.0" encoding="UTF-8" standalone="no"?>
<!DOCTYPE svg PUBLIC "-//W3C//DTD SVG 1.1//EN" "http://www.w3.org/Graphics/SVG/1.1/DTD/svg11.dtd">
<svg width="100%" height="100%" viewBox="0 0 100 100" version="1.1" xmlns="http://www.w3.org/2000/svg" xmlns:xlink="http://www.w3.org/1999/xlink" xml:space="preserve" xmlns:serif="http://www.serif.com/" style="fill-rule:evenodd;clip-rule:evenodd;stroke-linejoin:round;stroke-miterlimit:1.41421;">
    <g transform="matrix(1,0,0,1,-4.00711,-2.44628)">
        <g id="IRB">
            <rect x="18.273" y="34.973" width="5.588" height="33.032" style="fill:rgb(179,160,19);fill-rule:nonzero;"/>
            <path d="M56.917,44.657C56.917,46.11 56.542,47.471 55.792,48.742C55.043,50.013 53.902,51.114 52.371,52.045C53.097,52.298 53.721,52.661 54.241,53.135C54.762,53.608 55.189,54.141 55.52,54.733C55.852,55.325 56.096,55.956 56.254,56.627C56.412,57.298 56.491,57.965 56.491,58.628L56.491,63.411C56.491,64.011 56.637,64.714 56.929,65.519C57.221,66.324 57.62,67.153 58.125,68.005L52.016,68.005C51.779,67.626 51.585,67.231 51.435,66.821C51.286,66.411 51.175,66.008 51.104,65.613C51.033,65.219 50.986,64.848 50.962,64.5C50.938,64.153 50.926,63.845 50.926,63.577L50.926,58.557C50.926,58.068 50.843,57.578 50.678,57.089C50.512,56.6 50.248,56.161 49.884,55.775C49.521,55.388 49.04,55.072 48.44,54.828C47.84,54.583 47.114,54.461 46.262,54.461L37.832,54.461L37.832,68.005L32.244,68.005L32.244,34.973L46.262,34.973C47.966,34.973 49.482,35.257 50.808,35.825C52.134,36.393 53.251,37.135 54.159,38.051C55.066,38.967 55.753,40.001 56.219,41.153C56.684,42.305 56.917,43.473 56.917,44.657ZM37.832,49.772L46.262,49.772C46.94,49.772 47.584,49.65 48.191,49.405C48.799,49.16 49.336,48.821 49.802,48.387C50.267,47.953 50.634,47.428 50.903,46.812C51.171,46.197 51.305,45.518 51.305,44.776C51.305,44.05 51.179,43.375 50.926,42.751C50.674,42.128 50.323,41.591 49.873,41.141C49.423,40.691 48.89,40.336 48.274,40.075C47.659,39.815 46.988,39.685 46.262,39.685L37.832,39.685L37.832,49.772Z" style="fill:rgb(179,160,19);fill-rule:nonzero;"/>
            <path d="M65.015,34.973L78.394,34.973C79.941,34.973 81.326,35.194 82.55,35.636C83.773,36.078 84.807,36.674 85.652,37.423C86.496,38.173 87.144,39.045 87.593,40.04C88.043,41.035 88.268,42.092 88.268,43.213C88.268,44.602 87.957,45.893 87.333,47.085C86.709,48.276 85.766,49.346 84.503,50.293C85.514,50.719 86.374,51.228 87.084,51.82C87.795,52.412 88.375,53.06 88.825,53.762C89.275,54.464 89.606,55.21 89.819,56C90.032,56.789 90.139,57.594 90.139,58.415C90.139,59.741 89.855,60.988 89.286,62.156C88.718,63.324 87.957,64.339 87.001,65.199C86.046,66.059 84.945,66.742 83.698,67.247C82.451,67.752 81.157,68.005 79.815,68.005L65.015,68.005L65.015,34.973ZM70.604,48.138L77.613,48.138C78.386,48.138 79.101,48.016 79.756,47.771C80.411,47.527 80.975,47.195 81.449,46.777C81.922,46.358 82.289,45.869 82.55,45.309C82.81,44.748 82.94,44.16 82.94,43.544C82.94,42.976 82.846,42.459 82.656,41.994C82.467,41.528 82.179,41.121 81.792,40.774C81.405,40.427 80.912,40.158 80.312,39.969C79.712,39.78 79.01,39.685 78.205,39.685L70.604,39.685L70.604,48.138ZM70.604,63.222L78.418,63.222C79.128,63.222 79.842,63.127 80.561,62.938C81.279,62.748 81.926,62.452 82.502,62.05C83.079,61.647 83.548,61.134 83.911,60.511C84.274,59.887 84.456,59.133 84.456,58.249C84.456,57.523 84.29,56.828 83.959,56.165C83.627,55.502 83.15,54.926 82.526,54.437C81.903,53.947 81.141,53.557 80.241,53.265C79.341,52.973 78.331,52.827 77.21,52.827L70.604,52.827L70.604,63.222Z" style="fill:rgb(179,160,19);fill-rule:nonzero;"/>
        </g>
    </g>
</svg>
