<?xml version="1.0" encoding="UTF-8" standalone="no"?>
<!DOCTYPE svg PUBLIC "-//W3C//DTD SVG 1.1//EN" "http://www.w3.org/Graphics/SVG/1.1/DTD/svg11.dtd">
<svg width="100%" height="100%" viewBox="0 0 100 100" version="1.1" xmlns="http://www.w3.org/2000/svg" xmlns:xlink="http://www.w3.org/1999/xlink" xml:space="preserve" xmlns:serif="http://www.serif.com/" style="fill-rule:evenodd;clip-rule:evenodd;stroke-linejoin:round;stroke-miterlimit:1.41421;">
    <g id="irb_choice">
        <g transform="matrix(1,0,0,1,-1.06321,1.60512)">
            <path d="M9.741,42.908C9.741,43.24 9.621,43.527 9.38,43.767C9.139,44.008 8.852,44.129 8.52,44.129C8.188,44.129 7.905,44.008 7.671,43.767C7.436,43.527 7.319,43.24 7.319,42.908C7.319,42.576 7.436,42.29 7.671,42.049C7.905,41.808 8.188,41.687 8.52,41.687C8.865,41.687 9.155,41.805 9.39,42.039C9.624,42.273 9.741,42.563 9.741,42.908ZM11.186,54.832L11.186,56.629L6.001,56.629L6.001,54.832L7.602,54.832L7.602,48.172L6.001,48.172L6.001,46.365L9.624,46.365L9.624,54.832L11.186,54.832Z" style="fill:rgb(68,182,121);fill-rule:nonzero;"/>
            <path d="M16.128,52.508L16.128,54.832L18.364,54.832L18.364,56.629L12.065,56.629L12.065,54.832L14.126,54.832L14.126,48.172L12.065,48.172L12.065,46.365L15.727,46.365L15.727,48.689C16.138,47.771 16.647,47.132 17.256,46.77C17.864,46.409 18.735,46.228 19.868,46.228L20.327,46.228L20.327,48.269L19.888,48.269C18.794,48.269 17.98,48.413 17.446,48.699C16.912,48.986 16.559,49.418 16.387,49.998C16.214,50.577 16.128,51.414 16.128,52.508Z" style="fill:rgb(68,182,121);fill-rule:nonzero;"/>
            <path d="M27.993,46.092C28.937,46.092 29.79,46.331 30.552,46.809C31.313,47.288 31.907,47.934 32.334,48.748C32.76,49.562 32.973,50.441 32.973,51.385C32.973,52.361 32.757,53.263 32.324,54.09C31.891,54.916 31.294,55.576 30.532,56.067C29.77,56.559 28.918,56.805 27.973,56.805C27.225,56.805 26.514,56.652 25.84,56.346C25.166,56.04 24.637,55.62 24.253,55.086L24.253,56.629L20.473,56.629L20.473,54.832L22.29,54.832L22.29,43.689L20.473,43.689L20.473,41.912L24.253,41.912L24.253,47.83C25.281,46.671 26.528,46.092 27.993,46.092ZM27.573,55.008C28.211,55.008 28.781,54.835 29.282,54.49C29.783,54.145 30.171,53.693 30.444,53.133C30.718,52.573 30.854,51.977 30.854,51.346C30.854,50.721 30.714,50.148 30.434,49.627C30.154,49.106 29.767,48.693 29.272,48.387C28.778,48.081 28.218,47.928 27.593,47.928C26.968,47.928 26.408,48.087 25.913,48.406C25.418,48.725 25.031,49.158 24.751,49.705C24.471,50.252 24.331,50.861 24.331,51.531C24.331,52.169 24.474,52.755 24.761,53.289C25.047,53.823 25.438,54.243 25.932,54.549C26.427,54.855 26.974,55.008 27.573,55.008Z" style="fill:rgb(68,182,121);fill-rule:nonzero;"/>
        </g>
        <g transform="matrix(1,0,0,1,28.6513,1.60512)">
            <path d="M14.184,47.107L14.184,46.365L15.981,46.365L15.981,50.252L14.184,50.252C14.106,49.503 13.807,48.932 13.286,48.538C12.765,48.144 12.163,47.947 11.479,47.947C10.893,47.947 10.368,48.103 9.902,48.416C9.437,48.728 9.077,49.152 8.823,49.685C8.569,50.219 8.442,50.802 8.442,51.433C8.442,52.508 8.729,53.385 9.302,54.065C9.875,54.746 10.63,55.086 11.567,55.086C13.019,55.086 14.044,54.412 14.643,53.064L16.323,53.865C15.379,55.909 13.765,56.931 11.479,56.931C10.457,56.931 9.549,56.691 8.755,56.209C7.96,55.727 7.347,55.066 6.914,54.226C6.481,53.387 6.265,52.456 6.265,51.433C6.265,50.431 6.484,49.519 6.924,48.699C7.363,47.879 7.967,47.239 8.735,46.78C9.503,46.321 10.36,46.092 11.304,46.092C12.423,46.092 13.384,46.43 14.184,47.107Z" style="fill-rule:nonzero;"/>
            <path d="M23.599,46.092C25.507,46.092 26.461,47.124 26.461,49.187L26.461,54.832L28.199,54.832L28.199,56.629L24.439,56.629L24.439,49.91C24.439,49.174 24.333,48.657 24.122,48.357C23.91,48.058 23.583,47.908 23.14,47.908C22.392,47.908 21.418,48.347 20.22,49.226L20.22,54.832L21.998,54.832L21.998,56.629L16.363,56.629L16.363,54.832L18.199,54.832L18.199,43.689L16.363,43.689L16.363,41.912L20.22,41.912L20.22,47.566C21.431,46.583 22.558,46.092 23.599,46.092Z" style="fill-rule:nonzero;"/>
            <path d="M39.303,51.512C39.303,52.508 39.066,53.419 38.59,54.246C38.115,55.073 37.467,55.727 36.647,56.209C35.827,56.691 34.918,56.931 33.922,56.931C32.894,56.931 31.966,56.691 31.139,56.209C30.312,55.727 29.669,55.073 29.21,54.246C28.751,53.419 28.522,52.508 28.522,51.512C28.522,50.47 28.751,49.539 29.21,48.719C29.669,47.898 30.309,47.255 31.129,46.79C31.95,46.324 32.881,46.092 33.922,46.092C34.931,46.092 35.846,46.337 36.666,46.829C37.487,47.32 38.131,47.98 38.6,48.806C39.069,49.633 39.303,50.535 39.303,51.512ZM33.922,54.969C34.521,54.969 35.071,54.812 35.573,54.5C36.074,54.187 36.465,53.767 36.745,53.24C37.025,52.713 37.165,52.137 37.165,51.512C37.165,50.9 37.025,50.33 36.745,49.803C36.465,49.275 36.074,48.85 35.573,48.528C35.071,48.206 34.515,48.045 33.903,48.045C33.304,48.045 32.754,48.203 32.252,48.518C31.751,48.834 31.357,49.259 31.071,49.793C30.784,50.327 30.641,50.9 30.641,51.512C30.641,52.124 30.784,52.696 31.071,53.23C31.357,53.764 31.754,54.187 32.262,54.5C32.77,54.812 33.323,54.969 33.922,54.969Z" style="fill-rule:nonzero;"/>
            <path d="M43.503,42.908C43.503,43.24 43.383,43.527 43.142,43.767C42.901,44.008 42.615,44.129 42.282,44.129C41.95,44.129 41.667,44.008 41.433,43.767C41.198,43.527 41.081,43.24 41.081,42.908C41.081,42.576 41.198,42.29 41.433,42.049C41.667,41.808 41.95,41.687 42.282,41.687C42.628,41.687 42.917,41.805 43.152,42.039C43.386,42.273 43.503,42.563 43.503,42.908ZM44.948,54.832L44.948,56.629L39.763,56.629L39.763,54.832L41.365,54.832L41.365,48.172L39.763,48.172L39.763,46.365L43.386,46.365L43.386,54.832L44.948,54.832Z" style="fill-rule:nonzero;"/>
            <path d="M53.27,47.107L53.27,46.365L55.066,46.365L55.066,50.252L53.27,50.252C53.191,49.503 52.892,48.932 52.371,48.538C51.85,48.144 51.248,47.947 50.565,47.947C49.979,47.947 49.453,48.103 48.987,48.416C48.522,48.728 48.162,49.152 47.908,49.685C47.654,50.219 47.527,50.802 47.527,51.433C47.527,52.508 47.814,53.385 48.387,54.065C48.96,54.746 49.715,55.086 50.652,55.086C52.104,55.086 53.13,54.412 53.729,53.064L55.408,53.865C54.464,55.909 52.85,56.931 50.565,56.931C49.542,56.931 48.634,56.691 47.84,56.209C47.046,55.727 46.432,55.066 45.999,54.226C45.566,53.387 45.35,52.456 45.35,51.433C45.35,50.431 45.569,49.519 46.009,48.699C46.448,47.879 47.052,47.239 47.82,46.78C48.589,46.321 49.445,46.092 50.389,46.092C51.509,46.092 52.469,46.43 53.27,47.107Z" style="fill-rule:nonzero;"/>
            <path d="M66.688,52.01L58.085,52.01C58.209,52.993 58.589,53.769 59.227,54.339C59.865,54.908 60.647,55.193 61.571,55.193C62.248,55.193 62.876,55.053 63.456,54.773C64.035,54.493 64.52,54.064 64.911,53.484L66.688,54.285C66.128,55.157 65.394,55.817 64.486,56.263C63.578,56.708 62.59,56.931 61.522,56.931C60.416,56.931 59.432,56.7 58.573,56.238C57.714,55.776 57.045,55.131 56.566,54.305C56.088,53.478 55.848,52.547 55.848,51.512C55.848,50.483 56.084,49.555 56.556,48.728C57.029,47.902 57.675,47.255 58.495,46.79C59.315,46.324 60.22,46.092 61.21,46.092C62.291,46.092 63.233,46.331 64.037,46.809C64.841,47.288 65.474,47.972 65.936,48.86C66.399,49.749 66.649,50.799 66.688,52.01ZM61.249,47.771C60.487,47.771 59.82,48.027 59.247,48.538C58.674,49.049 58.306,49.724 58.143,50.564L64.569,50.564C64.38,49.724 63.98,49.049 63.368,48.538C62.756,48.027 62.05,47.771 61.249,47.771Z" style="fill-rule:nonzero;"/>
        </g>
    </g>
</svg>
