<?xml version="1.0" encoding="UTF-8" standalone="no"?>
<!DOCTYPE svg PUBLIC "-//W3C//DTD SVG 1.1//EN" "http://www.w3.org/Graphics/SVG/1.1/DTD/svg11.dtd">
<svg width="100%" height="100%" viewBox="0 0 100 100" version="1.1" xmlns="http://www.w3.org/2000/svg" xmlns:xlink="http://www.w3.org/1999/xlink" xml:space="preserve" xmlns:serif="http://www.serif.com/" style="fill-rule:evenodd;clip-rule:evenodd;stroke-linejoin:round;stroke-miterlimit:1.41421;">
    <g id="irex">
        <g transform="matrix(-0.997338,-0.0729182,0.0729182,-0.997338,99.2759,100.916)">
            <path d="M13.235,23.853C12.375,23.844 12.259,23.62 11.996,23.369C11.316,22.719 11.298,21.546 11.994,20.84L17.557,15.503C18.749,14.422 21.166,15.55 20.366,17.48C20.366,17.48 26.921,17.843 26.921,17.843C28.264,18.025 28.232,18.483 28.411,19.082C28.692,20.02 28.057,21.088 27.055,21.303L13.429,23.839C13.332,23.849 13.333,23.849 13.235,23.853Z" style="fill:rgb(37,168,190);fill-rule:nonzero;"/>
        </g>
        <g transform="matrix(0.339686,0.940539,0.940539,-0.339686,-13.9996,20.516)">
            <path d="M17.112,18.011C18.37,19.862 21.055,17.378 23.681,15.595C34.784,8.056 48.828,4.423 61.794,8.159C66.171,9.42 70.331,11.364 74.239,13.729C74.239,13.729 76.705,15.549 78.306,16.938C85.964,23.583 91.628,32.626 93.048,42.721C94.244,51.226 92.627,59.958 89.638,68.009C89.638,68.009 88.963,70.187 90.469,70.758C92.446,71.508 93.457,67.959 94.386,64.89C98.373,51.712 97.684,36.942 90.219,25.27C86.736,19.824 82.068,15.171 76.898,11.321C76.54,11.054 73.221,9.004 70.237,7.612C53.585,-0.154 33.491,3.405 17.762,15.576C17.762,15.576 16.383,16.56 17.112,18.011Z" style="fill:rgb(37,168,190);fill-rule:nonzero;"/>
        </g>
        <path d="M50.619,3.028C59.521,3.086 68.257,6.039 75.825,10.598C76.211,10.83 79.54,13.261 82.095,15.637C93.083,25.852 98.703,41.251 96.314,56.533C95.637,60.866 94.449,65.108 92.918,69.233C92.918,69.233 92.342,70.835 91.142,70.871C89.759,70.913 89.108,69.458 89.819,67.521C93.984,56.046 95.001,43.099 89.928,32.02C86.579,24.706 80.916,18.612 74.399,13.826C74.127,13.66 73.854,13.496 73.58,13.333C64.153,7.79 52.979,5.106 42.077,7.414C33.881,9.15 26.357,13.316 19.697,18.505C19.697,18.505 18.865,18.996 18.181,18.818C16.736,18.442 16.432,16.587 18.418,15.072C27.639,8.087 38.623,3.14 50.153,3.028C50.309,3.028 50.464,3.027 50.619,3.028Z" style="fill:rgb(37,168,190);fill-rule:nonzero;"/>
        <g transform="matrix(1,0,0,1,0.178186,0.112018)">
            <path d="M18.877,15.019C19.642,15.088 19.703,15.256 19.927,15.454C20.637,16.082 20.354,17.506 20.354,17.506L26.919,17.843C28.56,18.062 29.249,20.832 27.055,21.303L13.525,23.824C10.183,24.353 11.245,21.599 11.994,20.84L17.557,15.503C17.92,15.174 18.161,14.995 18.877,15.019Z" style="fill:rgb(37,168,190);fill-rule:nonzero;"/>
        </g>
        <g transform="matrix(1,0,0,1,-8.48609,1.98052)">
            <rect x="19.662" y="33.489" width="5.889" height="29.168" style="fill-rule:nonzero;"/>
            <path d="M28.329,62.657L28.329,33.489L40.725,33.489C43.842,33.489 46.107,33.751 47.519,34.275C48.932,34.799 50.063,35.731 50.912,37.071C51.76,38.41 52.185,39.942 52.185,41.667C52.185,43.855 51.542,45.663 50.255,47.088C48.968,48.514 47.045,49.413 44.485,49.784C45.758,50.527 46.81,51.343 47.639,52.232C48.468,53.12 49.585,54.699 50.991,56.967L54.553,62.657L47.509,62.657L43.252,56.31C41.739,54.042 40.705,52.613 40.148,52.023C39.591,51.432 39,51.028 38.377,50.809C37.754,50.59 36.765,50.481 35.412,50.481L34.219,50.481L34.219,62.657L28.329,62.657ZM34.219,45.825L38.576,45.825C41.401,45.825 43.165,45.706 43.868,45.467C44.571,45.228 45.122,44.817 45.52,44.233C45.918,43.65 46.117,42.92 46.117,42.045C46.117,41.063 45.855,40.271 45.331,39.667C44.807,39.064 44.067,38.682 43.112,38.523C42.635,38.457 41.202,38.424 38.815,38.424L34.219,38.424L34.219,45.825Z" style="fill-rule:nonzero;"/>
            <path d="M54.884,62.657L54.884,33.489L76.511,33.489L76.511,38.424L60.773,38.424L60.773,44.89L75.416,44.89L75.416,49.804L60.773,49.804L60.773,57.743L77.068,57.743L77.068,62.657L54.884,62.657Z" style="fill-rule:nonzero;"/>
            <path d="M76.484,62.657L84.104,51.774L76.802,41.527L83.626,41.527L87.367,47.337L91.306,41.527L97.872,41.527L90.709,51.535L98.529,62.657L91.664,62.657L87.367,56.111L83.03,62.657L76.484,62.657Z" style="fill-rule:nonzero;"/>
        </g>
    </g>
</svg>
