<?xml version="1.0" encoding="UTF-8" standalone="no"?>
<!DOCTYPE svg PUBLIC "-//W3C//DTD SVG 1.1//EN" "http://www.w3.org/Graphics/SVG/1.1/DTD/svg11.dtd">
<svg width="100%" height="100%" viewBox="0 0 100 100" version="1.1" xmlns="http://www.w3.org/2000/svg" xmlns:xlink="http://www.w3.org/1999/xlink" xml:space="preserve" xmlns:serif="http://www.serif.com/" style="fill-rule:evenodd;clip-rule:evenodd;stroke-linejoin:round;stroke-miterlimit:1.41421;">
    <g id="mid-south">
        <path d="M50.108,5.855C74.494,5.855 94.292,25.653 94.292,50.039C94.292,74.424 74.494,94.223 50.108,94.223C25.723,94.223 5.925,74.424 5.925,50.039C5.925,25.653 25.723,5.855 50.108,5.855ZM74.682,55.253L74.682,44.882L72.924,44.882L72.924,50.439C72.924,51.324 72.828,52 72.636,52.465C72.444,52.931 72.117,53.298 71.655,53.569C71.193,53.839 70.698,53.974 70.171,53.974C69.643,53.974 69.201,53.842 68.842,53.578C68.484,53.315 68.25,52.952 68.139,52.49C68.068,52.171 68.032,51.552 68.032,50.634L68.032,44.882L66.274,44.882L66.274,51.308C66.274,52.057 66.31,52.603 66.382,52.949C66.486,53.463 66.666,53.897 66.924,54.252C67.181,54.607 67.575,54.902 68.105,55.136C68.636,55.37 69.207,55.488 69.819,55.488C71.206,55.488 72.303,54.902 73.11,53.73L73.11,55.253L74.682,55.253ZM46.567,52.158L48.305,51.884C48.403,52.581 48.675,53.115 49.121,53.486C49.567,53.857 50.19,54.042 50.991,54.042C51.798,54.042 52.397,53.878 52.788,53.549C53.178,53.22 53.374,52.835 53.374,52.392C53.374,51.995 53.201,51.682 52.856,51.454C52.615,51.298 52.016,51.1 51.059,50.859C49.77,50.533 48.877,50.252 48.379,50.014C47.88,49.776 47.503,49.448 47.246,49.028C46.989,48.608 46.86,48.144 46.86,47.636C46.86,47.174 46.966,46.746 47.177,46.352C47.389,45.958 47.677,45.631 48.042,45.37C48.315,45.169 48.688,44.998 49.16,44.858C49.632,44.718 50.138,44.648 50.678,44.648C51.492,44.648 52.207,44.765 52.822,44.999C53.437,45.234 53.891,45.551 54.184,45.951C54.477,46.352 54.679,46.887 54.79,47.558L53.071,47.792C52.993,47.258 52.767,46.842 52.392,46.542C52.018,46.243 51.489,46.093 50.805,46.093C49.998,46.093 49.422,46.227 49.077,46.493C48.732,46.76 48.559,47.073 48.559,47.431C48.559,47.659 48.631,47.864 48.774,48.046C48.917,48.235 49.142,48.391 49.448,48.515C49.624,48.58 50.141,48.73 51.001,48.964C52.244,49.296 53.112,49.568 53.603,49.78C54.095,49.991 54.48,50.299 54.76,50.702C55.04,51.106 55.18,51.607 55.18,52.206C55.18,52.792 55.009,53.344 54.668,53.862C54.326,54.379 53.833,54.78 53.188,55.063C52.544,55.346 51.814,55.488 51.001,55.488C49.653,55.488 48.626,55.208 47.92,54.648C47.213,54.088 46.762,53.258 46.567,52.158ZM55.576,50.068C55.576,48.147 56.11,46.725 57.177,45.8C58.069,45.032 59.157,44.648 60.439,44.648C61.865,44.648 63.03,45.115 63.935,46.049C64.84,46.983 65.293,48.274 65.293,49.921C65.293,51.256 65.092,52.306 64.692,53.071C64.292,53.836 63.709,54.43 62.944,54.853C62.179,55.276 61.344,55.488 60.439,55.488C58.987,55.488 57.814,55.022 56.919,54.091C56.023,53.16 55.576,51.819 55.576,50.068ZM39.926,55.253L39.926,40.937L38.178,40.937L38.178,46.074C37.872,45.65 37.475,45.307 36.987,45.043C36.499,44.78 35.942,44.648 35.317,44.648C34.464,44.648 33.693,44.872 33.002,45.322C32.312,45.771 31.795,46.417 31.45,47.26C31.105,48.103 30.932,49.042 30.932,50.077C30.932,51.139 31.123,52.078 31.503,52.895C31.884,53.712 32.421,54.348 33.115,54.804C33.808,55.26 34.568,55.488 35.395,55.488C36.671,55.488 37.638,54.973 38.295,53.945L38.295,55.253L39.926,55.253ZM78.467,44.882L78.467,41.259L76.718,42.314L76.718,44.882L75.429,44.882L75.429,46.249L76.718,46.249L76.718,52.216C76.718,53.271 76.79,53.963 76.933,54.291C77.077,54.62 77.324,54.885 77.676,55.087C78.027,55.289 78.522,55.39 79.16,55.39C79.551,55.39 79.993,55.338 80.488,55.234L80.234,53.681C79.915,53.727 79.658,53.749 79.463,53.749C79.202,53.749 79.002,53.707 78.862,53.622C78.722,53.538 78.621,53.424 78.559,53.281C78.497,53.137 78.467,52.815 78.467,52.314L78.467,46.249L80.234,46.249L80.234,44.882L78.467,44.882ZM29.931,55.253L29.931,44.882L28.173,44.882L28.173,55.253L29.931,55.253ZM89.36,55.253L89.36,48.681C89.36,47.665 89.238,46.891 88.994,46.357C88.75,45.823 88.344,45.405 87.778,45.102C87.212,44.799 86.544,44.648 85.776,44.648C84.526,44.648 83.491,45.123 82.671,46.074L82.671,40.937L80.913,40.937L80.913,55.253L82.671,55.253L82.671,49.579C82.671,48.766 82.768,48.128 82.964,47.665C83.159,47.203 83.486,46.837 83.945,46.567C84.404,46.297 84.894,46.161 85.415,46.161C86.111,46.161 86.65,46.362 87.031,46.762C87.412,47.162 87.602,47.802 87.602,48.681L87.602,55.253L89.36,55.253ZM26.596,55.253L26.596,48.134C26.596,46.949 26.319,46.072 25.766,45.502C25.213,44.933 24.422,44.648 23.393,44.648C22.078,44.648 21.01,45.253 20.19,46.464C19.988,45.891 19.641,45.445 19.15,45.126C18.658,44.807 18.028,44.648 17.26,44.648C16.57,44.648 15.955,44.802 15.414,45.112C14.874,45.421 14.441,45.829 14.116,46.337L14.116,44.882L12.543,44.882L12.543,55.253L14.301,55.253L14.301,49.872C14.301,48.928 14.396,48.206 14.584,47.704C14.773,47.203 15.078,46.822 15.497,46.562C15.917,46.301 16.375,46.171 16.87,46.171C17.521,46.171 17.989,46.367 18.276,46.757C18.562,47.148 18.706,47.734 18.706,48.515L18.706,55.253L20.463,55.253L20.463,49.228C20.463,48.16 20.704,47.384 21.186,46.899C21.668,46.414 22.273,46.171 23.002,46.171C23.406,46.171 23.758,46.266 24.057,46.454C24.357,46.643 24.563,46.892 24.677,47.201C24.791,47.511 24.848,48.017 24.848,48.72L24.848,55.253L26.596,55.253ZM57.382,50.068C57.382,51.396 57.672,52.39 58.252,53.051C58.831,53.712 59.56,54.042 60.439,54.042C61.311,54.042 62.037,53.71 62.617,53.046C63.196,52.382 63.486,51.37 63.486,50.009C63.486,48.727 63.195,47.755 62.612,47.094C62.029,46.433 61.305,46.103 60.439,46.103C59.56,46.103 58.831,46.432 58.252,47.089C57.672,47.747 57.382,48.74 57.382,50.068ZM32.739,50.077C32.739,51.406 33.019,52.398 33.579,53.056C34.139,53.714 34.799,54.042 35.561,54.042C36.329,54.042 36.982,53.728 37.519,53.1C38.056,52.472 38.325,51.513 38.325,50.224C38.325,48.805 38.051,47.763 37.504,47.099C36.958,46.435 36.284,46.103 35.483,46.103C34.702,46.103 34.049,46.422 33.525,47.06C33.001,47.698 32.739,48.704 32.739,50.077ZM46.367,50.956L46.367,49.189L40.966,49.189L40.966,50.956L46.367,50.956ZM29.931,42.958L29.931,40.937L28.173,40.937L28.173,42.958L29.931,42.958Z" style="fill:rgb(13,116,169);"/>
    </g>
</svg>
