<?xml version="1.0" encoding="UTF-8" standalone="no"?>
<!DOCTYPE svg PUBLIC "-//W3C//DTD SVG 1.1//EN" "http://www.w3.org/Graphics/SVG/1.1/DTD/svg11.dtd">
<svg width="100%" height="100%" viewBox="0 0 100 100" version="1.1" xmlns="http://www.w3.org/2000/svg" xmlns:xlink="http://www.w3.org/1999/xlink" xml:space="preserve" xmlns:serif="http://www.serif.com/" style="fill-rule:evenodd;clip-rule:evenodd;stroke-linejoin:round;stroke-miterlimit:1.41421;">
    <g id="mydruggenome">
        <g transform="matrix(1.20483,0,0,1.20483,-1.7506,-6.15092)">
            <path d="M13.329,22.586C12.609,24.763 12.069,27.02 11.922,27.953C11.758,28.967 12.004,29.54 12.544,29.933C12.674,30.031 12.756,29.982 12.838,29.818C14.016,27.626 15.914,25.123 17.779,22.865C16.716,24.91 15.669,27.2 15.423,28.166C15.145,29.246 15.341,29.736 15.603,29.949C15.734,30.064 15.799,30.064 15.865,29.9C16.683,27.544 18.319,24.239 19.464,22.112C19.906,21.294 20.07,20.394 19.415,19.723C19.219,19.527 19.088,19.543 18.941,19.772C17.141,22.57 14.752,25.008 12.969,27.92C13.591,25.63 14.18,23.715 14.703,22.145C15.129,20.852 14.949,20.28 14.311,19.723C14.098,19.543 13.934,19.609 13.787,19.821C12.02,22.227 9.369,26.595 8.764,28.149C8.388,29.131 8.568,29.687 8.797,29.933C8.911,30.064 9.009,30.064 9.075,29.9C10.04,27.708 11.873,24.779 13.329,22.586Z" style="fill-rule:nonzero;"/>
            <path d="M21.313,26.481C23.326,24.304 24.733,23.061 25.911,21.916C26.876,20.967 27.04,20.247 26.909,19.772C26.86,19.592 26.745,19.543 26.565,19.691C25.273,20.836 22.966,23.094 21.444,24.779C21.51,23.552 21.64,22.488 21.69,21.572C21.755,20.394 21.51,19.92 21.117,19.674C20.97,19.576 20.822,19.592 20.773,19.854C20.462,21.408 20.332,23.912 20.299,25.908C19.841,26.824 19.464,27.691 19.284,28.28C19.039,29.131 19.203,29.704 19.448,29.916C19.579,30.031 19.693,30.031 19.759,29.867C20.102,28.886 20.626,27.708 21.313,26.481Z" style="fill-rule:nonzero;"/>
        </g>
        <g transform="matrix(0.89,0,0,1,0.829838,0)">
            <path d="M9.984,34.48L18.918,34.48C21.177,34.48 22.881,34.732 24.031,35.236C25.18,35.74 26.239,36.591 27.207,37.787C28.175,38.984 28.935,40.537 29.486,42.446C30.037,44.355 30.313,46.728 30.313,49.565C30.313,52.12 30.024,54.341 29.446,56.23C28.868,58.119 28.135,59.615 27.248,60.718C26.36,61.82 25.288,62.65 24.031,63.208C22.774,63.766 21.157,64.045 19.181,64.045L9.984,64.045L9.984,34.48ZM14.865,39.481L14.865,59.064L18.535,59.064C20.108,59.064 21.248,58.916 21.954,58.62C22.659,58.324 23.238,57.877 23.688,57.279C24.138,56.681 24.511,55.736 24.807,54.446C25.103,53.155 25.251,51.454 25.251,49.343C25.251,47.152 25.1,45.424 24.797,44.16C24.495,42.896 24.024,41.901 23.385,41.175C22.747,40.449 21.97,39.972 21.056,39.744C20.37,39.569 19.046,39.481 17.083,39.481L14.865,39.481Z" style="fill:white;fill-rule:nonzero;stroke:black;stroke-width:1.06px;"/>
            <path d="M34.467,64.045L34.467,34.48L44.773,34.48C47.408,34.48 49.29,34.745 50.42,35.276C51.549,35.808 52.477,36.728 53.203,38.039C53.929,39.35 54.292,40.92 54.292,42.748C54.292,45.061 53.737,46.923 52.628,48.335C51.519,49.747 49.943,50.634 47.899,50.997C48.948,51.75 49.815,52.573 50.501,53.467C51.186,54.362 52.121,55.965 53.304,58.277L56.248,64.045L50.42,64.045L46.87,57.612C45.593,55.286 44.726,53.83 44.269,53.246C43.812,52.661 43.328,52.257 42.817,52.036C42.306,51.814 41.486,51.703 40.356,51.703L39.348,51.703L39.348,64.045L34.467,64.045ZM39.348,46.984L42.978,46.984C45.196,46.984 46.608,46.886 47.213,46.691C47.818,46.496 48.309,46.103 48.685,45.511C49.062,44.92 49.25,44.133 49.25,43.152C49.25,42.211 49.062,41.454 48.685,40.883C48.309,40.312 47.798,39.918 47.153,39.703C46.696,39.555 45.371,39.481 43.18,39.481L39.348,39.481L39.348,46.984Z" style="fill:white;fill-rule:nonzero;stroke:black;stroke-width:1.06px;"/>
            <path d="M58.85,34.48L63.73,34.48L63.73,50.493C63.73,52.98 63.791,54.6 63.912,55.353C64.127,56.657 64.641,57.666 65.455,58.378C66.268,59.091 67.34,59.447 68.671,59.447C69.801,59.447 70.722,59.195 71.434,58.691C72.147,58.187 72.634,57.487 72.896,56.593C73.159,55.699 73.29,53.78 73.29,50.836L73.29,34.48L78.19,34.48L78.19,50.009C78.19,53.975 77.979,56.842 77.555,58.61C77.132,60.378 76.177,61.81 74.691,62.906C73.206,64.002 71.246,64.549 68.813,64.549C66.285,64.549 64.312,64.096 62.893,63.188C61.475,62.281 60.446,61.003 59.808,59.356C59.169,57.709 58.85,54.674 58.85,50.251L58.85,34.48Z" style="fill:white;fill-rule:nonzero;stroke:black;stroke-width:1.06px;"/>
            <path d="M94.627,53.175L94.627,48.194L105.174,48.194L105.174,59.971C104.112,61.222 102.606,62.297 100.657,63.198C98.707,64.099 96.751,64.549 94.788,64.549C92.395,64.549 90.284,63.961 88.456,62.785C86.627,61.608 85.178,59.847 84.109,57.501C83.041,55.155 82.506,52.395 82.506,49.222C82.506,45.969 83.047,43.185 84.13,40.873C85.212,38.56 86.617,36.833 88.345,35.69C90.072,34.547 92.139,33.976 94.546,33.976C97.437,33.976 99.753,34.712 101.494,36.184C103.235,37.656 104.354,39.817 104.852,42.668L100.011,43.777C99.648,42.258 98.983,41.095 98.015,40.288C97.047,39.481 95.891,39.078 94.546,39.078C92.462,39.078 90.775,39.888 89.484,41.508C88.193,43.128 87.548,45.599 87.548,48.92C87.548,52.483 88.247,55.192 89.645,57.047C90.842,58.647 92.462,59.447 94.506,59.447C95.46,59.447 96.452,59.222 97.48,58.771C98.509,58.321 99.427,57.706 100.233,56.926L100.233,53.175L94.627,53.175Z" style="fill:white;fill-rule:nonzero;stroke:black;stroke-width:1.06px;"/>
        </g>
        <g transform="matrix(1.11,0,0,1,-0.779024,0)">
            <path d="M14.053,77.343L14.053,74.818L19.399,74.818L19.399,80.788C18.861,81.421 18.098,81.967 17.11,82.423C16.122,82.88 15.13,83.108 14.135,83.108C12.922,83.108 11.852,82.81 10.925,82.214C9.999,81.617 9.264,80.725 8.723,79.535C8.181,78.346 7.91,76.948 7.91,75.339C7.91,73.69 8.184,72.28 8.733,71.108C9.281,69.935 9.994,69.06 10.869,68.48C11.745,67.901 12.793,67.612 14.012,67.612C15.478,67.612 16.651,67.985 17.534,68.731C18.416,69.477 18.984,70.573 19.236,72.017L16.783,72.579C16.599,71.809 16.261,71.22 15.771,70.811C15.28,70.402 14.694,70.198 14.012,70.198C12.956,70.198 12.101,70.608 11.447,71.43C10.793,72.251 10.465,73.503 10.465,75.186C10.465,76.992 10.82,78.365 11.529,79.305C12.135,80.116 12.956,80.522 13.992,80.522C14.476,80.522 14.978,80.408 15.5,80.179C16.021,79.951 16.486,79.639 16.895,79.244L16.895,77.343L14.053,77.343Z" style="fill-rule:nonzero;"/>
            <path d="M21.699,82.852L21.699,67.867L30.817,67.867L30.817,70.402L24.173,70.402L24.173,73.724L30.347,73.724L30.347,76.249L24.173,76.249L24.173,80.328L31.042,80.328L31.042,82.852L21.699,82.852Z" style="fill-rule:nonzero;"/>
            <path d="M33.168,82.852L33.168,67.867L35.581,67.867L40.61,77.874L40.61,67.867L42.92,67.867L42.92,82.852L40.426,82.852L35.478,73.08L35.478,82.852L33.168,82.852Z" style="fill-rule:nonzero;"/>
            <path d="M45.036,75.452C45.036,73.666 45.3,72.196 45.828,71.041C46.356,69.886 47.046,69.026 47.898,68.46C48.75,67.894 49.782,67.612 50.995,67.612C52.753,67.612 54.186,68.283 55.294,69.625C56.401,70.968 56.955,72.879 56.955,75.36C56.955,77.868 56.369,79.827 55.197,81.237C54.168,82.484 52.771,83.108 51.006,83.108C49.227,83.108 47.823,82.491 46.794,81.258C45.622,79.847 45.036,77.912 45.036,75.452ZM47.591,75.35C47.591,77.074 47.919,78.367 48.573,79.229C49.227,80.091 50.038,80.522 51.006,80.522C51.98,80.522 52.788,80.094 53.428,79.239C54.069,78.384 54.389,77.07 54.389,75.298C54.389,73.561 54.077,72.276 53.454,71.445C52.83,70.613 52.014,70.198 51.006,70.198C49.997,70.198 49.176,70.617 48.542,71.455C47.908,72.293 47.591,73.591 47.591,75.35Z" style="fill-rule:nonzero;"/>
            <path d="M58.856,82.852L58.856,67.867L62.567,67.867L64.795,78.089L67.003,67.867L70.724,67.867L70.724,82.852L68.424,82.852L68.424,71.056L65.981,82.852L63.589,82.852L61.166,71.056L61.166,82.852L58.856,82.852Z" style="fill-rule:nonzero;"/>
            <path d="M73.197,82.852L73.197,67.867L82.315,67.867L82.315,70.402L75.671,70.402L75.671,73.724L81.845,73.724L81.845,76.249L75.671,76.249L75.671,80.328L82.54,80.328L82.54,82.852L73.197,82.852Z" style="fill-rule:nonzero;"/>
        </g>
    </g>
</svg>
