<?xml version="1.0" encoding="UTF-8" standalone="no"?>
<!DOCTYPE svg PUBLIC "-//W3C//DTD SVG 1.1//EN" "http://www.w3.org/Graphics/SVG/1.1/DTD/svg11.dtd">
<svg width="100%" height="100%" viewBox="0 0 100 100" version="1.1" xmlns="http://www.w3.org/2000/svg" xmlns:xlink="http://www.w3.org/1999/xlink" xml:space="preserve" xmlns:serif="http://www.serif.com/" style="fill-rule:evenodd;clip-rule:evenodd;stroke-linejoin:round;stroke-miterlimit:1.41421;">
    <g id="noaac">
        <g id="Circles">
            <path d="M50.008,1.53C76.438,1.53 97.896,22.987 97.896,49.417C97.896,75.847 76.438,97.304 50.008,97.304C23.579,97.304 2.121,75.847 2.121,49.417C2.121,22.987 23.579,1.53 50.008,1.53ZM50.169,9.574C72.467,9.574 90.57,27.677 90.57,49.974C90.57,72.272 72.467,90.375 50.169,90.375C27.872,90.375 9.769,72.272 9.769,49.974C9.769,27.677 27.872,9.574 50.169,9.574Z"/>
            <path d="M50.035,13.8C69.805,13.8 85.856,29.851 85.856,49.622C85.856,69.392 69.805,85.443 50.035,85.443C30.265,85.443 14.214,69.392 14.214,49.622C14.214,29.851 30.265,13.8 50.035,13.8ZM44.69,18.807C48.722,16.48 52.238,16.551 55.249,18.964L56.194,18.977C57.009,19.231 57.444,19.709 57.422,20.458L57.475,22.992C57.576,23.772 57.39,24.284 56.833,24.45L56.833,64.532L66.269,74.641C66.68,76.09 66.533,77.152 65.944,77.911C64.145,80.229 61.6,80.688 59.019,79.198L50.501,71.282L43.283,78.439C40.433,80.849 36.895,80.796 34.587,79.123C32.491,77.605 31.408,74.985 33.036,72.071L43.492,61.35L43.679,24.747C43.055,24.446 42.687,24.01 42.756,23.346L42.731,20.121C42.802,19.295 43.636,18.875 44.69,18.807Z" style="fill:rgb(47,106,121);"/>
            <g transform="matrix(1.16964,0.00360378,-0.000986253,0.320099,6.74955,-5.65961)">
                <ellipse cx="37.008" cy="76.092" rx="3.156" ry="1.636" style="fill:rgb(47,106,121);"/>
            </g>
            <g transform="matrix(0.981445,0.636277,-0.441699,0.681312,33.7124,1.4316)">
                <ellipse cx="37.008" cy="76.092" rx="3.156" ry="1.636" style="fill:rgb(47,106,121);"/>
            </g>
            <g transform="matrix(0.797936,-0.602743,0.513727,0.680093,-5.80425,47.6066)">
                <ellipse cx="37.008" cy="76.092" rx="3.156" ry="1.636" style="fill:rgb(47,106,121);"/>
            </g>
        </g>
    </g>
</svg>
