<?xml version="1.0" encoding="UTF-8" standalone="no"?>
<!DOCTYPE svg PUBLIC "-//W3C//DTD SVG 1.1//EN" "http://www.w3.org/Graphics/SVG/1.1/DTD/svg11.dtd">
<svg width="100%" height="100%" viewBox="0 0 100 100" version="1.1" xmlns="http://www.w3.org/2000/svg" xmlns:xlink="http://www.w3.org/1999/xlink" xml:space="preserve" xmlns:serif="http://www.serif.com/" style="fill-rule:evenodd;clip-rule:evenodd;stroke-linejoin:round;stroke-miterlimit:1.41421;">
    <g id="participants">
        <g transform="matrix(0.454316,0,0,0.454316,5.32542,3.77335)">
            <path d="M139.2,43.9C143.9,45.1 148.6,45.8 153.2,47.5C173,54.6 184.3,68.4 186.7,89.4C188.2,102.6 186.9,115.5 180.7,127.5C173.7,141.2 162,149 147.5,153C139.773,155.064 131.796,156.04 123.8,155.9C115.4,156 107,156 98.6,155.9C96.4,155.9 95.6,156.4 95.7,158.7C95.8,171.6 95.7,184.5 95.8,197.4C95.8,199.5 95.2,200 93.1,200C81.5,199.9 69.9,199.9 58.4,200C56.3,200 55.8,199.5 55.8,197.4C55.9,171.6 55.9,145.767 55.8,119.9C55.8,116 56.3,116.5 52.3,116.5L49.3,116.5C49.5,115 50.7,115.4 51.6,115.3C54.9,114.9 54.9,115 54.9,111.6C54.9,102.7 54.8,93.8 54.9,85C54.8,72.1 54.8,59.2 54.9,46.3C54.9,43.4 55.7,42.4 58.3,42.4C71.1,42.2 84,42 96.9,42.3C97.918,42.391 98.841,42.944 99.4,43.8C101.926,47.085 103.391,51.062 103.6,55.2C103.2,58.22 103.2,61.28 103.6,64.3C103.668,67.539 102.647,70.71 100.7,73.3C100.08,73.974 99.332,74.518 98.5,74.9C95.7,75.3 96.4,77.4 96.4,79.2C96.4,90.8 96.5,102.4 96.4,114C96.3,116.5 96.4,119 96.3,121.5C96.3,123 96.8,123.9 98.4,123.8C108.5,123.5 118.6,124.5 128.6,123.3C141,121.8 148.7,113 148.9,100.4C149,94.5 148,89 144.5,84.1C143.322,82.488 141.866,81.1 140.2,80C139.228,79.525 138.4,78.8 137.8,77.9C137.6,77.079 137.6,76.221 137.8,75.4C139.548,66.069 139.852,56.524 138.7,47.1C138.7,46 138.3,44.9 139.2,43.9Z" style="fill:rgb(82,178,229);fill-rule:nonzero;"/>
        </g>
        <g transform="matrix(0.454316,0,0,0.454316,5.32542,3.77335)">
            <path d="M103.1,55C102.3,50.5 101.2,46.2 97.7,43C96.724,42.507 95.788,41.939 94.9,41.3C89.9,37.3 84,35.9 77.9,35.8C69.7,35.6 61.4,35.7 53.2,35.8C50.1,35.8 49.9,36 49.9,39.1L49.9,81C49.9,84.1 49.9,84.1 53.1,84.3C54.031,84.271 54.946,84.552 55.7,85.1C55.7,94.7 55.7,104.4 55.8,114C55.8,115.6 55.3,116.2 53.7,116.1C52.3,116.1 50.7,115.5 49.4,116.5C49.4,130.2 49.3,144 49.4,157.7C49.4,160 48.8,160.6 46.5,160.5C34.9,160.4 23.3,160.4 11.8,160.5C10,160.5 9.4,160.1 9.4,158.2C9.5,107.533 9.5,56.8 9.4,6C9.4,4 10,3.5 11.9,3.5C34,3.6 56,3.5 78.1,3.6C90.8,3.7 103.3,5.4 114.8,11.4C128.1,18.3 136.2,29.2 139.3,43.9C139.6,48.3 140.3,52.8 140.3,57.2C140.205,64.148 139.503,71.074 138.2,77.9C138.7,79.3 138,80.5 137.6,81.7C132.1,96.7 121.6,106.7 106.7,112.1C104.062,113.096 101.355,113.899 98.6,114.5C97.6,114.7 96.7,115.1 95.7,114.4L95.7,78.4C96.6,76.884 97.711,75.503 99,74.3C99.5,73.9 99.8,73.3 100.3,72.8C102.2,70.3 102.7,67.3 103.2,64.3C102.766,61.217 102.732,58.091 103.1,55Z" style="fill:rgb(2,115,170);fill-rule:nonzero;"/>
        </g>
        <g transform="matrix(0.454316,0,0,0.454316,5.32542,3.77335)">
            <path d="M99.2,74.5C98.338,76.13 97.105,77.535 95.6,78.6L95.6,77.6C95.1,75.2 96.1,74.1 98.6,74.4C98.9,74.2 99.1,74.3 99.2,74.5Z" style="fill:rgb(250,252,253);fill-rule:nonzero;"/>
        </g>
        <g transform="matrix(0.454316,0,0,0.454316,5.32542,3.77335)">
            <path d="M103.1,55L103.1,64.5C102.35,61.378 102.35,58.122 103.1,55Z" style="fill:rgb(94,182,230);fill-rule:nonzero;"/>
        </g>
        <g transform="matrix(0.454316,0,0,0.454316,5.32542,3.77335)">
            <path d="M100.2,73C100.089,73.617 99.727,74.161 99.2,74.5" style="fill:rgb(136,191,227);fill-rule:nonzero;"/>
        </g>
    </g>
</svg>
