<?xml version="1.0" encoding="UTF-8" standalone="no"?>
<!DOCTYPE svg PUBLIC "-//W3C//DTD SVG 1.1//EN" "http://www.w3.org/Graphics/SVG/1.1/DTD/svg11.dtd">
<svg width="100%" height="100%" viewBox="0 0 100 100" version="1.1" xmlns="http://www.w3.org/2000/svg" xmlns:xlink="http://www.w3.org/1999/xlink" xml:space="preserve" xmlns:serif="http://www.serif.com/" style="fill-rule:evenodd;clip-rule:evenodd;stroke-linejoin:round;stroke-miterlimit:1.41421;">
    <g id="peer">
        <path d="M73.904,66.477L81.491,73.68C82.468,74.667 82.539,75.215 81.552,76.202L78.397,79.189C77.42,80.176 76.171,80.553 75.183,79.565L60.883,66.477L73.904,66.477ZM14.007,41.047C13.469,39.148 13.18,37.143 13.18,35.071C13.18,23 22.962,13.219 35.033,13.219C47.105,13.219 56.886,23 56.886,35.071C56.886,37.144 56.598,39.148 56.061,41.047L47.086,41.047C47.979,39.247 48.481,37.218 48.481,35.071C48.481,27.633 42.461,21.624 35.033,21.624C27.595,21.624 21.585,27.644 21.585,35.071C21.585,37.219 22.087,39.248 22.98,41.047L14.007,41.047Z" style="fill-rule:nonzero;"/>
        <g transform="matrix(1,0,0,1,-3.39637,2.1074)">
            <g transform="matrix(1,0,0,1,3.39637,-2.1074)">
                <path d="M29.091,49.956L28.975,50.615C28.713,52.098 28.247,53.179 27.576,53.858C26.905,54.537 25.801,55.059 24.265,55.422C22.728,55.786 20.771,55.968 18.395,55.968L15.475,55.968L13.825,65.325L2.949,65.325L5.66,49.956L16.536,49.956L16.179,51.978C16.487,51.988 16.753,51.992 16.977,51.992C17.976,51.992 18.693,51.856 19.129,51.583C19.552,51.318 19.841,50.776 19.997,49.956L29.091,49.956ZM6.162,47.108L7.047,42.089L18,42.089C20.962,42.089 23.217,42.219 24.765,42.477C26.312,42.735 27.444,43.108 28.158,43.596C28.873,44.084 29.311,44.675 29.473,45.369C29.574,45.801 29.594,46.381 29.532,47.108L20.377,47.108C20.324,46.789 20.181,46.561 19.948,46.424C19.543,46.185 18.634,46.065 17.222,46.065L17.038,47.108L6.162,47.108Z" style="fill:rgb(198,198,198);fill-rule:nonzero;stroke:black;stroke-width:0.5px;"/>
            </g>
            <g transform="matrix(1,0,0,1,3.39637,-2.1074)">
                <path d="M30.312,49.956L41.188,49.956L40.978,51.146L47.773,51.146L46.993,55.566L40.199,55.566L39.298,60.675L47.281,60.675L46.461,65.325L27.602,65.325L30.312,49.956ZM49.014,46.739L41.755,46.739L41.69,47.108L30.814,47.108L31.699,42.089L49.834,42.089L49.014,46.739Z" style="fill:rgb(198,198,198);fill-rule:nonzero;stroke:black;stroke-width:0.5px;"/>
            </g>
            <g transform="matrix(1,0,0,1,3.39637,-2.1074)">
                <path d="M50.392,49.956L61.268,49.956L61.058,51.146L67.852,51.146L67.073,55.566L60.279,55.566L59.378,60.675L67.36,60.675L66.541,65.325L47.682,65.325L50.392,49.956ZM69.094,46.739L61.835,46.739L61.77,47.108L50.894,47.108L51.779,42.089L69.914,42.089L69.094,46.739Z" style="fill:rgb(198,198,198);fill-rule:nonzero;stroke:black;stroke-width:0.5px;"/>
            </g>
            <g transform="matrix(1,0,0,1,3.39637,-2.1074)">
                <path d="M94.637,49.956C94.289,50.943 93.799,51.651 93.167,52.078C92.248,52.7 90.589,53.074 88.19,53.198C90.291,53.495 91.668,53.892 92.321,54.389C92.973,54.887 93.353,55.344 93.461,55.76C93.568,56.176 93.457,57.322 93.126,59.197L92.046,65.325L81.944,65.325L83.306,57.604C83.525,56.36 83.485,55.59 83.184,55.293C82.883,54.997 81.984,54.848 80.485,54.848L78.638,65.325L67.762,65.325L70.472,49.956L81.348,49.956L81.123,51.232C82.346,51.232 83.219,51.138 83.743,50.952C84.107,50.822 84.388,50.49 84.586,49.956L94.637,49.956ZM70.974,47.108L71.859,42.089L79.557,42.089C84.69,42.089 88.145,42.199 89.923,42.419C91.701,42.64 93.083,43.202 94.069,44.106C94.82,44.794 95.184,45.795 95.16,47.108L85.047,47.108C84.992,46.782 84.832,46.549 84.569,46.409C84.136,46.18 83.291,46.065 82.034,46.065L81.85,47.108L70.974,47.108Z" style="fill:rgb(198,198,198);fill-rule:nonzero;stroke:black;stroke-width:0.5px;"/>
            </g>
        </g>
    </g>
</svg>
