<?xml version="1.0" encoding="UTF-8" standalone="no"?>
<!DOCTYPE svg PUBLIC "-//W3C//DTD SVG 1.1//EN" "http://www.w3.org/Graphics/SVG/1.1/DTD/svg11.dtd">
<svg width="100%" height="100%" viewBox="0 0 100 100" version="1.1" xmlns="http://www.w3.org/2000/svg" xmlns:xlink="http://www.w3.org/1999/xlink" xml:space="preserve" xmlns:serif="http://www.serif.com/" style="fill-rule:evenodd;clip-rule:evenodd;stroke-linecap:round;stroke-linejoin:round;stroke-miterlimit:1.5;">
    <g id="pmforallpeople" transform="matrix(0.25,0,0,0.25,0,38.75)">
        <g transform="matrix(1,0,0,1,7,0)">
            <path d="M20.464,0.959L34.47,7.809C34.712,13.067 34.005,18.398 34.719,23.107C34.752,28.946 38.071,33.429 44.149,37.902C52.625,41.009 60.375,38.265 67.764,32.606L88.991,16.919C101.318,9.506 113.609,5.432 125.843,6.739C151.105,13.864 173.676,25.036 196.239,37.24C204.741,43.003 214.433,45.675 223.658,46.819C243.261,50.14 259.845,48.342 275.175,44.42C295.864,39.792 313.517,32.533 330.652,24.824C338.748,22.023 347.201,22.387 355.753,23.623C361.764,24.303 367.401,26.319 372.869,28.941C363.551,23.504 353.394,18.813 341.095,16.022C333.275,14.406 325.314,14.575 317.133,17.487C304.563,21.256 293.45,27.089 279.163,32.029L258.942,38.034C246.025,41.22 232.155,42.803 216.647,41.144C210.515,40.86 204.024,38.924 197.708,36.761L151.793,16.735C141.098,13.728 134.51,13.177 125.344,14.946C110.911,19.168 98.738,27.121 87.376,36.414C79.302,44.357 70.202,49.881 57.396,46.236C52.379,45.634 47.375,43.278 42.634,40.894C36.438,37.464 30.826,33.211 26.28,27.448C21.563,23.353 19.21,17.356 19.321,9.376L20.464,0.959" style="fill:rgb(75,82,56);stroke:rgb(75,82,56);stroke-opacity:0.54902;stroke-width:0.75px;"/>
        </g>
        <g transform="matrix(1,0,0,1,7,0)">
            <path d="M8.67,87.735C19.434,70.383 30.233,53.147 41.363,36.979C55.052,25.933 69.418,24.922 84.989,34.091L117.628,61.129C131.538,71.956 144.72,73.353 157.114,64.513C170.82,55.478 182.576,45.441 194.383,35.431C212.264,26.798 230.828,26.556 249.953,33.205L306.295,59.338C323.577,65.986 340.65,70.245 356.865,64.711L374.152,58.281L368.294,43.102L352.163,49.725C336.754,52.634 324.498,52.332 315.012,48.425C291.947,41.41 270.356,29.64 248.931,19.92C229.914,12.991 211.272,11.303 193.243,18.182C179.151,25.853 167.605,35.771 155.688,45.401C144.128,54.844 131.454,57.026 118.042,50.327C105.028,40.669 91.979,29.66 79.035,18.566C62.245,8.53 48.142,10.88 35.093,23.297C23.427,38.991 13.488,56.67 1.037,73.642L8.67,87.735Z" style="fill:rgb(228,144,67);stroke:rgb(228,144,67);stroke-width:0.75px;"/>
        </g>
    </g>
</svg>
