<?xml version="1.0" encoding="UTF-8" standalone="no"?>
<!DOCTYPE svg PUBLIC "-//W3C//DTD SVG 1.1//EN" "http://www.w3.org/Graphics/SVG/1.1/DTD/svg11.dtd">
<svg width="100%" height="100%" viewBox="0 0 402 400" version="1.1" xmlns="http://www.w3.org/2000/svg" xmlns:xlink="http://www.w3.org/1999/xlink" xml:space="preserve" xmlns:serif="http://www.serif.com/" style="fill-rule:evenodd;clip-rule:evenodd;stroke-linejoin:round;stroke-miterlimit:1.41421;">
    <g id="proclaimstudy">
        <g transform="matrix(1,0,0,1,-2.78397,-19.1579)">
            <path d="M203.263,50.254C296.651,50.254 372.47,126.073 372.47,219.461C372.47,312.849 296.651,388.668 203.263,388.668C109.875,388.668 34.056,312.849 34.056,219.461C34.056,126.073 109.875,50.254 203.263,50.254ZM203.263,79.157C280.699,79.157 343.567,142.025 343.567,219.461C343.567,296.897 280.699,359.765 203.263,359.765C125.827,359.765 62.959,296.897 62.959,219.461C62.959,142.025 125.827,79.157 203.263,79.157Z" style="fill:rgb(248,185,55);"/>
        </g>
        <path d="M118.607,169.571C119.433,169.62 119.641,169.617 120.462,169.728C130.439,171.077 137.971,181.253 136.295,191.788C136.234,192.166 136.176,192.545 136.118,192.924C132.627,216.062 133.342,240.62 145.971,261.135C152.941,272.458 163.189,281.558 174.617,288.475C174.617,288.475 176.321,289.54 177.59,290.707C185.307,297.806 185.263,311.709 177.011,318.693C170.618,324.104 160.821,323.857 153.732,319.464C136.246,308.628 121.072,293.709 111.256,275.66C96.88,249.228 94.645,217.234 99.211,187.296C99.887,182.865 101.612,178.033 105.057,174.738C107.976,171.946 111.816,170.145 115.82,169.683C117.615,169.476 118.035,169.566 118.607,169.571Z" style="fill:rgb(248,185,55);fill-rule:nonzero;"/>
        <g transform="matrix(-0.750028,-0.661406,0.661406,-0.750028,215.158,503.991)">
            <path d="M176.286,319.276C173.969,320.957 173.48,321.101 172.275,321.615C166.276,324.173 159.271,322.897 153.732,319.464C128.737,303.974 109.234,279.846 101.479,251.11C95.896,230.42 95.984,208.453 99.211,187.296C99.932,182.569 101.899,177.441 105.746,174.112C112.535,168.236 123.718,168.295 130.448,174.351C135.889,179.248 136.999,186.779 135.868,194.617C132.662,217.358 133.799,241.363 145.971,261.135C152.941,272.458 163.188,281.557 174.618,288.475L175.402,288.977C176.075,289.457 176.253,289.565 176.89,290.094C184.708,296.599 185.683,309.859 178.37,317.422C177.113,318.721 176.732,318.918 176.286,319.276Z" style="fill:rgb(250,212,56);fill-rule:nonzero;"/>
        </g>
        <g transform="matrix(-0.353547,0.935417,-0.935417,-0.353547,473.602,75.3586)">
            <path d="M104.722,261.268C96.029,237.646 95.482,211.227 99.317,186.611C100.543,178.736 106.107,171.806 113.76,170.039C125.169,167.404 137.871,177.738 136.519,190.235C136.265,192.583 136.034,193.463 135.868,194.617C132.662,217.358 133.799,241.363 145.971,261.135C152.957,272.484 163.35,281.655 174.617,288.475C174.617,288.475 176.377,289.576 177.679,290.79C185.346,297.936 185.274,311.85 176.859,318.82C170.658,323.957 161.398,324.172 154.259,319.789C132.221,306.261 114.419,286.429 105.137,262.371C104.998,262.004 104.859,261.636 104.722,261.268Z" style="fill:rgb(250,212,56);fill-rule:nonzero;"/>
        </g>
        <g transform="matrix(-1.53809,-0.155482,0.0557582,-0.551581,438.297,370.968)">
            <path d="M167.99,353.897C165.179,354.3 161.193,352.911 157.57,352.161C151.925,350.956 146.727,345.967 141.881,334.463C138.813,327.182 135.728,319.971 132.536,313.167C132.536,313.167 129.976,307.152 128.861,300.259C126.463,285.43 128.561,266.06 133.66,257.537C137.672,250.828 143.065,251.352 146.918,259.08C150.774,266.813 154.406,275.95 158.134,284.594C158.134,284.594 161.293,285.365 164.104,285.897C165.639,286.194 167.711,286.637 167.711,286.637C170.303,287.213 174.492,291.39 176.824,299.985C180.897,314.997 179.322,339.48 173.312,349.328C172.202,351.149 170.987,352.468 169.727,353.221C169.155,353.564 168.573,353.766 167.99,353.897Z" style="fill:rgb(248,185,55);fill-rule:nonzero;"/>
        </g>
        <g transform="matrix(1.39992,0.655829,-0.23519,0.502032,49.5977,-10.7171)">
            <path d="M135.024,255.573C138.91,251.003 143.507,252.212 146.936,259.115C150.83,266.953 154.407,275.952 158.134,284.594C158.134,284.594 161.293,285.365 164.104,285.897C165.638,286.194 167.711,286.637 167.711,286.637C169.081,286.942 171.377,288.201 173.159,291.024C178.919,300.148 181.047,323.881 177.076,339.65C174.678,349.172 170.455,354.64 166.235,353.864C165.695,353.744 165.156,353.627 164.616,353.513C157.554,352.059 150.262,352.375 144.21,339.726C140.199,331.344 136.555,321.732 132.536,313.167C132.536,313.167 130.251,307.804 129.164,301.997C126.235,286.349 128.538,264.647 134.427,256.357C134.623,256.081 134.824,255.827 135.024,255.573Z" style="fill:rgb(250,212,56);fill-rule:nonzero;"/>
        </g>
    </g>
</svg>
