<?xml version="1.0" encoding="UTF-8" standalone="no"?>
<!DOCTYPE svg PUBLIC "-//W3C//DTD SVG 1.1//EN" "http://www.w3.org/Graphics/SVG/1.1/DTD/svg11.dtd">
<svg width="100%" height="100%" viewBox="0 0 100 100" version="1.1" xmlns="http://www.w3.org/2000/svg" xmlns:xlink="http://www.w3.org/1999/xlink" xml:space="preserve" xmlns:serif="http://www.serif.com/" style="fill-rule:evenodd;clip-rule:evenodd;stroke-linejoin:round;stroke-miterlimit:1.41421;">
    <g id="projectmycap">
        <g transform="matrix(1.2776,0,0,1.22846,-3.189,-15.5166)">
            <path d="M5.599,64.51L5.599,42.182L8.984,42.182L8.984,45.315C9.684,44.222 10.616,43.342 11.78,42.676C12.943,42.011 14.268,41.678 15.753,41.678C17.407,41.678 18.763,42.021 19.821,42.708C20.88,43.395 21.626,44.355 22.06,45.588C23.827,42.981 26.125,41.678 28.956,41.678C31.171,41.678 32.874,42.291 34.065,43.517C35.257,44.744 35.852,46.632 35.852,49.183L35.852,64.51L32.089,64.51L32.089,50.445C32.089,48.931 31.966,47.841 31.721,47.175C31.476,46.51 31.031,45.974 30.386,45.567C29.741,45.161 28.984,44.957 28.115,44.957C26.546,44.957 25.242,45.479 24.205,46.524C23.168,47.568 22.649,49.239 22.649,51.538L22.649,64.51L18.865,64.51L18.865,50.003C18.865,48.321 18.556,47.06 17.94,46.219C17.323,45.378 16.314,44.957 14.912,44.957C13.847,44.957 12.863,45.238 11.958,45.798C11.054,46.359 10.399,47.179 9.993,48.258C9.586,49.337 9.383,50.893 9.383,52.925L9.383,64.51L5.599,64.51Z" style="fill-rule:nonzero;"/>
            <path d="M41.297,73.108L40.877,69.555C41.704,69.78 42.426,69.892 43.042,69.892C43.883,69.892 44.556,69.752 45.061,69.471C45.565,69.191 45.979,68.799 46.301,68.294C46.539,67.916 46.925,66.976 47.457,65.477C47.528,65.267 47.64,64.958 47.794,64.552L39.321,42.182L43.4,42.182L48.046,55.112C48.649,56.752 49.188,58.476 49.665,60.284C50.099,58.546 50.618,56.85 51.221,55.196L55.993,42.182L59.777,42.182L51.284,64.888C50.373,67.341 49.665,69.03 49.16,69.955C48.488,71.202 47.717,72.117 46.848,72.699C45.979,73.28 44.942,73.571 43.736,73.571C43.007,73.571 42.194,73.417 41.297,73.108Z" style="fill-rule:nonzero;"/>
        </g>
        <path d="M64.093,30.663L65.812,32.997L62.981,35.833C62.387,34.98 61.82,34.212 61.519,33.167C62.333,32.2 64.093,30.663 64.093,30.663Z"/>
        <path d="M62.941,35.862C66.126,41.673 70.295,46.762 75.448,51.131L75.778,56.994C76.615,63.009 78.418,68.35 83.182,71.627C84.962,72.531 86.656,72.83 88.226,72.242L87.686,59.076C90.392,56.023 92.569,52.736 94.121,49.175C95.357,46.687 95.323,44.162 94.42,41.611C93.285,38.712 91.755,35.951 89.838,33.326C90.258,33.129 90.253,32.787 90.219,32.151L89.558,31.426C89.051,31.217 88.625,31.268 88.275,31.568C85.867,29.255 83.084,27.527 80.039,26.208C77.019,25.149 74.095,25.013 71.236,25.508C68.389,26.435 65.784,28.501 64.102,30.652C64.637,31.458 65.04,32.015 65.837,33L62.941,35.862" style="fill:rgb(167,42,47);"/>
    </g>
</svg>
