<?xml version="1.0" encoding="UTF-8" standalone="no"?>
<!DOCTYPE svg PUBLIC "-//W3C//DTD SVG 1.1//EN" "http://www.w3.org/Graphics/SVG/1.1/DTD/svg11.dtd">
<svg width="100%" height="100%" viewBox="0 0 100 100" version="1.1" xmlns="http://www.w3.org/2000/svg" xmlns:xlink="http://www.w3.org/1999/xlink" xml:space="preserve" xmlns:serif="http://www.serif.com/" style="fill-rule:evenodd;clip-rule:evenodd;stroke-linejoin:round;stroke-miterlimit:1.41421;">
    <g id="rd">
        <g transform="matrix(0.934765,0,0,0.934765,3.13379,2.56551)">
            <path d="M98.372,6.816C99.694,7.104 99.887,7.407 99.977,8.669L99.977,91.27C99.873,92.724 99.477,93.044 98.105,93.142L2.051,93.142C0.597,93.038 0.277,92.642 0.179,91.27L0.179,8.669C0.283,7.215 0.679,6.895 2.051,6.797L98.105,6.797C98.194,6.803 98.283,6.809 98.372,6.816ZM3.923,89.397L96.233,89.397L96.233,10.541L3.923,10.541C3.923,36.826 3.923,63.112 3.923,89.397Z" style="fill:rgb(210,179,144);fill-rule:nonzero;"/>
        </g>
        <path d="M93.205,12.298L93.205,86.562L6.662,86.562L6.662,12.298L93.205,12.298ZM69.236,68.76C71.522,68.76 73.545,68.546 75.307,68.116C77.068,67.686 78.572,67.055 79.818,66.221C81.064,65.388 82.211,64.245 83.259,62.793C84.308,61.341 85.167,59.506 85.837,57.289C86.507,55.072 86.842,52.529 86.842,49.659C86.842,46.291 86.348,43.296 85.36,40.675C84.372,38.055 82.881,35.902 80.888,34.218C79.358,32.912 77.511,32.01 75.345,31.511C73.799,31.15 71.556,30.97 68.617,30.97L55.6,30.97L55.6,68.76L69.236,68.76ZM50.856,68.76L44.283,58.475C42.977,56.464 41.594,54.789 40.133,53.448C39.445,52.83 38.44,52.202 37.117,51.567C40.743,51.068 43.424,49.9 45.159,48.061C46.895,46.222 47.763,43.962 47.763,41.281C47.763,39.202 47.239,37.303 46.191,35.584C45.142,33.866 43.742,32.667 41.989,31.988C40.236,31.309 37.675,30.97 34.307,30.97L17.551,30.97L17.551,68.76L22.552,68.76L22.552,51.979L28.352,51.979C29.641,51.979 30.569,52.039 31.136,52.159C31.91,52.348 32.67,52.684 33.418,53.165C34.165,53.646 35.012,54.488 35.957,55.691C36.902,56.894 38.105,58.63 39.566,60.898L44.567,68.76L50.856,68.76ZM68.54,35.43C71.513,35.43 73.67,35.687 75.01,36.203C76.866,36.925 78.443,38.347 79.741,40.469C81.038,42.592 81.687,45.629 81.687,49.582C81.687,52.434 81.356,54.862 80.694,56.864C80.033,58.866 79.109,60.46 77.923,61.646C77.081,62.488 75.951,63.141 74.533,63.605C73.116,64.069 71.161,64.301 68.669,64.301L60.6,64.301L60.6,35.43L68.54,35.43ZM34.513,35.146C37.315,35.146 39.364,35.722 40.661,36.873C41.959,38.025 42.607,39.494 42.607,41.281C42.607,42.501 42.272,43.631 41.602,44.671C40.932,45.711 39.952,46.467 38.663,46.939C37.375,47.412 35.587,47.648 33.302,47.648L22.552,47.648L22.552,35.146L34.513,35.146Z"/>
    </g>
</svg>
