<?xml version="1.0" encoding="UTF-8" standalone="no"?>
<!DOCTYPE svg PUBLIC "-//W3C//DTD SVG 1.1//EN" "http://www.w3.org/Graphics/SVG/1.1/DTD/svg11.dtd">
<svg width="100%" height="100%" viewBox="0 0 100 100" version="1.1" xmlns="http://www.w3.org/2000/svg" xmlns:xlink="http://www.w3.org/1999/xlink" xml:space="preserve" xmlns:serif="http://www.serif.com/" style="fill-rule:evenodd;clip-rule:evenodd;stroke-linejoin:round;stroke-miterlimit:1.41421;">
    <g id="recruit" transform="matrix(0.009,0,0,-0.009,5,51.08)">
        <path d="M4635.5,5013.1C4007.5,4957.6 3427.3,4800.6 2881.6,4538.2C2337.8,4274 1987.4,4025 1543.2,3578.9C1097.1,3134.7 848.2,2784.3 583.9,2240.5C-143.6,731.7 -46,-1058.6 844.4,-2475.5C1030.1,-2770.4 1221.6,-3011.6 1485.8,-3283.5C1909,-3716.2 2297.6,-4003.4 2818.5,-4260C4497.7,-5094.8 6450.7,-4912.9 7963.4,-3779.4C8191.3,-3609 8612.5,-3201.1 8800.1,-2969.5C9236.7,-2431.4 9581.3,-1746 9747.9,-1083.5C10035.1,61.5 9914.5,1221.9 9395.6,2276.9C9127.5,2820.7 8848,3205.5 8405.7,3636.4C7657,4365.9 6749.5,4814 5688.7,4976.7C5495.3,5005.4 4823.2,5030.3 4635.5,5013.1ZM5344,4614.8C6041,4580.3 6854.7,4302.7 7478.9,3885.3C8593.3,3142.4 9296,2014.6 9472.1,687.7C9508.5,412 9508.5,-168.2 9470.2,-447.7C9336.2,-1452.9 8911.1,-2324.1 8200.7,-3044.1C7482.7,-3771.7 6590.4,-4212.1 5564.1,-4349.9C5290.3,-4386.3 4708.2,-4386.3 4434.4,-4349.9C2433.6,-4083.9 880.7,-2582.7 547.6,-595.2C480.6,-198.8 480.6,442.6 547.6,842.8C869.2,2767.1 2353.2,4251 4281.3,4574.6C4480.4,4609.1 4907.4,4637.8 5056.8,4628.2C5104.6,4626.3 5232.9,4618.6 5344,4614.8Z" style="fill-rule:nonzero;"/>
        <path d="M4821.3,4342.9C4813.6,4335.2 4807.9,4065.3 4807.9,3741.7L4807.9,3153.9L4668.1,3142.4C4241.1,3106 3710.7,2914.5 3335.4,2663.7C3176.5,2556.5 3174.6,2554.6 3090.3,2575.6C2918,2619.6 2739.9,2560.3 2611.6,2412.8C2500.6,2286.4 2464.2,2123.7 2510.1,1962.8C2527.3,1901.5 2521.6,1884.3 2429.7,1742.6C2186.5,1363.5 1974,731.6 1974,387L1974,314.2L1376.6,310.4L777.3,304.7L777.3,122.8L777.3,-59.1L1372.8,-64.8L1968.3,-68.6L1979.8,-210.3C2018.1,-666 2234.5,-1230.9 2523.6,-1638.7C2690.2,-1872.3 3004.2,-2186.3 3237.8,-2352.9C3639.9,-2638.2 4214.3,-2858.4 4658.5,-2894.8L4807.8,-2908.2L4811.6,-3503.7L4817.3,-4099.2L5181.1,-4099.2L5186.8,-3503.7L5190.6,-2908.2L5339.9,-2894.8C5732.4,-2862.3 6272.4,-2672.7 6624.7,-2442.9L6747.2,-2364.4L6844.9,-2408.5C6923.4,-2443 6977,-2452.5 7114.9,-2452.5C7271.9,-2452.5 7300.6,-2446.8 7415.5,-2389.3C7562.9,-2316.5 7664.4,-2213.1 7735.3,-2061.9C7777.4,-1970 7785.1,-1929.8 7785.1,-1782.4C7785.1,-1627.3 7777.4,-1598.6 7721.9,-1485.6L7658.7,-1359.2L7742.9,-1179.2C7888.7,-869 7994,-493.8 8017,-218L8030.4,-68.7L8625.9,-64.9L9221.4,-59.2L9221.4,304.6L8625.9,310.3L8030.4,314.1L8017,463.6C7994,737.4 7888.7,1112.7 7747,1415.2L7666.6,1589.4L8153,1855.5C8419.1,2001 8637.4,2131.2 8637.4,2142.7C8637.4,2182.9 8338.7,2621.4 8193.2,2793.7C7911.7,3124.9 7628.3,3375.8 7268.4,3611.3C7065.5,3745.3 6640.4,3971.3 6594.4,3971.3C6586.7,3971.3 6485.2,3737.7 6368.5,3454.3C6253.6,3169 6157.9,2937.3 6157.9,2937.3C6157.9,2937.3 6079.4,2964.1 5985.6,2996.7C5771.1,3069.5 5520.3,3125 5334.6,3142.2L5191,3153.7L5187.2,3749.2L5181.5,4344.7L5009.2,4350.4C4913.2,4352.5 4828.9,4350.6 4821.3,4342.9ZM4807.9,2142.9L4807.9,1424.9L4756.2,1413.4C4478.6,1352.1 4281.3,1244.9 4080.3,1041.9C3877.3,840.9 3770.1,643.6 3708.8,367.9C3697.3,316.2 3691.6,314.3 3576.7,314.3C3461.8,314.3 3456.1,318.1 3415.9,379.4C3247.4,641.7 2835.7,651.3 2657.7,396.6L2598.3,314.3L2431.7,314.3L2265.1,314.3L2274.7,406.2C2314.9,802.5 2502.6,1332.9 2705.5,1620.1C2740,1669.9 2743.8,1669.9 2807,1643.1C2965.9,1578 3216.8,1633.5 3337.4,1761.8C3458,1890.1 3500.2,2104.5 3438.9,2276.9C3406.3,2368.8 3406.3,2368.8 3668.7,2514.3C3969.3,2680.9 4317.8,2797.7 4645.2,2839.8C4719.9,2847.5 4785,2857 4794.5,2859C4802.1,2859 4807.9,2537.3 4807.9,2142.9ZM5516.3,2811.1C5761.4,2767.1 6039,2671.3 6027.5,2633C6017.9,2598.5 5512.4,1361.6 5502.9,1350.1C5499.1,1344.4 5451.2,1355.8 5395.7,1371.2C5342.1,1388.4 5273.2,1407.6 5244.4,1413.3L5190.8,1424.8L5190.8,2860.8L5273.1,2849.3C5317.2,2843.7 5426.3,2826.4 5516.3,2811.1ZM7601.5,969.1C7657,802.5 7703,582.3 7724,396.6L7733.6,314.3L7017.5,314.3L6301.4,314.3L6289.9,367.9C6268.8,465.6 6219.1,611.1 6184.6,681.9L6148.2,752.7L6268.8,819.7C6333.9,856.1 6615.4,1011.2 6894.9,1164.3L7402.3,1443.9L7473.1,1296.5C7511.5,1214.2 7570.8,1066.8 7601.5,969.1ZM4807.9,861.9L4807.9,607.2L4714.1,549.8C4654.7,513.4 4601.1,457.9 4568.6,402.4L4516.9,314.3L4262.2,314.3L4005.6,314.3L4034.3,415.8C4122.4,714.5 4371.3,971.1 4673.8,1074.5C4742.7,1097.5 4800.2,1118.5 4804,1118.5C4805.9,1118.5 4807.9,1003.6 4807.9,861.9ZM5374.6,1057.2C5380.3,1049.5 5215.7,639.8 5200.4,622.6C5194.7,618.8 5190.8,727.9 5190.8,865.8L5190.8,1116.6L5278.9,1089.8C5326.8,1076.4 5370.8,1061 5374.6,1057.2ZM5926.1,517.3C5943.3,471.4 5966.3,406.2 5975.9,373.7L5993.1,312.4L5730.8,318.1C5399.6,325.8 5393.8,341.1 5669.5,490.4C5780.5,551.7 5876.3,601.4 5882,601.4C5889.7,601.5 5908.8,563.2 5926.1,517.3ZM2659.5,-152.9C2841.4,-405.6 3247.3,-396.1 3415.8,-133.7C3456,-72.4 3461.8,-68.6 3576.6,-68.6C3691.5,-68.6 3697.2,-70.5 3708.7,-120.3C3770,-397.9 3877.2,-595.2 4080.2,-796.2C4281.2,-999.2 4478.5,-1106.4 4756.1,-1167.6L4807.8,-1179.1L4807.8,-1897.1L4807.8,-2615.1L4765.7,-2607.4C4740.8,-2601.7 4670,-2592.1 4606.8,-2586.3C4543.6,-2578.6 4413.4,-2551.8 4315.8,-2526.9C3448.4,-2302.9 2751.5,-1674.8 2433.6,-830.4C2362.8,-640.8 2293.8,-351.7 2274.7,-158.3L2265.1,-68.3L2600.2,-68.3L2659.5,-152.9ZM4572.4,-162.5C4608.8,-221.9 4664.3,-275.5 4719.8,-308L4807.9,-359.7L4807.9,-614.4L4807.9,-869L4737.1,-849.9C4417.3,-765.6 4126.3,-482.3 4034.4,-168.3L4005.7,-68.7L4515.1,-68.7L4572.4,-162.5ZM5972,-139.5C5883.9,-466.9 5589.1,-761.8 5263.6,-849.9L5190.8,-869L5190.8,-361.6L5284.6,-304.2C5344,-267.8 5397.6,-212.3 5430.1,-156.8L5481.8,-68.7L5991.2,-68.7L5972,-139.5ZM7724,-149.1C7689.5,-455.5 7603.4,-769.5 7480.8,-1035.6L7413.8,-1179.2L7341,-1146.6C7231.9,-1100.6 7007.9,-1106.4 6871.9,-1158.1C6720.6,-1215.5 6584.7,-1343.8 6508.1,-1498.9C6454.5,-1608 6446.8,-1642.5 6446.8,-1780.4C6446.8,-1901 6456.4,-1956.6 6488.9,-2029.3C6511.9,-2081 6531,-2128.9 6531,-2136.5C6531,-2161.4 6238,-2326 6069.6,-2396.9C5818.8,-2502.2 5596.7,-2559.7 5263.5,-2603.7L5190.7,-2613.3L5190.7,-1179.2L5244.3,-1167.7C5520,-1106.4 5717.2,-999.2 5918.3,-796.3C6121.2,-595.3 6228.5,-398 6289.8,-120.4L6301.3,-68.7L7733.5,-68.7L7724,-149.1Z" style="fill-rule:nonzero;"/>
    </g>
</svg>
