<?xml version="1.0" encoding="UTF-8" standalone="no"?>
<!DOCTYPE svg PUBLIC "-//W3C//DTD SVG 1.1//EN" "http://www.w3.org/Graphics/SVG/1.1/DTD/svg11.dtd">
<svg width="100%" height="100%" viewBox="0 0 100 100" version="1.1" xmlns="http://www.w3.org/2000/svg" xmlns:xlink="http://www.w3.org/1999/xlink" xml:space="preserve" xmlns:serif="http://www.serif.com/" style="fill-rule:evenodd;clip-rule:evenodd;stroke-linecap:round;stroke-linejoin:round;stroke-miterlimit:1.5;">
    <path id="redcap" d="M21.312,57.738L19.927,45.042C19.247,40.344 19.647,36.314 21.234,33.016C26.912,21.844 35.413,14.617 48.168,13.333C48.21,12.277 49.023,11.536 50.43,11.037C51.865,11.077 52.712,11.381 52.943,11.962C63.671,9.925 73.07,11.133 80.79,16.446C89.372,25.321 93.448,35.557 94.517,46.701L83.227,50.434C80.025,51.545 77.387,53.312 75.452,55.893C71.941,63.908 67,71.003 61.398,77.674C57.858,82.612 53.395,85.293 48.081,85.897C43.656,86.882 39.239,86.973 34.829,86.314L17.036,80.642C15.755,83.424 14.226,86.063 11.56,88.055C9.716,89.182 7.875,89.376 6.044,87.726C5.006,86.279 5.654,84.774 6.802,83.251L19.318,64.774C21.127,62.882 21.987,60.614 21.312,57.738" style="fill:rgb(167,42,47);stroke:rgb(167,42,47);stroke-width:0.75px;"/>
</svg>
