<?xml version="1.0" encoding="UTF-8" standalone="no"?>
<!DOCTYPE svg PUBLIC "-//W3C//DTD SVG 1.1//EN" "http://www.w3.org/Graphics/SVG/1.1/DTD/svg11.dtd">
<svg width="100%" height="100%" viewBox="0 0 100 100" version="1.1" xmlns="http://www.w3.org/2000/svg" xmlns:xlink="http://www.w3.org/1999/xlink" xml:space="preserve" xmlns:serif="http://www.serif.com/" style="fill-rule:evenodd;clip-rule:evenodd;stroke-linejoin:round;stroke-miterlimit:1.41421;">
    <g id="redcapmobile">
        <g transform="matrix(1,0,0,1,-5.01109,0.113789)">
            <path d="M42.054,32.688L65.961,32.688C70.086,32.688 73.687,33.118 76.765,33.977C79.843,34.837 82.406,36.04 84.453,37.587C86.5,39.134 88.039,40.97 89.07,43.095C90.101,45.22 90.617,47.532 90.617,50.032C90.617,51.845 90.265,53.556 89.562,55.165C88.859,56.774 87.875,58.259 86.609,59.618C85.343,60.977 83.812,62.181 82.015,63.227C80.218,64.274 78.242,65.142 76.086,65.829L98.726,96.251L81.757,96.251L60.429,67.517L57.664,67.517L57.664,96.251L42.054,96.251L42.054,32.688ZM57.664,61.938L61.039,61.938C62.945,61.938 64.711,61.673 66.336,61.142C67.961,60.61 69.367,59.852 70.554,58.868C71.742,57.884 72.672,56.673 73.343,55.235C74.015,53.798 74.351,52.173 74.351,50.36C74.351,48.673 74.093,47.126 73.578,45.72C73.062,44.313 72.351,43.102 71.445,42.087C70.539,41.071 69.445,40.282 68.164,39.72C66.882,39.157 65.492,38.876 63.992,38.876L57.664,38.876L57.664,61.938Z" style="fill-rule:nonzero;"/>
        </g>
        <g id="redcap" transform="matrix(0.725075,0,0,0.725075,5.10301,-2.4785)">
            <path d="M21.312,57.738L19.927,45.042C19.247,40.344 19.647,36.314 21.234,33.016C26.912,21.844 35.413,14.617 48.168,13.333C48.21,12.277 49.023,11.536 50.43,11.037C51.865,11.077 52.712,11.381 52.943,11.962C63.671,9.925 73.07,11.133 80.79,16.446C89.372,25.321 93.448,35.557 94.517,46.701L83.227,50.434C80.025,51.545 77.387,53.312 75.452,55.893C71.941,63.908 67,71.003 61.398,77.674C57.858,82.612 53.395,85.293 48.081,85.897C43.656,86.882 39.239,86.973 34.829,86.314L17.036,80.642C15.755,83.424 14.226,86.063 11.56,88.055C9.716,89.182 7.875,89.376 6.044,87.726C5.006,86.279 5.654,84.774 6.802,83.251L19.318,64.774C21.127,62.882 21.987,60.614 21.312,57.738" style="fill:rgb(167,42,47);"/>
        </g>
    </g>
</svg>
