<?xml version="1.0" encoding="UTF-8" standalone="no"?>
<!DOCTYPE svg PUBLIC "-//W3C//DTD SVG 1.1//EN" "http://www.w3.org/Graphics/SVG/1.1/DTD/svg11.dtd">
<svg width="100%" height="100%" viewBox="0 0 100 100" version="1.1" xmlns="http://www.w3.org/2000/svg" xmlns:xlink="http://www.w3.org/1999/xlink" xml:space="preserve" xmlns:serif="http://www.serif.com/" style="fill-rule:evenodd;clip-rule:evenodd;stroke-linejoin:round;stroke-miterlimit:1.41421;">
    <g id="redhat">
        <path id="circle" d="M49.592,3.089C74.891,3.089 95.431,23.629 95.431,48.928C95.431,74.227 74.891,94.767 49.592,94.767C24.293,94.767 3.753,74.227 3.753,48.928C3.753,23.629 24.293,3.089 49.592,3.089ZM85.445,75.351C83.474,74.8 81.608,75.164 79.69,74.909C77.462,74.613 75.391,74.763 73.742,74.572C72.963,74.453 72.677,74.703 72.592,75.346L72.909,76.314C73.023,76.917 72.767,77.291 72.186,77.465L67.871,79.433L63.932,83.261C62.979,83.949 61.928,84.418 60.721,84.526C61.187,82.392 64.823,77.745 68.281,73.238C68.44,71.192 68.775,69.516 69.297,68.233C69.752,66.193 70.069,64.457 69.652,64.331C68.835,64.32 67.849,64.727 66.866,65.124C65.619,65.182 64.648,65.111 63.961,64.907L61.532,64.449C60.37,64.471 59.302,64.752 58.297,65.178C57.477,64.99 56.756,64.872 56.1,64.409C53.598,64.302 50.889,64.537 48.067,64.916C45.106,65.032 42.889,64.452 41.653,62.953C40.337,61.699 39.178,60.233 38.003,58.788C37.113,58.054 36.22,57.307 35.532,57.679L34.84,58.342C34.357,58.473 33.893,58.469 33.419,58.073C32.301,56.846 31.313,55.352 30.324,53.858C26.071,51.216 23.374,53.407 23.364,57.088C24.195,59.396 25.507,61.096 26.894,62.701L27.995,63.623C29.28,64.61 29.286,65.385 28.268,65.993C26.066,66.128 24.325,65.206 23.077,63.148C22.115,61.645 20.583,61.021 18.462,60.873C15.524,61.082 12.641,61.167 9.839,60.93C9.17,60.908 8.911,61.073 8.986,61.508L9.347,62.755C9.507,63.618 9.373,64.143 8.825,64.104L8.044,64.288C14.91,80.048 26.566,88.987 38.97,91.739C55.142,95.326 72.447,90.816 85.445,75.351ZM53.303,70.712L55.798,71.677C56.168,71.736 56.517,71.74 56.819,71.615C57.421,71.443 57.877,71.17 58.13,70.758C58.337,70.658 58.498,70.677 58.619,70.804C59.062,71.278 59.079,71.804 58.706,72.378C58.503,72.885 57.97,73.211 57.252,73.434C56.614,73.618 55.951,73.625 55.258,73.412L52.231,72.47C51.672,72.455 51.487,72.168 51.66,71.622C51.811,71.258 51.957,70.972 52.089,70.872C52.41,70.577 52.844,70.609 53.303,70.712ZM35.663,13.953C34.76,14.482 34.088,15.208 33.577,16.071L32.294,18.837C31.745,20.25 31.326,21.733 30.992,23.26C30.627,24.916 30.501,26.508 30.462,28.077C30.412,29.216 30.642,30.117 31.069,30.849C32.143,32.193 33.62,33.19 35.325,33.991L46.549,37.387C47.86,37.652 49.02,38.161 50.054,38.874C50.815,39.761 51.279,40.743 51.208,41.897C51.321,42.905 51.654,43.624 52.234,44.015L53.089,45.044C53.463,45.431 53.541,45.698 53.129,45.765C52.653,45.839 52.185,45.815 51.646,45.697C49.484,45.536 47.619,44.923 45.745,44.257L40.371,42.044L34.938,39.516C32.933,38.912 31.272,37.883 29.968,36.412C28.951,35.511 28.709,34.191 29.005,32.581C29.132,31.75 29.427,31.038 29.803,30.382L22.301,30.212C20.317,30.32 18.549,30.819 16.948,31.62C15.442,32.528 14.377,33.715 13.798,35.205C13.215,36.979 13.694,38.531 14.855,39.934C15.135,40.562 16.829,42.548 19.793,45.247C20.918,46.272 22.25,47.301 23.677,48.544C35.463,56.148 47.431,61.443 59.47,62.241C66.441,62.303 72.692,61.941 76.937,59.871C81.722,57.634 84.967,54.148 86.507,49.54C87.257,46.311 86.195,43.47 83.199,41.045C80.888,39.575 78.133,38.291 75.123,37.112C74.484,39.323 73.664,41.017 72.42,41.507C72.151,40.543 72.912,37.822 73.426,35.471C73.154,33.003 72.522,30.532 71.635,28.034L69.955,24.063L68.23,19.605C67.637,18.372 66.9,17.251 66.009,16.252C64.087,14.003 61.311,13.008 58.014,12.781C55.939,12.731 53.933,12.927 51.987,13.332C49.385,13.945 47.312,14.018 45.604,13.569L41.041,12.906C38.812,12.772 37.099,13.21 35.663,13.953Z"/>
    </g>
</svg>
