<?xml version="1.0" encoding="UTF-8" standalone="no"?>
<!DOCTYPE svg PUBLIC "-//W3C//DTD SVG 1.1//EN" "http://www.w3.org/Graphics/SVG/1.1/DTD/svg11.dtd">
<svg width="100%" height="100%" viewBox="0 0 100 100" version="1.1" xmlns="http://www.w3.org/2000/svg" xmlns:xlink="http://www.w3.org/1999/xlink" xml:space="preserve" xmlns:serif="http://www.serif.com/" style="fill-rule:evenodd;clip-rule:evenodd;stroke-linejoin:round;stroke-miterlimit:1.41421;">
    <g id="right">
        <g transform="matrix(0.967141,0,0,0.967141,1.66767,1.29714)">
            <path d="M34.099,61.178C37.791,61.237 41.6,62.844 43.493,66.285C44.394,67.924 43.729,69.879 43.036,71.73C42.481,73.284 43.764,75.035 44.03,76.732C44.83,81.847 37.626,86.228 31.409,84.862C24.471,83.338 20.007,74.713 23.233,67.967C25.176,63.904 29.477,61.153 34.099,61.178ZM33.815,62.729C28.986,62.822 24.541,66.637 23.751,71.439C22.905,76.586 26.498,82.126 31.616,83.319C34.991,84.105 38.711,83.053 41.191,80.595C42.384,79.412 42.889,77.627 42.234,76.028C41.878,75.185 41.422,74.377 41.285,73.486C41.016,71.748 42.409,70.108 42.512,68.484C42.616,66.839 41.256,65.569 40.14,64.671C38.375,63.251 36.011,62.715 33.815,62.729Z" style="fill:rgb(233,115,56);fill-rule:nonzero;"/>
        </g>
        <ellipse cx="42.207" cy="76.123" rx="1.02" ry="2.653" style="fill:rgb(233,115,56);"/>
        <path d="M42.283,72.722C43.57,72.85 43.846,74.427 43.941,75.386C43.966,75.631 43.977,75.877 43.977,76.123C43.977,77.768 43.457,80.225 41.71,79.415C39.896,78.572 40.255,75.226 40.83,73.867C41.083,73.27 41.392,72.693 42.283,72.722ZM42.199,74.484C41.793,75.515 41.798,76.745 42.199,77.762C42.199,77.762 42.762,75.937 42.228,74.517C42.228,74.517 42.22,74.433 42.199,74.484Z" style="fill:none;"/>
        <g transform="matrix(1,0,0,1,-0.0164992,-8.38817)">
            <ellipse cx="42.207" cy="76.123" rx="1.02" ry="2.653" style="fill:rgb(233,115,56);"/>
        </g>
        <g transform="matrix(1,0,0,1,-0.0164992,-8.38817)">
            <path d="M42.283,72.722C43.57,72.85 43.846,74.427 43.941,75.386C43.966,75.631 43.977,75.877 43.977,76.123C43.977,77.768 43.457,80.226 41.71,79.415C39.896,78.572 40.256,75.226 40.83,73.867C41.083,73.269 41.396,72.693 42.283,72.722ZM42.199,74.484C41.792,75.515 41.798,76.745 42.199,77.762C42.199,77.762 42.762,75.937 42.228,74.517C42.228,74.517 42.22,74.433 42.199,74.484Z" style="fill:none;"/>
        </g>
        <g transform="matrix(-0.967141,0,0,0.967141,82.6581,1.29714)">
            <path d="M33.795,61.178C28.241,61.285 23.128,65.671 22.221,71.187C21.246,77.112 25.396,83.462 31.264,84.829C35.197,85.745 39.539,84.485 42.386,81.593C43.927,80.028 44.635,77.732 43.624,75.334C42.999,73.896 42.661,72.631 43.579,70.684C43.902,69.977 44.15,69.223 44.124,68.449C43.972,63.989 38.533,61.148 33.795,61.178ZM34.083,62.729C37.111,62.777 40.247,63.955 41.985,66.823C42.299,67.341 42.568,67.934 42.575,68.551C42.584,69.364 42.139,70.091 41.798,70.808C41.483,71.491 41.463,71.58 41.369,71.954C40.759,74.374 43.387,76.798 42.289,79.137C40.205,83.574 32.671,85.034 27.97,81.663C23.955,78.783 22.47,72.882 24.744,68.409C26.483,64.989 30.176,62.708 34.083,62.729Z" style="fill:rgb(233,115,56);fill-rule:nonzero;"/>
        </g>
        <g transform="matrix(1,0,0,1,-3.63007,0.76208)">
            <path d="M10.453,48.498L10.453,24.466L14.118,24.466L14.118,28.11C15.054,26.405 15.917,25.281 16.709,24.738C17.501,24.195 18.373,23.923 19.323,23.923C20.696,23.923 22.091,24.361 23.509,25.236L22.106,29.015C21.111,28.426 20.115,28.132 19.119,28.132C18.229,28.132 17.43,28.4 16.721,28.936C16.012,29.471 15.506,30.214 15.205,31.164C14.752,32.613 14.526,34.197 14.526,35.916L14.526,48.498L10.453,48.498Z" style="fill:rgb(233,115,56);fill-rule:nonzero;"/>
            <path d="M25.953,20.009L25.953,15.325L30.026,15.325L30.026,20.009L25.953,20.009ZM25.953,48.498L25.953,24.466L30.026,24.466L30.026,48.498L25.953,48.498Z" style="fill:rgb(233,115,56);fill-rule:nonzero;"/>
            <path d="M35.48,50.489L39.44,51.077C39.606,52.299 40.066,53.189 40.82,53.748C41.831,54.502 43.211,54.879 44.961,54.879C46.847,54.879 48.302,54.502 49.328,53.748C50.354,52.993 51.048,51.937 51.41,50.58C51.621,49.75 51.719,48.008 51.704,45.352C49.924,47.449 47.707,48.498 45.051,48.498C41.748,48.498 39.191,47.306 37.38,44.923C35.57,42.539 34.665,39.68 34.665,36.346C34.665,34.053 35.08,31.938 35.91,29.999C36.739,28.061 37.942,26.563 39.519,25.507C41.095,24.451 42.947,23.923 45.074,23.923C47.91,23.923 50.248,25.07 52.089,27.363L52.089,24.466L55.845,24.466L55.845,45.239C55.845,48.981 55.464,51.632 54.702,53.193C53.941,54.755 52.734,55.988 51.082,56.893C49.43,57.798 47.397,58.251 44.984,58.251C42.117,58.251 39.802,57.606 38.037,56.316C36.272,55.026 35.419,53.084 35.48,50.489ZM38.851,36.052C38.851,39.205 39.477,41.506 40.729,42.954C41.982,44.402 43.55,45.126 45.436,45.126C47.307,45.126 48.876,44.406 50.143,42.965C51.41,41.524 52.044,39.265 52.044,36.188C52.044,33.246 51.391,31.029 50.086,29.535C48.781,28.042 47.209,27.295 45.368,27.295C43.558,27.295 42.019,28.03 40.752,29.501C39.485,30.972 38.851,33.156 38.851,36.052Z" style="fill:rgb(233,115,56);fill-rule:nonzero;"/>
            <path d="M62,48.498L62,15.325L66.073,15.325L66.073,27.227C67.974,25.025 70.373,23.923 73.269,23.923C75.049,23.923 76.595,24.274 77.908,24.976C79.22,25.677 80.159,26.646 80.725,27.883C81.291,29.12 81.574,30.916 81.574,33.269L81.574,48.498L77.501,48.498L77.501,33.269C77.501,31.232 77.059,29.75 76.177,28.822C75.294,27.895 74.046,27.431 72.432,27.431C71.225,27.431 70.09,27.744 69.026,28.37C67.963,28.996 67.205,29.844 66.752,30.916C66.299,31.987 66.073,33.465 66.073,35.351L66.073,48.498L62,48.498Z" style="fill:rgb(233,115,56);fill-rule:nonzero;"/>
            <path d="M96.667,44.855L97.255,48.453C96.109,48.694 95.083,48.815 94.178,48.815C92.699,48.815 91.553,48.581 90.738,48.113C89.924,47.645 89.35,47.031 89.018,46.269C88.686,45.507 88.521,43.904 88.521,41.46L88.521,27.634L85.534,27.634L85.534,24.466L88.521,24.466L88.521,18.515L92.571,16.071L92.571,24.466L96.667,24.466L96.667,27.634L92.571,27.634L92.571,41.687C92.571,42.848 92.643,43.595 92.786,43.927C92.929,44.259 93.163,44.523 93.487,44.719C93.812,44.915 94.276,45.013 94.879,45.013C95.332,45.013 95.928,44.96 96.667,44.855Z" style="fill:rgb(233,115,56);fill-rule:nonzero;"/>
        </g>
    </g>
</svg>
