<?xml version="1.0" encoding="UTF-8" standalone="no"?>
<!DOCTYPE svg PUBLIC "-//W3C//DTD SVG 1.1//EN" "http://www.w3.org/Graphics/SVG/1.1/DTD/svg11.dtd">
<svg width="100%" height="100%" viewBox="0 0 100 100" version="1.1" xmlns="http://www.w3.org/2000/svg" xmlns:xlink="http://www.w3.org/1999/xlink" xml:space="preserve" xmlns:serif="http://www.serif.com/" style="fill-rule:evenodd;clip-rule:evenodd;stroke-linejoin:round;stroke-miterlimit:1.41421;">
    <g id="sd">
        <g transform="matrix(0.934765,0,0,0.934765,3.13379,2.56551)">
            <path d="M98.372,6.816C99.694,7.104 99.887,7.407 99.977,8.669L99.977,91.27C99.873,92.724 99.477,93.044 98.105,93.142L2.051,93.142C0.597,93.038 0.277,92.642 0.179,91.27L0.179,8.669C0.283,7.215 0.679,6.895 2.051,6.797L98.105,6.797C98.194,6.803 98.283,6.809 98.372,6.816ZM3.923,89.397L96.233,89.397L96.233,10.541L3.923,10.541C3.923,36.826 3.923,63.112 3.923,89.397Z" style="fill:rgb(210,179,144);fill-rule:nonzero;"/>
        </g>
        <path d="M93.205,12.298L93.205,86.562L6.662,86.562L6.662,12.298L93.205,12.298ZM15.773,56.619L20.49,56.207C20.713,58.097 21.233,59.648 22.05,60.859C22.866,62.071 24.133,63.051 25.852,63.798C27.57,64.546 29.504,64.92 31.652,64.92C33.559,64.92 35.244,64.636 36.704,64.069C38.165,63.502 39.252,62.724 39.965,61.736C40.678,60.748 41.035,59.669 41.035,58.501C41.035,57.315 40.691,56.28 40.004,55.395C39.316,54.51 38.182,53.766 36.601,53.165C35.587,52.77 33.345,52.155 29.873,51.322C26.402,50.488 23.97,49.702 22.578,48.963C20.774,48.018 19.429,46.845 18.544,45.444C17.659,44.044 17.216,42.476 17.216,40.74C17.216,38.832 17.758,37.049 18.84,35.391C19.923,33.733 21.504,32.474 23.583,31.614C25.663,30.755 27.974,30.326 30.518,30.326C33.319,30.326 35.789,30.777 37.929,31.679C40.068,32.581 41.714,33.909 42.865,35.662C44.017,37.414 44.635,39.399 44.721,41.616L39.927,41.977C39.669,39.588 38.797,37.784 37.31,36.564C35.824,35.344 33.628,34.734 30.724,34.734C27.699,34.734 25.495,35.288 24.112,36.396C22.728,37.505 22.037,38.841 22.037,40.405C22.037,41.762 22.526,42.879 23.506,43.756C24.468,44.632 26.982,45.53 31.046,46.45C35.11,47.369 37.899,48.172 39.411,48.86C41.611,49.874 43.235,51.158 44.283,52.714C45.331,54.269 45.855,56.061 45.855,58.088C45.855,60.099 45.28,61.994 44.128,63.772C42.977,65.551 41.323,66.934 39.166,67.923C37.009,68.911 34.582,69.405 31.884,69.405C28.464,69.405 25.598,68.907 23.287,67.91C20.975,66.913 19.162,65.414 17.848,63.412C16.533,61.409 15.841,59.145 15.773,56.619ZM66.323,68.76C68.609,68.76 70.632,68.546 72.394,68.116C74.155,67.686 75.659,67.055 76.905,66.221C78.151,65.388 79.298,64.245 80.346,62.793C81.395,61.341 82.254,59.506 82.924,57.289C83.594,55.072 83.929,52.529 83.929,49.659C83.929,46.291 83.435,43.296 82.447,40.675C81.459,38.055 79.968,35.902 77.975,34.218C76.445,32.912 74.598,32.01 72.433,31.511C70.886,31.15 68.643,30.97 65.704,30.97L52.687,30.97L52.687,68.76L66.323,68.76ZM65.627,35.43C68.6,35.43 70.757,35.687 72.097,36.203C73.953,36.925 75.53,38.347 76.828,40.469C78.125,42.592 78.774,45.629 78.774,49.582C78.774,52.434 78.443,54.862 77.781,56.864C77.12,58.866 76.196,60.46 75.01,61.646C74.168,62.488 73.038,63.141 71.621,63.605C70.203,64.069 68.248,64.301 65.756,64.301L57.688,64.301L57.688,35.43L65.627,35.43Z"/>
    </g>
</svg>
