<?xml version="1.0" encoding="UTF-8" standalone="no"?>
<!DOCTYPE svg PUBLIC "-//W3C//DTD SVG 1.1//EN" "http://www.w3.org/Graphics/SVG/1.1/DTD/svg11.dtd">
<svg width="100%" height="100%" viewBox="0 0 100 100" version="1.1" xmlns="http://www.w3.org/2000/svg" xmlns:xlink="http://www.w3.org/1999/xlink" xml:space="preserve" xmlns:serif="http://www.serif.com/" style="fill-rule:evenodd;clip-rule:evenodd;stroke-linejoin:round;stroke-miterlimit:1.41421;">
    <g id="shrine">
        <g>
            <g transform="matrix(1,0,0,1,-1,0)">
                <path d="M42.936,29.612L42.997,29.612L42.997,29.716L55.425,50.948L42.997,72.182L42.997,72.439L17.065,72.439L17.065,72.457L17.055,72.439L17.015,72.439L17.015,72.371L4.569,51.02L17.015,29.671L17.015,29.612L17.049,29.612L17.066,29.583L17.066,29.612L42.881,29.612L42.881,29.518L42.936,29.612Z" style="fill:rgb(191,32,47);"/>
            </g>
            <g transform="matrix(1,0,0,1,-1,0)">
                <path d="M42.999,29.032C43.594,29.241 43.443,29.065 43.493,29.574L55.857,50.695C55.935,50.862 55.937,51.031 55.857,51.2L43.497,72.317C43.497,72.317 43.542,72.886 42.997,72.939L17.046,72.957C16.73,72.913 16.814,73.263 16.553,72.631C16.534,72.585 16.523,72.52 16.523,72.52L4.1,51.192C4.061,51.048 4.072,50.906 4.137,50.768L16.553,29.42C16.737,29.075 16.977,29.044 17.229,29.112L42.703,29.051C42.814,29.021 42.744,28.997 42.999,29.032ZM42.65,30.112L17.336,30.112L5.148,51.02L17.342,71.939L42.566,71.929L54.846,50.948L42.65,30.112Z"/>
            </g>
            <g transform="matrix(1,0,0,1,1,-1)">
                <path d="M81.64,7.878L81.701,7.878L81.701,7.982L94.129,29.214L81.701,50.448L81.701,50.705L55.768,50.705L55.768,50.723L55.758,50.705L55.718,50.705L55.718,50.637L43.273,29.286L55.718,7.937L55.718,7.878L55.753,7.878L55.769,7.849L55.769,7.878L81.585,7.878L81.585,7.784L81.64,7.878Z" style="fill:rgb(212,153,129);"/>
            </g>
            <g transform="matrix(1,0,0,1,1,-1)">
                <path d="M81.703,7.298C82.297,7.507 82.147,7.331 82.197,7.84L94.56,28.961C94.639,29.128 94.64,29.297 94.56,29.466L82.201,50.583C82.201,50.583 82.246,51.152 81.701,51.205L55.75,51.223C55.434,51.179 55.518,51.528 55.256,50.897C55.237,50.851 55.226,50.786 55.226,50.786L42.803,29.458C42.765,29.314 42.776,29.172 42.841,29.034L55.256,7.686C55.441,7.341 55.68,7.309 55.933,7.378L81.406,7.317C81.518,7.286 81.448,7.263 81.703,7.298ZM81.353,8.378L56.04,8.378L43.852,29.286L56.046,50.205L81.269,50.195L93.549,29.214L81.353,8.378Z"/>
            </g>
            <g transform="matrix(1,0,0,1,1,1)">
                <path d="M81.769,51.485L81.83,51.485L81.83,51.588L94.258,72.82L81.83,94.055L81.83,94.312L55.897,94.312L55.897,94.33L55.887,94.312L55.847,94.312L55.847,94.244L43.402,72.892L55.847,51.543L55.847,51.485L55.882,51.485L55.899,51.456L55.899,51.485L81.714,51.485L81.714,51.39L81.769,51.485Z" style="fill:rgb(212,153,129);"/>
            </g>
            <g transform="matrix(1,0,0,1,1,1)">
                <path d="M81.832,50.905C82.426,51.114 82.276,50.938 82.326,51.446L94.689,72.568C94.768,72.735 94.769,72.904 94.689,73.073L82.33,94.19C82.33,94.19 82.375,94.759 81.83,94.812L55.879,94.829C55.563,94.785 55.647,95.135 55.385,94.504C55.366,94.457 55.355,94.392 55.355,94.392L42.932,73.065C42.894,72.921 42.905,72.779 42.97,72.641L55.385,51.293C55.57,50.948 55.809,50.916 56.062,50.984L81.535,50.923C81.647,50.893 81.577,50.869 81.832,50.905ZM81.482,51.984L56.169,51.984L43.981,72.892L56.175,93.812L81.398,93.802L93.679,72.82L81.482,51.984Z"/>
            </g>
        </g>
    </g>
</svg>
