<?xml version="1.0" encoding="UTF-8" standalone="no"?>
<!DOCTYPE svg PUBLIC "-//W3C//DTD SVG 1.1//EN" "http://www.w3.org/Graphics/SVG/1.1/DTD/svg11.dtd">
<svg width="100%" height="100%" viewBox="0 0 100 100" version="1.1" xmlns="http://www.w3.org/2000/svg" xmlns:xlink="http://www.w3.org/1999/xlink" xml:space="preserve" xmlns:serif="http://www.serif.com/" style="fill-rule:evenodd;clip-rule:evenodd;stroke-linecap:round;stroke-linejoin:round;stroke-miterlimit:1.5;">
    <g id="sphinx">
        <path d="M28.924,46.235L30.148,43.289L29.928,40.192L28.814,38.333L30.24,36.322L33.137,30.013C33.652,29.409 34.4,29.049 35.326,28.877L40.049,28.804C41.298,29.003 42.046,29.557 42.451,30.353C44.805,34.697 47.179,39.022 50.302,42.64C53.304,47.05 54.786,47.876 55.935,47.919L67.689,48.037L79.107,47.947C82.863,52.074 84.489,57.383 86.366,62.554C86.811,65.357 85.489,66.646 82.781,66.748L67.727,66.766L64.757,65.382C65.092,64.629 65.841,63.947 67.129,63.357L69.323,63.328C70.331,63.562 71.158,63.83 71.902,64.114C72.792,64.041 73.585,64.008 74.26,64.025L73.076,62.146L71.416,60.411C69.747,59.763 67.927,59.565 65.916,59.928L54.257,63.983C50.34,64.371 46.359,64.411 42.286,63.953C39.025,64.007 36.105,63.149 33.32,61.931L28.563,66.359L8.264,66.359L11.525,63.098L22.99,63.098C24.841,61.238 26.459,59.209 27.766,56.956C28.355,54.964 29.181,53.167 30.215,51.544L34.281,46.654C34.569,45.752 34.533,44.891 34.173,44.071C34.096,43.672 33.833,43.222 33.442,42.739C32.748,42.356 32.072,42.427 31.414,42.953L28.924,46.235" style="stroke:black;stroke-width:0.75px;"/>
        <path d="M51.728,41.503C53.927,37.502 57.018,34.284 60.907,31.768C63.479,30.312 66.205,29.458 69.068,29.141C72.194,28.934 74.347,29.073 75.675,29.506C78.595,30.146 80.675,30.969 82.245,31.902C84.605,33.292 86.293,34.754 87.521,36.265C89.371,38.285 90.734,40.244 91.785,42.163C92.716,44.353 93.266,46.59 93.436,48.872C93.685,50.991 93.75,52.919 93.703,54.731C93.575,57.062 92.972,59.063 91.862,60.712C91.931,61.048 88.655,63.191 87.822,62.195C87.293,61.563 87.022,60.42 86.586,59.22C85.382,55.899 83.763,51.6 80.032,46.748L56.253,46.703C53.947,45.639 52.565,43.631 51.728,41.503" style="fill:rgb(229,194,102);stroke:rgb(229,194,102);stroke-width:0.75px;"/>
    </g>
</svg>
