<?xml version="1.0" encoding="UTF-8" standalone="no"?>
<!DOCTYPE svg PUBLIC "-//W3C//DTD SVG 1.1//EN" "http://www.w3.org/Graphics/SVG/1.1/DTD/svg11.dtd">
<svg width="100%" height="100%" viewBox="0 0 100 100" version="1.1" xmlns="http://www.w3.org/2000/svg" xmlns:xlink="http://www.w3.org/1999/xlink" xml:space="preserve" xmlns:serif="http://www.serif.com/" style="fill-rule:evenodd;clip-rule:evenodd;stroke-linejoin:round;stroke-miterlimit:1.41421;">
    <g id="stride">
        <g transform="matrix(1,0,0,1,1,-31)">
            <path d="M82.969,91.5L95.802,91.5L95.802,94.864L82.969,94.864L82.969,91.5ZM95.386,68.697L86.594,68.697L86.594,77.989L94.802,77.989L94.802,81.114L86.594,81.114L86.594,88.382L82.969,88.382L82.969,65.364L95.386,65.364L95.386,68.697Z" style="fill-rule:nonzero;"/>
        </g>
        <g transform="matrix(1,0,0,1,1,-31)">
            <path d="M76.221,91.5C74.303,93.742 71.691,94.864 68.386,94.864L61.636,94.864L61.636,91.5L65.344,91.5L65.344,91.572L68.386,91.572C68.713,91.572 69.034,91.548 69.348,91.5L76.221,91.5ZM61.636,88.382L61.636,65.364L68.427,65.364C71.927,65.364 74.643,66.627 76.573,69.155C78.504,71.683 79.469,75.35 79.469,80.155C79.469,83.429 79.013,86.171 78.1,88.382L73.848,88.382C74.391,87.5 74.827,86.432 75.157,85.176C75.532,83.745 75.719,82.072 75.719,80.155C75.719,78.211 75.532,76.516 75.157,75.072C74.782,73.627 74.268,72.433 73.615,71.489C72.962,70.544 72.184,69.836 71.282,69.364C70.379,68.891 69.414,68.655 68.386,68.655L65.344,68.655L65.344,88.382L61.636,88.382Z" style="fill-rule:nonzero;"/>
        </g>
        <g transform="matrix(1,0,0,1,1,-31)">
            <path d="M53.094,91.5L56.844,91.5L56.844,94.864L53.094,94.864L53.094,91.5ZM56.844,88.382L53.094,88.382L53.094,65.364L56.844,65.364L56.844,88.382Z" style="fill:rgb(88,195,183);fill-rule:nonzero;"/>
        </g>
        <g transform="matrix(1,0,0,1,1,-31)">
            <path d="M34.302,91.5L37.969,91.5L37.969,94.864L34.302,94.864L34.302,91.5ZM45.109,91.5L49.053,91.5L50.386,94.864L46.386,94.864L45.109,91.5ZM34.302,88.382L34.302,65.364L41.927,65.364C43.011,65.364 44.032,65.509 44.99,65.801C45.948,66.093 46.789,66.558 47.511,67.197C48.233,67.836 48.802,68.669 49.219,69.697C49.636,70.725 49.844,71.961 49.844,73.405C49.844,74.6 49.691,75.641 49.386,76.53C49.08,77.419 48.684,78.176 48.198,78.801C47.712,79.426 47.177,79.919 46.594,80.28C46.011,80.641 45.441,80.877 44.886,80.989L47.816,88.382L43.924,88.382L41.386,81.697L37.969,81.697L37.969,88.382L34.302,88.382ZM41.344,68.53L37.969,68.53L37.969,78.78L41.427,78.78C42.844,78.78 43.983,78.329 44.844,77.426C45.705,76.523 46.136,75.239 46.136,73.572C46.136,72.572 45.997,71.752 45.719,71.114C45.441,70.475 45.08,69.961 44.636,69.572C44.191,69.183 43.677,68.912 43.094,68.759C42.511,68.607 41.927,68.53 41.344,68.53Z" style="fill-rule:nonzero;"/>
        </g>
        <g transform="matrix(1,0,0,1,1,-31)">
            <path d="M23.427,91.5L27.136,91.5L27.136,94.864L23.427,94.864L23.427,91.5ZM32.761,68.572L27.136,68.572L27.136,88.382L23.427,88.382L23.427,68.572L17.802,68.572L17.802,65.364L32.761,65.364L32.761,68.572Z" style="fill-rule:nonzero;"/>
        </g>
        <g transform="matrix(1,0,0,1,1,-31)">
            <path d="M16.997,91.5C16.639,92.197 16.206,92.804 15.698,93.322C14.99,94.044 14.15,94.6 13.177,94.989C12.205,95.377 11.164,95.572 10.052,95.572C8.552,95.572 7.129,95.259 5.782,94.634C4.434,94.009 3.358,93.183 2.552,92.155C2.324,91.712 2.495,91.49 3.087,91.5L7.356,91.5C8.249,91.909 9.148,92.114 10.052,92.114C10.928,92.114 11.695,91.909 12.352,91.5L16.997,91.5ZM14.265,88.382C14.318,88.025 14.344,87.644 14.344,87.239C14.344,86.489 14.219,85.829 13.969,85.259C13.719,84.69 13.372,84.176 12.927,83.718C12.483,83.259 11.976,82.843 11.407,82.468C10.837,82.093 10.219,81.739 9.552,81.405C8.747,81.016 7.99,80.579 7.282,80.093C6.573,79.607 5.941,79.044 5.386,78.405C4.83,77.766 4.393,77.009 4.073,76.134C3.754,75.259 3.594,74.225 3.594,73.03C3.594,71.614 3.816,70.377 4.261,69.322C4.705,68.266 5.295,67.391 6.032,66.697C6.768,66.002 7.608,65.489 8.552,65.155C9.497,64.822 10.455,64.655 11.427,64.655C12.844,64.655 14.115,64.891 15.24,65.364C16.365,65.836 17.302,66.544 18.052,67.489L15.802,70.155C14.747,68.766 13.33,68.072 11.552,68.072C11.025,68.072 10.504,68.162 9.99,68.343C9.476,68.523 9.011,68.815 8.594,69.218C8.177,69.62 7.844,70.127 7.594,70.739C7.344,71.35 7.219,72.086 7.219,72.947C7.219,73.697 7.337,74.343 7.573,74.884C7.809,75.426 8.129,75.912 8.532,76.343C8.934,76.773 9.4,77.162 9.927,77.509C10.455,77.857 11.025,78.183 11.636,78.489C12.414,78.877 13.177,79.315 13.927,79.801C14.677,80.287 15.358,80.864 15.969,81.53C16.58,82.197 17.073,82.982 17.448,83.884C17.823,84.787 18.011,85.836 18.011,87.03C18.011,87.497 17.985,87.947 17.934,88.382L14.265,88.382Z" style="fill-rule:nonzero;"/>
        </g>
        <g transform="matrix(1.19683,0,0,1,-1.59206,0)">
            <rect x="4.055" y="55.913" width="4.034" height="2.207"/>
        </g>
    </g>
</svg>
