<?xml version="1.0" encoding="UTF-8" standalone="no"?>
<!DOCTYPE svg PUBLIC "-//W3C//DTD SVG 1.1//EN" "http://www.w3.org/Graphics/SVG/1.1/DTD/svg11.dtd">
<svg width="100%" height="100%" viewBox="0 0 100 100" version="1.1" xmlns="http://www.w3.org/2000/svg" xmlns:xlink="http://www.w3.org/1999/xlink" xml:space="preserve" xmlns:serif="http://www.serif.com/" style="fill-rule:evenodd;clip-rule:evenodd;stroke-linejoin:round;stroke-miterlimit:1.41421;">
    <g id="studies">
        <path d="M1.716,35.296L98.843,35.296L98.843,64.918L1.716,64.918L1.716,35.296ZM86.656,59.103C85.483,59.103 83.982,58.847 82.155,58.335L82.155,55.878C84.124,56.792 85.742,57.248 87.011,57.248C87.987,57.248 88.773,56.992 89.367,56.481C89.962,55.969 90.259,55.295 90.259,54.46C90.259,53.775 90.064,53.192 89.675,52.712C89.285,52.231 88.566,51.696 87.519,51.105L86.313,50.408C84.825,49.558 83.775,48.756 83.165,48.004C82.555,47.252 82.249,46.376 82.249,45.375C82.249,44.029 82.738,42.92 83.714,42.05C84.691,41.179 85.935,40.744 87.448,40.744C88.794,40.744 90.216,40.969 91.713,41.418L91.713,43.686C89.87,42.961 88.495,42.599 87.589,42.599C86.731,42.599 86.022,42.827 85.463,43.284C84.904,43.741 84.624,44.316 84.624,45.009C84.624,45.592 84.829,46.108 85.238,46.557C85.648,47.006 86.396,47.541 87.483,48.163L88.735,48.872C90.248,49.731 91.303,50.542 91.902,51.306C92.5,52.07 92.799,52.988 92.799,54.059C92.799,55.579 92.238,56.8 91.116,57.721C89.994,58.643 88.507,59.103 86.656,59.103ZM12.065,59.103C10.892,59.103 9.392,58.847 7.564,58.335L7.564,55.878C9.533,56.792 11.152,57.248 12.42,57.248C13.397,57.248 14.182,56.992 14.777,56.481C15.371,55.969 15.669,55.295 15.669,54.46C15.669,53.775 15.474,53.192 15.084,52.712C14.694,52.231 13.975,51.696 12.928,51.105L11.723,50.408C10.234,49.558 9.185,48.756 8.574,48.004C7.964,47.252 7.659,46.376 7.659,45.375C7.659,44.029 8.147,42.92 9.124,42.05C10.1,41.179 11.345,40.744 12.857,40.744C14.204,40.744 15.625,40.969 17.122,41.418L17.122,43.686C15.279,42.961 13.905,42.599 12.999,42.599C12.14,42.599 11.431,42.827 10.872,43.284C10.313,43.741 10.033,44.316 10.033,45.009C10.033,45.592 10.238,46.108 10.648,46.557C11.057,47.006 11.806,47.541 12.892,48.163L14.145,48.872C15.657,49.731 16.712,50.542 17.311,51.306C17.909,52.07 18.209,52.988 18.209,54.059C18.209,55.579 17.648,56.8 16.525,57.721C15.403,58.643 13.916,59.103 12.065,59.103ZM36.405,41.181L33.924,41.181L33.924,52.192C33.924,54.547 34.444,56.288 35.484,57.414C36.523,58.54 38.134,59.103 40.316,59.103C42.458,59.103 44.019,58.56 45,57.473C45.981,56.386 46.471,54.649 46.471,52.263L46.471,41.181L44.297,41.181L44.297,52.298C44.297,54.094 44.008,55.368 43.429,56.12C42.85,56.872 41.867,57.248 40.481,57.248C39.063,57.248 38.03,56.849 37.38,56.049C36.73,55.25 36.405,53.972 36.405,52.216L36.405,41.181ZM68.519,58.666L68.519,41.181L66.038,41.181L66.038,58.666L68.519,58.666ZM81.846,58.666L81.846,56.811L74.049,56.811L74.049,50.479L80.157,50.479L80.157,48.648L74.049,48.648L74.049,43.036L81.338,43.036L81.338,41.181L71.568,41.181L71.568,58.666L81.846,58.666ZM55.191,41.181L49.379,41.181L49.379,58.666L55.226,58.666C58.015,58.666 60.177,57.867 61.712,56.268C63.248,54.669 64.016,52.417 64.016,49.51C64.016,47.116 63.398,45.186 62.161,43.721C61.382,42.8 60.458,42.146 59.391,41.76C58.324,41.374 56.924,41.181 55.191,41.181ZM33.06,43.036L33.06,41.181L18.175,41.181L18.175,43.036L24.377,43.036L24.377,58.666L26.858,58.666L26.858,43.036L33.06,43.036ZM53.903,43.036C55.597,43.036 56.865,43.168 57.707,43.432C58.55,43.696 59.275,44.186 59.881,44.903C60.881,46.076 61.382,47.691 61.382,49.747C61.382,51.936 60.874,53.681 59.858,54.98C58.912,56.201 57.306,56.811 55.037,56.811L51.859,56.811L51.859,43.036L53.903,43.036Z" style="fill:rgb(178,179,183);"/>
    </g>
</svg>
