<?xml version="1.0" encoding="UTF-8" standalone="no"?>
<!DOCTYPE svg PUBLIC "-//W3C//DTD SVG 1.1//EN" "http://www.w3.org/Graphics/SVG/1.1/DTD/svg11.dtd">
<svg width="100%" height="100%" viewBox="0 0 100 100" version="1.1" xmlns="http://www.w3.org/2000/svg" xmlns:xlink="http://www.w3.org/1999/xlink" xml:space="preserve" xmlns:serif="http://www.serif.com/" style="fill-rule:evenodd;clip-rule:evenodd;stroke-linejoin:round;stroke-miterlimit:1.41421;">
    <g id="tin">
        <g transform="matrix(1.17168,0,0,1.17168,-16.9619,-9.15576)">
            <path d="M75.954,31.599C75.954,31.599 78.678,32.239 80.658,32.98C87.568,35.566 95.778,40.735 91.897,47.993C91.242,49.218 89.845,50.719 89.845,50.719C89.763,50.839 89.68,50.958 89.596,51.077C82.57,60.854 69.876,65.369 58.33,69.317C52.636,71.264 46.875,73.006 41.121,74.765C41.121,74.765 40.508,74.863 40.203,74.479C39.859,74.046 40.072,73.346 40.622,73.132C55.337,68.636 71.022,64.709 82.425,55.922C84.726,54.149 86.834,52.094 88.479,49.694C88.479,49.694 91.487,46.732 91.064,43.793C90.794,41.914 89.54,40.336 88.231,39.058C88.231,39.058 85.041,36.725 81.826,35.3C79.857,34.427 77.8,33.762 75.7,33.282C75.7,33.282 74.183,31.598 75.954,31.599Z" style="fill:rgb(150,171,190);fill-opacity:0.870588;fill-rule:nonzero;"/>
        </g>
        <g transform="matrix(1.17168,0,0,1.17168,-16.9619,-9.15576)">
            <path d="M69.552,25.105C69.552,25.105 71.02,25.592 72.042,25.941C77.496,27.818 82.966,29.855 87.817,32.975C87.817,32.975 90.935,35.504 88.938,38.295C88.938,38.295 85.157,39.893 81.62,40.807C67.796,44.382 53.344,44.931 39.282,44.514C39.282,44.514 38.669,44.41 38.504,43.949C37.924,42.334 42.114,42.908 45.639,42.916C59.824,42.949 74.245,42.007 87.537,37.192C87.537,37.192 87.982,36.755 88.01,36.207C88.058,35.283 86.856,34.387 86.856,34.387C81.441,30.904 75.236,28.823 69.128,26.754C69.128,26.754 67.79,24.924 69.552,25.105Z" style="fill:rgb(150,171,190);fill-opacity:0.870588;fill-rule:nonzero;"/>
        </g>
        <g transform="matrix(1.17168,0,0,1.17168,-16.9619,-9.15576)">
            <path d="M62.52,22.233C70.68,24.156 78.668,26.854 86.17,30.621C86.17,30.621 90.013,33.238 89.54,36.491C89.353,37.777 88.593,38.948 87.687,39.923C87.687,39.923 85.886,41.094 84.402,41.929C71.503,49.184 56.764,52.646 41.981,53.802C41.981,53.802 41.605,53.79 41.424,53.555C41.145,53.193 41.384,52.606 41.881,52.526C57.492,51.305 73.121,47.427 86.516,39.196C86.516,39.196 88.558,37.459 88.277,35.436C88.062,33.889 86.817,32.723 85.658,31.826C85.658,31.826 83.476,30.709 81.746,29.935C75.474,27.132 68.907,25.053 62.227,23.479C62.227,23.479 61.932,23.376 61.816,23.17C61.578,22.749 61.919,22.143 62.52,22.233Z" style="fill:rgb(100,151,195);fill-rule:nonzero;"/>
        </g>
        <g transform="matrix(1.17168,0,0,1.17168,-16.9619,-9.15576)">
            <path d="M77.971,66.108C78.443,66.144 78.513,66.302 78.625,66.455C78.904,66.833 78.8,67.406 78.391,67.684L66.209,75.325C65.434,75.771 64.319,74.547 65.302,73.879L77.484,66.238C77.625,66.157 77.659,66.108 77.971,66.108Z" style="fill:rgb(150,171,190);fill-opacity:0.870588;fill-rule:nonzero;"/>
        </g>
        <g transform="matrix(1.17168,0,0,1.17168,-16.9619,-9.15576)">
            <path d="M77.644,22.778C78.306,22.871 78.32,22.968 78.588,23.067C82.219,24.441 85.687,26.388 88.268,29.299C88.93,29.987 89.009,30.098 89.325,30.492C91.314,32.968 92.352,36.459 90.664,39.562C88.435,43.658 83.229,46.89 78.706,49.734C62.347,60.021 42.536,62.775 23.614,63.946C23.614,63.946 23.076,63.937 22.735,63.694C21.839,63.052 22.214,61.381 23.446,61.22C46.384,59.801 70.398,56.024 86.543,40.109C87.224,39.438 88.16,38.441 88.16,38.441C89.555,36.095 88.073,33.037 86.261,31.152C85.51,30.304 85.248,30.078 84.691,29.6C82.479,27.701 79.807,26.405 77.083,25.425C77.083,25.425 74.943,22.767 77.644,22.778Z" style="fill:rgb(100,151,195);fill-rule:nonzero;"/>
        </g>
        <g transform="matrix(1.17168,0,0,1.17168,-16.9619,-9.15576)">
            <path d="M74.159,35.967C74.677,36.062 74.676,36.061 75.189,36.143C79.821,36.849 84.583,36.771 88.89,38.849C91.714,40.211 92.862,45.895 90.086,49.424C80,62.244 60.339,65.68 43.009,70.952C37.352,72.679 31.721,74.502 26.165,76.553C26.165,76.553 25.559,76.703 25.147,76.496C24.276,76.059 24.257,74.61 25.278,74.151C40.776,68.428 57.422,65.045 72.296,58.688C78.342,56.104 84.292,52.903 88.281,47.573C89.624,45.72 89.841,42.547 88.214,41.375C88.214,41.375 81.522,39.435 76.854,38.942C74.683,38.702 71.32,37.989 73.033,36.312C73.282,36.068 73.445,35.886 74.159,35.967Z" style="fill:rgb(100,151,195);fill-rule:nonzero;"/>
        </g>
        <g transform="matrix(1.17168,0,0,1.17168,9.07743,-9.17095)">
            <path d="M54.472,30.316C60.171,31.111 65.573,34.212 68.981,38.805C71.664,42.421 71.083,46.044 70.31,49.228C70.095,50.11 69.547,51.157 69.547,51.157C59.622,64.495 42.073,70.037 26.026,76.15C26.026,76.15 23.818,75.299 25.418,74.555C26.267,74.231 27.115,73.908 27.964,73.583C42.681,67.932 58.398,63.144 68.006,50.368C68.006,50.368 70.57,43.645 67.441,39.599C64.275,35.505 59.387,32.726 54.236,32.006C54.236,32.006 52.711,30.197 54.472,30.316Z" style="fill:rgb(100,151,195);fill-rule:nonzero;"/>
        </g>
        <g transform="matrix(1.17168,0,0,1.17168,-16.9619,-9.15576)">
            <path d="M78.703,38.737C84.661,38.806 93.078,40.682 90.695,45.85C90.368,46.559 89.642,47.421 89.642,47.421C89.268,47.811 89.11,47.847 88.841,48.048C74.216,58.84 56.108,64.235 38.003,67.665C38.003,67.665 37.344,67.904 36.919,67.614C36.363,67.233 36.537,66.261 37.243,66.07C54.109,62.908 70.853,58.218 85.137,48.579C85.479,48.348 85.818,48.115 86.156,47.878C86.493,47.643 86.828,47.404 87.162,47.163C88.401,46.265 88.302,46.608 88.984,45.442C90.806,42.324 82.048,39.955 74.956,40.624C74.956,40.624 71.194,38.89 77.859,38.742C78.14,38.738 78.422,38.737 78.703,38.737Z" style="fill:rgb(100,151,195);fill-rule:nonzero;"/>
        </g>
        <g transform="matrix(1.17168,0,0,1.17168,-16.9619,-9.15576)">
            <path d="M91.867,52.975C94.691,53.23 89.842,60.54 84.619,63.75C84.619,63.75 84.009,63.996 83.627,63.679C82.685,62.898 84.89,61.65 86.323,60.433C88.466,58.613 90.122,56.237 91.008,53.559C91.008,53.559 91.218,52.958 91.867,52.975Z" style="fill:rgb(150,171,190);fill-opacity:0.870588;fill-rule:nonzero;"/>
        </g>
        <g transform="matrix(1.17168,0,0,1.17168,-16.9619,-9.15576)">
            <path d="M66.161,70.613C67.659,70.871 66.921,71.987 66.398,72.245L42.422,82.539C41.56,82.857 40.671,81.501 41.748,80.97L65.724,70.676C65.897,70.612 65.949,70.599 66.161,70.613Z" style="fill:rgb(150,171,190);fill-rule:nonzero;"/>
        </g>
        <g transform="matrix(1.17168,0,0,1.17168,-16.9619,-9.15576)">
            <path d="M65.248,36.653C66.288,36.66 67.326,36.746 68.351,36.915C68.351,36.915 69.007,37.081 69.009,37.565C69.012,38.369 67.616,38.05 66.333,37.969C64.361,37.845 62.382,38.058 60.447,38.472C60.447,38.472 59.309,38.192 59.782,37.489C59.971,37.208 60.355,37.181 60.697,37.112C62.196,36.819 63.714,36.652 65.248,36.653Z" style="fill:rgb(100,151,195);fill-rule:nonzero;"/>
        </g>
    </g>
</svg>
