<?xml version="1.0" encoding="UTF-8" standalone="no"?>
<!DOCTYPE svg PUBLIC "-//W3C//DTD SVG 1.1//EN" "http://www.w3.org/Graphics/SVG/1.1/DTD/svg11.dtd">
<svg width="100%" height="100%" viewBox="0 0 100 100" version="1.1" xmlns="http://www.w3.org/2000/svg" xmlns:xlink="http://www.w3.org/1999/xlink" xml:space="preserve" xmlns:serif="http://www.serif.com/" style="fill-rule:evenodd;clip-rule:evenodd;stroke-linejoin:round;stroke-miterlimit:1.41421;">
    <g id="trialstoday">
        <path d="M50.53,5.331C50.987,5.405 51.103,5.443 51.515,5.655L84.905,25.098C87.049,26.46 88.703,28.707 88.77,31.288L88.77,66.834C88.678,69.413 87.565,71.888 85.649,73.596C85.649,73.596 85.669,73.626 85.196,73.936L51.369,93.995C50.183,94.616 49.969,94.587 48.836,94.005C37.547,87.43 26.187,80.973 14.969,74.278C12.7,72.888 11.104,70.523 10.775,67.879L10.747,67.486L10.747,32.333C10.912,29.213 12.942,26.373 15.557,24.723L49.019,5.644C49.019,5.644 49.15,5.252 50.53,5.331ZM18.25,28.936C17.076,29.787 15.956,30.958 15.749,32.453C14.342,43.997 15.747,55.713 15.747,67.343C15.89,68.488 16.658,69.478 17.688,70.077L50.083,88.945L82.44,69.757C83.264,69.003 83.717,67.911 83.769,66.777C84.189,54.964 84.764,43.094 83.767,31.315C83.672,30.4 82.217,29.319 82.217,29.319C73.195,23.072 59.936,15.304 54.57,12.17C48.589,8.677 51.842,8.728 45.818,12.15C40.226,15.325 29.332,21.695 18.25,28.936Z" style="fill:rgb(0,144,125);fill-rule:nonzero;"/>
        <g transform="matrix(1,0,0,-1,0,100.685)">
            <path d="M62.048,49.98C63.771,49.813 63.736,49.342 64.102,48.634C64.596,47.679 64.815,47.293 63.565,45.535C62.795,44.47 61.982,43.435 61.096,42.466C57.419,38.438 51.664,35.415 46.028,37.61C41.986,39.185 38.518,42.377 36.499,46.001C35.346,48.07 38.721,51.248 40.704,48.689C41.633,47.413 41.823,47.199 42.403,46.528C42.724,46.156 43.055,45.793 43.398,45.442C43.688,45.145 43.985,44.857 44.293,44.58C44.526,44.369 44.765,44.165 45.01,43.969C47.364,42.079 50.81,41.179 53.665,42.75C56.202,44.146 58.139,46.496 59.833,48.918C59.833,48.918 60.85,50.024 62.048,49.98Z" style="fill:rgb(246,141,57);fill-rule:nonzero;"/>
        </g>
        <g transform="matrix(1,0,0,-1,0,100.685)">
            <path d="M49.517,40.421C55.333,40.319 60.068,35.02 62.561,30.144C63.102,29.085 63.586,27.997 64.021,26.89C64.599,25.42 64.462,23.559 62.919,22.929C59.599,21.573 58.292,28.285 55.954,31.326C55.699,31.658 55.432,31.981 55.152,32.293C54.944,32.524 54.729,32.748 54.506,32.965C52.132,35.275 47.969,36.175 45.058,33.468C42.556,31.141 41.112,27.794 40.068,24.454C40.068,24.454 39.52,23.13 38.378,22.799C36.502,22.255 34.666,24.022 35.506,26.606C36.051,28.249 36.691,29.86 37.477,31.397C37.716,31.866 37.969,32.328 38.236,32.781C40.52,36.652 44.122,40.206 49.064,40.416C49.215,40.42 49.366,40.422 49.517,40.421Z" style="fill:rgb(246,141,57);fill-rule:nonzero;"/>
        </g>
        <g transform="matrix(1,0,0,1,0.677516,0.153981)">
            <ellipse cx="49.531" cy="50.395" rx="4.024" ry="3.536" style="fill:rgb(246,141,57);"/>
        </g>
        <g transform="matrix(1,0,0,1,0.677516,0.153981)">
            <path d="M49.674,45.111C53.487,45.238 57.08,49.57 54.334,53.332C51.57,57.119 43.428,55.946 43.765,50.112C43.929,47.278 46.501,45.076 49.674,45.111ZM49.466,48.61C48.33,48.648 47.072,49.451 47.278,50.633C47.723,53.19 53.831,51.85 51.327,49.31C50.848,48.825 50.293,48.601 49.466,48.61Z" style="fill:rgb(246,141,57);fill-rule:nonzero;"/>
        </g>
        <path d="M37.772,22.702C41.89,22.976 40.885,31.944 47.083,34.876C50.511,36.499 54.514,33.366 56.351,30.79C57.749,28.829 58.787,26.633 59.631,24.369C59.631,24.369 61.435,21.922 63.328,23.142C66.625,25.267 62.085,31.644 59.713,34.637C56.592,38.574 51.371,41.59 46.232,39.91C40.718,38.108 37.272,32.208 35.364,26.163C34.858,24.561 35.694,22.81 37.618,22.701C37.669,22.701 37.72,22.701 37.772,22.702Z" style="fill:rgb(0,144,125);fill-rule:nonzero;"/>
        <path d="M50.348,36.795C56.133,36.878 60.864,41.669 63.93,46.053C63.93,46.053 64.58,47.207 64.273,48.215C63.741,49.957 61.078,50.589 59.833,48.918C59.668,48.682 59.668,48.683 59.501,48.448C57.016,45.011 53.813,41.369 49.591,41.831C45.62,42.265 42.86,45.728 40.704,48.689C40.704,48.689 39.325,50.076 37.879,49.586C36.387,49.079 35.639,47.244 36.661,45.747C37.648,44.391 37.829,44.19 38.419,43.493C38.806,43.036 39.205,42.59 39.619,42.158C42.447,39.198 45.951,36.779 50.348,36.795Z" style="fill:rgb(0,144,125);fill-rule:nonzero;"/>
    </g>
</svg>
