<?xml version="1.0" encoding="UTF-8" standalone="no"?>
<!DOCTYPE svg PUBLIC "-//W3C//DTD SVG 1.1//EN" "http://www.w3.org/Graphics/SVG/1.1/DTD/svg11.dtd">
<svg width="100%" height="100%" viewBox="0 0 100 100" version="1.1" xmlns="http://www.w3.org/2000/svg" xmlns:xlink="http://www.w3.org/1999/xlink" xml:space="preserve" xmlns:serif="http://www.serif.com/" style="fill-rule:evenodd;clip-rule:evenodd;stroke-linejoin:round;stroke-miterlimit:1.41421;">
    <g id="vcc">
        <path d="M51.083,20.114C60.428,20.202 69.124,24.856 75.613,32.187C77.941,34.817 74.704,37.182 72.456,34.656C64.808,26.157 52.94,21.439 41.274,26.145C31.983,29.892 26.164,39.62 24.64,49.965C24.64,49.965 26.142,61.3 31.296,67.318C36.043,72.861 43.688,75.247 51.185,75.379C51.185,75.379 52.976,75.296 54.45,75.113C62.951,74.059 71.444,69.696 74.97,60.563C74.97,60.563 76.14,58.871 77.557,59.418C80.33,60.489 77.471,65.807 74.363,69.546C67.487,77.816 54.729,80.383 45.213,78.89C37.439,77.67 30.137,73.561 25.806,66.555C22.818,61.722 21.331,56.087 20.645,50.516C20.645,50.516 21.287,44.485 23.24,39.562C27.477,28.878 37.685,21.226 49.656,20.137C50.131,20.121 50.607,20.113 51.083,20.114Z" style="fill:rgb(226,184,0);fill-rule:nonzero;"/>
        <path d="M51.008,12.75C55.773,12.782 60.513,13.615 65.097,15.001C67.361,15.685 67.266,19.823 63.56,18.716C49.583,14.65 34.422,18.064 23.866,29.295C23.866,29.295 22.613,30.233 21.557,29.735C20.43,29.204 20.086,27.565 20.952,26.556C21.23,26.26 21.229,26.26 21.51,25.966C29.103,18.12 39.244,12.879 50.444,12.751C50.632,12.75 50.82,12.75 51.008,12.75Z" style="fill:rgb(226,184,0);fill-rule:nonzero;"/>
        <path d="M15.504,47.889C16.486,48.003 17.267,48.801 17.353,49.791C17.368,50.131 17.368,50.131 17.387,50.471C18.197,63.704 26.801,75.259 39.578,81.015C39.578,81.015 40.821,81.825 40.752,82.96C40.662,84.446 39.205,85.247 37.209,84.332C26.876,79.509 18.129,71.127 14.942,60.051C14.032,56.89 13.539,53.629 13.374,50.336C13.353,49.915 13.715,47.828 15.504,47.889Z" style="fill:rgb(226,184,0);fill-rule:nonzero;"/>
        <path d="M85.329,59.352C86.185,59.412 86.236,59.58 86.489,59.779C88.106,61.054 86.406,64.18 85.013,66.866C81.215,74.191 74.799,80.014 67.231,83.434C67.231,83.434 65.82,83.827 65.016,83.048C63.903,81.97 64.401,80.356 66.4,79.411C74.199,75.671 80.302,68.995 83.374,60.659C83.374,60.659 84.031,59.416 85.203,59.351C85.245,59.351 85.287,59.351 85.329,59.352Z" style="fill:rgb(226,184,0);fill-rule:nonzero;"/>
        <path d="M61.311,6.092C61.915,6.163 61.943,6.217 62.206,6.281C74.941,9.455 85.453,18.526 92.267,30.27C93.27,31.999 92.121,34.678 90.038,33.698C89.348,33.374 88.992,32.595 88.634,31.981C82.41,21.44 72.811,12.883 60.698,10.033C60.698,10.033 57.984,8.106 59.885,6.542C60.253,6.239 60.501,6.06 61.311,6.092Z" style="fill:rgb(226,184,0);fill-rule:nonzero;"/>
        <path d="M40.581,5.952C42.689,6.114 43.622,9.094 39.861,10.21C33.02,12.268 26.673,15.901 21.682,21.066C21.682,21.066 20.782,21.829 19.841,21.636C18.45,21.35 17.652,19.558 18.805,18.287C19.052,18.031 19.052,18.032 19.301,17.778C24.907,12.162 32.073,8.227 39.753,6.078C39.753,6.078 39.895,5.942 40.581,5.952Z" style="fill:rgb(226,184,0);fill-rule:nonzero;"/>
        <path d="M13.571,25.83C14.562,25.929 14.626,26.164 14.896,26.447C16.421,28.047 13.773,31.225 12.525,34.406C9.768,41.436 9.07,49.197 10.175,56.743C10.175,56.743 10.034,58.671 8.633,58.985C6.45,59.473 5.923,55.741 5.741,52.828C5.187,43.92 7.171,34.995 11.581,27.068C11.991,26.331 12.665,25.809 13.571,25.83Z" style="fill:rgb(226,184,0);fill-rule:nonzero;"/>
        <path d="M12.486,67.056C13.77,67.278 13.588,67.364 14.368,68.681C19.051,76.442 26.02,82.798 34.258,86.506C49.977,93.581 70.581,91.631 82.226,76.954C82.226,76.954 83.601,75.819 84.745,76.438C87.514,77.937 82.457,83.37 77.551,86.824C76.49,87.571 75.392,88.264 74.262,88.902C57.114,98.583 33.72,94.928 19.278,81.196C15.936,78.019 13.055,74.344 10.732,70.39C10.299,69.654 10.274,66.936 12.486,67.056Z" style="fill:rgb(226,184,0);fill-rule:nonzero;"/>
    </g>
</svg>
